<?xml version="1.0" encoding="UTF-8"?>
<svg version="1.1" xmlns="http://www.w3.org/2000/svg" width="512" height="512">
<path d="M0 0 C8.59808656 7.27733054 14.3906562 16.02918309 20.375 25.4375 C21.3037949 26.87815118 22.2335735 28.31816862 23.16430664 29.75756836 C25.40276024 33.22615981 27.62673363 36.70370561 29.84393311 40.18591309 C31.40171883 42.63037259 32.96893069 45.06875469 34.53515625 47.5078125 C36.88923504 51.18943109 39.20956111 54.89058719 41.51074219 58.60546875 C42.60154719 60.35934014 43.6995849 62.10871883 44.80175781 63.85546875 C46.73358659 66.91738306 48.64927824 69.98893218 50.5625 73.0625 C51.15925537 74.00295166 51.75601074 74.94340332 52.37084961 75.91235352 C59.36197215 87.24209926 62.28430493 98.79160905 59.30859375 112.08984375 C54.3307423 126.94008678 43.78688472 135.64601842 30.8125 143.625 C28.88272713 144.83319699 26.95304236 146.04153471 25.0234375 147.25 C24.03698242 147.86359375 23.05052734 148.4771875 22.03417969 149.109375 C16.98546767 152.25527345 11.96093503 155.4389549 6.9375 158.625 C6.01622314 159.20459473 5.09494629 159.78418945 4.14575195 160.38134766 C-4.96751071 165.48814507 -4.96751071 165.48814507 -10 174 C-9.81268577 181.37855166 -7.03262657 186.02596499 -3.0625 192.125 C-2.47637939 193.04716309 -1.89025879 193.96932617 -1.28637695 194.91943359 C3.55434122 202.4719815 8.66793032 209.78927364 14 217 C15.33369215 218.85390859 16.66704109 220.70806415 18 222.5625 C28.87656366 237.45535962 40.25842987 252.08518199 52.80078125 265.6171875 C54.76950891 267.7502672 56.67404174 269.92107846 58.5625 272.125 C61.82152647 275.88364138 65.33190623 279.35061458 68.875 282.83984375 C70.71141797 284.70664364 72.39968619 286.60522345 74.0625 288.625 C76.72871799 291.81860177 79.70769989 294.43759385 82.875 297.125 C85.13139303 299.11593503 87.21511543 301.21769016 89.3125 303.375 C93.38986044 307.50840663 97.73910235 311.14128188 102.26953125 314.765625 C104.81300169 316.84697706 107.21957253 319.01201315 109.625 321.25 C116.06912856 327.11949289 123.05694001 332.27985857 130.02099609 337.50878906 C131.68528214 338.76285509 133.33815801 340.03204343 134.98828125 341.3046875 C147.82858408 351.15325551 161.37562863 360.15287088 175 368.875 C175.62745117 369.28548584 176.25490234 369.69597168 176.90136719 370.11889648 C180.5868358 372.43667137 183.64320761 373.70587056 188 374 C198.64412646 371.29058599 203.24070543 360.13053967 208.52148438 351.37109375 C212.16609734 345.32805841 215.9163897 339.36242308 219.75 333.4375 C220.26836426 332.62949951 220.78672852 331.82149902 221.32080078 330.98901367 C229.95950223 317.69374783 238.49492145 308.24805687 254.46875 304.40625 C276.45109342 300.87821957 293.51179428 314.74887947 310.96875 326.04541016 C314.10618497 328.06846946 317.2545428 330.07347467 320.40625 332.07421875 C368.50583975 362.62606363 368.50583975 362.62606363 374.375 386.12890625 C378.46278396 411.44761816 367.74816316 433.3261377 353.43359375 453.671875 C335.55662131 478.37769491 313.11211456 495.17272107 282.796875 500.5703125 C262.55259952 502.86133133 243.61787038 499.94144627 224 495 C222.91299805 494.72736328 221.82599609 494.45472656 220.70605469 494.17382812 C195.60236346 487.74962485 171.44913039 479.00443835 148 468 C147.01322266 467.53754883 146.02644531 467.07509766 145.00976562 466.59863281 C123.05577662 456.20051739 101.92331494 443.90383651 82 430 C80.65237991 429.0728641 79.30472187 428.14578336 77.95703125 427.21875 C63.73608521 417.36957371 50.08266531 406.80263333 36.96484375 395.52734375 C34.05753648 393.04904625 31.10127699 390.64475204 28.125 388.25 C24.45211975 385.26279493 21.04551374 382.17922973 17.76782227 378.7668457 C16.07030715 377.07026832 14.31505468 375.52336398 12.484375 373.97265625 C7.57073158 369.70119755 2.97279847 365.12345357 -1.6184082 360.51196289 C-3.06025221 359.06475615 -4.50737116 357.62297974 -5.95507812 356.18164062 C-11.18341138 350.95705629 -16.19676317 345.6171524 -21 340 C-22.45445517 338.39231627 -23.91220895 336.78760285 -25.375 335.1875 C-30.10233313 329.93579043 -34.5999471 324.52732593 -39 319 C-39.50660156 318.36594238 -40.01320313 317.73188477 -40.53515625 317.07861328 C-84.63450071 261.70683 -118.25674279 198.19787322 -134 129 C-134.1949707 128.17902832 -134.38994141 127.35805664 -134.59082031 126.51220703 C-140.8530985 99.58920033 -138.93679208 70.10936496 -125 46 C-122.31067658 41.75004514 -119.22480194 37.85486982 -116 34 C-115.08154297 32.83791016 -115.08154297 32.83791016 -114.14453125 31.65234375 C-87.98899628 0.03147311 -37.35094271 -26.09503407 0 0 Z " fill="#FC628E" transform="translate(137,11)"/>
<path d="M0 0 C4.82917798 2.80066148 8.40701995 5.70052522 11.375 10.4375 C11.78492188 11.05882812 12.19484375 11.68015625 12.6171875 12.3203125 C16.31993139 19.03632382 17.04495809 27.98743206 15.375 35.4375 C11.51161038 46.05359198 4.62434247 53.01491247 -3.23974609 60.73339844 C-4.5226932 62.01464974 -5.8043139 63.29723034 -7.0847168 64.58102417 C-10.5378943 68.03591173 -14.0091544 71.47208198 -17.48414564 74.90500927 C-21.12244066 78.50560472 -24.74356843 82.12338458 -28.36660767 85.73931885 C-35.21803864 92.57215736 -42.08460894 99.38956636 -48.9568516 106.20146585 C-56.784949 113.96232365 -64.59586301 121.74037925 -72.40543246 129.5198741 C-88.45967232 145.5115258 -104.53520258 161.48163016 -120.625 177.4375 C-119.43535645 177.45731934 -118.24571289 177.47713867 -117.02001953 177.49755859 C-112.56555611 177.57418608 -108.11139529 177.66281087 -103.65722656 177.75488281 C-101.73704037 177.79293823 -99.81678856 177.82782996 -97.89648438 177.859375 C-95.12085669 177.90553929 -92.34567175 177.96344339 -89.5703125 178.0234375 C-88.30249435 178.04076431 -88.30249435 178.04076431 -87.00906372 178.05844116 C-76.49385423 178.31320899 -67.43151669 179.78255905 -59.6796875 187.33203125 C-52.902011 194.74777353 -50.1920367 201.6923363 -50.35546875 211.69140625 C-51.27193176 221.02870325 -55.60836752 228.33442546 -62.625 234.4375 C-67.77260623 237.74995249 -72.7460158 239.55698931 -78.85377502 239.58467102 C-79.93728745 239.59182632 -81.02079987 239.59898163 -82.137146 239.60635376 C-83.32624573 239.60904266 -84.51534546 239.61173157 -85.74047852 239.61450195 C-86.99281784 239.62107315 -88.24515717 239.62764435 -89.53544617 239.63441467 C-93.69160195 239.65416974 -97.84771909 239.66581947 -102.00390625 239.67578125 C-103.43724016 239.67983004 -104.87057388 239.683947 -106.30390739 239.68813133 C-113.04218617 239.70718436 -119.78045401 239.72141213 -126.51875454 239.7297433 C-134.28125306 239.73950039 -142.04346525 239.7657791 -149.80586296 239.80624419 C-155.81452497 239.83648483 -161.82310531 239.85121989 -167.83184189 239.85452431 C-171.41599896 239.85686682 -174.99985024 239.86572119 -178.58392525 239.89098549 C-182.59071728 239.91877206 -186.59687727 239.91441095 -190.60375977 239.9074707 C-192.36615494 239.92668579 -192.36615494 239.92668579 -194.16415405 239.94628906 C-202.46163381 239.89406507 -209.38376247 238.48709073 -216.2109375 233.578125 C-222.36896815 227.07051183 -226.73022003 220.4304638 -226.77217102 211.24668884 C-226.77932632 210.17159058 -226.78648163 209.09649231 -226.79385376 207.98881531 C-226.79654266 206.80906631 -226.79923157 205.62931732 -226.80200195 204.41381836 C-226.80857315 203.1712326 -226.81514435 201.92864685 -226.82191467 200.64840698 C-226.84166933 196.5247168 -226.85331947 192.40106556 -226.86328125 188.27734375 C-226.86733007 186.85515384 -226.87144703 185.43296413 -226.87563133 184.01077461 C-226.89468429 177.32482159 -226.90891204 170.63887959 -226.9172433 163.95290464 C-226.92700016 156.25096565 -226.9532783 148.54931525 -226.99374419 140.84747785 C-227.02398617 134.88552458 -227.03872001 128.9236536 -227.04202431 122.96162516 C-227.04436668 119.40541273 -227.05321921 115.84950853 -227.07848549 112.29337883 C-227.10627438 108.31780844 -227.10191041 104.34261174 -227.0949707 100.36694336 C-227.10778076 99.20136398 -227.12059082 98.03578461 -227.13378906 96.83488464 C-227.06992232 86.76496641 -224.67615157 78.64771895 -217.69140625 71.1953125 C-209.69054989 64.38929102 -200.8184143 62.70246468 -190.625 63.4375 C-182.72822259 64.83709144 -175.7466442 69.13859339 -171.01953125 75.6484375 C-166.42545664 83.5432402 -165.32305414 90.75520897 -165.2109375 99.74609375 C-165.19157135 100.71281509 -165.1722052 101.67953644 -165.1522522 102.67555237 C-165.09280809 105.74194713 -165.04621231 108.80838016 -165 111.875 C-164.96178783 113.96290636 -164.92273424 116.0507975 -164.8828125 118.13867188 C-164.78713562 123.23815662 -164.70297545 128.33771511 -164.625 133.4375 C-163.96607632 132.77304556 -163.30715263 132.10859112 -162.62826157 131.42400169 C-146.56890697 115.23124513 -130.49211417 99.0559627 -114.39706039 82.89868736 C-106.61389771 75.08463234 -98.83642647 67.26506852 -91.07226562 59.43212891 C-84.30228092 52.60220122 -77.52169239 45.78300969 -70.72834611 38.97631514 C-67.13414856 35.37431921 -63.54535725 31.76729549 -59.96923065 28.14735031 C-56.59735412 24.73449792 -53.21138647 21.33626802 -49.81447983 17.94833374 C-48.57578352 16.70799795 -47.34215001 15.46258007 -46.11426926 14.21153641 C-33.20505949 1.07102903 -18.60632506 -8.56444987 0 0 Z " fill="#FC628D" transform="translate(496.625,2.5625)"/>
</svg>
