<?xml version="1.0" encoding="UTF-8"?>
<svg version="1.1" xmlns="http://www.w3.org/2000/svg" width="512" height="512">
<path d="M0 0 C0.70916571 -0.00453111 1.41833142 -0.00906223 2.148987 -0.01373065 C4.51945057 -0.02636598 6.88968414 -0.02475486 9.26017761 -0.02310181 C10.96220189 -0.02908763 12.66422346 -0.0358933 14.36624146 -0.04345703 C18.98618443 -0.06111944 23.6060533 -0.06581253 28.22602677 -0.0670886 C31.11382393 -0.0685107 34.00160228 -0.07278144 36.88939476 -0.07808304 C46.96807933 -0.0965846 57.046711 -0.10475355 67.12541199 -0.10317993 C76.51340452 -0.10197872 85.90116708 -0.1230767 95.28910142 -0.15466726 C103.35466428 -0.18083875 111.42015207 -0.19154685 119.48575705 -0.19026911 C124.30050122 -0.18975971 129.11504102 -0.19543105 133.92974281 -0.21662521 C138.45982406 -0.23602211 142.98950631 -0.23612219 147.51960182 -0.22159195 C149.17879826 -0.2195045 150.83801977 -0.22420096 152.49717331 -0.23631287 C169.57438671 -0.35286679 169.57438671 -0.35286679 177.08903503 6.23226929 C177.62786316 6.88324585 178.16669128 7.53422241 178.72184753 8.20492554 C179.27614441 8.85332397 179.83044128 9.50172241 180.40153503 10.16976929 C183.43114005 14.56679062 184.09511197 18.32544934 184.07389832 23.61825562 C184.07365662 24.89672363 184.07341492 26.17519165 184.07316589 27.49240112 C184.06309686 28.84058836 184.05276383 30.18877365 184.04216003 31.53695679 C184.04014587 32.77038818 184.03813171 34.00381958 184.03605652 35.27462769 C184.02560269 39.87643154 183.99768012 44.47818232 183.97184753 49.07992554 C183.93059753 59.37180054 183.88934753 69.66367554 183.84684753 80.26742554 C204.96684753 80.26742554 226.08684753 80.26742554 247.84684753 80.26742554 C247.7282194 63.05012055 247.7282194 63.05012055 247.57658386 45.83309937 C247.5678206 43.67188969 247.56017628 41.51067506 247.55387878 39.34945679 C247.53085693 37.67127869 247.53085693 37.67127869 247.50737 35.959198 C247.50700745 34.88375732 247.5066449 33.80831665 247.50627136 32.70028687 C247.49627861 31.30463249 247.49627861 31.30463249 247.48608398 29.88078308 C248.26185165 24.26115138 252.05961157 20.54001412 256.23747253 17.03305054 C283.86658505 -1.66209745 327.85794537 -0.13829109 359.40934753 -0.04507446 C361.32914932 -0.04234024 361.32914932 -0.04234024 363.28773499 -0.03955078 C381.63545452 0.00447399 399.70974976 0.24067294 417.84684753 3.26742554 C418.94061707 3.44434937 420.0343866 3.62127319 421.16130066 3.80355835 C457.65054462 9.89210943 457.65054462 9.89210943 469.28434753 23.01742554 C471.85559925 26.72002801 471.98164981 28.83245548 472.01420593 33.33850098 C472.02569672 34.6338829 472.0371875 35.92926483 472.04902649 37.26390076 C472.05665193 38.707946 472.06412353 40.15199206 472.07145691 41.59603882 C472.08262981 43.11043034 472.09414306 44.62481939 472.10597229 46.13920593 C472.14256627 51.12201485 472.16775721 56.10484925 472.19059753 61.08773804 C472.1945434 61.93550733 472.19848927 62.78327662 472.2025547 63.6567359 C472.23898036 71.65302326 472.27042455 79.64931943 472.29166412 87.64566231 C472.31922792 97.87198879 472.36996563 108.09762082 472.45213842 118.32365811 C472.50796181 125.51441519 472.5369049 132.70498408 472.54613733 139.8959502 C472.55239082 144.19009956 472.57047489 148.48343511 472.61752319 152.77734756 C472.6612779 156.82089397 472.67165191 160.86318412 472.65689468 164.90692711 C472.65722264 166.38717493 472.66944566 167.86747772 472.69474411 169.34750938 C472.89785647 181.8975641 472.89785647 181.8975641 468.54154968 187.03594971 C462.77868822 192.5746872 456.20417729 195.90529006 448.65934753 198.32992554 C447.4938739 198.70661377 447.4938739 198.70661377 446.30485535 199.09091187 C421.1866866 206.89473608 394.00701255 208.87112165 367.84684753 208.26742554 C367.84684753 219.15742554 367.84684753 230.04742554 367.84684753 241.26742554 C369.49684753 241.92742554 371.14684753 242.58742554 372.84684753 243.26742554 C377.9682356 246.82238172 382.68873058 250.90340422 383.84684753 257.26742554 C384.59087061 265.15972093 385.01920448 272.83071468 379.84684753 279.26742554 C376.07876671 283.22082181 373.21347375 285.92576898 367.84684753 287.26742554 C367.84684753 298.15742554 367.84684753 309.04742554 367.84684753 320.26742554 C370.19809753 320.24647827 372.54934753 320.22553101 374.97184753 320.20394897 C382.75892886 320.13753349 390.54602301 320.09343216 398.33331299 320.06017685 C403.05265848 320.03934298 407.77171265 320.01110249 412.4908905 319.96566772 C417.0491063 319.92205959 421.60704267 319.89825686 426.16545105 319.88791656 C427.9005218 319.88055198 429.63557806 319.8661707 431.37052917 319.84450531 C433.80958045 319.81527142 436.24749172 319.81147772 438.68669128 319.81332397 C439.75161049 319.79175232 439.75161049 319.79175232 440.83804321 319.76974487 C447.25387068 319.82195388 452.31796926 322.05135277 457.08903503 326.23226929 C457.62786316 326.88324585 458.16669128 327.53422241 458.72184753 328.20492554 C459.27614441 328.85332397 459.83044128 329.50172241 460.40153503 330.16976929 C463.32328934 334.41026134 464.09769176 338.09949541 464.11427307 343.20573425 C464.12706802 344.99091713 464.12706802 344.99091713 464.14012146 346.81216431 C464.13921509 348.10942444 464.13830872 349.40668457 464.13737488 350.74325562 C464.14336251 352.13001364 464.1501686 353.51676834 464.1577301 354.90351868 C464.17537465 358.66398828 464.18008486 362.42436682 464.18136168 366.18487382 C464.18278484 368.53664165 464.1870576 370.88838644 464.19235611 373.24014854 C464.2108521 381.4514856 464.21902737 389.66275779 464.217453 397.87411499 C464.21625209 405.51711913 464.23734548 413.15984065 464.26894033 420.8027733 C464.2951313 427.37365886 464.3058191 433.94445229 464.30454218 440.51538962 C464.30403333 444.43589099 464.30967387 448.35614117 464.33089828 452.27659035 C464.3503282 455.96622617 464.3503732 459.65537246 464.33586502 463.34502602 C464.33279236 465.33540861 464.34942054 467.3257915 464.366745 469.31610107 C464.3091797 477.54078527 463.45567288 483.14920338 457.88200378 489.50961304 C457.23102722 490.04844116 456.58005066 490.58726929 455.90934753 491.14242554 C455.2609491 491.69672241 454.61255066 492.25101929 453.94450378 492.82211304 C449.28464731 496.03281489 445.29945611 496.52003503 439.69369507 496.53485107 C438.98452936 496.53938219 438.27536365 496.5439133 437.54470807 496.54858172 C435.1742445 496.56121705 432.80401093 496.55960593 430.43351746 496.55795288 C428.73149318 496.56393871 427.02947161 496.57074438 425.32745361 496.57830811 C420.70751064 496.59597051 416.08764177 496.60066361 411.46766829 496.60193968 C408.57987114 496.60336178 405.69209279 496.60763251 402.80430031 496.61293411 C392.72561574 496.63143568 382.64698407 496.63960463 372.56828308 496.63803101 C363.18029055 496.6368298 353.79252799 496.65792778 344.40459365 496.68951833 C336.33903079 496.71568982 328.273543 496.72639792 320.20793802 496.72512019 C315.39319385 496.72461078 310.57865405 496.73028212 305.76395226 496.75147629 C301.23387101 496.77087319 296.70418876 496.77097326 292.17409325 496.75644302 C290.51489681 496.75435558 288.8556753 496.75905203 287.19652176 496.77116394 C270.11930836 496.88771786 270.11930836 496.88771786 262.60466003 490.30258179 C262.06583191 489.65160522 261.52700378 489.00062866 260.97184753 488.32992554 C260.41755066 487.6815271 259.86325378 487.03312866 259.29216003 486.36508179 C248.96508381 471.37686576 255.84684753 445.72390839 255.84684753 432.26742554 C205.35684753 432.26742554 154.86684753 432.26742554 102.84684753 432.26742554 C102.18684753 433.91742554 101.52684753 435.56742554 100.84684753 437.26742554 C97.29189135 442.38881361 93.21086885 447.10930858 86.84684753 448.26742554 C78.95300801 449.01159418 71.28560619 449.4385986 64.84684753 444.26742554 C59.80163531 439.46293915 56.24121759 435.10565499 55.51091003 427.99789429 C55.41665065 419.44856826 55.74183199 413.57432709 61.75309753 407.26742554 C65.18917677 404.08777013 67.21409118 402.42561463 71.84684753 401.26742554 C71.84684753 395.65742554 71.84684753 390.04742554 71.84684753 384.26742554 C69.49559753 384.2883728 67.14434753 384.30932007 64.72184753 384.3309021 C56.93476621 384.39731759 49.14767206 384.44141892 41.36038208 384.47467422 C36.64103659 384.49550809 31.92198242 384.52374859 27.20280457 384.56918335 C22.64458877 384.61279149 18.08665239 384.63659422 13.52824402 384.64693451 C11.79317326 384.6542991 10.05811701 384.66868037 8.32316589 384.69034576 C5.88411462 384.71957966 3.44620335 384.72337335 1.00700378 384.7215271 C0.29705765 384.7359082 -0.41288849 384.75028931 -1.14434814 384.7651062 C-7.56017561 384.71289719 -12.6242742 382.48349831 -17.39533997 378.30258179 C-17.93416809 377.65160522 -18.47299622 377.00062866 -19.02815247 376.32992554 C-19.58244934 375.6815271 -20.13674622 375.03312866 -20.70783997 374.36508179 C-23.62959427 370.12458973 -24.40399669 366.43535566 -24.420578 361.32911682 C-24.42910797 360.1389949 -24.43763794 358.94887299 -24.44642639 357.72268677 C-24.44552002 356.42542664 -24.44461365 355.1281665 -24.44367981 353.79159546 C-24.44966744 352.40483743 -24.45647353 351.01808274 -24.46403503 349.6313324 C-24.48167958 345.87086279 -24.48638979 342.11048425 -24.48766661 338.34997725 C-24.48908978 335.99820943 -24.49336254 333.64646463 -24.49866104 331.29470253 C-24.51715703 323.08336547 -24.5253323 314.87209328 -24.52375793 306.66073608 C-24.52255702 299.01773194 -24.54365041 291.37501042 -24.57524526 283.73207778 C-24.60143624 277.16119221 -24.61212403 270.59039879 -24.61084712 264.01946145 C-24.61033826 260.09896009 -24.6159788 256.1787099 -24.63720322 252.25826073 C-24.65663314 248.56862491 -24.65667813 244.87947861 -24.64216995 241.18982506 C-24.63909729 239.19944246 -24.65572547 237.20905957 -24.67304993 235.21875 C-24.61548464 226.99406581 -23.76197781 221.3856477 -18.18830872 215.02523804 C-17.53733215 214.48640991 -16.88635559 213.94758179 -16.21565247 213.39242554 C-15.56725403 212.83812866 -14.91885559 212.28383179 -14.25080872 211.71273804 C-9.44014668 208.39812918 -5.05283645 207.98331517 0.66642761 208.04037476 C1.43768982 208.0400827 2.20895203 208.03979065 3.00358582 208.03948975 C5.54129973 208.04087802 8.07871645 208.05641539 10.61637878 208.07211304 C12.3804305 208.07584496 14.14448429 208.07869108 15.90853882 208.08068848 C20.54294088 208.08831084 25.17721684 208.10794732 29.81156921 208.13009644 C34.54401443 208.15058497 39.27648009 208.15969662 44.00895691 208.16976929 C53.288318 208.19119456 62.56755253 208.22636531 71.84684753 208.26742554 C71.84684753 197.70742554 71.84684753 187.14742554 71.84684753 176.26742554 C69.49559753 176.2883728 67.14434753 176.30932007 64.72184753 176.3309021 C56.93476621 176.39731759 49.14767206 176.44141892 41.36038208 176.47467422 C36.64103659 176.49550809 31.92198242 176.52374859 27.20280457 176.56918335 C22.64458877 176.61279149 18.08665239 176.63659422 13.52824402 176.64693451 C11.79317326 176.6542991 10.05811701 176.66868037 8.32316589 176.69034576 C5.88411462 176.71957966 3.44620335 176.72337335 1.00700378 176.7215271 C0.29705765 176.7359082 -0.41288849 176.75028931 -1.14434814 176.7651062 C-7.56017561 176.71289719 -12.6242742 174.48349831 -17.39533997 170.30258179 C-18.20358215 169.32611694 -18.20358215 169.32611694 -19.02815247 168.32992554 C-19.58244934 167.6815271 -20.13674622 167.03312866 -20.70783997 166.36508179 C-23.62959427 162.12458973 -24.40399669 158.43535566 -24.420578 153.32911682 C-24.42910797 152.1389949 -24.43763794 150.94887299 -24.44642639 149.72268677 C-24.44552002 148.42542664 -24.44461365 147.1281665 -24.44367981 145.79159546 C-24.44966744 144.40483743 -24.45647353 143.01808274 -24.46403503 141.6313324 C-24.48167958 137.87086279 -24.48638979 134.11048425 -24.48766661 130.34997725 C-24.48908978 127.99820943 -24.49336254 125.64646463 -24.49866104 123.29470253 C-24.51715703 115.08336547 -24.5253323 106.87209328 -24.52375793 98.66073608 C-24.52255702 91.01773194 -24.54365041 83.37501042 -24.57524526 75.73207778 C-24.60143624 69.16119221 -24.61212403 62.59039879 -24.61084712 56.01946145 C-24.61033826 52.09896009 -24.6159788 48.1787099 -24.63720322 44.25826073 C-24.65663314 40.56862491 -24.65667813 36.87947861 -24.64216995 33.18982506 C-24.63909729 31.19944246 -24.65572547 29.20905957 -24.67304993 27.21875 C-24.61548464 18.99406581 -23.76197781 13.3856477 -18.18830872 7.02523804 C-17.53733215 6.48640991 -16.88635559 5.94758179 -16.21565247 5.39242554 C-15.56725403 4.83812866 -14.91885559 4.28383179 -14.25080872 3.71273804 C-9.59095225 0.50203619 -5.60576104 0.01481604 0 0 Z M183.84684753 96.26742554 C183.67649897 116.64033344 183.67649897 116.64033344 183.54899597 137.01351929 C183.51961755 139.57733955 183.48879022 142.1411438 183.45622253 144.70492554 C183.4550946 146.02428101 183.45396667 147.34363647 183.45280457 148.70297241 C183.32441831 156.98232021 182.6679969 162.83933745 177.10075378 169.29086304 C176.54258972 169.73687866 175.98442566 170.18289429 175.40934753 170.64242554 C174.57596863 171.3346521 174.57596863 171.3346521 173.72575378 172.04086304 C168.98259793 175.13722674 164.57896005 175.56963359 159.02726746 175.58627319 C158.25600525 175.59631882 157.48474304 175.60636444 156.69010925 175.61671448 C154.15251886 175.6474916 151.61503371 175.66456625 149.07731628 175.68148804 C147.31325376 175.7002041 145.54920015 175.71977784 143.78515625 175.74017334 C139.15086627 175.79145427 134.51654729 175.8311016 129.88212585 175.86831665 C125.14959052 175.90838162 120.41717546 175.9594626 115.68473816 176.00961304 C106.40551745 176.10632458 97.12624693 176.18972608 87.84684753 176.26742554 C87.84684753 186.82742554 87.84684753 197.38742554 87.84684753 208.26742554 C90.19809753 208.27677124 92.54934753 208.28611694 94.97184753 208.29574585 C102.75916069 208.32958342 110.54621073 208.38516998 118.33331299 208.45132828 C123.0525192 208.49075924 127.77154003 208.52296915 132.4908905 208.53842163 C137.0493231 208.55361715 141.60724594 208.58811382 146.16545105 208.63573456 C147.9004319 208.65051857 149.63548554 208.65846484 151.37052917 208.65930939 C153.80979624 208.66168987 156.24766677 208.68885399 158.68669128 208.7215271 C159.39663742 208.71649673 160.10658356 208.71146637 160.83804321 208.70628357 C167.0765555 208.83473296 172.17996315 210.96607936 176.87028503 215.01351929 C177.31630066 215.57168335 177.76231628 216.12984741 178.22184753 216.70492554 C178.9140741 217.53830444 178.9140741 217.53830444 179.62028503 218.38851929 C182.6281645 222.99613083 183.12633843 227.08680686 183.26091003 232.53695679 C183.28027618 233.21795944 183.29964233 233.8989621 183.31959534 234.6006012 C183.37902885 236.76025147 183.42562953 238.91995611 183.47184753 241.07992554 C183.51006081 242.55065097 183.54911447 244.02135483 183.58903503 245.49203491 C183.68469936 249.08363343 183.76886328 252.67539467 183.84684753 256.26742554 C203.69172705 256.47769103 223.53638048 256.63638587 243.38214302 256.73373508 C252.59699367 256.78013827 261.81115213 256.8433972 271.02555847 256.94638062 C279.05713514 257.03610151 287.08821055 257.09415274 295.12027442 257.11422199 C299.37331119 257.12595372 303.62491403 257.15350799 307.877491 257.21899605 C311.88178723 257.28016018 315.8840616 257.29891727 319.88878059 257.28539467 C321.3570245 257.28786766 322.82533702 257.30573377 324.29317665 257.34027481 C332.27626839 257.78045261 332.27626839 257.78045261 338.996068 254.251297 C340.64405123 251.86334758 340.64405123 251.86334758 341.80451107 249.3563242 C343.197344 246.56501166 344.84234875 245.88216576 347.68669128 244.75961304 C350.10845789 243.44520451 350.10845789 243.44520451 351.84684753 241.26742554 C352.99123124 235.61309792 352.69677311 230.12647539 352.40934753 224.39242554 C352.36416662 222.83004043 352.32310825 221.26753033 352.28630066 219.70492554 C352.18746499 215.88932612 352.03242004 212.07975092 351.84684753 208.26742554 C350.99904724 208.22778687 350.15124695 208.18814819 349.27775574 208.14730835 C271.15244235 204.34323767 271.15244235 204.34323767 251.49137878 186.13461304 C248.1373071 182.32642714 248.6767092 177.91697962 248.64152527 173.12411499 C248.63162567 172.29462341 248.62172607 171.46513184 248.61152649 170.61050415 C248.57992548 167.86726745 248.55515956 165.12401343 248.53044128 162.38070679 C248.50987055 160.47926888 248.48887405 158.57783555 248.46746826 156.67640686 C248.41225993 151.6705291 248.36284516 146.66461015 248.31462097 141.65866089 C248.25556743 135.65305829 248.18934624 129.647531 248.12432098 123.64199066 C248.02632703 114.51718159 247.9374603 105.39232434 247.84684753 96.26742554 C226.72684753 96.26742554 205.60684753 96.26742554 183.84684753 96.26742554 Z M183.84684753 272.26742554 C183.8432019 273.43982788 183.83955627 274.61223022 183.83580017 275.82015991 C183.79881314 286.88437411 183.74099965 297.94831094 183.66294479 309.01231384 C183.62348388 314.70006441 183.59128844 320.38766047 183.57585144 326.07553101 C183.56067597 331.5675977 183.52621397 337.05923959 183.47853851 342.55111694 C183.46373402 344.64336448 183.45580706 346.73567267 183.45496368 348.82797241 C183.45258953 351.76527876 183.42547309 354.70141542 183.39274597 357.63851929 C183.40029152 358.92785622 183.40029152 358.92785622 183.4079895 360.24324036 C183.29308865 366.93555973 181.50973572 372.18157301 177.10075378 377.29086304 C176.54258972 377.73687866 175.98442566 378.18289429 175.40934753 378.64242554 C174.57596863 379.3346521 174.57596863 379.3346521 173.72575378 380.04086304 C168.98259793 383.13722674 164.57896005 383.56963359 159.02726746 383.58627319 C158.25600525 383.59631882 157.48474304 383.60636444 156.69010925 383.61671448 C154.15251886 383.6474916 151.61503371 383.66456625 149.07731628 383.68148804 C147.31325376 383.7002041 145.54920015 383.71977784 143.78515625 383.74017334 C139.15086627 383.79145427 134.51654729 383.8311016 129.88212585 383.86831665 C125.14959052 383.90838162 120.41717546 383.9594626 115.68473816 384.00961304 C106.40552582 384.10632449 97.12624551 384.19074458 87.84684753 384.26742554 C87.7354714 387.02895368 87.65370665 389.78599381 87.58903503 392.54867554 C87.55447205 393.33016968 87.51990906 394.11166382 87.48429871 394.9168396 C87.3282895 399.63120258 87.3282895 399.63120258 89.78044128 403.50570679 C91.93907621 404.82125456 91.93907621 404.82125456 94.29216003 405.67367554 C97.27071985 407.53185964 97.57916604 408.71705463 99.08613586 411.80317688 C101.1506495 414.93796223 102.17601182 416.08242841 105.83463669 417.09137154 C109.76298907 417.37787881 113.64024744 417.38169732 117.57292175 417.28915405 C119.0811752 417.28661368 120.58943978 417.28804375 122.09768677 417.2931366 C126.18289211 417.29571518 130.26571093 417.24287305 134.3503623 417.17997098 C138.62235191 417.12364148 142.89439859 417.11841726 147.16670227 417.10774231 C155.25249457 417.07978829 163.33718943 417.00596114 171.42249882 416.9155969 C180.62907887 416.81493851 189.83571182 416.76550096 199.0427053 416.72033799 C217.97804118 416.62630848 236.91235607 416.46804505 255.84684753 416.26742554 C255.85049316 415.29547241 255.85413879 414.32351929 255.8578949 413.32211304 C255.8949108 404.1415329 255.95275532 394.96128615 256.03075027 385.78096008 C256.07018123 381.06175388 256.10239115 376.34273304 256.11784363 371.62338257 C256.13303915 367.06494997 256.16753582 362.50702713 256.21515656 357.94882202 C256.22994057 356.21384117 256.23788683 354.47878753 256.23873138 352.7437439 C256.24111187 350.30447683 256.26827599 347.8666063 256.3009491 345.42758179 C256.29340355 344.36266258 256.29340355 344.36266258 256.28570557 343.27622986 C256.41415496 337.03771757 258.54550136 331.93430992 262.59294128 327.24398804 C263.15110535 326.79797241 263.70926941 326.35195679 264.28434753 325.89242554 C264.83993347 325.43094116 265.39551941 324.96945679 265.96794128 324.49398804 C270.71109714 321.39762434 275.11473502 320.96521748 280.66642761 320.94857788 C281.43768982 320.93853226 282.20895203 320.92848663 283.00358582 320.9181366 C285.54117621 320.88735947 288.07866136 320.87028482 290.61637878 320.85336304 C292.3804413 320.83464697 294.14449492 320.81507323 295.90853882 320.79467773 C300.5428288 320.74339681 305.17714778 320.70374948 309.81156921 320.66653442 C314.54410454 320.62646945 319.27651961 320.57538848 324.00895691 320.52523804 C333.28816925 320.42852658 342.56744956 320.34410649 351.84684753 320.26742554 C352.07025154 315.67790524 352.23302683 311.09157735 352.3412323 306.49789429 C352.38634803 304.93776312 352.44766473 303.37800956 352.52580261 301.81918335 C353.32951165 292.92861928 353.32951165 292.92861928 350.014328 285.1902771 C347.75609806 283.72736882 347.75609806 283.72736882 345.38175964 282.86557007 C342.43742701 281.00930488 342.01548327 279.72000535 340.46473694 276.67454529 C338.45727476 273.53586116 337.50310928 272.44815928 333.86798477 271.44705009 C329.93636447 271.15707214 326.05685449 271.15307359 322.12077332 271.24569702 C320.61251987 271.2482374 319.10425529 271.24680733 317.5960083 271.24171448 C313.51080295 271.2391359 309.42798414 271.29197802 305.34333277 271.35488009 C301.07134316 271.41120959 296.79929648 271.41643381 292.5269928 271.42710876 C284.4412005 271.45506278 276.35650564 271.52888993 268.27119625 271.61925417 C259.0646162 271.71991256 249.85798325 271.76935012 240.65098977 271.81451309 C221.71565389 271.90854259 202.78133899 272.06680602 183.84684753 272.26742554 Z " fill="#000000" transform="translate(32.15315246582031,7.732574462890625)"/>
<path d="M0 0 C58.08 0 116.16 0 176 0 C176 74 176 74 173 79 C169.59514326 80.13495225 166.99353493 80.13160403 163.40211487 80.14044189 C162.72858772 80.14341302 162.05506057 80.14638414 161.3611235 80.1494453 C159.09954182 80.15813142 156.83801307 80.15964045 154.57641602 80.16113281 C152.95686734 80.16576096 151.33731975 80.17078562 149.71777344 80.17617798 C145.31493078 80.18930225 140.91210337 80.19574672 136.5092442 80.20018864 C133.75985779 80.20311866 131.01047555 80.20722328 128.26109123 80.21169281 C119.66258849 80.22536636 111.06409529 80.23503433 102.46558243 80.2388947 C92.53253358 80.24337854 82.59962213 80.26094211 72.66661507 80.2898953 C64.99266735 80.31148919 57.31875836 80.32159771 49.64478058 80.32293582 C45.05931725 80.32398528 40.47398311 80.32992321 35.88855171 80.34775543 C31.57689515 80.36419707 27.26546543 80.36641075 22.95378876 80.35761642 C21.37031638 80.35684401 19.786832 80.36121561 18.20339012 80.37107468 C16.0436107 80.38373499 13.88464198 80.37795052 11.72486877 80.36749268 C10.51568566 80.36895924 9.30650255 80.3704258 8.06067753 80.3719368 C4.71700982 79.96561073 3.34630473 79.37821754 1 77 C-7.11719711 52.64840868 0 25.66883108 0 0 Z " fill="#E5E8EC" transform="translate(304,408)"/>
<path d="M0 0 C58.08 0 116.16 0 176 0 C176 74 176 74 173 79 C169.59514326 80.13495225 166.99353493 80.13160403 163.40211487 80.14044189 C162.72858772 80.14341302 162.05506057 80.14638414 161.3611235 80.1494453 C159.09954182 80.15813142 156.83801307 80.15964045 154.57641602 80.16113281 C152.95686734 80.16576096 151.33731975 80.17078562 149.71777344 80.17617798 C145.31493078 80.18930225 140.91210337 80.19574672 136.5092442 80.20018864 C133.75985779 80.20311866 131.01047555 80.20722328 128.26109123 80.21169281 C119.66258849 80.22536636 111.06409529 80.23503433 102.46558243 80.2388947 C92.53253358 80.24337854 82.59962213 80.26094211 72.66661507 80.2898953 C64.99266735 80.31148919 57.31875836 80.32159771 49.64478058 80.32293582 C45.05931725 80.32398528 40.47398311 80.32992321 35.88855171 80.34775543 C31.57689515 80.36419707 27.26546543 80.36641075 22.95378876 80.35761642 C21.37031638 80.35684401 19.786832 80.36121561 18.20339012 80.37107468 C16.0436107 80.38373499 13.88464198 80.37795052 11.72486877 80.36749268 C10.51568566 80.36895924 9.30650255 80.3704258 8.06067753 80.3719368 C4.71700982 79.96561073 3.34630473 79.37821754 1 77 C-7.11719711 52.64840868 0 25.66883108 0 0 Z " fill="#E5E8EC" transform="translate(24,296)"/>
<path d="M0 0 C58.08 0 116.16 0 176 0 C176 74 176 74 173 79 C169.59514326 80.13495225 166.99353493 80.13160403 163.40211487 80.14044189 C162.72858772 80.14341302 162.05506057 80.14638414 161.3611235 80.1494453 C159.09954182 80.15813142 156.83801307 80.15964045 154.57641602 80.16113281 C152.95686734 80.16576096 151.33731975 80.17078562 149.71777344 80.17617798 C145.31493078 80.18930225 140.91210337 80.19574672 136.5092442 80.20018864 C133.75985779 80.20311866 131.01047555 80.20722328 128.26109123 80.21169281 C119.66258849 80.22536636 111.06409529 80.23503433 102.46558243 80.2388947 C92.53253358 80.24337854 82.59962213 80.26094211 72.66661507 80.2898953 C64.99266735 80.31148919 57.31875836 80.32159771 49.64478058 80.32293582 C45.05931725 80.32398528 40.47398311 80.32992321 35.88855171 80.34775543 C31.57689515 80.36419707 27.26546543 80.36641075 22.95378876 80.35761642 C21.37031638 80.35684401 19.786832 80.36121561 18.20339012 80.37107468 C16.0436107 80.38373499 13.88464198 80.37795052 11.72486877 80.36749268 C10.51568566 80.36895924 9.30650255 80.3704258 8.06067753 80.3719368 C4.71700982 79.96561073 3.34630473 79.37821754 1 77 C-7.11719711 52.64840868 0 25.66883108 0 0 Z " fill="#E5E8EC" transform="translate(24,88)"/>
<path d="M0 0 C1.20566368 0.00071251 2.41132736 0.00142502 3.65352631 0.00215912 C4.32805674 -0.0042297 5.00258718 -0.01061852 5.69755793 -0.01720095 C7.95119002 -0.03242615 10.20305686 -0.01200916 12.45662689 0.0083847 C14.07485282 0.00488272 15.69307531 -0.00077674 17.31128693 -0.00843048 C21.70191116 -0.02267715 26.09190903 -0.00561835 30.48247337 0.01785469 C35.07790009 0.0379634 39.67330079 0.03208412 44.26876068 0.02974701 C51.98594746 0.02980058 59.70288939 0.04955734 67.4200058 0.08162689 C76.34112017 0.1185197 85.2619138 0.12730244 94.1830945 0.12032938 C102.76615256 0.11402335 111.34910067 0.12478053 119.93213654 0.14429474 C123.58434364 0.15246787 127.23649454 0.15517844 130.88871002 0.1536026 C135.18978555 0.15272342 139.49055644 0.1669488 143.79155159 0.19282913 C145.36974676 0.19998907 146.94797435 0.20207538 148.52618217 0.1987114 C150.68118361 0.19499426 152.83529717 0.20975086 154.99019623 0.2292099 C156.79869175 0.23480297 156.79869175 0.23480297 158.64372253 0.24050903 C162.13320775 0.66115047 164.02648399 1.52877639 166.82186127 3.62361908 C173.53172134 17.04333923 167.82186127 33.61991583 167.82186127 48.62361908 C109.74186127 48.62361908 51.66186127 48.62361908 -8.17813873 48.62361908 C-8.17813873 1.60472647 -8.17813873 1.60472647 0 0 Z " fill="#5BD5B2" transform="translate(312.17813873291016,343.37638092041016)"/>
<path d="M0 0 C1.20566368 0.00071251 2.41132736 0.00142502 3.65352631 0.00215912 C4.32805674 -0.0042297 5.00258718 -0.01061852 5.69755793 -0.01720095 C7.95119002 -0.03242615 10.20305686 -0.01200916 12.45662689 0.0083847 C14.07485282 0.00488272 15.69307531 -0.00077674 17.31128693 -0.00843048 C21.70191116 -0.02267715 26.09190903 -0.00561835 30.48247337 0.01785469 C35.07790009 0.0379634 39.67330079 0.03208412 44.26876068 0.02974701 C51.98594746 0.02980058 59.70288939 0.04955734 67.4200058 0.08162689 C76.34112017 0.1185197 85.2619138 0.12730244 94.1830945 0.12032938 C102.76615256 0.11402335 111.34910067 0.12478053 119.93213654 0.14429474 C123.58434364 0.15246787 127.23649454 0.15517844 130.88871002 0.1536026 C135.18978555 0.15272342 139.49055644 0.1669488 143.79155159 0.19282913 C145.36974676 0.19998907 146.94797435 0.20207538 148.52618217 0.1987114 C150.68118361 0.19499426 152.83529717 0.20975086 154.99019623 0.2292099 C156.79869175 0.23480297 156.79869175 0.23480297 158.64372253 0.24050903 C162.13320775 0.66115047 164.02648399 1.52877639 166.82186127 3.62361908 C173.53172134 17.04333923 167.82186127 33.61991583 167.82186127 48.62361908 C109.74186127 48.62361908 51.66186127 48.62361908 -8.17813873 48.62361908 C-8.17813873 1.60472647 -8.17813873 1.60472647 0 0 Z " fill="#5BD5B2" transform="translate(32.178138732910156,231.37638092041016)"/>
<path d="M0 0 C1.20566368 0.00071251 2.41132736 0.00142502 3.65352631 0.00215912 C4.32805674 -0.0042297 5.00258718 -0.01061852 5.69755793 -0.01720095 C7.95119002 -0.03242615 10.20305686 -0.01200916 12.45662689 0.0083847 C14.07485282 0.00488272 15.69307531 -0.00077674 17.31128693 -0.00843048 C21.70191116 -0.02267715 26.09190903 -0.00561835 30.48247337 0.01785469 C35.07790009 0.0379634 39.67330079 0.03208412 44.26876068 0.02974701 C51.98594746 0.02980058 59.70288939 0.04955734 67.4200058 0.08162689 C76.34112017 0.1185197 85.2619138 0.12730244 94.1830945 0.12032938 C102.76615256 0.11402335 111.34910067 0.12478053 119.93213654 0.14429474 C123.58434364 0.15246787 127.23649454 0.15517844 130.88871002 0.1536026 C135.18978555 0.15272342 139.49055644 0.1669488 143.79155159 0.19282913 C145.36974676 0.19998907 146.94797435 0.20207538 148.52618217 0.1987114 C150.68118361 0.19499426 152.83529717 0.20975086 154.99019623 0.2292099 C156.79869175 0.23480297 156.79869175 0.23480297 158.64372253 0.24050903 C162.13320775 0.66115047 164.02648399 1.52877639 166.82186127 3.62361908 C173.53172134 17.04333923 167.82186127 33.61991583 167.82186127 48.62361908 C109.74186127 48.62361908 51.66186127 48.62361908 -8.17813873 48.62361908 C-8.17813873 1.60472647 -8.17813873 1.60472647 0 0 Z " fill="#5BD5B2" transform="translate(32.178138732910156,23.376380920410156)"/>
<path d="M0 0 C0.87398438 0.31453125 1.74796875 0.6290625 2.6484375 0.953125 C18.70747913 6.54180615 34.84343553 9.62720185 51.75 11.25 C52.60350037 11.33371857 53.45700073 11.41743713 54.33636475 11.50369263 C92.40915 15.1615835 134.2688888 15.23808358 171.625 6.125 C172.27210938 5.97675781 172.91921875 5.82851562 173.5859375 5.67578125 C179.85148796 4.18224887 185.91229901 2.09045504 192 0 C192.14860594 4.19907045 192.25732637 8.39673979 192.32958984 12.59765625 C192.35971791 14.02566186 192.40063103 15.45348306 192.45263672 16.88085938 C192.52564914 18.9366601 192.55948862 20.99001213 192.5859375 23.046875 C192.6173584 24.28276367 192.6487793 25.51865234 192.68115234 26.79199219 C192 30 192 30 189.16113281 32.35058594 C148.98800059 53.31209978 85.15210376 50.47759499 42 43 C40.91283691 42.81775879 39.82567383 42.63551758 38.70556641 42.44775391 C7.1179251 37.02535226 7.1179251 37.02535226 0 30 C-0.45410156 26.90551758 -0.45410156 26.90551758 -0.390625 23.14453125 C-0.38496521 22.48289474 -0.37930542 21.82125824 -0.37347412 21.13957214 C-0.35111247 19.02980668 -0.30092371 16.92175048 -0.25 14.8125 C-0.2299344 13.38088394 -0.21168372 11.9492412 -0.1953125 10.51757812 C-0.15125069 7.01116485 -0.08222777 3.50574928 0 0 Z " fill="#F9D46E" transform="translate(296,154)"/>
<path d="M0 0 C0.87398438 0.31453125 1.74796875 0.6290625 2.6484375 0.953125 C18.70747913 6.54180615 34.84343553 9.62720185 51.75 11.25 C52.60350037 11.33371857 53.45700073 11.41743713 54.33636475 11.50369263 C92.40915 15.1615835 134.2688888 15.23808358 171.625 6.125 C172.27210938 5.97675781 172.91921875 5.82851563 173.5859375 5.67578125 C179.85148796 4.18224887 185.91229901 2.09045504 192 0 C192.14860594 4.19907045 192.25732637 8.39673979 192.32958984 12.59765625 C192.35971791 14.02566186 192.40063103 15.45348306 192.45263672 16.88085938 C192.52564914 18.9366601 192.55948862 20.99001213 192.5859375 23.046875 C192.6173584 24.28276367 192.6487793 25.51865234 192.68115234 26.79199219 C192 30 192 30 189.16113281 32.35058594 C148.98800059 53.31209978 85.15210376 50.47759499 42 43 C40.91283691 42.81775879 39.82567383 42.63551758 38.70556641 42.44775391 C7.1179251 37.02535226 7.1179251 37.02535226 0 30 C-0.45410156 26.90551758 -0.45410156 26.90551758 -0.390625 23.14453125 C-0.38496521 22.48289474 -0.37930542 21.82125824 -0.37347412 21.13957214 C-0.35111247 19.02980668 -0.30092371 16.92175048 -0.25 14.8125 C-0.2299344 13.38088394 -0.21168372 11.9492412 -0.1953125 10.51757812 C-0.15125069 7.01116485 -0.08222777 3.50574928 0 0 Z " fill="#F9D46E" transform="translate(296,58)"/>
<path d="M0 0 C0.87398438 0.31453125 1.74796875 0.6290625 2.6484375 0.953125 C18.70747913 6.54180615 34.84343553 9.62720185 51.75 11.25 C52.60350037 11.33371857 53.45700073 11.41743713 54.33636475 11.50369263 C92.40915 15.1615835 134.2688888 15.23808358 171.625 6.125 C172.27210938 5.97675781 172.91921875 5.82851562 173.5859375 5.67578125 C179.85148796 4.18224887 185.91229901 2.09045504 192 0 C192.14860594 4.19907045 192.25732637 8.39673979 192.32958984 12.59765625 C192.35971791 14.02566186 192.40063103 15.45348306 192.45263672 16.88085938 C192.52564914 18.9366601 192.55948862 20.99001213 192.5859375 23.046875 C192.6173584 24.28276367 192.6487793 25.51865234 192.68115234 26.79199219 C192 30 192 30 189.14575195 32.3527832 C143.41257756 56.30014274 61.88748584 51.72084477 14.02075195 37.05981445 C8.81644617 35.35140808 4.25913645 33.50814512 0 30 C-0.68115234 26.79199219 -0.68115234 26.79199219 -0.5859375 23.046875 C-0.57744781 22.38665344 -0.56895813 21.72643188 -0.56021118 21.04620361 C-0.5267285 18.94577947 -0.45148521 16.84925453 -0.375 14.75 C-0.34489256 13.3229723 -0.31751808 11.89588414 -0.29296875 10.46875 C-0.22696218 6.97790827 -0.12348826 3.4893349 0 0 Z " fill="#FCE7A5" transform="translate(296,106)"/>
<path d="M0 0 C-0.33 0.99 -0.66 1.98 -1 3 C-3.40345207 4.1609127 -5.68452197 5.10930969 -8.1875 6 C-9.26366577 6.39300293 -9.26366577 6.39300293 -10.36157227 6.79394531 C-17.11980538 9.18489638 -23.96422701 10.66604998 -31 12 C-32.38184945 12.32407862 -33.76333212 12.64972337 -35.14453125 12.9765625 C-78.39787075 22.6034955 -133.16514986 20.65456633 -175.5625 8.5 C-176.2227417 8.31074951 -176.8829834 8.12149902 -177.56323242 7.92651367 C-182.13672025 6.50744238 -185.93424609 4.4698016 -190 2 C-189 -1 -189 -1 -186.8046875 -2.24609375 C-140.8644115 -20.92847266 -43.54504204 -29.03002803 0 0 Z " fill="#FBE6A4" transform="translate(487,39)"/>
<path d="M0 0 C47.52 0 95.04 0 144 0 C144 5.28 144 10.56 144 16 C96.48 16 48.96 16 0 16 C0 10.72 0 5.44 0 0 Z " fill="#000000" transform="translate(40,344)"/>
<path d="M0 0 C15.84 0 31.68 0 48 0 C48 15.84 48 31.68 48 48 C32.16 48 16.32 48 0 48 C0 32.16 0 16.32 0 0 Z " fill="#000000" transform="translate(136,104)"/>
<path d="M0 0 C6.50099074 3.68128391 11.87819747 8.78320492 13.9453125 16.1015625 C15.20908545 24.11749375 13.55801943 30.4620601 8.9453125 37.1015625 C4.23417819 42.52165392 -1.40366726 45.500713 -8.50390625 46.41796875 C-14.535995 46.70433131 -19.18658897 45.7526364 -24.0546875 42.1015625 C-30.68913654 35.90235214 -34.00272204 30.86864646 -34.4296875 21.7265625 C-34.25680824 15.00246918 -32.59983783 10.77492003 -27.9609375 5.90234375 C-19.7156089 -1.75206963 -10.78488932 -4.67199659 0 0 Z " fill="#030202" transform="translate(354.0546875,425.8984375)"/>
<path d="M0 0 C36.96 0 73.92 0 112 0 C112 5.28 112 10.56 112 16 C75.04 16 38.08 16 0 16 C0 10.72 0 5.44 0 0 Z " fill="#000000" transform="translate(72,312)"/>
<path d="M0 0 C26.4 0 52.8 0 80 0 C80 5.28 80 10.56 80 16 C53.6 16 27.2 16 0 16 C0 10.72 0 5.44 0 0 Z " fill="#000000" transform="translate(384,424)"/>
<path d="M0 0 C26.4 0 52.8 0 80 0 C80 5.28 80 10.56 80 16 C53.6 16 27.2 16 0 16 C0 10.72 0 5.44 0 0 Z " fill="#000000" transform="translate(40,104)"/>
<path d="M0 0 C15.84 0 31.68 0 48 0 C48 5.28 48 10.56 48 16 C32.16 16 16.32 16 0 16 C0 10.72 0 5.44 0 0 Z " fill="#000000" transform="translate(384,456)"/>
<path d="M0 0 C15.84 0 31.68 0 48 0 C48 5.28 48 10.56 48 16 C32.16 16 16.32 16 0 16 C0 10.72 0 5.44 0 0 Z " fill="#000000" transform="translate(40,136)"/>
<path d="M0 0 C5.28 0 10.56 0 16 0 C16 5.28 16 10.56 16 16 C10.72 16 5.44 16 0 16 C0 10.72 0 5.44 0 0 Z " fill="#000000" transform="translate(448,456)"/>
<path d="M0 0 C5.28 0 10.56 0 16 0 C16 5.28 16 10.56 16 16 C10.72 16 5.44 16 0 16 C0 10.72 0 5.44 0 0 Z " fill="#000000" transform="translate(384,360)"/>
<path d="M0 0 C5.28 0 10.56 0 16 0 C16 5.28 16 10.56 16 16 C10.72 16 5.44 16 0 16 C0 10.72 0 5.44 0 0 Z " fill="#000000" transform="translate(352,360)"/>
<path d="M0 0 C5.28 0 10.56 0 16 0 C16 5.28 16 10.56 16 16 C10.72 16 5.44 16 0 16 C0 10.72 0 5.44 0 0 Z " fill="#000000" transform="translate(320,360)"/>
<path d="M0 0 C5.28 0 10.56 0 16 0 C16 5.28 16 10.56 16 16 C10.72 16 5.44 16 0 16 C0 10.72 0 5.44 0 0 Z " fill="#000000" transform="translate(40,312)"/>
<path d="M0 0 C5.28 0 10.56 0 16 0 C16 5.28 16 10.56 16 16 C10.72 16 5.44 16 0 16 C0 10.72 0 5.44 0 0 Z " fill="#000000" transform="translate(104,248)"/>
<path d="M0 0 C5.28 0 10.56 0 16 0 C16 5.28 16 10.56 16 16 C10.72 16 5.44 16 0 16 C0 10.72 0 5.44 0 0 Z " fill="#000000" transform="translate(72,248)"/>
<path d="M0 0 C5.28 0 10.56 0 16 0 C16 5.28 16 10.56 16 16 C10.72 16 5.44 16 0 16 C0 10.72 0 5.44 0 0 Z " fill="#000000" transform="translate(40,248)"/>
<path d="M0 0 C5.28 0 10.56 0 16 0 C16 5.28 16 10.56 16 16 C10.72 16 5.44 16 0 16 C0 10.72 0 5.44 0 0 Z " fill="#000000" transform="translate(104,136)"/>
<path d="M0 0 C5.28 0 10.56 0 16 0 C16 5.28 16 10.56 16 16 C10.72 16 5.44 16 0 16 C0 10.72 0 5.44 0 0 Z " fill="#FF826E" transform="translate(152,120)"/>
<path d="M0 0 C5.28 0 10.56 0 16 0 C16 5.28 16 10.56 16 16 C10.72 16 5.44 16 0 16 C0 10.72 0 5.44 0 0 Z " fill="#000000" transform="translate(104,40)"/>
<path d="M0 0 C5.28 0 10.56 0 16 0 C16 5.28 16 10.56 16 16 C10.72 16 5.44 16 0 16 C0 10.72 0 5.44 0 0 Z " fill="#000000" transform="translate(72,40)"/>
<path d="M0 0 C5.28 0 10.56 0 16 0 C16 5.28 16 10.56 16 16 C10.72 16 5.44 16 0 16 C0 10.72 0 5.44 0 0 Z " fill="#000000" transform="translate(40,40)"/>
<path d="M0 0 C4.0743356 0.84881992 5.54405875 2.30225596 8 5.625 C8.625 8.625 8.625 8.625 8 11.625 C5.54405875 14.94774404 4.0743356 16.40118008 0 17.25 C-4.0743356 16.40118008 -5.54405875 14.94774404 -8 11.625 C-8.625 8.625 -8.625 8.625 -8 5.625 C-5.54405875 2.30225596 -4.0743356 0.84881992 0 0 Z " fill="#F27B68" transform="translate(344,439.375)"/>
<path d="M0 0 C4.0743356 0.84881992 5.54405875 2.30225596 8 5.625 C8.625 8.625 8.625 8.625 8 11.625 C5.54405875 14.94774404 4.0743356 16.40118008 0 17.25 C-4.0743356 16.40118008 -5.54405875 14.94774404 -8 11.625 C-8.625 8.625 -8.625 8.625 -8 5.625 C-5.54405875 2.30225596 -4.0743356 0.84881992 0 0 Z " fill="#F27B68" transform="translate(112,423.375)"/>
<path d="M0 0 C4.0743356 0.84881992 5.54405875 2.30225596 8 5.625 C8.625 8.625 8.625 8.625 8 11.625 C5.54405875 14.94774404 4.0743356 16.40118008 0 17.25 C-4.0743356 16.40118008 -5.54405875 14.94774404 -8 11.625 C-8.625 8.625 -8.625 8.625 -8 5.625 C-5.54405875 2.30225596 -4.0743356 0.84881992 0 0 Z " fill="#F27B68" transform="translate(392,263.375)"/>
</svg>
