<?xml version="1.0" encoding="UTF-8"?>
<svg version="1.1" xmlns="http://www.w3.org/2000/svg" width="512" height="512">
<path d="M0 0 C0.82967285 -0.02610352 1.6593457 -0.05220703 2.51416016 -0.07910156 C3.30226074 -0.08135742 4.09036133 -0.08361328 4.90234375 -0.0859375 C5.60738037 -0.09415527 6.31241699 -0.10237305 7.03881836 -0.11083984 C10.16358141 0.63934455 11.14348974 1.7801184 13.0625 4.375 C13.65210835 7.58327838 13.56742034 10.75531937 13.51660156 14.00878906 C13.51718567 14.98473022 13.51776978 15.96067139 13.51837158 16.96618652 C13.51558531 20.1913614 13.48446686 23.41561161 13.453125 26.640625 C13.44566456 28.87692764 13.4399707 31.11323682 13.43597412 33.34954834 C13.42070238 39.23516899 13.38140682 45.12039474 13.3371582 51.00585938 C13.296239 57.0116644 13.27797024 63.01753325 13.2578125 69.0234375 C13.21491444 80.80746516 13.14664411 92.59119974 13.0625 104.375 C14.30642517 104.36611755 15.55035034 104.35723511 16.83197021 104.3480835 C28.54472494 104.26705861 40.25742293 104.20706379 51.97039413 104.16775131 C57.99242568 104.14686102 64.0142313 104.11851658 70.03613281 104.07324219 C75.84570797 104.0298366 81.65506558 104.00587376 87.46479034 103.99549103 C89.68322424 103.9880902 91.901646 103.97363843 94.11998749 103.95207977 C97.22315871 103.92311666 100.32542668 103.9190411 103.42871094 103.92089844 C104.34940369 103.90651733 105.27009644 103.89213623 106.21868896 103.87731934 C112.40358612 103.91747527 112.40358612 103.91747527 115.63140869 106.15875244 C117.85020463 109.59487218 117.65339985 113.04565808 117.5625 117 C117.54546021 118.25611084 117.54546021 118.25611084 117.52807617 119.53759766 C116.84383028 142.12406719 107.41052405 162.81643131 95.0625 181.375 C97.54516756 183.85766756 98.28366037 183.63129262 101.70681763 183.6534729 C102.68560883 183.66463638 103.66440002 183.67579987 104.67285156 183.68730164 C106.28909424 183.69054192 106.28909424 183.69054192 107.93798828 183.69384766 C109.63554764 183.70891609 109.63554764 183.70891609 111.36740112 183.72428894 C115.12253289 183.75527518 118.87759289 183.77219899 122.6328125 183.7890625 C125.23070907 183.80776172 127.82859949 183.82733418 130.42648315 183.8477478 C136.5746023 183.89394192 142.72271748 183.93130274 148.87091911 183.96442068 C155.86968061 184.00261045 162.86834859 184.05202878 169.86703134 184.10240483 C184.26545145 184.20579138 198.66393424 184.29463154 213.0625 184.375 C213.0625 189.655 213.0625 194.935 213.0625 200.375 C196.99857978 200.49080543 180.934832 200.58000357 164.87059593 200.63406086 C157.41147007 200.65982916 149.95260853 200.69495291 142.49365234 200.75219727 C135.99147221 200.80207493 129.48948353 200.83430102 122.98711741 200.84544247 C119.5448954 200.85195405 116.10322104 200.86722794 112.66117477 200.90365028 C108.81616802 200.94400558 104.97169424 200.94494661 101.12646484 200.94262695 C99.41958496 200.96959152 99.41958496 200.96959152 97.67822266 200.99710083 C89.0682181 200.94082548 89.0682181 200.94082548 85.3085022 197.83952332 C84.56732147 197.02623062 83.82614075 196.21293793 83.0625 195.375 C79.80753025 196.83310862 77.38955338 198.68527168 74.6875 201 C49.58021275 221.3742493 18.6625063 227.03347135 -12.86865234 224.10253906 C-40.39485712 220.42543394 -66.84874841 204.05750202 -83.9375 182.375 C-103.89983639 156.10960776 -110.68818762 124.43463491 -106.32421875 91.84375 C-101.34824938 62.90176703 -83.49588454 36.41039443 -59.70556641 19.5480957 C-47.84600767 11.41587055 -34.84205226 5.99200118 -20.9375 2.375 C-20.08542969 2.14941406 -19.23335938 1.92382812 -18.35546875 1.69140625 C-12.28218093 0.33867701 -6.19965557 0.11444081 0 0 Z " fill="#FED547" transform="translate(122.9375,55.625)"/>
<path d="M0 0 C5.28 0 10.56 0 16 0 C16 63.36 16 126.72 16 192 C21.28 192 26.56 192 32 192 C31.94501343 188.60944336 31.94501343 188.60944336 31.88891602 185.15039062 C31.77266966 177.66282531 31.69550526 170.17521901 31.6373148 162.68698883 C31.6008593 158.14891127 31.55145264 153.61176206 31.47192383 149.07421875 C31.39558506 144.6910039 31.35395196 140.30867902 31.3358593 135.92485046 C31.32297467 134.25666805 31.29781267 132.58853166 31.2598896 130.92073059 C30.93909747 116.22147592 30.93909747 116.22147592 34.91650391 111.54663086 C36.2522668 110.33579239 37.61580039 109.15515529 39 108 C40.58101323 106.39752515 42.1503196 104.78344868 43.71020508 103.16040039 C45.47728567 101.38679671 47.24719004 99.61600308 49.01953125 97.84765625 C49.96895157 96.89756065 50.91822354 95.9473168 51.86735535 94.99693298 C53.83988497 93.02294123 55.81418139 91.05073914 57.78979492 89.07983398 C60.32297661 86.552396 62.85157828 84.0204305 65.37891102 81.48714542 C67.33044808 79.53200245 69.28435093 77.57923782 71.23898888 75.62719536 C72.62631865 74.24085585 74.01163665 72.85250409 75.39692688 71.46412659 C76.65414803 70.21163368 76.65414803 70.21163368 77.93676758 68.93383789 C78.6751033 68.19629776 79.41343903 67.45875763 80.17414856 66.6988678 C83.1606104 63.9201073 85.73668659 63.45498033 89.82666016 63.55249023 C98.53985409 65.34661341 107.82822037 78.72280456 114 84.9375 C115.2640885 86.20661373 116.52840956 87.47549589 117.79296875 88.74414062 C120.86466724 91.8267632 123.93320008 94.91250428 127 98 C130.03505351 96.64198106 132.12683247 95.11970638 134.46670532 92.76707458 C135.13403183 92.10105225 135.80135834 91.43502991 136.48890686 90.74882507 C137.21009201 90.01887833 137.93127716 89.28893158 138.67431641 88.53686523 C139.8261718 87.38303848 139.8261718 87.38303848 141.001297 86.2059021 C143.53934398 83.66136196 146.07034659 81.1099277 148.6015625 78.55859375 C150.36174546 76.79214161 152.12244374 75.02620283 153.88363647 73.26075745 C158.04601901 69.08642556 162.20427757 64.90802442 166.36021745 60.72727877 C174.24859155 52.79190725 182.14409337 44.86364738 190.04362106 36.93937874 C192.64186674 34.33087712 195.23669119 31.71900685 197.83120728 29.10679626 C199.41551472 27.51566372 200.99993055 25.92463909 202.58447266 24.33374023 C203.67232307 23.23578377 203.67232307 23.23578377 204.78215027 22.11564636 C205.44383713 21.45244385 206.10552399 20.78924133 206.78726196 20.10594177 C207.36279627 19.52688804 207.93833057 18.9478343 208.53130531 18.35123348 C211.42442187 15.68949855 214.0974736 15.7855005 217.9296875 15.57421875 C221.03541025 16.21294286 222.06641201 17.50804734 224 20 C224.38456307 22.67859465 224.52431856 24.94302556 224.48101807 27.6182251 C224.48443577 28.38935064 224.48785347 29.16047618 224.49137473 29.95496917 C224.49796771 32.54099467 224.47595497 35.12598407 224.45410156 37.71191406 C224.45297339 39.56469702 224.45360636 41.41748176 224.45587158 43.27026367 C224.45702083 48.30308035 224.43347739 53.33551691 224.40557575 58.36824512 C224.3805972 63.62664178 224.3782229 68.88504682 224.37347412 74.14349365 C224.36103392 84.10241463 224.32819813 94.0611603 224.28807616 104.02000403 C224.24339098 115.35722032 224.22137959 126.69444491 224.20129442 138.03172731 C224.15946646 161.35458213 224.08909406 184.67728125 224 208 C195.38467775 208.09336027 166.76937825 208.16393848 138.15393448 208.20724869 C124.86786316 208.22789113 111.58190815 208.25604388 98.29589844 208.30175781 C86.71846637 208.34157402 75.14110274 208.36742057 63.56360412 208.37635398 C57.43099101 208.38157754 51.29857372 208.39388987 45.16602325 208.42292023 C39.39752509 208.4500068 33.62930401 208.45845863 27.86074829 208.45243073 C25.74028774 208.45353399 23.61981822 208.46152783 21.49941254 208.4768219 C18.61028757 208.49664385 15.72221682 208.49196755 12.83306885 208.48101807 C11.98871159 208.49266943 11.14435433 208.5043208 10.27441049 208.51632524 C6.84778228 208.48108058 4.44287318 208.26620836 1.47799683 206.48403931 C-0.61281237 202.97005867 -0.54017456 199.74525367 -0.48101807 195.77435303 C-0.48443577 194.93789065 -0.48785347 194.10142827 -0.49137473 193.23961854 C-0.49797136 190.43251072 -0.47594836 187.62635588 -0.45410156 184.81933594 C-0.45297347 182.8089195 -0.4536062 180.79850141 -0.45587158 178.78808594 C-0.45702114 173.32554327 -0.43347249 167.86335059 -0.40557575 162.4008894 C-0.38060251 156.69405571 -0.37822331 150.98721437 -0.37347412 145.28033447 C-0.36103237 134.47143692 -0.32819444 123.66270084 -0.28807616 112.85387444 C-0.24339584 100.54932272 -0.22138081 88.24476336 -0.20129442 75.94015074 C-0.15946293 50.62667454 -0.08828354 25.31335312 0 0 Z " fill="#01074D" transform="translate(272,288)"/>
<path d="M0 0 C0.82967285 -0.02610352 1.6593457 -0.05220703 2.51416016 -0.07910156 C3.30226074 -0.08135742 4.09036133 -0.08361328 4.90234375 -0.0859375 C5.60738037 -0.09415527 6.31241699 -0.10237305 7.03881836 -0.11083984 C10.16358141 0.63934455 11.14348974 1.7801184 13.0625 4.375 C13.65210835 7.58327838 13.56742034 10.75531937 13.51660156 14.00878906 C13.51718567 14.98473022 13.51776978 15.96067139 13.51837158 16.96618652 C13.51558531 20.1913614 13.48446686 23.41561161 13.453125 26.640625 C13.44566456 28.87692764 13.4399707 31.11323682 13.43597412 33.34954834 C13.42070238 39.23516899 13.38140682 45.12039474 13.3371582 51.00585938 C13.296239 57.0116644 13.27797024 63.01753325 13.2578125 69.0234375 C13.21491444 80.80746516 13.14664411 92.59119974 13.0625 104.375 C14.30642517 104.36611755 15.55035034 104.35723511 16.83197021 104.3480835 C28.54472494 104.26705861 40.25742293 104.20706379 51.97039413 104.16775131 C57.99242568 104.14686102 64.0142313 104.11851658 70.03613281 104.07324219 C75.84570797 104.0298366 81.65506558 104.00587376 87.46479034 103.99549103 C89.68322424 103.9880902 91.901646 103.97363843 94.11998749 103.95207977 C97.22315871 103.92311666 100.32542668 103.9190411 103.42871094 103.92089844 C104.34940369 103.90651733 105.27009644 103.89213623 106.21868896 103.87731934 C112.40358612 103.91747527 112.40358612 103.91747527 115.63140869 106.15875244 C117.85020463 109.59487218 117.65339985 113.04565808 117.5625 117 C117.54546021 118.25611084 117.54546021 118.25611084 117.52807617 119.53759766 C116.84383028 142.12406719 107.41052405 162.81643131 95.0625 181.375 C97.54516756 183.85766756 98.28366037 183.63129262 101.70681763 183.6534729 C102.68560883 183.66463638 103.66440002 183.67579987 104.67285156 183.68730164 C106.28909424 183.69054192 106.28909424 183.69054192 107.93798828 183.69384766 C109.63554764 183.70891609 109.63554764 183.70891609 111.36740112 183.72428894 C115.12253289 183.75527518 118.87759289 183.77219899 122.6328125 183.7890625 C125.23070907 183.80776172 127.82859949 183.82733418 130.42648315 183.8477478 C136.5746023 183.89394192 142.72271748 183.93130274 148.87091911 183.96442068 C155.86968061 184.00261045 162.86834859 184.05202878 169.86703134 184.10240483 C184.26545145 184.20579138 198.66393424 184.29463154 213.0625 184.375 C213.0625 189.655 213.0625 194.935 213.0625 200.375 C196.99857978 200.49080543 180.934832 200.58000357 164.87059593 200.63406086 C157.41147007 200.65982916 149.95260853 200.69495291 142.49365234 200.75219727 C135.99147221 200.80207493 129.48948353 200.83430102 122.98711741 200.84544247 C119.5448954 200.85195405 116.10322104 200.86722794 112.66117477 200.90365028 C108.81616802 200.94400558 104.97169424 200.94494661 101.12646484 200.94262695 C99.41958496 200.96959152 99.41958496 200.96959152 97.67822266 200.99710083 C89.0682181 200.94082548 89.0682181 200.94082548 85.3085022 197.83952332 C84.56732147 197.02623062 83.82614075 196.21293793 83.0625 195.375 C79.80753025 196.83310862 77.38955338 198.68527168 74.6875 201 C49.58021275 221.3742493 18.6625063 227.03347135 -12.86865234 224.10253906 C-40.39485712 220.42543394 -66.84874841 204.05750202 -83.9375 182.375 C-103.89983639 156.10960776 -110.68818762 124.43463491 -106.32421875 91.84375 C-101.34824938 62.90176703 -83.49588454 36.41039443 -59.70556641 19.5480957 C-47.84600767 11.41587055 -34.84205226 5.99200118 -20.9375 2.375 C-20.08542969 2.14941406 -19.23335938 1.92382812 -18.35546875 1.69140625 C-12.28218093 0.33867701 -6.19965557 0.11444081 0 0 Z M-59.9375 41.375 C-61.05898438 42.35339844 -61.05898438 42.35339844 -62.203125 43.3515625 C-80.00453998 59.97036599 -90.29307423 84.63522353 -91.140625 108.78515625 C-91.575225 134.54208295 -83.36242351 158.0599153 -65.9375 177.375 C-65.23882812 178.15617188 -64.54015625 178.93734375 -63.8203125 179.7421875 C-46.89322043 197.66134358 -23.48453062 207.17378898 0.87109375 208.59765625 C24.41929573 209.1344339 45.3631154 202.35907709 64.25 188.1875 C64.82766113 187.75920898 65.40532227 187.33091797 66.00048828 186.88964844 C67.7972385 185.53254268 67.7972385 185.53254268 70.0625 183.375 C70.38629207 180.25986212 70.38629207 180.25986212 68.13476562 178.10668945 C66.81508789 176.81057739 66.81508789 176.81057739 65.46875 175.48828125 C65.00263306 175.02640915 64.53651611 174.56453705 64.05627441 174.08866882 C62.5652371 172.61443048 61.06411128 171.15095912 59.5625 169.6875 C58.55009946 168.69014472 57.53837189 167.69210583 56.52734375 166.69335938 C54.04682371 164.24592436 51.55714911 161.80804113 49.0625 159.375 C50.57196511 156.19413482 52.14191825 154.07630094 54.6875 151.625 C55.31914062 151.01140625 55.95078125 150.3978125 56.6015625 149.765625 C57.08367187 149.30671875 57.56578125 148.8478125 58.0625 148.375 C61.63014285 149.88876081 63.89956287 151.98013129 66.609375 154.7265625 C67.45371094 155.57734375 68.29804688 156.428125 69.16796875 157.3046875 C70.04066406 158.19414062 70.91335937 159.08359375 71.8125 160 C72.70066406 160.8971875 73.58882812 161.794375 74.50390625 162.71875 C76.69466969 164.93307004 78.88062763 167.15192435 81.0625 169.375 C84.94203425 165.80528966 87.62333229 162.19458355 90.0625 157.5 C90.5740564 156.51978882 90.5740564 156.51978882 91.09594727 155.51977539 C95.75864079 146.31450974 98.93973091 137.45902967 99.61938477 127.11743164 C99.74628441 125.22414879 99.74628441 125.22414879 99.87574768 123.2926178 C99.93737595 122.32980392 99.99900421 121.36699005 100.0625 120.375 C98.84141037 120.36691315 97.62032074 120.35882629 96.36222839 120.35049438 C84.86975936 120.27310046 73.3774097 120.18537835 61.88509655 120.08747292 C55.97640022 120.03746938 50.06772213 119.99113969 44.15893555 119.953125 C38.45951987 119.9163235 32.76025528 119.86997755 27.0609684 119.81693649 C24.88363602 119.79836521 22.70627123 119.78326743 20.52889061 119.77165604 C17.48549207 119.7548404 14.44244163 119.72581665 11.39916992 119.69384766 C10.49358337 119.69168747 9.58799683 119.68952728 8.65496826 119.68730164 C7.82625717 119.67613815 6.99754608 119.66497467 6.14372253 119.6534729 C5.42380221 119.64794214 4.70388189 119.64241138 3.96214581 119.63671303 C2.0625 119.375 2.0625 119.375 -0.9375 117.375 C-1.83880611 114.67108166 -2.07080791 113.07307506 -2.09571838 110.29377747 C-2.1055072 109.46506638 -2.11529602 108.63635529 -2.12538147 107.78253174 C-2.13113693 106.87694519 -2.1368924 105.97135864 -2.14282227 105.03833008 C-2.15272186 104.08204208 -2.16262146 103.12575409 -2.17282104 102.14048767 C-2.20444386 98.97519417 -2.22919664 95.80988565 -2.25390625 92.64453125 C-2.2744751 90.45163072 -2.29547155 88.25873417 -2.31687927 86.06584167 C-2.37210708 80.29057021 -2.42151328 74.51526292 -2.46972656 68.7399292 C-2.51993637 62.84807136 -2.57562516 56.95626562 -2.63085938 51.06445312 C-2.73844964 39.50134658 -2.83989273 27.93819482 -2.9375 16.375 C-24.04420158 16.375 -44.5576191 27.90470163 -59.9375 41.375 Z " fill="#01074D" transform="translate(122.9375,55.625)"/>
<path d="M0 0 C1.25937378 0.01812744 1.25937378 0.01812744 2.54418945 0.03662109 C27.44591303 0.8058403 50.81642775 11.23915574 69.375 27.5 C70.10460937 28.1084375 70.83421875 28.716875 71.5859375 29.34375 C76.33274334 33.34488902 80.4092299 37.72868285 84.375 42.5 C85.00148438 41.86191406 85.62796875 41.22382812 86.2734375 40.56640625 C87.09070313 39.74011719 87.90796875 38.91382813 88.75 38.0625 C89.56210937 37.23878906 90.37421875 36.41507813 91.2109375 35.56640625 C94.78578497 32.15287861 96.98002347 32.37750004 101.84423828 32.38647461 C102.83954056 32.38625557 102.83954056 32.38625557 103.85494995 32.3860321 C106.05177053 32.38672969 108.2485067 32.39451486 110.4453125 32.40234375 C111.96703037 32.40420848 113.48874884 32.40563212 115.01046753 32.40663147 C119.01851047 32.41045233 123.02651726 32.42027896 127.0345459 32.43133545 C131.12328604 32.44155882 135.21203201 32.44613108 139.30078125 32.45117188 C147.32553928 32.4619016 155.35026098 32.47949493 163.375 32.5 C163.375 37.78 163.375 43.06 163.375 48.5 C161.59931641 48.48839844 159.82363281 48.47679687 157.99414062 48.46484375 C152.10265293 48.43576893 146.21183065 48.44378842 140.32041168 48.47665405 C136.75093227 48.49522727 133.18270881 48.49928086 129.61328125 48.46923828 C126.16310245 48.44074882 122.71501189 48.45159335 119.26493835 48.48880005 C117.31969886 48.49978292 115.37436489 48.47087249 113.42932129 48.44116211 C107.18002157 48.54222443 103.15441131 48.91153044 98.44335938 53.25 C96.47318262 55.18875911 96.47318262 55.18875911 95.375 57.5 C95.72244468 61.24337979 97.03706362 64.14803015 98.6875 67.5 C104.6582637 80.33886761 107.48997427 93.35100427 107.75 107.4375 C107.77610352 108.26717285 107.80220703 109.0968457 107.82910156 109.95166016 C107.83248535 111.13381104 107.83248535 111.13381104 107.8359375 112.33984375 C107.84415527 113.04488037 107.85237305 113.74991699 107.86083984 114.47631836 C107.09956103 117.64729329 106.0423626 118.57191459 103.375 120.5 C99.82499758 121.11647496 96.29847915 121.04593466 92.703125 121.01757812 C91.61656616 121.0245874 90.53000732 121.03159668 89.41052246 121.03881836 C85.81508915 121.05643868 82.22044146 121.04476058 78.625 121.03125 C76.12923023 121.03394373 73.63346148 121.03782516 71.13769531 121.04284668 C65.90551725 121.04874721 60.67354392 121.04054146 55.44140625 121.02148438 C49.39502988 120.99971569 43.34919304 121.00676724 37.30282974 121.02879 C31.48287034 121.04913847 25.6631158 121.04697294 19.84313965 121.03526306 C17.36795985 121.03259155 14.89276631 121.03588036 12.41760254 121.04518127 C8.96032041 121.05532109 5.50407943 121.03988019 2.046875 121.01757812 C1.02025757 121.02567505 -0.00635986 121.03377197 -1.06408691 121.04211426 C-4.94343722 120.99566888 -7.78809052 120.93371322 -11.25964355 119.13464355 C-13.48545199 114.83963923 -13.18016537 110.59385119 -13.14257812 105.828125 C-13.1495874 104.74156616 -13.15659668 103.65500732 -13.16381836 102.53552246 C-13.18143868 98.94008915 -13.16976058 95.34544146 -13.15625 91.75 C-13.15894373 89.25423023 -13.16282516 86.75846148 -13.16784668 84.26269531 C-13.17374721 79.03051725 -13.16554146 73.79854392 -13.14648438 68.56640625 C-13.12471569 62.52002988 -13.13176724 56.47419304 -13.15379 50.42782974 C-13.17413847 44.60787034 -13.17197294 38.7881158 -13.16026306 32.96813965 C-13.15759155 30.49295985 -13.16088036 28.01776631 -13.17018127 25.54260254 C-13.18032109 22.08532041 -13.16488019 18.62907943 -13.14257812 15.171875 C-13.15067505 14.14525757 -13.15877197 13.11864014 -13.16711426 12.06091309 C-13.08469999 5.17726097 -13.08469999 5.17726097 -10.83728027 1.86621094 C-7.38614603 -0.26506393 -3.92909022 -0.09068648 0 0 Z " fill="#00074D" transform="translate(172.625,15.5)"/>
<path d="M0 0 C1.18142578 -0.01891296 1.18142578 -0.01891296 2.38671875 -0.03820801 C3.22847656 -0.03011108 4.07023438 -0.02201416 4.9375 -0.01367188 C5.81019531 -0.01749878 6.68289062 -0.02132568 7.58203125 -0.02526855 C9.42449092 -0.02798678 11.26698924 -0.02063182 13.109375 -0.00390625 C15.92795934 0.01750565 18.74399485 -0.00370989 21.5625 -0.02929688 C23.35417229 -0.02665358 25.14584299 -0.02152857 26.9375 -0.01367188 C27.77925781 -0.0217688 28.62101562 -0.02986572 29.48828125 -0.03820801 C30.27589844 -0.02559937 31.06351563 -0.01299072 31.875 0 C32.90947266 0.00477356 32.90947266 0.00477356 33.96484375 0.00964355 C36.92269581 0.77125385 38.04484151 2.14214777 39.9375 4.51757812 C40.44086456 7.62231445 40.44086456 7.62231445 40.44543457 11.34960938 C40.45167453 12.03624161 40.4579145 12.72287384 40.46434355 13.43031311 C40.48029568 15.73058433 40.46766168 18.02979909 40.45507812 20.33007812 C40.4604983 21.97933572 40.46762037 23.62858847 40.47631836 25.27783203 C40.49456725 29.75718028 40.4874778 34.23616038 40.47480202 38.71551514 C40.46468243 43.40084839 40.4740648 48.0861499 40.48034668 52.77148438 C40.48762613 60.64003159 40.4780276 68.50842869 40.45898438 76.37695312 C40.43721504 85.47703583 40.4442662 94.57676009 40.46629 103.67683411 C40.48443554 111.48671031 40.48700647 119.29647854 40.47653532 127.10636902 C40.47029573 131.77230709 40.46947752 136.43807663 40.48268127 141.10400391 C40.49422689 145.4904663 40.48623787 149.87646606 40.46310425 154.26287842 C40.45781022 155.87375113 40.4593428 157.48466271 40.46815491 159.09552002 C40.4790674 161.29272313 40.4654014 163.48843886 40.44543457 165.68554688 C40.44392647 166.9155542 40.44241837 168.14556152 40.44086456 169.4128418 C39.84333259 173.09839967 38.86201933 174.27373232 35.9375 176.51757812 C33.96484375 177.0255127 33.96484375 177.0255127 31.875 177.03515625 C31.08738281 177.04776489 30.29976562 177.06037354 29.48828125 177.07336426 C28.64652344 177.06526733 27.80476563 177.05717041 26.9375 177.04882812 C26.06480469 177.05265503 25.19210938 177.05648193 24.29296875 177.0604248 C22.45050908 177.06314303 20.60801076 177.05578807 18.765625 177.0390625 C15.94704066 177.0176506 13.13100515 177.03886614 10.3125 177.06445312 C8.52082771 177.06180983 6.72915701 177.05668482 4.9375 177.04882812 C4.09574219 177.05692505 3.25398437 177.06502197 2.38671875 177.07336426 C1.59910156 177.06075562 0.81148437 177.04814697 0 177.03515625 C-1.03447266 177.03038269 -1.03447266 177.03038269 -2.08984375 177.0255127 C-5.04769581 176.2639024 -6.16984151 174.89300848 -8.0625 172.51757812 C-8.56586456 169.4128418 -8.56586456 169.4128418 -8.57043457 165.68554688 C-8.57979451 164.65559853 -8.57979451 164.65559853 -8.58934355 163.60484314 C-8.60529568 161.30457192 -8.59266168 159.00535716 -8.58007812 156.70507812 C-8.5854983 155.05582053 -8.59262037 153.40656778 -8.60131836 151.75732422 C-8.61956725 147.27797597 -8.6124778 142.79899587 -8.59980202 138.31964111 C-8.58968243 133.63430786 -8.5990648 128.94900635 -8.60534668 124.26367188 C-8.61262613 116.39512466 -8.6030276 108.52672756 -8.58398438 100.65820312 C-8.56221504 91.55812042 -8.5692662 82.45839616 -8.59129 73.35832214 C-8.60943554 65.54844594 -8.61200647 57.73867771 -8.60153532 49.92878723 C-8.59529573 45.26284916 -8.59447752 40.59707962 -8.60768127 35.93115234 C-8.61922689 31.54468995 -8.61123787 27.15869019 -8.58810425 22.77227783 C-8.58281022 21.16140512 -8.5843428 19.55049354 -8.59315491 17.93963623 C-8.6040674 15.74243312 -8.5904014 13.54671739 -8.57043457 11.34960938 C-8.56892647 10.11960205 -8.56741837 8.88959473 -8.56586456 7.62231445 C-7.75848276 2.64240966 -5.06658503 0.02337969 0 0 Z " fill="#00064E" transform="translate(184.0625,287.482421875)"/>
<path d="M0 0 C0 26.4 0 52.8 0 80 C-1.65 79.01 -3.3 78.02 -5 77 C-7.86976283 76.16516674 -7.86976283 76.16516674 -11 77 C-19.33157793 82.8248939 -26.35499981 91.24468605 -33.5 98.4375 C-34.81226585 99.75479059 -36.12476395 101.07184986 -37.4375 102.38867188 C-40.62768506 105.5897861 -43.81470651 108.79401865 -47 112 C-50.24095065 110.58079247 -52.35835505 108.86691752 -54.8203125 106.33984375 C-55.87025391 105.2734668 -55.87025391 105.2734668 -56.94140625 104.18554688 C-57.66199219 103.44369141 -58.38257813 102.70183594 -59.125 101.9375 C-60.56287561 100.46526807 -62.00287708 98.99510844 -63.4453125 97.52734375 C-64.07969238 96.87499756 -64.71407227 96.22265137 -65.36767578 95.55053711 C-67.46703568 93.556365 -68.76712939 93.04435631 -71.625 92.5 C-76.8324097 93.2714681 -79.35107895 96.36914292 -83 100 C-83.75748535 100.74709229 -83.75748535 100.74709229 -84.53027344 101.50927734 C-88.04746533 104.97961499 -91.53228048 108.48026469 -95 112 C-97.99093346 110.65791709 -100.06189781 109.18024138 -102.35986328 106.85131836 C-102.99376984 106.21403305 -103.62767639 105.57674774 -104.28079224 104.92015076 C-104.95383392 104.23364944 -105.62687561 103.54714813 -106.3203125 102.83984375 C-107.0201828 102.13477188 -107.7200531 101.42970001 -108.44113159 100.70326233 C-110.67388982 98.4527047 -112.89984265 96.19557104 -115.125 93.9375 C-117.35816043 91.67674302 -119.59275286 89.41744978 -121.83029175 87.161026 C-123.22198888 85.75704949 -124.61100444 84.35040892 -125.99710083 82.94090271 C-126.62470306 82.30676956 -127.2523053 81.67263641 -127.89892578 81.01928711 C-128.4508963 80.45906357 -129.00286682 79.89884003 -129.57156372 79.32164001 C-131.56114665 77.48080718 -132.94716512 77.01006379 -135.625 76.5 C-143.52440256 77.67028186 -149.63594875 86.55198105 -155.05126953 92.08691406 C-156.34996545 93.40874839 -157.67280584 94.70678201 -159 96 C-159.33 96 -159.66 96 -160 96 C-161.33035313 90.18633786 -161.88288686 84.75577993 -160 79 C-154.95042609 71.02545732 -147.38344852 64.78730654 -140.5 58.4375 C-138.61723101 56.64010524 -136.73827959 54.83870257 -134.86328125 53.03320312 C-130.28528277 48.64151914 -125.66225747 44.30203668 -121 40 C-118.00906654 41.34208291 -115.93810219 42.81975862 -113.64013672 45.14868164 C-113.00623016 45.78596695 -112.37232361 46.42325226 -111.71920776 47.07984924 C-111.04616608 47.76635056 -110.37312439 48.45285187 -109.6796875 49.16015625 C-108.9798172 49.86522812 -108.2799469 50.57029999 -107.55886841 51.29673767 C-105.32611018 53.5472953 -103.10015735 55.80442896 -100.875 58.0625 C-98.64183957 60.32325698 -96.40724714 62.58255022 -94.16970825 64.838974 C-92.77801112 66.24295051 -91.38899556 67.64959108 -90.00289917 69.05909729 C-89.37529694 69.69323044 -88.7476947 70.32736359 -88.10107422 70.98071289 C-87.5491037 71.54093643 -86.99713318 72.10115997 -86.42843628 72.67835999 C-84.43885335 74.51919282 -83.05283488 74.98993621 -80.375 75.5 C-76.66822152 74.95084763 -75.91628787 74.34406402 -73.23497009 71.90855408 C-72.17975568 70.95145444 -72.17975568 70.95145444 -71.1032238 69.97501945 C-67.96457095 67.02768668 -64.89690055 64.02042115 -61.86547852 60.96313477 C-61.2026738 60.29886978 -60.53986908 59.6346048 -59.85697937 58.95021057 C-58.43399457 57.52345116 -57.0121649 56.09553889 -55.59140205 54.66656685 C-53.34555839 52.4078675 -51.09652458 50.152388 -48.84666443 47.89768982 C-44.0824495 43.12210651 -39.32220542 38.34257728 -34.5625 33.5625 C-29.02138467 27.99780133 -23.47866326 22.43472214 -17.93174553 16.87580681 C-15.71104565 14.64860317 -13.49336478 12.41842245 -11.27577209 10.18812561 C-9.92691446 8.83563881 -8.57791812 7.48329033 -7.22875977 6.13110352 C-6.60907318 5.50625061 -5.9893866 4.88139771 -5.35092163 4.23760986 C-1.11384328 0 -1.11384328 0 0 0 Z " fill="#FE5921" transform="translate(480,332)"/>
<path d="M0 0 C5.28 0 10.56 0 16 0 C16 63.36 16 126.72 16 192 C89.92 192 163.84 192 240 192 C240 197.28 240 202.56 240 208 C210.00311627 208.09121247 180.00623729 208.16201909 150.00924553 208.20426132 C146.4693796 208.20926426 142.92951395 208.21444154 139.38964844 208.21972656 C138.68491259 208.2207758 137.98017675 208.22182505 137.25408527 208.22290608 C125.8368591 208.24032049 114.41971334 208.27186383 103.0025349 208.30861118 C91.29107208 208.34599188 79.57965143 208.36822976 67.8681314 208.37635398 C61.28839332 208.38157813 54.70883773 208.39389422 48.12915802 208.42292023 C41.9404276 208.45000126 35.75195543 208.45845973 29.56317139 208.45243073 C27.28790638 208.45353423 25.01263303 208.4615313 22.73741913 208.4768219 C19.6381223 208.49663497 16.53980887 208.49197055 13.44049072 208.48101807 C12.53387829 208.49266943 11.62726586 208.5043208 10.69318032 208.51632524 C6.98855675 208.48077979 4.66592644 208.39434817 1.44003296 206.48403931 C-0.60039539 202.96432527 -0.53993984 199.72949808 -0.48101807 195.77435303 C-0.48443577 194.93789065 -0.48785347 194.10142827 -0.49137473 193.23961854 C-0.49797136 190.43251072 -0.47594836 187.62635588 -0.45410156 184.81933594 C-0.45297347 182.8089195 -0.4536062 180.79850141 -0.45587158 178.78808594 C-0.45702114 173.32554327 -0.43347249 167.86335059 -0.40557575 162.4008894 C-0.38060251 156.69405571 -0.37822331 150.98721437 -0.37347412 145.28033447 C-0.36103237 134.47143692 -0.32819444 123.66270084 -0.28807616 112.85387444 C-0.24339584 100.54932272 -0.22138081 88.24476336 -0.20129442 75.94015074 C-0.15946293 50.62667454 -0.08828354 25.31335312 0 0 Z " fill="#00064E" transform="translate(16,288)"/>
<path d="M0 0 C1.18142578 -0.01891296 1.18142578 -0.01891296 2.38671875 -0.03820801 C3.22847656 -0.03011108 4.07023437 -0.02201416 4.9375 -0.01367188 C5.81019531 -0.01749878 6.68289062 -0.02132568 7.58203125 -0.02526855 C9.42449092 -0.02798678 11.26698924 -0.02063182 13.109375 -0.00390625 C15.92795934 0.01750565 18.74399485 -0.00370989 21.5625 -0.02929688 C23.35417229 -0.02665358 25.14584299 -0.02152857 26.9375 -0.01367188 C27.77925781 -0.0217688 28.62101562 -0.02986572 29.48828125 -0.03820801 C30.27589844 -0.02559937 31.06351563 -0.01299072 31.875 0 C32.90947266 0.00477356 32.90947266 0.00477356 33.96484375 0.00964355 C36.8788226 0.75995704 38.04253338 2.214642 39.9375 4.51757812 C40.44086456 7.12255859 40.44086456 7.12255859 40.44543457 10.13476562 C40.45671387 11.27880859 40.46799316 12.42285156 40.47961426 13.6015625 C40.47151733 14.85259766 40.46342041 16.10363281 40.45507812 17.39257812 C40.46049968 18.72657027 40.46762254 20.06055643 40.47631836 21.39453125 C40.49455113 25.0144316 40.48748474 28.63387587 40.47480202 32.25378418 C40.46467395 36.04224882 40.47406715 39.83067445 40.48034668 43.61914062 C40.48762368 49.98119111 40.47803413 56.34305584 40.45898438 62.70507812 C40.43721536 70.0601795 40.44426671 77.41483736 40.46629 84.76992798 C40.48444262 91.0851318 40.48700305 97.40020211 40.47653532 103.71542358 C40.47029956 107.48711415 40.46946682 111.25859626 40.48268127 115.03027344 C40.49423735 118.57630165 40.48621944 122.12175815 40.46310425 125.66772461 C40.45529314 127.589673 40.46717522 129.51166974 40.47961426 131.43359375 C40.46833496 132.57763672 40.45705566 133.72167969 40.44543457 134.90039062 C40.44392647 135.89441895 40.44241837 136.88844727 40.44086456 137.91259766 C39.79894336 141.23462767 38.53997666 142.42634478 35.9375 144.51757812 C33.96484375 145.0255127 33.96484375 145.0255127 31.875 145.03515625 C31.08738281 145.04776489 30.29976562 145.06037354 29.48828125 145.07336426 C28.64652344 145.06526733 27.80476563 145.05717041 26.9375 145.04882812 C26.06480469 145.05265503 25.19210938 145.05648193 24.29296875 145.0604248 C22.45050908 145.06314303 20.60801076 145.05578807 18.765625 145.0390625 C15.94704066 145.0176506 13.13100515 145.03886614 10.3125 145.06445312 C8.52082771 145.06180983 6.72915701 145.05668482 4.9375 145.04882812 C4.09574219 145.05692505 3.25398438 145.06502197 2.38671875 145.07336426 C1.59910156 145.06075562 0.81148437 145.04814697 0 145.03515625 C-1.03447266 145.03038269 -1.03447266 145.03038269 -2.08984375 145.0255127 C-5.0038226 144.27519921 -6.16753338 142.82051425 -8.0625 140.51757812 C-8.56586456 137.91259766 -8.56586456 137.91259766 -8.57043457 134.90039062 C-8.58171387 133.75634766 -8.59299316 132.61230469 -8.60461426 131.43359375 C-8.59651733 130.18255859 -8.58842041 128.93152344 -8.58007812 127.64257812 C-8.58549968 126.30858598 -8.59262254 124.97459982 -8.60131836 123.640625 C-8.61955113 120.02072465 -8.61248474 116.40128038 -8.59980202 112.78137207 C-8.58967395 108.99290743 -8.59906715 105.2044818 -8.60534668 101.41601562 C-8.61262368 95.05396514 -8.60303413 88.69210041 -8.58398438 82.33007812 C-8.56221536 74.97497675 -8.56926671 67.62031889 -8.59129 60.26522827 C-8.60944262 53.95002445 -8.61200305 47.63495414 -8.60153532 41.31973267 C-8.59529956 37.5480421 -8.59446682 33.77655999 -8.60768127 30.00488281 C-8.61923735 26.4588546 -8.61121944 22.9133981 -8.58810425 19.36743164 C-8.58029314 17.44548325 -8.59217522 15.52348651 -8.60461426 13.6015625 C-8.59333496 12.45751953 -8.58205566 11.31347656 -8.57043457 10.13476562 C-8.56892647 9.1407373 -8.56741837 8.14670898 -8.56586456 7.12255859 C-7.65943733 2.43167366 -4.70902096 0.02172971 0 0 Z " fill="#00064E" transform="translate(120.0625,319.482421875)"/>
<path d="M0 0 C-0.09765625 2.234375 -0.09765625 2.234375 -1 5 C-3.14281603 6.63318941 -5.11670774 7.93046383 -7.4375 9.25 C-13.97662597 13.2169812 -19.5726793 17.5726793 -25 23 C-26.26457031 24.26457031 -26.26457031 24.26457031 -27.5546875 25.5546875 C-47.58313514 46.55716299 -55.78840445 73.19177057 -55.3046875 101.62890625 C-54.37674328 127.33909642 -42.7475795 150.68953085 -25 169 C-24.4740625 169.59941406 -23.948125 170.19882813 -23.40625 170.81640625 C-15.4594791 179.55379977 -1.08874724 190.14556264 11 190.75 C11.94875 190.80671875 12.8975 190.8634375 13.875 190.921875 C14.57625 190.94765625 15.2775 190.9734375 16 191 C16 191.33 16 191.66 16 192 C-13.50575399 193.08536152 -37.12048225 184.68568303 -59.30078125 164.953125 C-75.8198475 149.31849926 -87.23388707 125.49522201 -88.22265625 102.71875 C-88.970873 74.70865897 -80.33975328 50.54930255 -61.66015625 29.34375 C-46.4168 13.3345201 -22.68448261 0 0 0 Z " fill="#FCB101" transform="translate(120,72)"/>
<path d="M0 0 C16.18922183 1.15637299 16.18922183 1.15637299 22.75 3.75 C23.46969971 4.02166992 24.18939941 4.29333984 24.9309082 4.57324219 C26.96593997 5.35561158 28.98473774 6.16822026 31 7 C31.92683594 7.3815625 32.85367188 7.763125 33.80859375 8.15625 C47.72344508 14.5538828 59.6351209 25.02905726 69 37 C67.60652624 40.15204981 65.97514921 42.26171773 63.5234375 44.671875 C62.853125 45.33574219 62.1828125 45.99960938 61.4921875 46.68359375 C60.79351562 47.36550781 60.09484375 48.04742187 59.375 48.75 C58.66859375 49.44738281 57.9621875 50.14476562 57.234375 50.86328125 C55.49401297 52.58012488 53.74915019 54.29211832 52 56 C53.50946511 59.18086518 55.07941825 61.29869906 57.625 63.75 C58.25664062 64.36359375 58.88828125 64.9771875 59.5390625 65.609375 C60.02117187 66.06828125 60.50328125 66.5271875 61 67 C65.32504836 65.34136495 68.09418825 62.128959 71.25 58.875 C71.80429688 58.31167969 72.35859375 57.74835938 72.9296875 57.16796875 C74.29104485 55.78313972 75.64614859 54.39216796 77 53 C83.2191413 58.16750807 85.60361055 69.2563858 87 77 C87 80.3 87 83.6 87 87 C58.29 87 29.58 87 0 87 C0 58.29 0 29.58 0 0 Z " fill="#FB3B1D" transform="translate(176,33)"/>
<path d="M0 0 C2.99093346 1.34208291 5.06189781 2.81975862 7.35986328 5.14868164 C8.31072311 6.1046096 8.31072311 6.1046096 9.28079224 7.07984924 C10.29035477 8.10960121 10.29035477 8.10960121 11.3203125 9.16015625 C12.0201828 9.86522812 12.7200531 10.57029999 13.44113159 11.29673767 C15.67388982 13.5472953 17.89984265 15.80442896 20.125 18.0625 C22.35816043 20.32325698 24.59275286 22.58255022 26.83029175 24.838974 C28.22198888 26.24295051 29.61100444 27.64959108 30.99710083 29.05909729 C31.62470306 29.69323044 32.2523053 30.32736359 32.89892578 30.98071289 C33.72688156 31.8210482 33.72688156 31.8210482 34.57156372 32.67835999 C36.56114665 34.51919282 37.94716512 34.98993621 40.625 35.5 C45.8324097 34.7285319 48.35107895 31.63085708 52 28 C52.75748535 27.25290771 52.75748535 27.25290771 53.53027344 26.49072266 C57.04746533 23.02038501 60.53228048 19.51973531 64 16 C67.24095065 17.41920753 69.35835505 19.13308248 71.8203125 21.66015625 C72.52027344 22.37107422 73.22023438 23.08199219 73.94140625 23.81445312 C74.66199219 24.55630859 75.38257813 25.29816406 76.125 26.0625 C77.56287561 27.53473193 79.00287708 29.00489156 80.4453125 30.47265625 C81.07969238 31.12500244 81.71407227 31.77734863 82.36767578 32.44946289 C84.46703568 34.443635 85.76712939 34.95564369 88.625 35.5 C98.27282462 34.07069265 107.78554737 20.32188521 114.5 13.5625 C115.81226585 12.24520941 117.12476395 10.92815014 118.4375 9.61132812 C121.62768506 6.4102139 124.81470651 3.20598135 128 0 C132.17230166 1.6998266 133.44487313 3.44487313 137 7 C137 21.85 137 36.7 137 52 C84.2 52 31.4 52 -23 52 C-23 23 -23 23 -17.96875 15.13671875 C-15.83482684 13.19498122 -13.76454486 11.44422381 -11.5 9.6875 C-10.38537732 8.719076 -9.27724326 7.7431324 -8.17578125 6.75976562 C-5.51901541 4.415759 -2.79151349 2.18304876 0 0 Z " fill="#00A4AA" transform="translate(343,428)"/>
<path d="M0 0 C1.18142578 -0.01891296 1.18142578 -0.01891296 2.38671875 -0.03820801 C3.22847656 -0.03011108 4.07023437 -0.02201416 4.9375 -0.01367188 C5.81019531 -0.01749878 6.68289062 -0.02132568 7.58203125 -0.02526855 C9.42449092 -0.02798678 11.26698924 -0.02063182 13.109375 -0.00390625 C15.92795934 0.01750565 18.74399485 -0.00370989 21.5625 -0.02929688 C23.35417229 -0.02665358 25.14584299 -0.02152857 26.9375 -0.01367188 C27.77925781 -0.0217688 28.62101562 -0.02986572 29.48828125 -0.03820801 C30.27589844 -0.02559937 31.06351563 -0.01299072 31.875 0 C32.90947266 0.00477356 32.90947266 0.00477356 33.96484375 0.00964355 C37.02551417 0.79772831 38.10496497 1.94468335 39.9375 4.51757812 C40.33205787 7.46543082 40.48482315 10.03935095 40.45507812 12.98632812 C40.4620874 13.83880127 40.46909668 14.69127441 40.47631836 15.56958008 C40.49391568 18.38591132 40.4822696 21.20123676 40.46875 24.01757812 C40.47144442 25.97526238 40.47532642 27.93294533 40.48034668 29.890625 C40.48624408 33.99296819 40.47767093 38.09496294 40.45898438 42.19726562 C40.43619475 47.45678441 40.44931653 52.71548676 40.47327423 57.97497559 C40.48772563 62.01731523 40.48312923 66.05946118 40.47276306 70.10180664 C40.47009396 72.04109799 40.47337197 73.9804069 40.48268127 75.91967773 C40.49283602 78.62986863 40.47736128 81.33873587 40.45507812 84.04882812 C40.46317505 84.85102783 40.47127197 85.65322754 40.47961426 86.47973633 C40.42607798 89.99286308 40.222725 92.11711979 38.15905762 95.01452637 C35.78788612 96.61880323 34.69736261 97.0221325 31.875 97.03515625 C30.69357422 97.05406921 30.69357422 97.05406921 29.48828125 97.07336426 C28.64652344 97.06526733 27.80476563 97.05717041 26.9375 97.04882812 C26.06480469 97.05265503 25.19210938 97.05648193 24.29296875 97.0604248 C22.45050908 97.06314303 20.60801076 97.05578807 18.765625 97.0390625 C15.94704066 97.0176506 13.13100515 97.03886614 10.3125 97.06445312 C8.52082771 97.06180983 6.72915701 97.05668482 4.9375 97.04882812 C3.67486328 97.06097351 3.67486328 97.06097351 2.38671875 97.07336426 C1.20529297 97.05445129 1.20529297 97.05445129 0 97.03515625 C-0.68964844 97.03197388 -1.37929688 97.0287915 -2.08984375 97.0255127 C-5.15051417 96.23742794 -6.22996497 95.0904729 -8.0625 92.51757812 C-8.45705787 89.56972543 -8.60982315 86.9958053 -8.58007812 84.04882812 C-8.5870874 83.19635498 -8.59409668 82.34388184 -8.60131836 81.46557617 C-8.61891568 78.64924493 -8.6072696 75.83391949 -8.59375 73.01757812 C-8.59644442 71.05989387 -8.60032642 69.10221092 -8.60534668 67.14453125 C-8.61124408 63.04218806 -8.60267093 58.94019331 -8.58398438 54.83789062 C-8.56119475 49.57837184 -8.57431653 44.31966949 -8.59827423 39.06018066 C-8.61272563 35.01784102 -8.60812923 30.97569507 -8.59776306 26.93334961 C-8.59509396 24.99405826 -8.59837197 23.05474935 -8.60768127 21.11547852 C-8.61783602 18.40528762 -8.60236128 15.69642038 -8.58007812 12.98632812 C-8.58817505 12.18412842 -8.59627197 11.38192871 -8.60461426 10.55541992 C-8.55107798 7.04229317 -8.347725 4.91803646 -6.28405762 2.02062988 C-3.91288612 0.41635302 -2.82236261 0.01302375 0 0 Z " fill="#00064E" transform="translate(56.0625,367.482421875)"/>
<path d="M0 0 C15.07480417 6.46063036 26.68985595 16.33013988 37 29 C35.60652624 32.15204981 33.97514921 34.26171773 31.5234375 36.671875 C30.853125 37.33574219 30.1828125 37.99960938 29.4921875 38.68359375 C28.79351562 39.36550781 28.09484375 40.04742187 27.375 40.75 C26.66859375 41.44738281 25.9621875 42.14476562 25.234375 42.86328125 C23.49401297 44.58012488 21.74915019 46.29211832 20 48 C21.50946511 51.18086518 23.07941825 53.29869906 25.625 55.75 C26.25664062 56.36359375 26.88828125 56.9771875 27.5390625 57.609375 C28.02117187 58.06828125 28.50328125 58.5271875 29 59 C33.32504836 57.34136495 36.09418825 54.128959 39.25 50.875 C39.80429688 50.31167969 40.35859375 49.74835938 40.9296875 49.16796875 C42.29104485 47.78313972 43.64614859 46.39216796 45 45 C51.2191413 50.16750807 53.60361055 61.2563858 55 69 C55 72.3 55 75.6 55 79 C36.85 79 18.7 79 0 79 C0 52.93 0 26.86 0 0 Z " fill="#FD5921" transform="translate(208,41)"/>
<path d="M0 0 C5.28 0 10.56 0 16 0 C16 47.52 16 95.04 16 144 C10.72 144 5.44 144 0 144 C0 96.48 0 48.96 0 0 Z " fill="#FF5A21" transform="translate(192,304)"/>
<path d="M0 0 C5.28 0 10.56 0 16 0 C16 36.96 16 73.92 16 112 C10.72 112 5.44 112 0 112 C0 75.04 0 38.08 0 0 Z " fill="#00A5AB" transform="translate(128,336)"/>
<path d="M0 0 C3.91327382 1.59429674 6.45102431 3.62365098 9 7 C9.6812483 10.45270885 9.5827151 13.82452787 9.48828125 17.33203125 C9.48120651 18.32377853 9.47413177 19.31552582 9.46684265 20.33732605 C9.43891433 23.49649342 9.3761772 26.65387082 9.3125 29.8125 C9.28741518 31.95765665 9.26460234 34.10284115 9.24414062 36.24804688 C9.19334864 41.49993766 9.09549142 46.74797209 9 52 C-1.56 52 -12.12 52 -23 52 C-25.88008636 25.8287805 -25.88008636 25.8287805 -19.36378479 17.63536072 C-13.5741142 11.07617732 -6.87979557 5.38021016 0 0 Z " fill="#007C92" transform="translate(343,428)"/>
<path d="M0 0 C2.89859892 9.13944818 4.21334507 19.11053526 0 28 C-10.21689236 42.96201103 -25.4348205 55.16108438 -39 67 C-43.00374431 65.16307611 -45.71957934 62.50882084 -48.75 59.375 C-49.25660156 58.859375 -49.76320313 58.34375 -50.28515625 57.8125 C-51.52803902 56.54616661 -52.76465276 55.2736856 -54 54 C-48.75498729 47.64479753 -42.99520535 41.84907585 -37.16796875 36.03515625 C-36.12504228 34.9915551 -35.08226421 33.94780563 -34.03962708 32.90391541 C-31.86861311 30.73143614 -29.69582299 28.56075375 -27.52172852 26.39135742 C-24.72947079 23.60483918 -21.94178413 20.81379755 -19.15537548 18.02143192 C-17.01000369 15.87245923 -14.86227171 13.7258582 -12.71380043 11.57998466 C-11.68396843 10.55082104 -10.65488232 9.5209105 -9.62654686 8.49025154 C-8.19769769 7.05887903 -6.76532304 5.63102836 -5.33276367 4.20336914 C-4.51813156 3.38953262 -3.70349945 2.57569611 -2.86418152 1.73719788 C-1 0 -1 0 0 0 Z " fill="#FB3B1D" transform="translate(480,332)"/>
<path d="M0 0 C2.64 0 5.28 0 8 0 C8 47.52 8 95.04 8 144 C5.36 144 2.72 144 0 144 C0 96.48 0 48.96 0 0 Z " fill="#FC3C1D" transform="translate(192,304)"/>
<path d="M0 0 C4.00374431 1.83692389 6.71957934 4.49117916 9.75 7.625 C10.25660156 8.140625 10.76320313 8.65625 11.28515625 9.1875 C12.52803902 10.45383339 13.76465276 11.7263144 15 13 C10.06792471 18.93689934 4.73571886 24.27521234 -0.87304688 29.5703125 C-1.51951172 30.199375 -2.16597656 30.8284375 -2.83203125 31.4765625 C-3.41702393 32.03424316 -4.0020166 32.59192383 -4.60473633 33.16650391 C-6.30535166 35.40125826 -6.63499889 37.24463995 -7 40 C-7.70125 39.505 -8.4025 39.01 -9.125 38.5 C-12.63220952 36.67015156 -14.09830963 36.23496267 -18 37 C-24.03346091 40.98615171 -29.0070782 46.93130791 -34.05126953 52.08691406 C-35.34996545 53.40874839 -36.67280584 54.70678201 -38 56 C-38.33 56 -38.66 56 -39 56 C-40.33035313 50.18633786 -40.88288686 44.75577993 -39 39 C-33.95042609 31.02545732 -26.38344852 24.78730654 -19.5 18.4375 C-17.61723101 16.64010524 -15.73827959 14.83870257 -13.86328125 13.03320312 C-9.28528277 8.64151914 -4.66225747 4.30203668 0 0 Z " fill="#FB3B1D" transform="translate(359,372)"/>
<path d="M0 0 C5.28 0 10.56 0 16 0 C16 21.12 16 42.24 16 64 C10.72 64 5.44 64 0 64 C0 42.88 0 21.76 0 0 Z " fill="#FFD648" transform="translate(64,384)"/>
<path d="M0 0 C21.12 0 42.24 0 64 0 C64 5.28 64 10.56 64 16 C42.88 16 21.76 16 0 16 C0 10.72 0 5.44 0 0 Z " fill="#00074E" transform="translate(432,240)"/>
<path d="M0 0 C21.12 0 42.24 0 64 0 C64 5.28 64 10.56 64 16 C42.88 16 21.76 16 0 16 C0 10.72 0 5.44 0 0 Z " fill="#00074E" transform="translate(352,240)"/>
<path d="M0 0 C21.12 0 42.24 0 64 0 C64 5.28 64 10.56 64 16 C42.88 16 21.76 16 0 16 C0 10.72 0 5.44 0 0 Z " fill="#00074E" transform="translate(432,208)"/>
<path d="M0 0 C21.12 0 42.24 0 64 0 C64 5.28 64 10.56 64 16 C42.88 16 21.76 16 0 16 C0 10.72 0 5.44 0 0 Z " fill="#00074E" transform="translate(352,208)"/>
<path d="M0 0 C21.12 0 42.24 0 64 0 C64 5.28 64 10.56 64 16 C42.88 16 21.76 16 0 16 C0 10.72 0 5.44 0 0 Z " fill="#00074E" transform="translate(432,176)"/>
<path d="M0 0 C21.12 0 42.24 0 64 0 C64 5.28 64 10.56 64 16 C42.88 16 21.76 16 0 16 C0 10.72 0 5.44 0 0 Z " fill="#00074E" transform="translate(352,176)"/>
<path d="M0 0 C21.12 0 42.24 0 64 0 C64 5.28 64 10.56 64 16 C42.88 16 21.76 16 0 16 C0 10.72 0 5.44 0 0 Z " fill="#00074E" transform="translate(432,112)"/>
<path d="M0 0 C21.12 0 42.24 0 64 0 C64 5.28 64 10.56 64 16 C42.88 16 21.76 16 0 16 C0 10.72 0 5.44 0 0 Z " fill="#00074E" transform="translate(352,112)"/>
<path d="M0 0 C21.12 0 42.24 0 64 0 C64 5.28 64 10.56 64 16 C42.88 16 21.76 16 0 16 C0 10.72 0 5.44 0 0 Z " fill="#00074E" transform="translate(432,80)"/>
<path d="M0 0 C21.12 0 42.24 0 64 0 C64 5.28 64 10.56 64 16 C42.88 16 21.76 16 0 16 C0 10.72 0 5.44 0 0 Z " fill="#00074E" transform="translate(352,80)"/>
<path d="M0 0 C21.12 0 42.24 0 64 0 C64 5.28 64 10.56 64 16 C42.88 16 21.76 16 0 16 C0 10.72 0 5.44 0 0 Z " fill="#00074E" transform="translate(352,48)"/>
<path d="M0 0 C2.64 0 5.28 0 8 0 C8 36.96 8 73.92 8 112 C5.36 112 2.72 112 0 112 C0 75.04 0 38.08 0 0 Z " fill="#007D93" transform="translate(128,336)"/>
<path d="M0 0 C2.64 0 5.28 0 8 0 C8 21.12 8 42.24 8 64 C5.36 64 2.72 64 0 64 C0 42.88 0 21.76 0 0 Z " fill="#FFB300" transform="translate(64,384)"/>
</svg>
