<?xml version="1.0" encoding="UTF-8"?>
<svg version="1.1" xmlns="http://www.w3.org/2000/svg" width="512" height="512">
<path d="M0 0 C0.76533216 -0.00367669 1.53066432 -0.00735338 2.31918836 -0.01114148 C4.89161165 -0.02218166 7.46399455 -0.02602272 10.03643799 -0.02983093 C11.87771737 -0.03609531 13.71899549 -0.04274209 15.56027222 -0.04974365 C20.56866491 -0.06715516 25.57704806 -0.07770577 30.58546352 -0.08594918 C33.71411492 -0.09109888 36.84276335 -0.09717462 39.97141266 -0.10346031 C49.75899472 -0.12251257 59.54656924 -0.1367438 69.33416629 -0.14507228 C80.63463589 -0.1548467 91.93490971 -0.18117147 103.23531032 -0.22157317 C111.96831834 -0.25172511 120.7012702 -0.26654027 129.43432927 -0.26985329 C134.65093623 -0.27220475 139.86733404 -0.28117781 145.08388519 -0.30631447 C149.99228828 -0.3295841 154.90034436 -0.33383284 159.8087883 -0.32355309 C161.60870136 -0.32305735 163.40863144 -0.32938884 165.20849228 -0.34310913 C167.66952072 -0.36081739 170.12930233 -0.35372786 172.59033203 -0.34057617 C173.65392508 -0.35703004 173.65392508 -0.35703004 174.73900485 -0.37381631 C180.16601063 -0.30399479 183.1786049 1.14992127 187.5491333 4.14717102 C191.46094229 9.19134577 192.67564997 12.78658732 192.66265869 19.08735657 C192.66258316 20.30839584 192.66250763 21.52943512 192.66242981 22.78747559 C192.65726852 24.10629227 192.65210724 25.42510895 192.64678955 26.78388977 C192.6449241 28.14723661 192.6435008 29.51058413 192.64250183 30.87393188 C192.63868663 34.45945593 192.62886485 38.04493937 192.61779785 41.63044739 C192.60756231 45.29031322 192.60299962 48.95018562 192.59796143 52.61006165 C192.58724168 59.7891166 192.57017723 66.96813812 192.5491333 74.14717102 C193.39580566 74.13828857 194.24247803 74.12940613 195.11480713 74.12025452 C203.11784127 74.03990223 211.12073872 73.97910212 219.12408447 73.93992233 C223.23811132 73.91910192 227.35180314 73.89088691 231.46563721 73.84541321 C235.44031031 73.80175579 239.4146624 73.77799225 243.38955688 73.76766205 C244.90134734 73.76030615 246.41312144 73.74594202 247.92477417 73.72425079 C264.33735405 73.49823855 264.33735405 73.49823855 271.05303955 79.48866272 C276.40155911 85.2269404 276.84946323 92.06586865 276.7444458 99.48701477 C276.74020096 100.63745018 276.74020096 100.63745018 276.73587036 101.81112671 C276.72476805 104.23580723 276.69968297 106.66010411 276.6741333 109.08467102 C276.6640906 110.73896252 276.65496702 112.39325987 276.64678955 114.04756165 C276.62486147 118.08091025 276.59040173 122.11397582 276.5491333 126.14717102 C277.51738037 126.12622375 278.48562744 126.10527649 279.48321533 126.08369446 C283.09487975 126.0109859 286.70648021 125.96526046 290.31866455 125.92744446 C291.87834574 125.9073988 293.43795243 125.88015445 294.99737549 125.84541321 C297.24658644 125.79657976 299.4947992 125.77413288 301.7444458 125.75654602 C302.78074631 125.72557831 302.78074631 125.72557831 303.83798218 125.69398499 C313.46743007 125.68957852 319.36100745 133.55633414 325.71856689 139.8910675 C327.2969929 141.45754682 328.89314063 143.00437109 330.49053955 144.5514679 C331.50600755 145.55747482 332.52036922 146.56459995 333.5335083 147.57295227 C334.90587646 148.92513855 334.90587646 148.92513855 336.30596924 150.30464172 C341.14856402 156.44116012 340.83907316 163.25259653 340.80792236 170.74482727 C340.81317932 172.30957291 340.81317932 172.30957291 340.81854248 173.90592957 C340.8273165 177.34057853 340.82152584 180.7750201 340.8147583 184.20967102 C340.81610619 186.60428405 340.81804776 188.99889682 340.82055664 191.39350891 C340.82350204 196.40680045 340.81922896 201.42002061 340.80987549 206.43330383 C340.79848139 212.85245445 340.80504397 219.2714378 340.81702042 225.69058228 C340.82425472 230.63371537 340.82194385 235.57680894 340.81676483 240.51994324 C340.81543269 242.88658162 340.81706079 245.25322362 340.82172394 247.61985779 C340.82681489 250.92983984 340.81904259 254.23955271 340.80792236 257.54951477 C340.81197083 258.52323029 340.81601929 259.4969458 340.82019043 260.50016785 C340.7470911 272.27242269 340.7470911 272.27242269 337.21710205 276.88935852 C331.09643594 281.57271781 325.50559596 281.29897404 318.11236572 281.30830383 C317.16863602 281.31326874 316.22490631 281.31823364 315.25257874 281.323349 C312.13657904 281.33793059 309.02063024 281.34476578 305.90460205 281.35029602 C303.73372904 281.35605053 301.56285603 281.36180823 299.39198303 281.36756897 C294.84174361 281.3780674 290.2915218 281.38391773 285.74127197 281.3874054 C279.92073335 281.39288928 274.10042875 281.41692014 268.27996349 281.44537735 C263.79573391 281.46403213 259.31156041 281.46921084 254.8272953 281.47074127 C252.68196648 281.47376163 250.53663849 281.48176925 248.39134789 281.49492645 C245.38541388 281.51204699 242.38004792 281.51009199 239.37408447 281.50361633 C238.49432953 281.51283112 237.61457458 281.5220459 236.7081604 281.53153992 C231.27351451 281.49500215 226.24595997 281.10072912 221.5491333 278.14717102 C216.37067002 272.14247742 216.98788055 265.57632256 217.04742432 257.94746399 C217.03931984 255.96824951 217.03931984 255.96824951 217.03105164 253.9490509 C217.01714106 250.34576995 217.02823412 246.74296881 217.04476285 243.13971472 C217.05865555 239.36242173 217.0521487 235.58515541 217.04862976 231.80784607 C217.04593162 225.46791384 217.05937125 219.12817137 217.08258057 212.7882843 C217.10921087 205.46330267 217.1109287 198.13863775 217.0991922 190.81362426 C217.08840742 183.75762188 217.09460548 176.70173382 217.10874748 169.64574051 C217.11449893 166.6466361 217.11443132 163.64761559 217.10968208 160.64850998 C217.10401677 156.46152798 217.12324427 152.27501781 217.14508057 148.08808899 C217.13832809 146.22399887 217.13832809 146.22399887 217.13143921 144.32225037 C217.14134384 143.18116821 217.15124847 142.04008606 217.16145325 140.86442566 C217.16509809 139.38061055 217.16509809 139.38061055 217.16881657 137.86681938 C217.76923205 133.57324292 219.78800758 130.94659613 222.7276001 127.85908508 C226.40377412 125.62863322 229.5268251 125.64026081 233.69366455 125.75654602 C234.46345139 125.76220581 235.23323822 125.7678656 236.02635193 125.7736969 C238.47209273 125.79599231 240.9163394 125.84617227 243.3616333 125.89717102 C245.02502352 125.91724502 246.68843683 125.93549422 248.35186768 125.95185852 C252.41819388 125.99583418 256.48341074 126.06481123 260.5491333 126.14717102 C260.43117901 121.32318188 260.30695312 116.49941144 260.17681885 111.67573547 C260.13341033 110.03352799 260.09173972 108.39127363 260.05181885 106.74897766 C259.9942589 104.39328357 259.93052438 102.03782674 259.86553955 99.68232727 C259.84047081 98.57450645 259.84047081 98.57450645 259.81489563 97.44430542 C260.01365317 94.00416475 260.01365317 94.00416475 258.5491333 91.14717102 C256.49434877 91.02336264 254.4353437 90.969189 252.37701416 90.94184875 C251.41119164 90.92699936 251.41119164 90.92699936 250.42585754 90.91184998 C248.28860199 90.88015575 246.15132417 90.85544653 244.01397705 90.83076477 C242.53566394 90.81020206 241.05735681 90.78920578 239.57905579 90.76779175 C235.68121159 90.71250043 231.78331372 90.66312245 227.88537598 90.61494446 C223.91061607 90.56478083 219.93593447 90.50906801 215.96124268 90.45381165 C208.15727245 90.34614379 200.35323728 90.24471815 192.5491333 90.14717102 C192.55282047 91.05200729 192.55650764 91.95684357 192.56030655 92.88909912 C192.64867835 114.91485508 192.71485307 136.94058045 192.75638199 158.96647644 C192.77699933 169.61808136 192.80510419 180.26956788 192.85089111 190.9210968 C192.89078412 200.20594201 192.91657213 209.49070146 192.92548728 218.77563 C192.93069783 223.69107875 192.94292742 228.60628217 192.97205353 233.52165222 C192.99926149 238.15094396 193.00756741 242.77988997 193.00156403 247.40925407 C193.00266186 249.10554828 193.01058369 250.80185439 193.0259552 252.4980793 C193.1789836 270.26010681 193.1789836 270.26010681 186.2991333 277.52217102 C180.32561989 281.0519744 173.9706239 281.44098358 167.2053833 281.3742218 C166.41417587 281.37451385 165.62296844 281.37480591 164.80778503 281.37510681 C162.22145186 281.37372582 159.63541546 281.35822333 157.0491333 281.34248352 C155.24452878 281.338749 153.43992222 281.3359041 151.63531494 281.33390808 C146.90725006 281.32630616 142.17930988 281.30668753 137.45129395 281.28450012 C131.76685665 281.26035122 126.08237745 281.25124432 120.39790344 281.23959351 C111.78156025 281.2202609 103.16549017 281.18191439 94.5491333 281.14717102 C94.5491333 293.02717102 94.5491333 304.90717102 94.5491333 317.14717102 C102.16555908 317.1078949 102.16555908 317.1078949 109.93585205 317.06782532 C126.70359081 316.98501352 143.47133756 316.92950722 160.23922729 316.88811016 C170.40660025 316.86234087 180.57377933 316.82721463 190.74102783 316.76997375 C199.60397186 316.72009985 208.46677546 316.68787074 217.32985592 316.67672855 C222.02180811 316.67021655 226.71335858 316.65493807 231.40518188 316.61852074 C235.82441302 316.58449822 240.24307823 316.57413063 244.6624279 316.58163261 C246.28133155 316.58026085 247.90025477 316.5703654 249.51904488 316.55114365 C264.2549616 316.38479946 264.2549616 316.38479946 270.13842773 320.72547626 C274.31667168 324.93626812 276.41954728 330.00923849 276.66265869 335.89619446 C276.65742188 336.92261047 276.65218506 337.94902649 276.64678955 339.00654602 C276.64356689 340.12158508 276.64034424 341.23662415 276.63702393 342.38545227 C276.62864502 343.54431946 276.62026611 344.70318665 276.6116333 345.89717102 C276.60712158 347.07150696 276.60260986 348.2458429 276.59796143 349.45576477 C276.58618424 352.35295175 276.56973656 355.25003556 276.5491333 358.14717102 C277.53719971 358.11051331 278.52526611 358.07385559 279.54327393 358.03608704 C283.24040618 357.90853404 286.93734806 357.82872471 290.63604736 357.76264954 C292.23078202 357.72763766 293.82529507 357.6800093 295.41925049 357.61909485 C310.36880999 357.06246231 310.36880999 357.06246231 314.9944458 361.04951477 C316.20438406 362.39326717 317.38757544 363.76138444 318.5491333 365.14717102 C320.23250538 366.7638632 321.92872836 368.36724186 323.6350708 369.95967102 C325.40081339 371.68605827 327.16379829 373.4152702 328.9241333 375.14717102 C329.82518799 376.0108429 330.72624268 376.87451477 331.65460205 377.76435852 C332.51440674 378.61256165 333.37421143 379.46076477 334.2600708 380.33467102 C335.03656982 381.09135071 335.81306885 381.8480304 336.61309814 382.62763977 C341.20079231 388.59800595 340.83788282 395.53888919 340.80792236 402.74482727 C340.81317932 404.30957291 340.81317932 404.30957291 340.81854248 405.90592957 C340.8273165 409.34057853 340.82152584 412.7750201 340.8147583 416.20967102 C340.81610619 418.60428405 340.81804776 420.99889682 340.82055664 423.39350891 C340.82350204 428.40680045 340.81922896 433.42002061 340.80987549 438.43330383 C340.79848139 444.85245445 340.80504397 451.2714378 340.81702042 457.69058228 C340.82425472 462.63371537 340.82194385 467.57680894 340.81676483 472.51994324 C340.81543269 474.88658162 340.81706079 477.25322362 340.82172394 479.61985779 C340.82681489 482.92983984 340.81904259 486.23955271 340.80792236 489.54951477 C340.81197083 490.52323029 340.81601929 491.4969458 340.82019043 492.50016785 C340.77842699 499.2259457 340.62755032 504.71117288 336.07563782 510.04621887 C331.81864789 513.17881606 327.22032969 512.83199622 322.12506104 512.7624054 C321.08858429 512.76795441 320.05210754 512.77350342 318.98422241 512.77922058 C315.56658342 512.79100778 312.15027283 512.76675113 308.73272705 512.74092102 C306.35431478 512.73920975 303.97590063 512.73927577 301.5974884 512.74104309 C296.61674925 512.73939041 291.63646048 512.72069963 286.65582275 512.68916321 C280.27109209 512.64946477 273.8869507 512.64512091 267.50212002 512.65262604 C262.59247945 512.65569507 257.68297141 512.64357782 252.77336311 512.62649536 C250.41903578 512.61946401 248.06469344 512.61634099 245.71035576 512.6171875 C242.42123114 512.61539027 239.13281345 512.59401441 235.84381104 512.5670929 C234.87068466 512.5700235 233.89755829 512.5729541 232.89494324 512.57597351 C227.98989945 512.51401448 224.48663014 512.41761632 220.5491333 509.14717102 C217.03920256 504.0807417 217.08172207 499.27247568 217.0803833 493.33076477 C217.07276978 492.39668289 217.06515625 491.46260101 217.05731201 490.50021362 C217.04654224 488.53270635 217.04364516 486.56514205 217.04815674 484.59761047 C217.04913145 481.59037775 217.00742526 478.58567799 216.9631958 475.57881165 C216.95799009 473.66280132 216.95530059 471.74678216 216.9553833 469.83076477 C216.93898804 468.93482101 216.92259277 468.03887726 216.90570068 467.11578369 C216.95580049 462.58709232 217.09667561 460.72964161 219.96124268 457.04194641 C222.5491333 455.14717102 222.5491333 455.14717102 224.5491333 455.14717102 C224.5491333 448.87717102 224.5491333 442.60717102 224.5491333 436.14717102 C222.8991333 435.48717102 221.2491333 434.82717102 219.5491333 434.14717102 C217.20644323 430.63313592 217.29170442 429.18585435 217.2744751 425.02680969 C217.26494308 423.76507431 217.25541107 422.50333893 217.24559021 421.20336914 C217.2458517 419.82395907 217.24678903 418.44454898 217.24835205 417.06513977 C217.24446405 415.64890416 217.24012916 414.23266971 217.23536682 412.81643677 C217.22790372 409.8464836 217.22819569 406.87664929 217.23345947 403.9066925 C217.23924272 400.11034288 217.22235183 396.31448295 217.1991148 392.51821423 C217.18434108 389.5918699 217.18351087 386.66564236 217.18662453 383.73926735 C217.18611276 382.34029994 217.18090214 380.94132575 217.17081261 379.54239464 C217.15840162 377.58020663 217.16720413 375.61791964 217.17681885 373.65571594 C217.17618942 372.5411351 217.17556 371.42655426 217.1749115 370.27819824 C217.72262582 365.6955993 219.1967926 362.29975995 222.7276001 359.29048157 C226.415041 357.79629746 229.78260645 357.77234199 233.69366455 357.85420227 C234.46345139 357.85844711 235.23323822 357.86269196 236.02635193 357.86706543 C238.47180976 357.88378505 240.91642687 357.92142333 243.3616333 357.95967102 C245.02503281 357.97472661 246.68844531 357.98841348 248.35186768 358.00068665 C252.41820305 358.03110811 256.48273325 358.08983796 260.5491333 358.14717102 C260.2191333 349.89717102 259.8891333 341.64717102 259.5491333 333.14717102 C205.0991333 333.14717102 150.6491333 333.14717102 94.5491333 333.14717102 C94.5491333 341.39717102 94.5491333 349.64717102 94.5491333 358.14717102 C101.84881882 357.98960625 101.84881882 357.98960625 109.14727783 357.78681946 C110.06621826 357.77682922 110.98515869 357.76683899 111.9319458 357.75654602 C113.33017578 357.72512512 113.33017578 357.72512512 114.75665283 357.69306946 C120.7080358 358.66085861 124.75193767 363.09495533 128.8772583 367.20967102 C129.35233826 367.68283752 129.82741821 368.15600403 130.31689453 368.64350891 C131.31082682 369.63609058 132.30227981 370.63116073 133.2913208 371.62861633 C134.8021528 373.15021203 136.32343466 374.66077199 137.8460083 376.17060852 C138.8154006 377.14132168 139.78417272 378.11265467 140.7522583 379.08467102 C141.62527588 379.95994446 142.49829346 380.8352179 143.39776611 381.73701477 C146.68459902 385.41922249 147.7969752 388.06052962 147.81655884 392.99162292 C147.82935379 394.45092728 147.82935379 394.45092728 147.84240723 395.93971252 C147.84150085 397.00059082 147.84059448 398.06146912 147.83966064 399.15449524 C147.84637787 400.27685577 147.85309509 401.39921631 147.86001587 402.55558777 C147.87903574 406.27105621 147.88292208 409.98634441 147.8850708 413.70185852 C147.89149581 416.28251724 147.89822394 418.86317522 147.90524292 421.4438324 C147.91722559 426.85587055 147.9210083 432.26783707 147.91973877 437.67988586 C147.91853757 443.92840381 147.93963631 450.17657622 147.9712261 456.42500675 C148.00056559 462.44355613 148.00771393 468.46191841 148.00651932 474.48054886 C148.00888057 477.03782182 148.01773343 479.5950973 148.03318405 482.15232468 C148.05277004 485.72886104 148.04703415 489.30450717 148.03497314 492.88105774 C148.04621216 493.93788757 148.05745117 494.99471741 148.06903076 496.08357239 C148.01759866 502.08272874 147.59623872 505.60526353 143.5491333 510.14717102 C140.41277837 512.23807431 139.69287064 512.3993918 136.12191772 512.41459656 C135.21629089 512.42312653 134.31066406 512.43165649 133.37759399 512.44044495 C132.38635529 512.43953857 131.39511658 512.4386322 130.37384033 512.43769836 C129.3280481 512.44441559 128.28225586 512.45113281 127.20477295 512.45805359 C123.73878257 512.47709139 120.27298524 512.48096073 116.8069458 512.48310852 C114.40182413 512.48953246 111.99670326 512.49626051 109.59158325 512.50328064 C104.54600207 512.51526792 99.50048944 512.51895997 94.45489502 512.51777649 C87.98598498 512.51757323 81.51751393 512.5448766 75.04870796 512.57932091 C70.07990496 512.60154634 65.11120832 512.60561536 60.14236069 512.60455704 C57.75730756 512.60691952 55.37225178 512.61577923 52.98724747 512.63122177 C49.65225645 512.6507928 46.31822137 512.64507798 42.98321533 512.63301086 C41.99602509 512.64424988 41.00883484 512.65548889 39.99172974 512.66706848 C35.75310771 512.62804839 33.23095975 512.54817788 29.52200317 510.36680603 C26.06409967 506.47639046 25.29898874 503.65527664 25.28170776 498.46751404 C25.26891281 496.7305426 25.26891281 496.7305426 25.25585938 494.95848083 C25.25721893 493.05858902 25.25721893 493.05858902 25.25860596 491.12031555 C25.25262008 489.76986825 25.2458144 488.41942437 25.23825073 487.06898499 C25.22058938 483.40362831 25.2158953 479.73836503 25.21461916 476.07296991 C25.21319707 473.78202882 25.20892638 471.49111144 25.20362473 469.20017624 C25.18512397 461.20511621 25.17695416 453.21012284 25.17852783 445.21504211 C25.17972924 437.76685282 25.15862737 430.3189533 25.12704051 422.87083733 C25.10087391 416.47240053 25.09016069 410.07405835 25.09143865 403.67556846 C25.09194818 399.85571789 25.08627042 396.03612486 25.06508255 392.21632767 C25.04569344 388.62273767 25.04557976 385.02965071 25.06011581 381.43604279 C25.06319803 379.49297648 25.04653209 377.5499101 25.02923584 375.60691833 C25.10758805 364.73881757 25.10758805 364.73881757 29.5491333 360.14717102 C32.41528052 358.16071868 34.68922101 357.90076702 38.13409424 357.92012024 C39.03472595 357.9202713 39.93535767 357.92042236 40.86328125 357.920578 C41.82695618 357.93090057 42.7906311 357.94122314 43.7835083 357.95185852 C45.27325165 357.95610336 45.27325165 357.95610336 46.79309082 357.96043396 C49.96189474 357.97161959 53.13041495 357.9967214 56.2991333 358.02217102 C58.4488688 358.0322029 60.59860873 358.04132839 62.74835205 358.04951477 C68.0154761 358.06985116 73.2819875 358.1090033 78.5491333 358.14717102 C78.5491333 349.89717102 78.5491333 341.64717102 78.5491333 333.14717102 C24.0991333 333.14717102 -30.3508667 333.14717102 -86.4508667 333.14717102 C-86.7808667 341.39717102 -87.1108667 349.64717102 -87.4508667 358.14717102 C-85.4708667 358.02342102 -83.4908667 357.89967102 -81.4508667 357.77217102 C-75.70818391 357.41325335 -72.90719318 358.71425744 -68.60174561 362.23066711 C-64.4783699 365.90473059 -60.53537163 369.7349553 -56.6383667 373.64717102 C-55.79338623 374.47603821 -54.94840576 375.3049054 -54.07781982 376.15888977 C-53.26635498 376.96971008 -52.45489014 377.7805304 -51.61883545 378.61592102 C-50.52478394 379.7055011 -50.52478394 379.7055011 -49.40863037 380.8170929 C-44.20252803 387.0132571 -44.0171192 392.43236614 -44.06268311 400.19795227 C-44.05742615 401.30109772 -44.05216919 402.40424316 -44.04675293 403.54081726 C-44.03356916 407.18057999 -44.04228565 410.81990398 -44.0524292 414.45967102 C-44.05040801 416.99263086 -44.04749619 419.52559013 -44.04373169 422.05854797 C-44.03931052 427.36451806 -44.0454458 432.67033147 -44.05975342 437.97627258 C-44.07607862 444.10095813 -44.07078956 450.22534403 -44.0542742 456.35002232 C-44.03899352 462.25430343 -44.04064439 468.15849186 -44.0494194 474.06278992 C-44.05141989 476.56980939 -44.04896745 479.07683651 -44.04198074 481.58384705 C-44.03435765 485.08823369 -44.04598341 488.59204588 -44.06268311 492.09638977 C-44.05661041 493.13137604 -44.05053772 494.1663623 -44.04428101 495.23271179 C-44.09130658 500.56255672 -44.23766661 504.66074375 -47.4508667 509.14717102 C-51.88214892 513.15501028 -57.09403931 512.58411259 -62.74554443 512.5670929 C-63.78026886 512.57556244 -64.81499329 512.58403198 -65.881073 512.59275818 C-69.29899409 512.61614335 -72.71646543 512.61714997 -76.13446045 512.61592102 C-78.51190878 512.62302143 -80.88935539 512.63072025 -83.26679993 512.63899231 C-88.2491838 512.65244047 -93.23140921 512.6540042 -98.21380615 512.64814758 C-104.5974853 512.64224995 -110.98040433 512.67284519 -117.36393642 512.71326447 C-122.27360631 512.73911717 -127.18309255 512.74202106 -132.09282112 512.7383728 C-134.44634983 512.74006617 -136.79988682 512.74972942 -139.15334892 512.76751709 C-142.44501472 512.78965869 -145.73513381 512.78002804 -149.02679443 512.7624054 C-150.48344765 512.78230026 -150.48344765 512.78230026 -151.9695282 512.80259705 C-156.21262364 512.74983095 -159.48523571 512.61598156 -162.97737122 510.04621887 C-168.6205003 503.43221802 -167.73812529 495.82396476 -167.70965576 487.52998352 C-167.7131604 486.27224121 -167.71666504 485.0144989 -167.72027588 483.71864319 C-167.72935611 480.28477331 -167.72587376 476.85102426 -167.71951771 473.4171524 C-167.71443502 469.81429736 -167.71915545 466.21145228 -167.72229004 462.6085968 C-167.72592309 456.55958713 -167.72114797 450.51062638 -167.71160889 444.46162415 C-167.70072559 437.47983186 -167.70425164 430.49815641 -167.7152617 423.51636696 C-167.72435344 417.50936194 -167.72561063 411.50239199 -167.72038436 405.49538231 C-167.71727502 401.91316693 -167.71682671 398.33100636 -167.72345734 394.74879456 C-167.73033601 390.75391277 -167.72078728 386.75923071 -167.70965576 382.76435852 C-167.71370422 381.58492676 -167.71775269 380.405495 -167.72192383 379.19032288 C-167.65205262 365.64454098 -167.65205262 365.64454098 -162.8961792 360.24873352 C-158.9728702 357.3449608 -155.05562523 357.40643468 -150.3258667 357.52217102 C-149.12897217 357.49316711 -149.12897217 357.49316711 -147.90789795 357.46357727 C-143.69881649 357.49871151 -142.05320069 357.57799303 -138.8961792 360.56123352 C-137.4508667 363.14717102 -137.4508667 363.14717102 -137.4508667 365.14717102 C-131.1808667 365.14717102 -124.9108667 365.14717102 -118.4508667 365.14717102 C-117.7908667 363.49717102 -117.1308667 361.84717102 -116.4508667 360.14717102 C-114.4508667 358.14717102 -114.4508667 358.14717102 -111.8493042 357.95185852 C-110.35270264 357.98666321 -110.35270264 357.98666321 -108.8258667 358.02217102 C-107.82297607 358.0402179 -106.82008545 358.05826477 -105.7868042 358.07685852 C-104.63051514 358.11166321 -104.63051514 358.11166321 -103.4508667 358.14717102 C-103.46657715 357.43174133 -103.4822876 356.71631165 -103.49847412 355.97920227 C-103.56127417 352.70194063 -103.59999973 349.42480612 -103.6383667 346.14717102 C-103.66350342 345.02181946 -103.68864014 343.8964679 -103.71453857 342.73701477 C-103.78427331 334.78725454 -103.01601368 329.1275715 -98.6383667 322.33467102 C-95.20734651 318.90365083 -91.9108707 317.3067362 -87.07324409 316.77802753 C-85.21214406 316.7821756 -85.21214406 316.7821756 -83.31344604 316.78640747 C-82.2705757 316.78256256 -82.2705757 316.78256256 -81.20663726 316.77863997 C-78.88953233 316.77371972 -76.57308683 316.79016513 -74.25604248 316.80659485 C-72.59015417 316.8074415 -70.92426474 316.80696523 -69.25837708 316.80526733 C-64.74431509 316.80440746 -60.2304928 316.82203199 -55.71648645 316.84298921 C-50.99595006 316.86175726 -46.27540803 316.86350655 -41.55484009 316.86706543 C-32.61953842 316.87638551 -23.68434702 316.90099882 -14.74909389 316.9311139 C-4.57504054 316.96465903 5.59901811 316.98114421 15.77311301 316.9962002 C36.6985283 317.0275484 57.62379246 317.08256005 78.5491333 317.14717102 C78.5491333 305.26717102 78.5491333 293.38717102 78.5491333 281.14717102 C72.80635986 281.18197571 67.06358643 281.2167804 61.14678955 281.25263977 C57.49638868 281.26797855 53.84602786 281.28242115 50.19561768 281.2936554 C44.4086679 281.31154966 38.6218613 281.33265928 32.83502197 281.37348938 C28.16658909 281.40622012 23.49830987 281.42405286 18.82977104 281.43180275 C17.05368063 281.43732172 15.27759809 281.44809869 13.50157356 281.46436119 C-5.7236394 281.63330937 -5.7236394 281.63330937 -14.3258667 276.39717102 C-19.12377888 271.31702871 -19.89812753 265.75394556 -19.87078857 258.99629211 C-19.87925812 258.21326218 -19.88772766 257.43023224 -19.89645386 256.62347412 C-19.91970288 254.05568356 -19.92084933 251.48849599 -19.9196167 248.92060852 C-19.92672293 247.1265489 -19.93442261 245.33249154 -19.94268799 243.53843689 C-19.95610298 239.78783333 -19.95771381 236.03744023 -19.95184326 232.28681946 C-19.94593388 227.48361546 -19.97660326 222.68141761 -20.01696014 217.87840843 C-20.04281436 214.17746044 -20.04571695 210.47675598 -20.04206848 206.77573013 C-20.04376023 205.00470566 -20.05340813 203.23367 -20.07121277 201.46273422 C-20.09337079 198.98755623 -20.08372046 196.51443231 -20.06610107 194.03926086 C-20.07936432 193.31082474 -20.09262756 192.58238861 -20.10629272 191.83187866 C-20.04115127 187.88982548 -19.54614115 186.26533404 -17.03741455 183.15391541 C-14.4508667 181.14717102 -14.4508667 181.14717102 -12.4508667 181.14717102 C-12.4508667 174.87717102 -12.4508667 168.60717102 -12.4508667 162.14717102 C-14.1008667 161.48717102 -15.7508667 160.82717102 -17.4508667 160.14717102 C-19.85402961 156.54242666 -19.69399279 154.94027511 -19.67791748 150.65620422 C-19.67820953 150.00227692 -19.67850159 149.34834961 -19.67880249 148.67460632 C-19.6774104 146.51558613 -19.66185527 144.35691209 -19.6461792 142.19795227 C-19.64244863 140.70008533 -19.63960186 139.20221595 -19.63760376 137.7043457 C-19.62997073 133.76366935 -19.61032514 129.82314064 -19.5881958 125.88252258 C-19.56773023 121.860733 -19.55860052 117.83891955 -19.54852295 113.8170929 C-19.52707888 105.92705122 -19.49294699 98.03712949 -19.4508667 90.14717102 C-28.03901137 90.25451824 -36.6270639 90.36711969 -45.21504879 90.48651028 C-49.20239886 90.54177575 -53.18975622 90.59520139 -57.17718506 90.64448547 C-61.0221827 90.69207578 -64.86708852 90.74441638 -68.71197701 90.80011177 C-70.18203012 90.82055959 -71.65210844 90.83926858 -73.12220573 90.85624504 C-75.17447946 90.88023566 -77.22657817 90.91029692 -79.27874756 90.94184875 C-80.44900986 90.95739304 -81.61927216 90.97293732 -82.82499695 90.98895264 C-85.3761193 90.85132428 -85.3761193 90.85132428 -86.4508667 92.14717102 C-86.61075161 94.66597619 -86.71020895 97.16059369 -86.76727295 99.68232727 C-86.7984446 100.81220314 -86.7984446 100.81220314 -86.83024597 101.96490479 C-86.89582094 104.37973092 -86.95466291 106.794669 -87.0133667 109.20967102 C-87.05654439 110.84314631 -87.10015843 112.47661012 -87.14422607 114.11006165 C-87.25151032 118.12231566 -87.35275491 122.13468266 -87.4508667 126.14717102 C-86.6052417 126.07756165 -85.7596167 126.00795227 -84.8883667 125.93623352 C-78.06381285 125.61051618 -73.54895092 125.60842158 -68.35516357 130.25312805 C-67.41253662 131.19067932 -67.41253662 131.19067932 -66.4508667 132.14717102 C-65.71416748 132.83021301 -64.97746826 133.513255 -64.21844482 134.21699524 C-61.83217348 136.46269315 -59.51301955 138.7628842 -57.2008667 141.08467102 C-56.41196045 141.85746399 -55.6230542 142.63025696 -54.8102417 143.4264679 C-54.0471167 144.18894836 -53.2839917 144.95142883 -52.4977417 145.73701477 C-51.81550537 146.41627014 -51.13326904 147.09552551 -50.43035889 147.79536438 C-44.6914068 154.6137321 -43.86466222 159.56725751 -43.93328857 168.29560852 C-43.9262793 169.3972937 -43.91927002 170.49897888 -43.91204834 171.63404846 C-43.894491 175.26368155 -43.90608388 178.89253045 -43.9196167 182.52217102 C-43.91692116 185.05130665 -43.91303822 187.58044127 -43.90802002 190.10957336 C-43.90212799 195.40541932 -43.91029509 200.70098609 -43.92938232 205.9967804 C-43.95114878 212.10620994 -43.94409642 218.21510541 -43.9220767 224.32452202 C-43.90168886 230.21867665 -43.90390864 236.11266637 -43.91560364 242.0068512 C-43.91826878 244.50746231 -43.91500869 247.00808709 -43.90568542 249.50868225 C-43.89550784 253.00573137 -43.9110397 256.50176023 -43.93328857 259.99873352 C-43.92519165 261.02855347 -43.91709473 262.05837341 -43.90875244 263.11940002 C-43.98130536 269.28626821 -44.46064469 273.31113643 -48.4508667 278.14717102 C-53.90187892 281.59676391 -59.9877205 281.5740386 -66.24407959 281.51948547 C-67.18985367 281.52313614 -68.13562775 281.5267868 -69.11006165 281.5305481 C-72.21473536 281.53860826 -75.31887972 281.52508208 -78.42352295 281.51045227 C-80.59250386 281.50993316 -82.76148525 281.51045282 -84.9304657 281.51196289 C-89.46704164 281.51187337 -94.00343912 281.50148472 -98.53997803 281.48335266 C-104.34592949 281.46065288 -110.15162076 281.46012614 -115.95760441 281.46687031 C-120.43322551 281.47021633 -124.90878761 281.46356844 -129.38439751 281.45374107 C-131.52495451 281.44990076 -133.6655181 281.448736 -135.80607796 281.45032692 C-138.79986133 281.45069901 -141.7933147 281.43803729 -144.78704834 281.42182922 C-145.66568542 281.42430664 -146.54432251 281.42678406 -147.44958496 281.42933655 C-152.91807561 281.38224084 -158.67160673 281.27212091 -163.1930542 277.81513977 C-167.02834512 272.80281129 -167.57363573 268.82858217 -167.58457947 262.65769958 C-167.58884445 261.56710236 -167.59310944 260.47650513 -167.59750366 259.3528595 C-167.59705048 258.16623718 -167.59659729 256.97961487 -167.59613037 255.7570343 C-167.59948898 254.49958405 -167.6028476 253.24213379 -167.60630798 251.94657898 C-167.61512521 248.50436119 -167.61748513 245.06216827 -167.61812377 241.61994028 C-167.61883555 239.46718876 -167.62097228 237.31444353 -167.62362099 235.16169357 C-167.63286676 227.64529266 -167.63695682 220.12890946 -167.63616943 212.61250305 C-167.63556879 205.6159912 -167.6461199 198.61955649 -167.6619131 191.62306416 C-167.67500591 185.60761342 -167.6803526 179.59218785 -167.67971402 173.57672298 C-167.67945956 169.98776274 -167.68228246 166.39887108 -167.69289207 162.80992508 C-167.70440796 158.80526234 -167.69981559 154.80077157 -167.69378662 150.7960968 C-167.69940613 149.61352295 -167.70502563 148.4309491 -167.71081543 147.21253967 C-167.6889441 141.4964296 -167.58423198 136.49032659 -165.4508667 131.14717102 C-161.32329101 127.22597411 -158.77016468 126.02087125 -153.17498779 126.03364563 C-151.52350235 126.03375893 -151.52350235 126.03375893 -149.83865356 126.03387451 C-148.64591827 126.0390358 -147.45318298 126.04419708 -146.2243042 126.04951477 C-145.00635162 126.05092972 -143.78839905 126.05234467 -142.53353882 126.05380249 C-138.6309568 126.05941463 -134.72843147 126.07196923 -130.8258667 126.08467102 C-128.18524253 126.08968445 -125.54461746 126.09424763 -122.9039917 126.0983429 C-116.41959725 126.10938801 -109.93523602 126.126138 -103.4508667 126.14717102 C-103.46657715 125.09851868 -103.4822876 124.04986633 -103.49847412 122.96943665 C-103.55311125 119.04829199 -103.58733861 115.12718045 -103.61566162 111.20576477 C-103.63067175 109.5143008 -103.65108633 107.82287524 -103.67718506 106.13154602 C-103.71391356 103.68874078 -103.73067081 101.24645372 -103.74383545 98.80342102 C-103.75931931 98.05725525 -103.77480316 97.31108948 -103.79075623 96.54231262 C-103.79265061 90.52172201 -102.71417146 84.9253508 -98.8024292 80.12373352 C-97.94778076 79.45471008 -97.94778076 79.45471008 -97.0758667 78.77217102 C-96.22895264 78.07994446 -96.22895264 78.07994446 -95.3649292 77.37373352 C-90.79240871 74.44358774 -86.94281315 73.90039974 -81.54925537 73.92012024 C-80.87552887 73.91982819 -80.20180237 73.91953613 -79.50765991 73.91923523 C-77.29458456 73.92062164 -75.08185154 73.93614991 -72.86883545 73.95185852 C-71.32898645 73.95559111 -69.78913507 73.95843692 -68.24928284 73.96043396 C-64.20670962 73.96805108 -60.16428131 73.98768294 -56.12176514 74.00984192 C-51.9925533 74.03034184 -47.86331794 74.03944453 -43.73406982 74.04951477 C-35.63960247 74.07093076 -27.54525264 74.10504336 -19.4508667 74.14717102 C-19.45974915 73.40072327 -19.46863159 72.65427551 -19.4777832 71.88520813 C-19.55818888 64.8240057 -19.61896223 57.76296391 -19.65811539 50.70143127 C-19.67892185 47.07165371 -19.70711024 43.44225687 -19.75262451 39.81269836 C-19.79633329 36.30485839 -19.82005591 32.79738282 -19.83037567 29.28929138 C-19.84127924 27.31072458 -19.87246505 25.33230281 -19.90405273 23.35395813 C-19.90584212 16.12434373 -19.43924284 11.25283325 -15.4508667 5.14717102 C-10.53641628 0.47244989 -6.5381176 -0.00167884 0 0 Z " fill="#000000" transform="translate(169.45086669921875,-0.1471710205078125)"/>
<path d="M0 0 C1.0451636 0.00334608 1.0451636 0.00334608 2.11144161 0.00675976 C3.21422404 0.00441978 3.21422404 0.00441978 4.3392849 0.00203252 C6.82138116 -0.00198015 9.30341708 0.00121318 11.78551388 0.00434887 C13.55741569 0.00299495 15.32931723 0.00121507 17.10121822 -0.00096118 C21.92752549 -0.00553659 26.75381148 -0.00374552 31.58011913 -0.0005821 C36.6192064 0.00194095 41.65829178 -0.00039588 46.69737911 -0.00196826 C55.16133102 -0.00379012 63.62527422 -0.00138323 72.08922482 0.00337231 C81.88957925 0.00881496 91.68991287 0.00705232 101.4902668 0.00154591 C109.88853636 -0.00298477 118.28679965 -0.003636 126.68507004 -0.00101542 C131.70804657 0.0005476 136.73101331 0.00074042 141.75398922 -0.00255191 C146.4751181 -0.00542996 151.19622004 -0.00345616 155.917346 0.00234234 C157.65526313 0.0036703 159.3931825 0.00327523 161.13109875 0.00107968 C163.49322986 -0.00163045 165.85527321 0.00174759 168.21739864 0.00675976 C168.91417438 0.00452904 169.61095011 0.00229832 170.32884026 0 C175.05027026 0.01959354 175.05027026 0.01959354 176.16442013 1.13374341 C176.26473208 4.3169789 176.29879119 7.47859972 176.29140377 10.66230786 C176.29296376 11.6751777 176.29452375 12.68804755 176.29613101 13.73161042 C176.30014577 17.15342961 176.29694954 20.57520507 176.29381466 23.99702466 C176.29516849 26.43886859 176.29694832 28.88071232 176.29912472 31.32255566 C176.30322512 37.28314752 176.30260574 43.24372197 176.29971208 49.20431316 C176.29745823 54.0464831 176.29714544 58.88864951 176.29823589 63.73081982 C176.29838913 64.4186852 176.29854236 65.10655057 176.29870024 65.81526035 C176.29901995 67.21242909 176.29934416 68.60959782 176.29967283 70.00676656 C176.30252775 83.12326917 176.2992404 96.2397648 176.29387246 109.35626626 C176.28940441 120.62291578 176.29018034 131.88955501 176.29479122 143.15620434 C176.30013676 156.22418874 176.30225306 169.29216702 176.29917896 182.36015236 C176.29886039 183.7523239 176.29854602 185.14449545 176.29823589 186.53666699 C176.29808162 187.22173064 176.29792734 187.90679428 176.29776839 188.61261743 C176.29690317 193.45174303 176.29836621 198.29086475 176.30071545 203.12998974 C176.30380485 209.63712266 176.30162096 216.14423905 176.29582119 222.65137112 C176.29449287 225.04721175 176.29488892 227.44305402 176.29708385 229.83889401 C176.29979253 233.09434495 176.29641771 236.34973214 176.29140377 239.60517895 C176.29363449 240.56653917 176.29586521 241.52789938 176.29816353 242.51839173 C176.27856993 249.0195936 176.27856993 249.0195936 175.16442013 250.13374341 C172.83905157 250.23356905 170.54333191 250.2681735 168.21739864 250.26072705 C167.11461622 250.26306703 167.11461622 250.26306703 165.98955536 250.26545429 C163.50745909 250.26946696 161.02542318 250.26627363 158.54332638 250.26313794 C156.77142456 250.26449186 154.99952303 250.26627174 153.22762203 250.268448 C148.40131477 250.2730234 143.57502878 250.27123233 138.74872112 250.26806891 C133.70963386 250.26554586 128.67054848 250.26788269 123.63146114 250.26945508 C115.16750923 250.27127693 106.70356603 250.26887004 98.23961544 250.2641145 C88.43926101 250.25867185 78.63892738 250.26043449 68.83857346 250.2659409 C60.44030389 250.27047158 52.04204061 250.27112281 43.64377022 250.26850224 C38.62079369 250.26693921 33.59782695 250.2667464 28.57485104 250.27003872 C23.85372215 250.27291677 19.13262021 250.27094297 14.41149426 250.26514447 C12.67357713 250.26381651 10.93565775 250.26421158 9.19774151 250.26640713 C6.8356104 250.26911726 4.47356705 250.26573922 2.11144161 250.26072705 C1.41466588 250.26295777 0.71789015 250.26518849 0 250.26748681 C-4.72143001 250.24789327 -4.72143001 250.24789327 -5.83557987 249.13374341 C-5.9499167 246.68055747 -6.00040102 244.25435764 -6.00916386 241.80000317 C-6.01585087 241.03253766 -6.02253788 240.26507214 -6.02942753 239.47435009 C-6.04350986 237.80247175 -6.05539369 236.13057382 -6.06537533 234.45866597 C-6.08173163 231.81577585 -6.10496636 229.17303114 -6.13027287 226.53021252 C-6.20120165 219.01425887 -6.26123679 211.49824582 -6.31238651 203.98213208 C-6.34411875 199.39030051 -6.38537974 194.79863524 -6.4325819 190.20693791 C-6.44863742 188.45302767 -6.46094249 186.69907907 -6.4694891 184.94511616 C-6.48159745 182.49553105 -6.50572755 180.04633927 -6.53260136 177.59687817 C-6.5331905 176.86693142 -6.53377964 176.13698468 -6.53438663 175.38491833 C-6.47645795 171.30878261 -6.47645795 171.30878261 -8.83557987 168.13374341 C-10.48557987 167.47374341 -12.13557987 166.81374341 -13.83557987 166.13374341 C-13.83557987 159.86374341 -13.83557987 153.59374341 -13.83557987 147.13374341 C-11.85557987 146.14374341 -9.87557987 145.15374341 -7.83557987 144.13374341 C-6.51502891 141.49264148 -6.69880095 139.50594716 -6.68409061 136.54705822 C-6.67574696 135.35935833 -6.6674033 134.17165844 -6.6588068 132.94796765 C-6.65462238 131.63827511 -6.65043797 130.32858258 -6.64612675 128.97920239 C-6.63818681 127.59138244 -6.62979905 126.20356498 -6.62099552 124.81575024 C-6.60292136 121.82391532 -6.58791204 118.83208597 -6.57521915 115.84022343 C-6.5550317 111.11405788 -6.52737586 106.38795447 -6.49854374 101.66183484 C-6.43329172 90.77751461 -6.37787474 79.89314837 -6.3225565 69.00877392 C-6.27175923 59.0325358 -6.21891585 49.05632024 -6.15803099 39.08013791 C-6.12961469 34.37713777 -6.10604326 29.67414516 -6.0861063 24.97110176 C-6.07275793 22.05166926 -6.05534377 19.13227151 -6.03679562 16.21286786 C-6.02528709 14.20325854 -6.01876373 12.19362264 -6.01235294 10.1839906 C-6.00400928 8.99911053 -5.99566563 7.81423047 -5.98706913 6.59344494 C-5.9819154 5.55718189 -5.97676167 4.52091883 -5.97145176 3.45325387 C-5.72450847 -0.76239041 -3.73031631 0.0154805 0 0 Z " fill="#DCF2F9" transform="translate(170.83557987213135,14.866256594657898)"/>
<path d="M0 0 C1.05832031 0.01160156 2.11664063 0.02320313 3.20703125 0.03515625 C20.41753151 0.39636428 36.20249314 6.77683097 49.0625 18.375 C49.64902344 18.87 50.23554688 19.365 50.83984375 19.875 C61.59005213 29.6257559 70.15393579 45.54547254 71.26977539 60.07373047 C71.3668001 63.09390961 71.39107029 66.10331283 71.375 69.125 C71.37081055 70.19250488 71.36662109 71.26000977 71.36230469 72.35986328 C71.25624973 79.74196499 70.62861169 86.4018704 68.0625 93.375 C67.80726563 94.19097656 67.55203125 95.00695312 67.2890625 95.84765625 C61.49015747 112.63256026 47.70869182 126.47240108 32.0625 134.375 C27.18805479 136.44195225 22.1648117 137.97092405 17.0625 139.375 C16.1355835 139.64328613 16.1355835 139.64328613 15.18994141 139.91699219 C-2.85978396 143.8028408 -21.35878112 139.52498612 -36.9375 130.375 C-40.48090363 127.91443732 -43.731092 125.25729456 -46.9375 122.375 C-47.54851562 121.85679687 -48.15953125 121.33859375 -48.7890625 120.8046875 C-60.17502828 110.45853594 -68.05565836 94.15136494 -69.11450195 78.81054688 C-69.65368905 54.90586935 -69.65368905 54.90586935 -64.9375 44.375 C-64.50179687 43.35535156 -64.06609375 42.33570313 -63.6171875 41.28515625 C-60.3245479 34.15110378 -56.14405357 28.234925 -50.9375 22.375 C-50.38320312 21.73820312 -49.82890625 21.10140625 -49.2578125 20.4453125 C-36.64522437 6.86716738 -18.23729861 -0.25719267 0 0 Z " fill="#030303" transform="translate(254.9375,39.625)"/>
<path d="M0 0 C9.04046185 -0.46817019 18.07662639 -0.82101311 27.12665939 -1.03624344 C31.33202263 -1.13968423 35.52897556 -1.27921873 39.72949219 -1.50878906 C72.47957136 -3.24268083 72.47957136 -3.24268083 84.25 6.75 C96.25795509 19.36351105 94.15008436 38.99638155 93.84971237 55.16520309 C93.72565397 59.97278943 93.55211975 64.77791925 93.37329102 69.58374023 C93.13037031 76.80738418 93.04048627 84.03443792 92.92422485 91.26101685 C92.7317621 102.18095511 92.34829748 113.07893902 92 124 C61.64 124 31.28 124 0 124 C-0.33 111.46 -0.66 98.92 -1 86 C-3.19695965 83.54042748 -3.19695965 83.54042748 -8 82 C-8 75.73 -8 69.46 -8 63 C-6.02 62.01 -4.04 61.02 -2 60 C-0.25699027 58.25699027 -0.82993914 55.84304811 -0.79467773 53.47045898 C-0.77473251 52.28931015 -0.75478729 51.10816132 -0.73423767 49.89122009 C-0.71752518 48.6058284 -0.70081268 47.32043671 -0.68359375 45.99609375 C-0.66281265 44.68794205 -0.64203156 43.37979034 -0.62062073 42.03199768 C-0.565337 38.54844553 -0.51595569 35.0648334 -0.46777344 31.58117676 C-0.41760426 28.0286727 -0.36189433 24.4762561 -0.30664062 20.92382812 C-0.19898209 13.94929454 -0.09755433 6.97468202 0 0 Z " fill="#FDCF5A" transform="translate(402,373)"/>
<path d="M0 0 C6.27 0 12.54 0 19 0 C19.99 1.98 20.98 3.96 22 6 C24.96035778 7.48017889 27.45607458 6.87004611 30.74609375 6.6484375 C54.94571581 5.53772107 54.94571581 5.53772107 63.34375 12.2578125 C67.48897639 16.22755751 71.15841621 20.53203699 74.55249023 25.15820312 C75.88108078 27.11841116 75.88108078 27.11841116 78 28 C78 62.32 78 96.64 78 132 C47.64 132 17.28 132 -14 132 C-14 91.08 -14 50.16 -14 8 C-9.545 7.505 -9.545 7.505 -5 7 C-1.78918149 4.10540926 -1.78918149 4.10540926 0 0 Z " fill="#FED05A" transform="translate(32,365)"/>
<path d="M0 0 C11.4675 -0.4125 22.935 -0.825 34.75 -1.25 C40.11523926 -1.52312012 40.11523926 -1.52312012 45.58886719 -1.80175781 C59.10546292 -2.23337521 73.39107076 -2.46884983 84.25 6.75 C96.25795509 19.36351105 94.15008436 38.99638155 93.84971237 55.16520309 C93.72565397 59.97278943 93.55211975 64.77791925 93.37329102 69.58374023 C93.13037031 76.80738418 93.04048627 84.03443792 92.92422485 91.26101685 C92.7317621 102.18095511 92.34829748 113.07893902 92 124 C61.64 124 31.28 124 0 124 C0 83.08 0 42.16 0 0 Z " fill="#FED05A" transform="translate(210,373)"/>
<path d="M0 0 C11.4675 -0.4125 22.935 -0.825 34.75 -1.25 C40.11523926 -1.52312012 40.11523926 -1.52312012 45.58886719 -1.80175781 C59.10546292 -2.23337521 73.39107076 -2.46884983 84.25 6.75 C96.25795509 19.36351105 94.15008436 38.99638155 93.84971237 55.16520309 C93.72565397 59.97278943 93.55211975 64.77791925 93.37329102 69.58374023 C93.13037031 76.80738418 93.04048627 84.03443792 92.92422485 91.26101685 C92.7317621 102.18095511 92.34829748 113.07893902 92 124 C61.64 124 31.28 124 0 124 C0 83.08 0 42.16 0 0 Z " fill="#FED05A" transform="translate(402,141)"/>
<path d="M0 0 C16.9846875 -0.5878125 16.9846875 -0.5878125 34.3125 -1.1875 C37.84622314 -1.36047607 41.37994629 -1.53345215 45.02075195 -1.71166992 C70.27848988 -2.41826782 70.27848988 -2.41826782 80.20219421 6.83293152 C83.2345127 10.12720516 86.03133038 13.50112742 88.61100769 17.16117859 C89.88109817 19.12560924 89.88109817 19.12560924 92 20 C92 54.32 92 88.64 92 124 C61.64 124 31.28 124 0 124 C0 83.08 0 42.16 0 0 Z " fill="#FED05A" transform="translate(18,141)"/>
<path d="M0 0 C3.81248426 -0.02887236 7.6249407 -0.04675492 11.4375 -0.0625 C12.52611328 -0.07087891 13.61472656 -0.07925781 14.73632812 -0.08789062 C15.77080078 -0.09111328 16.80527344 -0.09433594 17.87109375 -0.09765625 C18.82943115 -0.10289307 19.78776855 -0.10812988 20.77514648 -0.11352539 C23 0 23 0 24 1 C24.10031195 4.18323549 24.13437106 7.34485632 24.12698364 10.52856445 C24.12854363 11.5414343 24.13010362 12.55430414 24.13171089 13.59786701 C24.13572564 17.0196862 24.13252941 20.44146167 24.12939453 23.86328125 C24.13074836 26.30512518 24.13252819 28.74696892 24.13470459 31.18881226 C24.13880499 37.14940411 24.13818562 43.10997856 24.13529195 49.07056975 C24.1330381 53.91273969 24.13272531 58.7549061 24.13381577 63.59707642 C24.133969 64.28494179 24.13412223 64.97280717 24.13428011 65.68151695 C24.13459982 67.07868568 24.13492403 68.47585442 24.1352527 69.87302315 C24.13810763 82.98952576 24.13482027 96.10602139 24.12945233 109.22252285 C24.12498428 120.48917238 24.12576021 131.7558116 24.13037109 143.02246094 C24.13571663 156.09044534 24.13783294 169.15842362 24.13475883 182.22640896 C24.13444026 183.6185805 24.13412589 185.01075204 24.13381577 186.40292358 C24.13366149 187.08798723 24.13350721 187.77305088 24.13334826 188.47887403 C24.13248305 193.31799962 24.13394609 198.15712134 24.13629532 202.99624634 C24.13938472 209.50337926 24.13720083 216.01049565 24.13140106 222.51762772 C24.13007274 224.91346835 24.13046879 227.30931061 24.13266373 229.7051506 C24.1353724 232.96060155 24.13199758 236.21598873 24.12698364 239.47143555 C24.12921436 240.43279576 24.13144509 241.39415598 24.13374341 242.38464832 C24.1141498 248.8858502 24.1141498 248.8858502 23 250 C21.29227642 250.08713831 19.58101351 250.10700007 17.87109375 250.09765625 C16.93966553 250.09515869 16.0082373 250.09266113 15.04858398 250.09008789 C13.85692627 250.08098389 12.66526855 250.07187988 11.4375 250.0625 C7.663125 250.041875 3.88875 250.02125 0 250 C-0.33 240.76 -0.66 231.52 -1 222 C-1.99 222.99 -2.98 223.98 -4 225 C-8.11921937 225.58850879 -12.23874453 225.51504928 -16.39672852 225.50097656 C-18.4280388 225.50000453 -20.4555639 225.5416138 -22.48632812 225.5859375 C-23.76830078 225.58851563 -25.05027344 225.59109375 -26.37109375 225.59375 C-27.54599365 225.60083984 -28.72089355 225.60792969 -29.93139648 225.61523438 C-33 225 -33 225 -35.37524414 222.61914062 C-37 220 -37 220 -37.625 217.5 C-36.86745831 214.46983323 -35.52037754 212.99681778 -33.09960938 211.06494141 C-28.5695611 208.76725878 -23.39777919 209.33184063 -18.4375 209.4375 C-17.31408203 209.42654297 -16.19066406 209.41558594 -15.03320312 209.40429688 C-6.65124704 209.47900237 -6.65124704 209.47900237 -1 214 C-1 206.74 -1 199.48 -1 192 C-1.99 192.99 -2.98 193.98 -4 195 C-6.32575893 195.38311005 -6.32575893 195.38311005 -9.11729431 195.39440918 C-10.17582108 195.40575897 -11.23434784 195.41710876 -12.32495117 195.42880249 C-14.06663574 195.42440659 -14.06663574 195.42440659 -15.84350586 195.41992188 C-17.67795006 195.43262619 -17.67795006 195.43262619 -19.54945374 195.44558716 C-22.90498854 195.4649985 -26.25996766 195.47073279 -29.61552119 195.46883965 C-32.41628186 195.46872005 -35.21699033 195.47727979 -38.01773649 195.48561716 C-44.62505953 195.50485939 -51.23225623 195.50773211 -57.83959961 195.50097656 C-64.65681432 195.49433472 -71.4734881 195.51720331 -78.29059309 195.55429029 C-84.14292871 195.58497386 -89.99509021 195.59634883 -95.84750468 195.59245348 C-99.34319854 195.59038453 -102.83847154 195.59588659 -106.33408928 195.62034607 C-110.23197558 195.6467188 -114.12915183 195.63289543 -118.02709961 195.61523438 C-119.18619843 195.62849762 -120.34529724 195.64176086 -121.53952026 195.65542603 C-129.34838413 195.5729572 -129.34838413 195.5729572 -132.70924377 192.61779785 C-134.19354569 189.60746772 -134.81976162 188.27904648 -134 185 C-131.3153417 181.9475408 -129.54976965 180.28857135 -125.51420403 179.53713799 C-122.39922454 179.35539872 -119.31917699 179.33607011 -116.19897461 179.36889648 C-114.42480415 179.35816353 -114.42480415 179.35816353 -112.61479187 179.34721375 C-109.38314274 179.3332339 -106.1525358 179.34160194 -102.92094493 179.36130404 C-99.53335207 179.37773301 -96.14580995 179.36887195 -92.75819397 179.36378479 C-87.07132787 179.35926914 -81.38479127 179.37510193 -75.69799805 179.40307617 C-69.129006 179.4351415 -62.56060755 179.43510491 -55.99157327 179.4178614 C-49.66329332 179.40198382 -43.33523041 179.40873666 -37.00695992 179.42579842 C-34.31763472 179.43265991 -31.62848398 179.43164594 -28.9391613 179.42425346 C-25.1829424 179.41880954 -21.4277346 179.43915205 -17.67163086 179.46655273 C-16.00154968 179.45676392 -16.00154968 179.45676392 -14.29772949 179.44677734 C-6.72939935 179.54075622 -6.72939935 179.54075622 -2.77052307 182.03334045 C-1.89411415 183.00683693 -1.89411415 183.00683693 -1 184 C-0.97685524 176.08113286 -0.959074 168.1622798 -0.94818783 160.24338722 C-0.94296368 156.56654289 -0.9358745 152.88972166 -0.92456055 149.21289062 C-0.91371507 145.6662104 -0.90771963 142.11955243 -0.90512276 138.5728569 C-0.90327151 137.21803817 -0.89965662 135.86322069 -0.89426994 134.50841141 C-0.88703762 132.61450635 -0.88659176 130.72057902 -0.88647461 128.82666016 C-0.884254 127.74744293 -0.88203339 126.66822571 -0.87974548 125.55630493 C-0.82676584 123.00922654 -0.82676584 123.00922654 -2 121 C-1.4765625 119.046875 -1.4765625 119.046875 -0.625 116.75 C2.10501239 109.35090099 2.21131679 102.17933862 2.25 94.375 C2.270625 93.35792969 2.29125 92.34085937 2.3125 91.29296875 C2.31765625 90.27589844 2.3228125 89.25882812 2.328125 88.2109375 C2.34214355 86.85427979 2.34214355 86.85427979 2.35644531 85.47021484 C2.03063371 82.29823801 1.36235102 79.69226747 0.48413086 76.64208984 C-1.51733837 68.91860966 -1.27681222 61.41205497 -1.07421875 53.515625 C-1.04611357 51.96338323 -1.01943111 50.41111512 -0.99409485 48.85882568 C-0.9243288 44.81440408 -0.83551114 40.77062779 -0.74243164 36.72668457 C-0.65054082 32.58363362 -0.57707121 28.44025798 -0.50195312 24.296875 C-0.35244751 16.19749281 -0.18277083 8.09869956 0 0 Z " fill="#C4EAF9" transform="translate(323,15)"/>
<path d="M0 0 C-0.0030162 0.69633545 -0.00603241 1.3926709 -0.00914001 2.11010742 C-0.03146674 8.70082306 -0.02004204 15.29053861 0.02846622 21.88113403 C0.05223265 25.26888389 0.06334671 28.65565417 0.04467773 32.04345703 C0.02963837 35.9465303 0.05939681 39.84712916 0.09765625 43.75 C0.08340103 44.95551514 0.06914581 46.16103027 0.05445862 47.40307617 C0.17290602 54.33403948 0.93882302 58.30331505 5.98365784 63.18847656 C6.98174721 64.08518066 6.98174721 64.08518066 8 65 C9.2798067 66.30748025 10.55439612 67.62008577 11.82397461 68.9375 C13.18086633 70.29423648 14.54041373 71.64832118 15.90234375 73 C16.6249086 73.7211499 17.34747345 74.4422998 18.0919342 75.18530273 C20.37142604 77.45925415 22.6543924 79.72967954 24.9375 82 C26.49567506 83.55315235 28.05361993 85.10653567 29.61132812 86.66015625 C33.40489759 90.44277586 37.20131615 94.2225169 41 98 C40 101 40 101 37.0859375 102.75390625 C35.85408246 103.36717318 34.61680769 103.9696452 33.375 104.5625 C32.46814453 105.01786133 32.46814453 105.01786133 31.54296875 105.48242188 C19.86725699 111.19580321 4.66161729 112.46785747 -8.0078125 109.125 C-11.1852729 107.96120727 -14.04406282 106.64356731 -17 105 C-18.47339844 104.18595703 -18.47339844 104.18595703 -19.9765625 103.35546875 C-34.09082573 94.92875903 -42.09359483 82.85308709 -46.53051758 67.11865234 C-49.53225486 53.5725909 -46.95177172 38.77798414 -40.3125 26.8125 C-32.220736 14.39305128 -21.36160426 5.28328548 -7 1 C-2 0 -2 0 0 0 Z " fill="#FB7F86" transform="translate(248,55)"/>
<path d="M0 0 C11.4675 -0.4125 22.935 -0.825 34.75 -1.25 C40.11523926 -1.52312012 40.11523926 -1.52312012 45.58886719 -1.80175781 C59.10546292 -2.23337521 73.39107076 -2.46884983 84.25 6.75 C96.25795509 19.36351105 94.15008436 38.99638155 93.84971237 55.16520309 C93.72565397 59.97278943 93.55211975 64.77791925 93.37329102 69.58374023 C93.16681259 75.72371349 93.07696129 81.86535118 92.9765625 88.0078125 C92.76354595 100.01028725 92.41256102 112.00272548 92 124 C84.08 124 76.16 124 68 124 C68 106.84 68 89.68 68 72 C53.74427336 72.19763246 53.74427336 72.19763246 39.48950195 72.45043945 C37.69744353 72.46504755 35.90536849 72.47778746 34.11328125 72.48828125 C33.18882202 72.51386108 32.26436279 72.53944092 31.31188965 72.5657959 C26.72752633 72.56889889 24.65952819 72.48575412 20.87182617 69.69604492 C19 67 19 67 18.9375 63.375 C20.11592923 59.63175422 20.72551419 58.93762899 24 57 C26.15142822 56.63923645 26.15142822 56.63923645 28.49316406 56.65942383 C29.81408051 56.65976372 29.81408051 56.65976372 31.16168213 56.66011047 C32.57438385 56.68333626 32.57438385 56.68333626 34.015625 56.70703125 C34.98659119 56.71127609 35.95755737 56.71552094 36.95794678 56.71989441 C40.05558131 56.73667147 43.15256249 56.77432228 46.25 56.8125 C48.3515531 56.82754808 50.4531164 56.84123627 52.5546875 56.85351562 C57.70337629 56.88657189 62.85157741 56.93834792 68 57 C68 51.72 68 46.44 68 41 C66.03994019 41.03927612 66.03994019 41.03927612 64.0402832 41.0793457 C59.18564012 41.16994324 54.33107155 41.22728445 49.47583008 41.2746582 C47.3757673 41.29978051 45.27579177 41.33388458 43.17602539 41.37719727 C40.1548916 41.43794871 37.13491504 41.46623263 34.11328125 41.48828125 C33.17664139 41.51408768 32.24000153 41.5398941 31.27497864 41.56648254 C26.70589262 41.56844219 24.6480368 41.47729051 20.87182617 38.69604492 C19 36 19 36 18.9375 32.375 C20.11592923 28.63175422 20.72551419 27.93762899 24 26 C26.15142822 25.63923645 26.15142822 25.63923645 28.49316406 25.65942383 C29.81408051 25.65976372 29.81408051 25.65976372 31.16168213 25.66011047 C32.57438385 25.68333626 32.57438385 25.68333626 34.015625 25.70703125 C34.98659119 25.71127609 35.95755737 25.71552094 36.95794678 25.71989441 C40.05558131 25.73667147 43.15256249 25.77432228 46.25 25.8125 C48.3515531 25.82754808 50.4531164 25.84123627 52.5546875 25.85351562 C57.70337629 25.88657189 62.85157741 25.93834792 68 26 C67.67675297 14.55327773 67.67675297 14.55327773 52 2 C35.17 1.67 18.34 1.34 1 1 C1 41.59 1 82.18 1 124 C0.67 124 0.34 124 0 124 C0 83.08 0 42.16 0 0 Z " fill="#F9BF43" transform="translate(210,373)"/>
<path d="M0 0 C11.4675 -0.4125 22.935 -0.825 34.75 -1.25 C40.11523926 -1.52312012 40.11523926 -1.52312012 45.58886719 -1.80175781 C59.10546292 -2.23337521 73.39107076 -2.46884983 84.25 6.75 C96.25795509 19.36351105 94.15008436 38.99638155 93.84971237 55.16520309 C93.72565397 59.97278943 93.55211975 64.77791925 93.37329102 69.58374023 C93.16681259 75.72371349 93.07696129 81.86535118 92.9765625 88.0078125 C92.76354595 100.01028725 92.41256102 112.00272548 92 124 C84.08 124 76.16 124 68 124 C68 106.84 68 89.68 68 72 C53.69940355 72.15818611 53.69940355 72.15818611 39.39941406 72.36035156 C37.60482737 72.37203548 35.81023008 72.38222801 34.015625 72.390625 C33.0860498 72.41108887 32.15647461 72.43155273 31.19873047 72.45263672 C24.65552649 72.45617933 24.65552649 72.45617933 21.40527344 70.19433594 C19.3341839 66.96032746 19.46372935 64.75389453 20 61 C21.40527344 58.80566406 21.40527344 58.80566406 24 57 C27.34152565 56.44317789 30.63638248 56.53529892 34.015625 56.609375 C34.98659119 56.61503479 35.95755737 56.62069458 36.95794678 56.62652588 C40.05580169 56.64889689 43.15249533 56.69909527 46.25 56.75 C48.35154578 56.77006403 50.45310972 56.78831497 52.5546875 56.8046875 C57.7035717 56.8487642 62.85158903 56.91779742 68 57 C68 51.72 68 46.44 68 41 C66.03208496 41.0314209 66.03208496 41.0314209 64.02441406 41.06347656 C59.15668656 41.1358797 54.28900665 41.18180113 49.42089844 41.21972656 C47.31404618 41.23984126 45.20724975 41.26713667 43.10058594 41.30175781 C40.07212553 41.35028168 37.04440322 41.37297016 34.015625 41.390625 C32.60292328 41.42159271 32.60292328 41.42159271 31.16168213 41.45318604 C24.65443329 41.45541857 24.65443329 41.45541857 21.40527344 39.19433594 C19.3341839 35.96032746 19.46372935 33.75389453 20 30 C21.40527344 27.80566406 21.40527344 27.80566406 24 26 C27.34152565 25.44317789 30.63638248 25.53529892 34.015625 25.609375 C34.98659119 25.61503479 35.95755737 25.62069458 36.95794678 25.62652588 C40.05580169 25.64889689 43.15249533 25.69909527 46.25 25.75 C48.35154578 25.77006403 50.45310972 25.78831497 52.5546875 25.8046875 C57.7035717 25.8487642 62.85158903 25.91779742 68 26 C67.67675297 14.55327773 67.67675297 14.55327773 52 2 C35.17 1.67 18.34 1.34 1 1 C1 41.59 1 82.18 1 124 C0.67 124 0.34 124 0 124 C0 83.08 0 42.16 0 0 Z " fill="#F8BE43" transform="translate(402,141)"/>
<path d="M0 0 C17.1665704 -0.80217619 17.1665704 -0.80217619 24.6171875 -0.9765625 C29.65902635 -1.09513937 34.6934551 -1.23355513 39.72949219 -1.50878906 C72.47957136 -3.24268083 72.47957136 -3.24268083 84.25 6.75 C96.25795509 19.36351105 94.15008436 38.99638155 93.84971237 55.16520309 C93.72565397 59.97278943 93.55211975 64.77791925 93.37329102 69.58374023 C93.16681259 75.72371349 93.07696129 81.86535118 92.9765625 88.0078125 C92.76354595 100.01028725 92.41256102 112.00272548 92 124 C84.08 124 76.16 124 68 124 C68 106.84 68 89.68 68 72 C53.69940355 72.15818611 53.69940355 72.15818611 39.39941406 72.36035156 C37.60482737 72.37203548 35.81023008 72.38222801 34.015625 72.390625 C33.0860498 72.41108887 32.15647461 72.43155273 31.19873047 72.45263672 C24.65552649 72.45617933 24.65552649 72.45617933 21.40527344 70.19433594 C19.3341839 66.96032746 19.46372935 64.75389453 20 61 C21.40527344 58.80566406 21.40527344 58.80566406 24 57 C27.34152565 56.44317789 30.63638248 56.53529892 34.015625 56.609375 C34.98659119 56.61503479 35.95755737 56.62069458 36.95794678 56.62652588 C40.05580169 56.64889689 43.15249533 56.69909527 46.25 56.75 C48.35154578 56.77006403 50.45310972 56.78831497 52.5546875 56.8046875 C57.7035717 56.8487642 62.85158903 56.91779742 68 57 C68 51.72 68 46.44 68 41 C66.03208496 41.0314209 66.03208496 41.0314209 64.02441406 41.06347656 C59.15668656 41.1358797 54.28900665 41.18180113 49.42089844 41.21972656 C47.31404618 41.23984126 45.20724975 41.26713667 43.10058594 41.30175781 C40.07212553 41.35028168 37.04440322 41.37297016 34.015625 41.390625 C32.60292328 41.42159271 32.60292328 41.42159271 31.16168213 41.45318604 C24.65443329 41.45541857 24.65443329 41.45541857 21.40527344 39.19433594 C19.3341839 35.96032746 19.46372935 33.75389453 20 30 C21.40527344 27.80566406 21.40527344 27.80566406 24 26 C27.34152565 25.44317789 30.63638248 25.53529892 34.015625 25.609375 C34.98659119 25.61503479 35.95755737 25.62069458 36.95794678 25.62652588 C40.05580169 25.64889689 43.15249533 25.69909527 46.25 25.75 C48.35154578 25.77006403 50.45310972 25.78831497 52.5546875 25.8046875 C57.7035717 25.8487642 62.85158903 25.91779742 68 26 C67.94427745 17.42422947 65.00695783 13.00614801 59.12107849 7.02757263 C49.5882071 -1.40135984 37.54236104 0.16244532 25.5625 0.5625 C17.456875 0.706875 9.35125 0.85125 1 1 C1 19.48 1 37.96 1 57 C0.67 57 0.34 57 0 57 C0 38.19 0 19.38 0 0 Z " fill="#FBC043" transform="translate(402,373)"/>
<path d="M0 0 C8.92750138 -0.44454733 17.85108359 -0.779868 26.78732014 -0.98443127 C30.93963834 -1.08273855 35.08428168 -1.21539284 39.23217773 -1.43334961 C68.21706708 -2.91781808 68.21706708 -2.91781808 77.46240234 4.27880859 C81.67278306 8.20386218 85.29649585 12.45854277 88.61100769 17.16117859 C89.88109817 19.12560924 89.88109817 19.12560924 92 20 C92 54.32 92 88.64 92 124 C84.08 124 76.16 124 68 124 C68 106.84 68 89.68 68 72 C53.37014216 72.19774463 53.37014216 72.19774463 38.74121094 72.45043945 C36.90561372 72.46504402 35.07000031 72.47778476 33.234375 72.48828125 C32.28320801 72.51386108 31.33204102 72.53944092 30.35205078 72.5657959 C23.6533127 72.57022863 23.6533127 72.57022863 20.36035156 69.69604492 C18.4944631 65.99808974 18.83604691 63.92834167 20 60 C22.78999362 57.35411288 24.68319353 56.62657925 28.49316406 56.65942383 C29.81408051 56.65976372 29.81408051 56.65976372 31.16168213 56.66011047 C32.57438385 56.68333626 32.57438385 56.68333626 34.015625 56.70703125 C34.98659119 56.71127609 35.95755737 56.71552094 36.95794678 56.71989441 C40.05558131 56.73667147 43.15256249 56.77432228 46.25 56.8125 C48.3515531 56.82754808 50.4531164 56.84123627 52.5546875 56.85351562 C57.70337629 56.88657189 62.85157741 56.93834792 68 57 C68 51.72 68 46.44 68 41 C66.03994019 41.03927612 66.03994019 41.03927612 64.0402832 41.0793457 C59.18564012 41.16994324 54.33107155 41.22728445 49.47583008 41.2746582 C47.3757673 41.29978051 45.27579177 41.33388458 43.17602539 41.37719727 C40.1548916 41.43794871 37.13491504 41.46623263 34.11328125 41.48828125 C33.17664139 41.51408768 32.24000153 41.5398941 31.27497864 41.56648254 C26.70589262 41.56844219 24.6480368 41.47729051 20.87182617 38.69604492 C19 36 19 36 18.9375 32.375 C20.11592923 28.63175422 20.72551419 27.93762899 24 26 C26.15142822 25.63923645 26.15142822 25.63923645 28.49316406 25.65942383 C29.81408051 25.65976372 29.81408051 25.65976372 31.16168213 25.66011047 C32.57438385 25.68333626 32.57438385 25.68333626 34.015625 25.70703125 C34.98659119 25.71127609 35.95755737 25.71552094 36.95794678 25.71989441 C40.05558131 25.73667147 43.15256249 25.77432228 46.25 25.8125 C48.3515531 25.82754808 50.4531164 25.84123627 52.5546875 25.85351562 C57.70337629 25.88657189 62.85157741 25.93834792 68 26 C67.87326904 24.73687988 67.74653809 23.47375977 67.6159668 22.17236328 C67.54468063 21.46185822 67.47339447 20.75135315 67.39994812 20.01931763 C66.76985848 16.83802724 65.05048394 15.14672239 62.8125 12.875 C62.05582031 12.08867187 61.29914063 11.30234375 60.51953125 10.4921875 C59.68808594 9.66976562 58.85664062 8.84734375 58 8 C56.80709351 6.46279297 56.80709351 6.46279297 55.59008789 4.89453125 C51.91515674 1.24640146 48.39814806 1.26188902 43.39199829 1.16775513 C42.28552948 1.17684906 41.17906067 1.18594299 40.0390625 1.1953125 C38.89335785 1.18160614 37.7476532 1.16789978 36.56723022 1.15377808 C32.91942052 1.11648348 29.27297328 1.12019308 25.625 1.125 C23.14711414 1.10687308 20.66924631 1.08607042 18.19140625 1.0625 C12.12747068 1.01065378 6.06413686 0.99243957 0 1 C0 0.67 0 0.34 0 0 Z " fill="#F9BE42" transform="translate(18,141)"/>
<path d="M0 0 C24.66345541 -3.03229143 24.66345541 -3.03229143 33.25341797 1.84863281 C38.74381808 6.29311031 43.26786761 11.50733342 47.50488281 17.14233398 C48.87819067 19.11258913 48.87819067 19.11258913 51 20 C51 54.32 51 88.64 51 124 C43.08 124 35.16 124 27 124 C27 106.84 27 89.68 27 72 C12.37014216 72.19774463 12.37014216 72.19774463 -2.25878906 72.45043945 C-4.09438628 72.46504402 -5.92999969 72.47778476 -7.765625 72.48828125 C-8.71679199 72.51386108 -9.66795898 72.53944092 -10.64794922 72.5657959 C-17.3466873 72.57022863 -17.3466873 72.57022863 -20.63964844 69.69604492 C-22.5055369 65.99808974 -22.16395309 63.92834167 -21 60 C-18.21000638 57.35411288 -16.31680647 56.62657925 -12.50683594 56.65942383 C-11.18591949 56.65976372 -11.18591949 56.65976372 -9.83831787 56.66011047 C-8.42561615 56.68333626 -8.42561615 56.68333626 -6.984375 56.70703125 C-6.01340881 56.71127609 -5.04244263 56.71552094 -4.04205322 56.71989441 C-0.94441869 56.73667147 2.15256249 56.77432228 5.25 56.8125 C7.3515531 56.82754808 9.4531164 56.84123627 11.5546875 56.85351562 C16.70337629 56.88657189 21.85157741 56.93834792 27 57 C27 51.72 27 46.44 27 41 C25.03994019 41.03927612 25.03994019 41.03927612 23.0402832 41.0793457 C18.18564012 41.16994324 13.33107155 41.22728445 8.47583008 41.2746582 C6.3757673 41.29978051 4.27579177 41.33388458 2.17602539 41.37719727 C-0.8451084 41.43794871 -3.86508496 41.46623263 -6.88671875 41.48828125 C-7.82335861 41.51408768 -8.75999847 41.5398941 -9.72502136 41.56648254 C-14.29410738 41.56844219 -16.3519632 41.47729051 -20.12817383 38.69604492 C-22 36 -22 36 -22.0625 32.375 C-20.88407077 28.63175422 -20.27448581 27.93762899 -17 26 C-14.84857178 25.63923645 -14.84857178 25.63923645 -12.50683594 25.65942383 C-11.18591949 25.65976372 -11.18591949 25.65976372 -9.83831787 25.66011047 C-8.42561615 25.68333626 -8.42561615 25.68333626 -6.984375 25.70703125 C-6.01340881 25.71127609 -5.04244263 25.71552094 -4.04205322 25.71989441 C-0.94441869 25.73667147 2.15256249 25.77432228 5.25 25.8125 C7.3515531 25.82754808 9.4531164 25.84123627 11.5546875 25.85351562 C16.70337629 25.88657189 21.85157741 25.93834792 27 26 C26.73929664 24.41458741 26.46263071 22.83179536 26.17944336 21.25024414 C26.02712753 20.36857071 25.87481171 19.48689728 25.71788025 18.57850647 C24.50158996 14.20979401 21.7817377 11.5064098 18.5625 8.4375 C17.9422998 7.8276123 17.32209961 7.21772461 16.68310547 6.58935547 C12.05134039 2.31835303 8.37217579 0.48461589 1.9140625 0.7265625 C0.96660156 0.86191406 0.96660156 0.86191406 0 1 C0 0.67 0 0.34 0 0 Z " fill="#F9BE42" transform="translate(59,373)"/>
<path d="M0 0 C1.77417046 -0.01073296 1.77417046 -0.01073296 3.58418274 -0.02168274 C6.81583187 -0.03566259 10.04643881 -0.02729454 13.27802968 -0.00759244 C16.66562254 0.00883653 20.05316466 -0.00002453 23.44078064 -0.00511169 C29.12764674 -0.00962734 34.81418334 0.00620544 40.50097656 0.03417969 C47.06996861 0.06624502 53.63836706 0.06620843 60.20740134 0.04896492 C66.53568129 0.03308734 72.8637442 0.03984017 79.19201469 0.05690193 C81.88133989 0.06376342 84.57049063 0.06274945 87.25981331 0.05535698 C91.01603221 0.04991306 94.77124001 0.07025557 98.52734375 0.09765625 C100.19742493 0.08786743 100.19742493 0.08786743 101.90124512 0.07788086 C109.41245389 0.17115043 109.41245389 0.17115043 113.36204529 2.48085022 C115.76126668 5.28930542 116.27433798 6.93829836 116.19897461 10.63110352 C114.94238281 13.28207397 114.94238281 13.28207397 112.19897461 15.63110352 C108.22556354 16.40812718 104.27939184 16.31337869 100.24194336 16.27807617 C99.01883453 16.28683777 97.79572571 16.29559937 96.53555298 16.30462646 C93.1838453 16.32286437 89.8336807 16.31858943 86.48205948 16.30273104 C82.97385848 16.2900665 79.46572314 16.30181366 75.95751953 16.30966187 C70.06620452 16.31875691 64.17520296 16.30677469 58.28393555 16.28295898 C51.47404581 16.25574751 44.66490452 16.26456181 37.85503292 16.29209101 C32.00689 16.31478558 26.15897233 16.31798062 20.3107996 16.30489767 C16.81851496 16.29710487 13.32658207 16.29605626 9.83432007 16.31258011 C5.94125302 16.32971391 2.04902338 16.30596335 -1.84399414 16.27807617 C-3.00152191 16.28819733 -4.15904968 16.29831848 -5.35165405 16.30874634 C-13.14909756 16.20502245 -13.14909756 16.20502245 -16.50927734 13.24691772 C-17.99536522 10.23756169 -18.62077808 8.91011426 -17.80102539 5.63110352 C-12.56159278 -0.32613668 -7.61689675 -0.08013427 0 0 Z " fill="#070708" transform="translate(206.801025390625,194.368896484375)"/>
<path d="M0 0 C16.09282713 3.21856543 29.21525781 9.2105321 39 23 C44.0127447 31.36117891 46.19599963 38.07799798 48 48 C32.16 48 16.32 48 0 48 C0 32.16 0 16.32 0 0 Z " fill="#25A5FD" transform="translate(263,55)"/>
<path d="M0 0 C0.71300262 -0.0087616 1.42600525 -0.01752319 2.16061401 -0.02655029 C4.50223831 -0.04844052 6.84195247 -0.03403099 9.18359375 -0.01708984 C10.8197465 -0.02046102 12.4558968 -0.02531616 14.09204102 -0.03158569 C17.51505461 -0.03894288 20.93741422 -0.02828955 24.36035156 -0.00488281 C28.73875486 0.0236052 33.11562566 0.00719489 37.49397278 -0.02274513 C40.87076272 -0.0408499 44.24719186 -0.03504572 47.62399292 -0.02210617 C49.23786604 -0.0187809 50.85177238 -0.02282828 52.46560669 -0.03450394 C54.72534399 -0.04726639 56.98263179 -0.02776612 59.2421875 0 C60.52536865 0.00397797 61.8085498 0.00795593 63.13061523 0.01205444 C67.75923043 0.85399977 69.40435159 2.24881581 72.62109375 5.64697266 C72.68129406 9.1385904 72.44822382 11.38200547 70.51951599 14.33166504 C67.60565072 16.35051475 64.60559041 16.08097283 61.18383789 16.06689453 C60.42904648 16.07536407 59.67425507 16.08383362 58.89659119 16.09255981 C56.39963975 16.11597339 53.90330294 16.11695097 51.40625 16.11572266 C49.67133842 16.12282169 47.9364292 16.13052031 46.20152283 16.13879395 C42.56405105 16.15224879 38.92679635 16.15380309 35.28930664 16.14794922 C30.62712163 16.14205248 25.96597776 16.17263816 21.30399418 16.2130661 C17.72060023 16.2389121 14.137458 16.24182336 10.55398369 16.23817444 C8.83516256 16.23986865 7.11633018 16.24954012 5.39760017 16.26731873 C2.99360562 16.28944845 0.59173124 16.27983952 -1.81225586 16.26220703 C-2.87765091 16.2821019 -2.87765091 16.2821019 -3.96456909 16.30239868 C-7.68573724 16.23895851 -9.11084875 15.90934146 -11.8127594 13.26477051 C-13.61003389 10.26064526 -14.23154844 9.05754141 -13.37890625 5.64697266 C-8.97672799 1.18001663 -6.43854642 0.01996002 0 0 Z " fill="#070808" transform="translate(202.37890625,224.35302734375)"/>
<path d="M0 0 C1.40892517 -0.00074776 1.40892517 -0.00074776 2.84631348 -0.00151062 C4.83001829 0.00082739 6.81372621 0.01053983 8.79736328 0.02709961 C11.83262681 0.05069478 14.86701178 0.04765803 17.90234375 0.04101562 C19.8307344 0.04659254 21.75912135 0.0537025 23.6875 0.0625 C24.59487915 0.06158859 25.5022583 0.06067719 26.43713379 0.05973816 C27.28481323 0.06927017 28.13249268 0.07880219 29.00585938 0.08862305 C30.12027405 0.09553413 30.12027405 0.09553413 31.25720215 0.10258484 C33.70180938 0.40801772 35.26285663 1.04963767 37.34375 2.36328125 C39.34375 5.36328125 39.34375 5.36328125 39.21875 8.86328125 C38.34375 12.36328125 38.34375 12.36328125 36.90405273 14.05273438 C32.89216415 16.10630717 28.94931407 15.83106444 24.50390625 15.83203125 C23.06524452 15.84345154 23.06524452 15.84345154 21.59751892 15.85510254 C19.57097983 15.86589828 17.54438512 15.86875878 15.51782227 15.86425781 C12.42044109 15.8632857 9.32553903 15.90490874 6.22851562 15.94921875 C4.25781766 15.95442606 2.28711109 15.95711394 0.31640625 15.95703125 C-0.60768539 15.97342651 -1.53177704 15.98982178 -2.48387146 16.00671387 C-7.0094864 15.95817589 -9.04226703 15.81806209 -12.77563477 13.05273438 C-14.65625 10.36328125 -14.65625 10.36328125 -14.71875 6.73828125 C-13.65625 3.36328125 -13.65625 3.36328125 -12.19335938 1.67504883 C-8.23669452 -0.37067483 -4.38931354 -0.0445508 0 0 Z " fill="#040301" transform="translate(243.65625,429.63671875)"/>
<path d="M0 0 C0.93691177 -0.00287018 1.87382355 -0.00574036 2.83912659 -0.00869751 C4.81861984 -0.010737 6.7981333 -0.00521517 8.77758789 0.00732422 C11.80205567 0.02336141 14.82518346 0.00748083 17.84960938 -0.01171875 C19.77474253 -0.00973595 21.69987484 -0.0058915 23.625 0 C24.52721786 -0.00607269 25.42943573 -0.01214539 26.35899353 -0.0184021 C31.11596512 0.03467011 34.61363188 0.14012656 38.37890625 3.3984375 C39.4669316 7.13852463 39.97323189 9.26921878 38.12890625 12.7734375 C35.37208046 15.33334716 32.77156588 15.52890544 29.17041016 15.59130859 C28.32588287 15.60737152 27.48135559 15.62343445 26.61123657 15.63998413 C22.75938866 15.68455929 18.90770956 15.72548021 15.05566406 15.74853516 C13.02462314 15.76510845 10.99364086 15.79241647 8.96289062 15.83056641 C6.03094304 15.88533801 3.10035902 15.90720724 0.16796875 15.921875 C-0.73738617 15.94454437 -1.64274109 15.96721375 -2.57553101 15.99057007 C-7.06553108 15.97552988 -9.02266938 15.84248437 -12.72900391 13.09228516 C-14.62109375 10.3984375 -14.62109375 10.3984375 -14.68359375 6.7734375 C-13.62109375 3.3984375 -13.62109375 3.3984375 -12.15600586 1.71240234 C-8.21190536 -0.33201149 -4.37882999 -0.02940727 0 0 Z " fill="#030201" transform="translate(243.62109375,398.6015625)"/>
<path d="M0 0 C0.93691177 -0.00524185 1.87382355 -0.0104837 2.83912659 -0.0158844 C4.81860362 -0.02230154 6.7981188 -0.02097159 8.77758789 -0.01245117 C11.80228789 -0.00394595 14.82509615 -0.03269906 17.84960938 -0.06445312 C19.77473902 -0.0660654 21.699872 -0.0654871 23.625 -0.0625 C24.52721786 -0.07373398 25.42943573 -0.08496796 26.35899353 -0.09654236 C30.50102209 -0.05069999 32.82056115 0.10447474 36.45336914 2.24584961 C38.37890625 4.43359375 38.37890625 4.43359375 38.94140625 7.93359375 C38.37890625 11.43359375 38.37890625 11.43359375 36.97460938 13.61694336 C32.9576274 16.42830179 29.07819008 16.02499438 24.28515625 16 C23.30148071 16.00619858 22.31780518 16.01239716 21.30432129 16.01878357 C19.22649118 16.02588122 17.1486042 16.0227087 15.07080078 16.01000977 C11.88988771 15.99614163 8.71191468 16.03021896 5.53125 16.06835938 C3.51171803 16.06931055 1.49218237 16.06745185 -0.52734375 16.0625 C-1.95403381 16.08238731 -1.95403381 16.08238731 -3.4095459 16.10267639 C-9.96526613 16.01012076 -9.96526613 16.01012076 -13.25195312 13.12084961 C-15.13304262 9.42877542 -14.78512448 7.36219747 -13.62109375 3.43359375 C-10.00860345 -0.72937126 -5.0879462 -0.01651811 0 0 Z " fill="#030301" transform="translate(51.62109375,197.56640625)"/>
<path d="M0 0 C0.93691177 -0.00524185 1.87382355 -0.0104837 2.83912659 -0.0158844 C4.81860362 -0.02230154 6.7981188 -0.02097159 8.77758789 -0.01245117 C11.80228789 -0.00394595 14.82509615 -0.03269906 17.84960938 -0.06445312 C19.77473902 -0.0660654 21.699872 -0.0654871 23.625 -0.0625 C24.52721786 -0.07373398 25.42943573 -0.08496796 26.35899353 -0.09654236 C30.50102209 -0.05069999 32.82056115 0.10447474 36.45336914 2.24584961 C38.37890625 4.43359375 38.37890625 4.43359375 38.94140625 7.93359375 C38.37890625 11.43359375 38.37890625 11.43359375 36.97460938 13.61694336 C32.9576274 16.42830179 29.07819008 16.02499438 24.28515625 16 C23.30148071 16.00619858 22.31780518 16.01239716 21.30432129 16.01878357 C19.22649118 16.02588122 17.1486042 16.0227087 15.07080078 16.01000977 C11.88988771 15.99614163 8.71191468 16.03021896 5.53125 16.06835938 C3.51171803 16.06931055 1.49218237 16.06745185 -0.52734375 16.0625 C-1.95403381 16.08238731 -1.95403381 16.08238731 -3.4095459 16.10267639 C-9.96526613 16.01012076 -9.96526613 16.01012076 -13.25195312 13.12084961 C-15.13304262 9.42877542 -14.78512448 7.36219747 -13.62109375 3.43359375 C-10.00860345 -0.72937126 -5.0879462 -0.01651811 0 0 Z " fill="#020200" transform="translate(51.62109375,429.56640625)"/>
<path d="M0 0 C0.93691177 -0.00145523 1.87382355 -0.00291046 2.83912659 -0.00440979 C4.81864534 -0.00275139 6.79817707 0.00880326 8.77758789 0.02954102 C11.8021547 0.0584575 14.82496422 0.05015619 17.84960938 0.03710938 C19.77474808 0.04334822 21.69988126 0.0517403 23.625 0.0625 C24.52721786 0.05956436 25.42943573 0.05662872 26.35899353 0.05360413 C31.11761602 0.12481568 34.60409835 0.25429944 38.37890625 3.49609375 C39.50390625 6.87109375 39.50390625 6.87109375 39.37890625 10.49609375 C37.37007205 13.36061481 35.76629611 15.19589107 32.25192261 15.95632935 C29.62376084 16.14218445 27.04075595 16.16279802 24.40625 16.125 C23.44618546 16.12741196 22.48612091 16.12982391 21.4969635 16.13230896 C19.47213602 16.13133149 17.44728149 16.1179619 15.42260742 16.09301758 C12.32313386 16.05866831 9.22650564 16.07237396 6.12695312 16.09179688 C4.15753995 16.08489937 2.18813413 16.07522785 0.21875 16.0625 C-1.17042381 16.0699398 -1.17042381 16.0699398 -2.58766174 16.07752991 C-8.9601752 15.96079137 -8.9601752 15.96079137 -12.20483398 13.67944336 C-14.29630327 10.45517 -14.15746731 8.25070864 -13.62109375 4.49609375 C-10.20491292 -0.73054044 -5.66039735 -0.07032274 0 0 Z " fill="#030301" transform="translate(435.62109375,197.50390625)"/>
<path d="M0 0 C0.93691177 -0.00145523 1.87382355 -0.00291046 2.83912659 -0.00440979 C4.81864534 -0.00275139 6.79817707 0.00880326 8.77758789 0.02954102 C11.8021547 0.0584575 14.82496422 0.05015619 17.84960938 0.03710938 C19.77474808 0.04334822 21.69988126 0.0517403 23.625 0.0625 C24.52721786 0.05956436 25.42943573 0.05662872 26.35899353 0.05360413 C31.11761602 0.12481568 34.60409835 0.25429944 38.37890625 3.49609375 C39.50390625 6.87109375 39.50390625 6.87109375 39.37890625 10.49609375 C37.37007205 13.36061481 35.76629611 15.19589107 32.25192261 15.95632935 C29.62376084 16.14218445 27.04075595 16.16279802 24.40625 16.125 C23.44618546 16.12741196 22.48612091 16.12982391 21.4969635 16.13230896 C19.47213602 16.13133149 17.44728149 16.1179619 15.42260742 16.09301758 C12.32313386 16.05866831 9.22650564 16.07237396 6.12695312 16.09179688 C4.15753995 16.08489937 2.18813413 16.07522785 0.21875 16.0625 C-1.17042381 16.0699398 -1.17042381 16.0699398 -2.58766174 16.07752991 C-8.9601752 15.96079137 -8.9601752 15.96079137 -12.20483398 13.67944336 C-14.29630327 10.45517 -14.15746731 8.25070864 -13.62109375 4.49609375 C-10.20491292 -0.73054044 -5.66039735 -0.07032274 0 0 Z " fill="#020200" transform="translate(435.62109375,429.50390625)"/>
<path d="M0 0 C1.43866173 -0.00929787 1.43866173 -0.00929787 2.90638733 -0.01878357 C4.93294256 -0.0258812 6.95955611 -0.02270872 8.98608398 -0.01000977 C12.08361425 0.00384345 15.17811611 -0.03020044 18.27539062 -0.06835938 C20.24609449 -0.06931071 22.21680213 -0.06745096 24.1875 -0.0625 C25.11159164 -0.07575821 26.03568329 -0.08901642 26.98777771 -0.10267639 C31.50877534 -0.03736916 33.54960073 0.1131665 37.27563477 2.87915039 C39.16015625 5.56640625 39.16015625 5.56640625 39.28515625 9.19140625 C38.16015625 12.56640625 38.16015625 12.56640625 36.19946289 14.25024414 C31.9074911 16.10886892 28.03759331 16.01506947 23.40625 16 C21.99944725 16.00786278 21.99944725 16.00786278 20.56422424 16.0158844 C18.58652739 16.02229357 16.60879236 16.02098194 14.63110352 16.01245117 C11.60429275 16.00392494 8.57935962 16.03274398 5.55273438 16.06445312 C3.62890681 16.06606487 1.70507591 16.06548813 -0.21875 16.0625 C-1.57511314 16.07935097 -1.57511314 16.07935097 -2.95887756 16.09654236 C-9.18613164 16.02736426 -9.18613164 16.02736426 -12.40991211 13.75415039 C-14.51778047 10.52918737 -14.37749611 8.32997279 -13.83984375 4.56640625 C-10.41983699 -0.70598135 -5.6929645 -0.03048901 0 0 Z " fill="#010100" transform="translate(435.83984375,398.43359375)"/>
<path d="M0 0 C1.40892517 -0.00074776 1.40892517 -0.00074776 2.84631348 -0.00151062 C4.83001829 0.00082739 6.81372621 0.01053983 8.79736328 0.02709961 C11.83262681 0.05069478 14.86701178 0.04765803 17.90234375 0.04101562 C19.8307344 0.04659254 21.75912135 0.0537025 23.6875 0.0625 C24.59487915 0.06158859 25.5022583 0.06067719 26.43713379 0.05973816 C27.28481323 0.06927017 28.13249268 0.07880219 29.00585938 0.08862305 C30.12027405 0.09553413 30.12027405 0.09553413 31.25720215 0.10258484 C33.67358366 0.40449116 35.27800265 1.08577311 37.34375 2.36328125 C38.90805248 5.4918862 38.70002284 7.9193105 38.34375 11.36328125 C36.22235947 13.78931081 34.48162373 15.15668192 31.26342773 15.74099731 C28.70897068 15.90990208 26.18503237 15.94381018 23.625 15.9296875 C22.68950317 15.93588608 21.75400635 15.94208466 20.79016113 15.94847107 C18.81666095 15.95555985 16.84310086 15.95241169 14.86962891 15.93969727 C11.85337173 15.9258255 8.84021435 15.95992264 5.82421875 15.99804688 C3.90364508 15.99899807 1.98306753 15.99713923 0.0625 15.9921875 C-1.28612122 16.01207481 -1.28612122 16.01207481 -2.6619873 16.03236389 C-7.12431328 15.9661294 -9.08238402 15.79092698 -12.75976562 13.05053711 C-14.65625 10.36328125 -14.65625 10.36328125 -14.71875 6.73828125 C-13.65625 3.36328125 -13.65625 3.36328125 -12.19335938 1.67504883 C-8.23669452 -0.37067483 -4.38931354 -0.0445508 0 0 Z " fill="#010100" transform="translate(51.65625,398.63671875)"/>
<path d="M0 0 C0.93691177 -0.00145523 1.87382355 -0.00291046 2.83912659 -0.00440979 C4.81864534 -0.00275139 6.79817707 0.00880326 8.77758789 0.02954102 C11.8021547 0.0584575 14.82496422 0.05015619 17.84960938 0.03710938 C19.77474808 0.04334822 21.69988126 0.0517403 23.625 0.0625 C24.52721786 0.05956436 25.42943573 0.05662872 26.35899353 0.05360413 C31.11114626 0.12471886 34.61712264 0.24503611 38.37890625 3.49609375 C39.4669316 7.23618088 39.97323189 9.36687503 38.12890625 12.87109375 C35.36360457 15.43887388 32.7655696 15.62539113 29.15454102 15.6730957 C28.30678604 15.68593094 27.45903107 15.69876617 26.58558655 15.71199036 C25.67304611 15.71937729 24.76050568 15.72676422 23.8203125 15.734375 C22.87961411 15.74244675 21.93891571 15.75051849 20.9697113 15.75883484 C18.98007037 15.77266217 16.99040584 15.78339037 15.00073242 15.79125977 C11.95641428 15.80850872 8.91317219 15.8524108 5.86914062 15.89648438 C3.9362059 15.90660844 2.00326195 15.91512543 0.0703125 15.921875 C-1.29546181 15.94813713 -1.29546181 15.94813713 -2.68882751 15.97492981 C-8.96996612 15.95333416 -8.96996612 15.95333416 -12.19555664 13.68823242 C-14.29528478 10.45934752 -14.15870265 8.25935604 -13.62109375 4.49609375 C-10.20491292 -0.73054044 -5.66039735 -0.07032274 0 0 Z " fill="#010100" transform="translate(435.62109375,166.50390625)"/>
<path d="M0 0 C0.93691177 -0.00524185 1.87382355 -0.0104837 2.83912659 -0.0158844 C4.81860362 -0.02230154 6.7981188 -0.02097159 8.77758789 -0.01245117 C11.80228789 -0.00394595 14.82509615 -0.03269906 17.84960938 -0.06445312 C19.77473902 -0.0660654 21.699872 -0.0654871 23.625 -0.0625 C24.52721786 -0.07373398 25.42943573 -0.08496796 26.35899353 -0.09654236 C30.49985015 -0.05071297 32.81891012 0.1030816 36.44946289 2.24584961 C38.37890625 4.43359375 38.37890625 4.43359375 39.00390625 7.93359375 C38.37890625 11.43359375 38.37890625 11.43359375 36.44726562 13.61694336 C32.15299204 16.15940754 28.56741074 16.02707136 23.66015625 16 C22.72465942 16.00619858 21.7891626 16.01239716 20.82531738 16.01878357 C18.8518172 16.02587235 16.87825711 16.02272419 14.90478516 16.01000977 C11.88852798 15.996138 8.8753706 16.03023514 5.859375 16.06835938 C3.93880133 16.06931057 2.01822378 16.06745173 0.09765625 16.0625 C-1.25096497 16.08238731 -1.25096497 16.08238731 -2.62683105 16.10267639 C-7.08915703 16.0364419 -9.04722777 15.86123948 -12.72460938 13.12084961 C-14.62109375 10.43359375 -14.62109375 10.43359375 -14.68359375 6.80859375 C-13.62109375 3.43359375 -13.62109375 3.43359375 -12.15600586 1.74975586 C-8.21449588 -0.2967317 -4.37851117 -0.01421492 0 0 Z " fill="#010100" transform="translate(51.62109375,166.56640625)"/>
<path d="M0 0 C0.99 0.33 1.98 0.66 3 1 C2.34 1 1.68 1 1 1 C1 16.18 1 31.36 1 47 C11.89 47 22.78 47 34 47 C28.95973867 26.83895466 22.60003669 14.17789577 6 2 C8 1 8 1 10.43359375 1.71484375 C26.40827285 8.21689129 36.7989507 17.92072626 44.5546875 33.1796875 C46 37 46 37 48 48 C32.16 48 16.32 48 0 48 C0 32.16 0 16.32 0 0 Z " fill="#0786E4" transform="translate(263,55)"/>
<path d="M0 0 C1.67255859 -0.02900391 1.67255859 -0.02900391 3.37890625 -0.05859375 C12.4646831 -0.00444728 12.4646831 -0.00444728 16.27734375 2.9375 C18.5 5.625 18.5 5.625 18.5625 9.25 C17.15443207 13.72268638 17.15443207 13.72268638 14.5 15.625 C10.38078063 16.21350879 6.26125547 16.14004928 2.10327148 16.12597656 C0.0719612 16.12500453 -1.9555639 16.1666138 -3.98632812 16.2109375 C-5.26830078 16.21351563 -6.55027344 16.21609375 -7.87109375 16.21875 C-9.04599365 16.22583984 -10.22089355 16.23292969 -11.43139648 16.24023438 C-14.5 15.625 -14.5 15.625 -16.87524414 13.24414062 C-18.5 10.625 -18.5 10.625 -19.125 8.125 C-18.36714964 5.09359854 -17.0171418 3.62584602 -14.59521484 1.69433594 C-10.08177155 -0.60919257 -4.9498709 -0.08583591 0 0 Z " fill="#070808" transform="translate(304.5,224.375)"/>
<path d="M0 0 C11.88 0 23.76 0 36 0 C32.625 13.5 32.625 13.5 29.8125 18.75 C29.28269531 19.75546875 28.75289063 20.7609375 28.20703125 21.796875 C27.80871094 22.52390625 27.41039062 23.2509375 27 24 C22.61779827 24 21.99957188 23.45959307 19.0401001 20.51893616 C18.55764832 20.01897629 18.07519653 19.51901642 17.578125 19.00390625 C17.07327576 18.49576889 16.56842651 17.98763153 16.04827881 17.46409607 C14.98469916 16.3901031 13.92589547 15.31136231 12.87158203 14.22827148 C11.25096652 12.56349286 9.61727652 10.91251861 7.98046875 9.26367188 C6.94973855 8.21952165 5.91976379 7.17462504 4.890625 6.12890625 C4.40007629 5.63097061 3.90952759 5.13303497 3.40411377 4.62001038 C0 1.11827402 0 1.11827402 0 0 Z " fill="#0DCF8E" transform="translate(275,118)"/>
<path d="M0 0 C1.04091797 0.00580078 2.08183594 0.01160156 3.15429688 0.01757812 C11.91984548 0.15850334 11.91984548 0.15850334 15.4375 2.4375 C17.4375 5.4375 17.4375 5.4375 17.3125 8.9375 C16.4375 12.4375 16.4375 12.4375 14.72436523 14.12695312 C10.37042338 16.62209136 5.39888045 15.94910185 0.5 15.9375 C-0.58474609 15.96585937 -1.66949219 15.99421875 -2.78710938 16.0234375 C-10.74288827 16.04299688 -10.74288827 16.04299688 -14.77734375 13.0625 C-16.5625 10.4375 -16.5625 10.4375 -17.1875 7.9375 C-14.97361556 -0.91803774 -7.47031163 -0.23678427 0 0 Z " fill="#070602" transform="translate(245.5625,460.5625)"/>
<path d="M0 0 C1.08474609 -0.02384766 2.16949219 -0.04769531 3.28710938 -0.07226562 C11.18940017 -0.05769471 11.18940017 -0.05769471 15.3125 2.87109375 C17.0625 5.5625 17.0625 5.5625 17.125 9.1875 C15.94115379 12.94795266 15.37848733 13.64606693 12.0625 15.5625 C8.08515092 16.18208892 4.08296396 16.02607612 0.0625 16 C-1.5771875 16.0299707 -1.5771875 16.0299707 -3.25 16.06054688 C-4.301875 16.05990234 -5.35375 16.05925781 -6.4375 16.05859375 C-7.3965625 16.06044678 -8.355625 16.0622998 -9.34375 16.06420898 C-12.6924956 15.41646122 -13.87578381 14.23539334 -15.9375 11.5625 C-16.4375 8.0625 -16.4375 8.0625 -15.9375 4.5625 C-11.60079733 -1.04118906 -6.56806303 -0.06610839 0 0 Z " fill="#050402" transform="translate(437.9375,460.4375)"/>
<path d="M0 0 C1.55557617 -0.0299707 1.55557617 -0.0299707 3.14257812 -0.06054688 C7.71929841 -0.05760743 10.71700978 -0.04223281 14.75 2.24609375 C16.5625 4.4375 16.5625 4.4375 17.125 7.9375 C16.47013097 12.01224064 15.75533989 12.93982111 12.5625 15.4375 C8.43487642 16.25739614 4.26249412 16.04033893 0.0625 16 C-1.07832031 16.02384766 -2.21914063 16.04769531 -3.39453125 16.07226562 C-11.69039024 16.05764308 -11.69039024 16.05764308 -15.21875 13.12890625 C-16.8929936 9.4316183 -16.58059096 7.29543199 -15.4375 3.4375 C-10.97291372 -0.89638481 -5.86376153 -0.03993893 0 0 Z " fill="#050402" transform="translate(53.4375,460.5625)"/>
<path d="M0 0 C1.54880859 -0.03577148 1.54880859 -0.03577148 3.12890625 -0.07226562 C8.02184125 -0.06279543 10.66310849 -0.03774622 14.71875 2.87109375 C16.5 5.5625 16.5 5.5625 16.5 9.1875 C15.19965288 13.57617153 15.19965288 13.57617153 12.5 15.5625 C8.38481621 16.20897643 4.22270234 16.02566586 0.0625 16 C-1.08283203 16.01998047 -2.22816406 16.03996094 -3.40820312 16.06054688 C-4.50970703 16.05990234 -5.61121094 16.05925781 -6.74609375 16.05859375 C-8.25707642 16.06137329 -8.25707642 16.06137329 -9.79858398 16.06420898 C-13.22611647 15.42764511 -14.40162423 14.30234341 -16.5 11.5625 C-17.0625 8.0625 -17.0625 8.0625 -16.5 4.5625 C-12.06184453 -0.77283098 -6.39933757 -0.06790808 0 0 Z " fill="#060502" transform="translate(438.5,228.4375)"/>
<path d="M0 0 C1.55557617 -0.0299707 1.55557617 -0.0299707 3.14257812 -0.06054688 C7.71929841 -0.05760743 10.71700978 -0.04223281 14.75 2.24609375 C16.5625 4.4375 16.5625 4.4375 17.125 7.9375 C16.47013097 12.01224064 15.75533989 12.93982111 12.5625 15.4375 C8.43487642 16.25739614 4.26249412 16.04033893 0.0625 16 C-1.07832031 16.02384766 -2.21914063 16.04769531 -3.39453125 16.07226562 C-11.69039024 16.05764308 -11.69039024 16.05764308 -15.21875 13.12890625 C-16.8929936 9.4316183 -16.58059096 7.29543199 -15.4375 3.4375 C-10.97291372 -0.89638481 -5.86376153 -0.03993893 0 0 Z " fill="#060502" transform="translate(53.4375,228.5625)"/>
<path d="M0 0 C7.26 0 14.52 0 22 0 C20.875 11.25 20.875 11.25 18 17 C14.97328771 15.64526876 12.87863194 14.1260408 10.546875 11.77734375 C9.928125 11.15666016 9.309375 10.53597656 8.671875 9.89648438 C8.03765625 9.25001953 7.4034375 8.60355469 6.75 7.9375 C6.1003125 7.28716797 5.450625 6.63683594 4.78125 5.96679688 C0 1.14034598 0 1.14034598 0 0 Z " fill="#05E099" transform="translate(275,118)"/>
<path d="M0 0 C1.65 1.32 3.3 2.64 5 4 C3.79306596 7.62080211 2.42262914 8.12535039 -0.86914062 9.80078125 C-1.83110352 10.27064453 -1.83110352 10.27064453 -2.8125 10.75 C-3.44220703 11.07871094 -4.07191406 11.40742188 -4.72070312 11.74609375 C-9.39880415 14.07287222 -9.39880415 14.07287222 -12.44921875 13.703125 C-13.21685547 13.35507813 -13.21685547 13.35507813 -14 13 C-13.24074219 12.39671875 -12.48148437 11.7934375 -11.69921875 11.171875 C-10.70535156 10.37265625 -9.71148437 9.5734375 -8.6875 8.75 C-7.70136719 7.96109375 -6.71523438 7.1721875 -5.69921875 6.359375 C-3.3981453 4.34801702 -1.69394604 2.5206842 0 0 Z " fill="#F5616B" transform="translate(284,149)"/>
</svg>
