<?xml version="1.0" encoding="UTF-8"?>
<svg version="1.1" xmlns="http://www.w3.org/2000/svg" width="512" height="512">
<path d="M0 0 C0.6735476 -0.00235223 1.34709519 -0.00470446 2.04105332 -0.00712797 C4.30233104 -0.01379502 6.56355098 -0.01336044 8.82483768 -0.01294994 C10.4608467 -0.01625001 12.09685489 -0.01997588 13.73286206 -0.02409142 C18.23236433 -0.0341035 22.73185325 -0.03782695 27.23136508 -0.04048073 C32.08299346 -0.04438618 36.9346113 -0.05396441 41.78623295 -0.0626936 C53.50548898 -0.0824521 65.22474587 -0.09252383 76.9440144 -0.10142139 C82.46462329 -0.10580564 87.98523122 -0.11117213 93.50583935 -0.11641026 C111.8611271 -0.13342258 130.21641425 -0.14791606 148.57170868 -0.155159 C153.33455691 -0.15706885 158.09740513 -0.15898919 162.86025333 -0.16094494 C164.63590057 -0.16167055 164.63590057 -0.16167055 166.44741947 -0.16241082 C185.61739106 -0.17070853 204.78730019 -0.19604108 223.95724451 -0.22852562 C243.6445477 -0.26161445 263.33181917 -0.27960944 283.01915032 -0.28280324 C294.07040025 -0.28496673 305.12155914 -0.29369186 316.17278194 -0.31926441 C325.58597738 -0.34099638 334.99905965 -0.34900956 344.41227733 -0.33929763 C349.21199153 -0.33476008 354.01147234 -0.33660744 358.81115437 -0.35605907 C363.21274268 -0.37374265 367.61392827 -0.37265114 372.01552118 -0.35716178 C373.60040664 -0.35479356 375.18532037 -0.35906812 376.77016275 -0.37099043 C397.36330727 -0.51620077 414.72922699 5.97889698 429.61830997 20.48187733 C440.58349197 32.03284533 448.31839057 47.84054353 448.3423748 63.92606735 C448.34472703 64.59961495 448.34707926 65.27316255 448.34950277 65.96712068 C448.35616982 68.22839839 448.35573524 70.48961834 448.35532475 72.75090504 C448.35862481 74.38691405 448.36235068 76.02292225 448.36646622 77.65892941 C448.37647831 82.15843168 448.38020175 86.65792061 448.38285553 91.15743244 C448.38676098 96.00906082 448.39633922 100.86067866 448.4050684 105.7123003 C448.4248269 117.43155634 448.43489863 129.15081323 448.44379619 140.87008175 C448.44818044 146.39069064 448.45354693 151.91129857 448.45878506 157.4319067 C448.47579738 175.78719445 448.49029086 194.14248161 448.4975338 212.49777603 C448.49944365 217.26062426 448.50136399 222.02347248 448.50331974 226.78632069 C448.50380348 227.97008551 448.50428722 229.15385034 448.50478562 230.37348682 C448.51308333 249.54345841 448.53841588 268.71336754 448.57090042 287.88331186 C448.60398926 307.57061505 448.62198425 327.25788653 448.62517804 346.94521767 C448.62734153 357.9964676 448.63606666 369.04762649 448.66163921 380.0988493 C448.68337118 389.51204474 448.69138436 398.92512701 448.68167243 408.33834469 C448.67713488 413.13805888 448.67898224 417.9375397 448.69843388 422.73722172 C448.71611745 427.13881003 448.71502594 431.53999562 448.69953658 435.94158853 C448.69716836 437.52647399 448.70144292 439.11138772 448.71336523 440.69623011 C448.84845552 459.8541901 443.40320582 476.83566818 430.20815372 491.13422108 C419.2402768 502.22795888 404.74045338 511.47360551 388.68759537 512.25726891 C387.79253438 512.25634711 386.89747339 512.25542532 385.97528934 512.25447559 C384.94402518 512.25585309 383.91276102 512.25723059 382.85024643 512.25864983 C381.72529675 512.25505172 380.60034708 512.25145361 379.44130802 512.24774647 C378.2314187 512.247867 377.02152937 512.24798754 375.77497673 512.24811172 C371.86075658 512.24736567 367.94658411 512.23975136 364.03237247 512.23187733 C361.61493293 512.23040696 359.19749307 512.22938683 356.78005314 512.22882557 C347.81858181 512.2235837 338.8571173 512.2096225 329.89565372 512.19672108 C309.86877872 512.17609608 289.84190372 512.15547108 269.20815372 512.13422108 C269.20815372 451.74422108 269.20815372 391.35422108 269.20815372 329.13422108 C290.32815372 328.80422108 311.44815372 328.47422108 333.20815372 328.13422108 C340.07654664 325.98458183 340.07654664 325.98458183 342.04531193 322.16034412 C343.75466145 317.17383871 344.23431565 311.92981212 344.81362247 306.71625233 C344.9425539 305.62261875 345.07148533 304.52898518 345.20432377 303.40221119 C345.4740144 301.09399452 345.73845092 298.78515862 345.99794865 296.47577381 C346.39256081 292.9741662 346.80583196 289.47514266 347.2218256 285.97601795 C347.48270924 283.72289191 347.74250956 281.46964013 348.00112247 279.21625233 C348.12295399 278.18458439 348.2447855 277.15291645 348.37030888 276.08998585 C350.26233737 263.63760082 350.26233737 263.63760082 347.39565372 251.94672108 C343.52072513 248.73606595 340.03395192 248.98754395 335.16640568 248.92889881 C334.45395695 248.91899921 333.74150822 248.90909962 333.00747013 248.89890003 C330.65382549 248.86732607 328.30016067 248.84254389 325.94643497 248.81781483 C324.31403931 248.79724175 322.68164894 248.77624518 321.04926395 248.7548418 C316.75359726 248.69965764 312.45788278 248.65023225 308.16213322 248.60199451 C303.7783416 248.55175281 299.39461935 248.49608067 295.0108881 248.4408617 C286.41003529 248.33332483 277.80912445 248.23186994 269.20815372 248.13422108 C269.1147953 240.40542437 269.04405933 232.67676383 269.00090504 224.94754219 C268.98017574 221.35713837 268.9521333 217.76712493 268.90639591 214.17694569 C268.86240563 210.7015016 268.83890696 207.22642901 268.82864475 203.75072765 C268.81783589 201.80285718 268.78669845 199.85513274 268.75496769 197.90749073 C268.75245824 187.77177878 269.86800419 176.12912199 277.39955997 168.56000233 C290.58236773 158.16750809 308.42702286 159.79269021 324.30971622 159.67792225 C326.82827751 159.65628431 329.34609918 159.61691798 331.86440372 159.57562733 C333.01132694 159.57545361 333.01132694 159.57545361 334.18142033 159.57527637 C338.67174726 159.49190887 341.7378959 159.07886534 345.20815372 156.13422108 C346.94163741 152.59048641 347.46299746 149.72016374 347.48281193 145.79657459 C347.49234394 144.75521854 347.50187595 143.7138625 347.51169682 142.6409502 C347.51078541 141.52626865 347.509874 140.4115871 347.50893497 139.26312733 C347.5132201 138.10804173 347.51750523 136.95295612 347.5219202 135.76286793 C347.52765709 133.32277551 347.5281685 130.88266599 347.52382755 128.44257069 C347.52066823 124.71383909 347.54413374 120.98590147 347.56948185 117.25726795 C347.57175499 114.88422208 347.57245827 112.51117407 347.57143497 110.13812733 C347.5852496 108.46914135 347.5852496 108.46914135 347.5993433 106.76643848 C347.60987821 98.98498461 347.60987821 98.98498461 344.20815372 92.13422108 C340.50799419 90.26992105 337.45636407 89.8782327 333.34243107 89.85956287 C332.182869 89.85003086 331.02330692 89.84049885 329.82860661 89.83067799 C327.95527149 89.8320451 327.95527149 89.8320451 326.04409122 89.83343983 C324.74226902 89.8291547 323.44044682 89.82486958 322.09917545 89.8204546 C319.33695766 89.81299707 316.57486756 89.81327509 313.81264591 89.81854725 C311.01788411 89.82313873 308.22356141 89.81641752 305.42885685 89.79803944 C274.97089615 89.59940295 246.53588902 91.56663853 222.20815372 112.13422108 C221.23491154 112.90894764 220.26166935 113.6836742 219.25893497 114.48187733 C200.96419708 129.78449862 193.47255582 155.30882021 191.20815372 178.13422108 C190.90740559 183.69464643 190.83743657 189.24646815 190.79409122 194.81390858 C190.77532452 196.36332637 190.75574731 197.91273453 190.73540592 199.46213245 C190.68465852 203.48965169 190.64473063 207.51720387 190.60726261 211.54486561 C190.56685744 215.67499008 190.51593415 219.80498444 190.46596622 223.93500233 C190.3698891 232.0013188 190.28527224 240.06770114 190.20815372 248.13422108 C189.59507359 248.14230793 188.98199345 248.15039478 188.35033512 248.15872669 C181.95849517 248.24490997 175.56696043 248.34441961 169.17543888 248.45160389 C166.79137652 248.48984221 164.40725747 248.52470401 162.02309513 248.55609608 C158.59238804 248.60185791 155.1620694 248.65983496 151.73159122 248.72015858 C150.13750935 248.73748539 150.13750935 248.73748539 148.51122379 248.75516224 C141.06739845 248.7168078 141.06739845 248.7168078 134.20815372 251.13422108 C131.40858393 257.06390381 131.93515258 263.58078525 131.97768497 270.02484608 C131.9781432 271.16524342 131.97860142 272.30564075 131.97907352 273.48059559 C131.98208676 275.88777173 131.98994517 278.29494607 132.00234318 280.70209217 C132.02052296 284.35792545 132.0228531 288.01350366 132.02260685 291.66937733 C132.02752594 294.01703574 132.03335596 296.36469245 132.04018497 298.71234608 C132.04185421 300.33321125 132.04185421 300.33321125 132.04355717 301.98682117 C131.47638347 314.27696414 131.47638347 314.27696414 135.52065372 325.25922108 C150.50836824 335.71576609 171.93724706 328.75357719 190.20815372 329.13422108 C190.20815372 389.52422108 190.20815372 449.91422108 190.20815372 512.13422108 C141.36983248 512.29543321 141.36983248 512.29543321 120.86440372 512.32953358 C106.72013881 512.35324462 92.57596939 512.38108088 78.43178654 512.43597889 C68.1294852 512.47594617 57.82726153 512.50167747 47.52488482 512.51057506 C42.0738158 512.51577306 36.6229689 512.52792233 31.17197132 512.5571413 C26.03214741 512.58446682 20.89263528 512.59263167 15.75274563 512.5866518 C13.87514198 512.58774442 11.99752696 512.59559549 10.11998653 512.61104298 C-11.5136497 512.78017284 -29.35945045 507.21828897 -45.20200253 491.78656483 C-56.16718452 480.23559682 -63.90208312 464.42789862 -63.92606735 448.3423748 C-63.92841958 447.6688272 -63.93077181 446.99527961 -63.93319532 446.30132148 C-63.93986237 444.04004376 -63.93942779 441.77882382 -63.9390173 439.51753712 C-63.94231736 437.88152811 -63.94604323 436.24551991 -63.95015877 434.60951275 C-63.96017086 430.11001048 -63.9638943 425.61052155 -63.96654809 421.11100972 C-63.97045353 416.25938134 -63.98003177 411.4077635 -63.98876095 406.55614185 C-64.00851945 394.83688582 -64.01859119 383.11762893 -64.02748874 371.3983604 C-64.03187299 365.87775151 -64.03723948 360.35714358 -64.04247761 354.83653545 C-64.05948993 336.4812477 -64.07398341 318.12596055 -64.08122635 299.77066612 C-64.08313621 295.0078179 -64.08505654 290.24496968 -64.08701229 285.48212147 C-64.08749603 284.29835664 -64.08797977 283.11459182 -64.08847817 281.89495533 C-64.09677588 262.72498375 -64.12210843 243.55507462 -64.15459297 224.38513029 C-64.18768181 204.6978271 -64.2056768 185.01055563 -64.20887059 165.32322448 C-64.21103408 154.27197455 -64.21975921 143.22081567 -64.24533176 132.16959286 C-64.26706373 122.75639742 -64.27507691 113.34331515 -64.26536498 103.93009747 C-64.26082743 99.13038328 -64.26267479 94.33090246 -64.28212643 89.53122044 C-64.29981 85.12963212 -64.29871849 80.72844653 -64.28322913 76.32685363 C-64.28086091 74.74196817 -64.28513547 73.15705443 -64.29705779 71.57221205 C-64.43214808 52.41425205 -58.98689837 35.43277397 -45.79184628 21.13422108 C-33.45781795 8.65865472 -17.88414067 0.02666605 0 0 Z " fill="#475993" transform="translate(63.79184627532959,-0.13422107696533203)"/>
</svg>
