<?xml version="1.0" encoding="UTF-8"?>
<svg version="1.1" xmlns="http://www.w3.org/2000/svg" width="512" height="512">
<path d="M0 0 C1.04739401 -0.00297112 2.09478801 -0.00594224 3.17392123 -0.0090034 C6.68338927 -0.01767439 10.19282313 -0.01919732 13.70230103 -0.02069092 C16.21906609 -0.02532036 18.73583045 -0.03034519 21.25259399 -0.03573608 C28.09193812 -0.04885311 34.93127103 -0.05534125 41.77062559 -0.05974674 C46.047307 -0.06251419 50.32398616 -0.06675257 54.60066605 -0.07125092 C66.45788366 -0.08344299 78.31509948 -0.09374091 90.17232323 -0.09712601 C91.3099352 -0.09745536 91.3099352 -0.09745536 92.47052924 -0.09779136 C93.61077018 -0.09811878 93.61077018 -0.09811878 94.7740463 -0.09845281 C96.31425881 -0.09889626 97.85447133 -0.09934283 99.39468384 -0.09979248 C100.15867247 -0.10001391 100.92266111 -0.10023534 101.70980091 -0.10046348 C114.06910287 -0.10440537 126.42834564 -0.12184103 138.78762476 -0.145152 C151.49827379 -0.1689306 164.20889323 -0.18133089 176.91956484 -0.18249393 C184.04728394 -0.18340729 191.17492601 -0.18907321 198.30262375 -0.20731354 C205.01510658 -0.22443139 211.72741913 -0.22591875 218.43992615 -0.21717453 C220.89397701 -0.21640747 223.34803591 -0.22070276 225.8020668 -0.23063278 C267.3748027 -0.38888843 304.08835476 13.44138507 334.13198853 42.63751221 C355.4753323 64.10127976 367.93342713 91.69704176 373.59146118 121.14044189 C373.76621349 121.98158854 373.94096581 122.82273518 374.12101364 123.68937111 C374.75263319 128.3227544 374.73605218 132.87797884 374.73190308 137.54898071 C374.73635976 139.12007172 374.73635976 139.12007172 374.74090648 140.72290194 C374.74957746 144.23236998 374.7511004 147.74180384 374.75259399 151.25128174 C374.75722343 153.7680468 374.76224826 156.28481116 374.76763916 158.80157471 C374.78075619 165.64091884 374.78724432 172.48025174 374.79164982 179.3196063 C374.79441727 183.59628771 374.79865565 187.87296687 374.80315399 192.14964676 C374.81534607 204.00686437 374.82564399 215.86408019 374.82902908 227.72130394 C374.82924865 228.47971192 374.82946822 229.23811991 374.82969444 230.01950995 C374.82991271 230.77967058 374.83013099 231.53983121 374.83035588 232.32302701 C374.83079934 233.86323953 374.8312459 235.40345204 374.83169556 236.94366455 C374.83191699 237.70765319 374.83213842 238.47164182 374.83236656 239.25878163 C374.83630845 251.61808358 374.85374411 263.97732635 374.87705508 276.33660547 C374.90083368 289.04725451 374.91323396 301.75787394 374.914397 314.46854556 C374.91531036 321.59626465 374.92097629 328.72390672 374.93921661 335.85160446 C374.95633446 342.5640873 374.95782183 349.27639984 374.94907761 355.98890686 C374.94831055 358.44295773 374.95260584 360.89701662 374.96253586 363.35104752 C375.1207915 404.92378341 361.290518 441.63733548 332.09439087 471.68096924 C310.63062331 493.02431301 283.03486131 505.48240784 253.59146118 511.14044189 C252.75031454 511.31519421 251.9091679 511.48994652 251.04253197 511.66999435 C246.40914868 512.3016139 241.85392424 512.28503289 237.18292236 512.28088379 C236.13552836 512.28385491 235.08813435 512.28682603 234.00900114 512.28988719 C230.4995331 512.29855818 226.99009924 512.30008111 223.48062134 512.30157471 C220.96385628 512.30620414 218.44709192 512.31122897 215.93032837 512.31661987 C209.09098424 512.3297369 202.25165134 512.33622504 195.41229677 512.34063053 C191.13561537 512.34339798 186.8589362 512.34763636 182.58225632 512.3521347 C170.7250387 512.36432678 158.86782288 512.3746247 147.01059914 512.3780098 C145.87298716 512.37833915 145.87298716 512.37833915 144.71239313 512.37867515 C143.57215218 512.37900256 143.57215218 512.37900256 142.40887606 512.3793366 C140.86866355 512.37978005 139.32845104 512.38022661 137.78823853 512.38067627 C137.02424989 512.3808977 136.26026126 512.38111913 135.47312145 512.38134727 C123.1138195 512.38528916 110.75457673 512.40272482 98.3952976 512.42603579 C85.68464857 512.44981439 72.97402914 512.46221468 60.26335752 512.46337771 C53.13563843 512.46429108 46.00799636 512.469957 38.88029861 512.48819733 C32.16781578 512.50531518 25.45550323 512.50680254 18.74299622 512.49805832 C16.28894535 512.49729126 13.83488646 512.50158655 11.38085556 512.51151657 C-30.19188034 512.66977221 -66.9054324 498.83949872 -96.94906616 469.64337158 C-118.29240994 448.17960403 -130.75050477 420.58384203 -136.40853882 391.14044189 C-136.67066729 389.87872193 -136.67066729 389.87872193 -136.93809128 388.59151268 C-137.56971083 383.95812939 -137.55312982 379.40290495 -137.54898071 374.73190308 C-137.55195184 373.68450907 -137.55492296 372.63711507 -137.55798411 371.55798185 C-137.5666551 368.04851381 -137.56817804 364.53907995 -137.56967163 361.02960205 C-137.57430107 358.51283699 -137.5793259 355.99607263 -137.5847168 353.47930908 C-137.59783383 346.63996495 -137.60432196 339.80063205 -137.60872746 332.96127748 C-137.6114949 328.68459608 -137.61573328 324.40791692 -137.62023163 320.13123703 C-137.6324237 308.27401942 -137.64272162 296.41680359 -137.64610672 284.55957985 C-137.64632629 283.80117187 -137.64654585 283.04276388 -137.64677207 282.26137384 C-137.64699035 281.50121321 -137.64720863 280.74105258 -137.64743352 279.95785677 C-137.64787697 278.41764426 -137.64832354 276.87743175 -137.64877319 275.33721924 C-137.64899462 274.5732306 -137.64921605 273.80924197 -137.64944419 273.02210216 C-137.65338608 260.66280021 -137.67082174 248.30355744 -137.69413272 235.94427831 C-137.71791132 223.23362928 -137.7303116 210.52300985 -137.73147464 197.81233823 C-137.732388 190.68461914 -137.73805392 183.55697707 -137.75629425 176.42927933 C-137.7734121 169.71679649 -137.77489946 163.00448395 -137.76615524 156.29197693 C-137.76538819 153.83792606 -137.76968347 151.38386717 -137.77961349 148.92983627 C-137.93786914 107.35710038 -124.10759564 70.64354831 -94.91146851 40.59991455 C-73.44770095 19.25657077 -45.85193895 6.79847595 -16.40853882 1.14044189 C-15.56739218 0.96568958 -14.72624554 0.79093727 -13.8596096 0.61088943 C-9.22622631 -0.02073011 -4.67100187 -0.0041491 0 0 Z " fill="#E55843" transform="translate(137.40853881835938,-0.14044189453125)"/>
<path d="M0 0 C1.04739401 -0.00297112 2.09478801 -0.00594224 3.17392123 -0.0090034 C6.68338927 -0.01767439 10.19282313 -0.01919732 13.70230103 -0.02069092 C16.21906609 -0.02532036 18.73583045 -0.03034519 21.25259399 -0.03573608 C28.09193812 -0.04885311 34.93127103 -0.05534125 41.77062559 -0.05974674 C46.047307 -0.06251419 50.32398616 -0.06675257 54.60066605 -0.07125092 C66.45788366 -0.08344299 78.31509948 -0.09374091 90.17232323 -0.09712601 C91.3099352 -0.09745536 91.3099352 -0.09745536 92.47052924 -0.09779136 C93.61077018 -0.09811878 93.61077018 -0.09811878 94.7740463 -0.09845281 C96.31425881 -0.09889626 97.85447133 -0.09934283 99.39468384 -0.09979248 C100.15867247 -0.10001391 100.92266111 -0.10023534 101.70980091 -0.10046348 C114.06910287 -0.10440537 126.42834564 -0.12184103 138.78762476 -0.145152 C151.49827379 -0.1689306 164.20889323 -0.18133089 176.91956484 -0.18249393 C184.04728394 -0.18340729 191.17492601 -0.18907321 198.30262375 -0.20731354 C205.01510658 -0.22443139 211.72741913 -0.22591875 218.43992615 -0.21717453 C220.89397701 -0.21640747 223.34803591 -0.22070276 225.8020668 -0.23063278 C267.3748027 -0.38888843 304.08835476 13.44138507 334.13198853 42.63751221 C355.4753323 64.10127976 367.93342713 91.69704176 373.59146118 121.14044189 C373.76621349 121.98158854 373.94096581 122.82273518 374.12101364 123.68937111 C374.75263319 128.3227544 374.73605218 132.87797884 374.73190308 137.54898071 C374.73635976 139.12007172 374.73635976 139.12007172 374.74090648 140.72290194 C374.74957746 144.23236998 374.7511004 147.74180384 374.75259399 151.25128174 C374.75722343 153.7680468 374.76224826 156.28481116 374.76763916 158.80157471 C374.78075619 165.64091884 374.78724432 172.48025174 374.79164982 179.3196063 C374.79441727 183.59628771 374.79865565 187.87296687 374.80315399 192.14964676 C374.81534607 204.00686437 374.82564399 215.86408019 374.82902908 227.72130394 C374.82924865 228.47971192 374.82946822 229.23811991 374.82969444 230.01950995 C374.82991271 230.77967058 374.83013099 231.53983121 374.83035588 232.32302701 C374.83079934 233.86323953 374.8312459 235.40345204 374.83169556 236.94366455 C374.83191699 237.70765319 374.83213842 238.47164182 374.83236656 239.25878163 C374.83630845 251.61808358 374.85374411 263.97732635 374.87705508 276.33660547 C374.90083368 289.04725451 374.91323396 301.75787394 374.914397 314.46854556 C374.91531036 321.59626465 374.92097629 328.72390672 374.93921661 335.85160446 C374.95633446 342.5640873 374.95782183 349.27639984 374.94907761 355.98890686 C374.94831055 358.44295773 374.95260584 360.89701662 374.96253586 363.35104752 C375.1207915 404.92378341 361.290518 441.63733548 332.09439087 471.68096924 C310.63062331 493.02431301 283.03486131 505.48240784 253.59146118 511.14044189 C252.75031454 511.31519421 251.9091679 511.48994652 251.04253197 511.66999435 C246.40914868 512.3016139 241.85392424 512.28503289 237.18292236 512.28088379 C236.13552836 512.28385491 235.08813435 512.28682603 234.00900114 512.28988719 C230.4995331 512.29855818 226.99009924 512.30008111 223.48062134 512.30157471 C220.96385628 512.30620414 218.44709192 512.31122897 215.93032837 512.31661987 C209.09098424 512.3297369 202.25165134 512.33622504 195.41229677 512.34063053 C191.13561537 512.34339798 186.8589362 512.34763636 182.58225632 512.3521347 C170.7250387 512.36432678 158.86782288 512.3746247 147.01059914 512.3780098 C145.87298716 512.37833915 145.87298716 512.37833915 144.71239313 512.37867515 C143.57215218 512.37900256 143.57215218 512.37900256 142.40887606 512.3793366 C140.86866355 512.37978005 139.32845104 512.38022661 137.78823853 512.38067627 C137.02424989 512.3808977 136.26026126 512.38111913 135.47312145 512.38134727 C123.1138195 512.38528916 110.75457673 512.40272482 98.3952976 512.42603579 C85.68464857 512.44981439 72.97402914 512.46221468 60.26335752 512.46337771 C53.13563843 512.46429108 46.00799636 512.469957 38.88029861 512.48819733 C32.16781578 512.50531518 25.45550323 512.50680254 18.74299622 512.49805832 C16.28894535 512.49729126 13.83488646 512.50158655 11.38085556 512.51151657 C-30.19188034 512.66977221 -66.9054324 498.83949872 -96.94906616 469.64337158 C-118.29240994 448.17960403 -130.75050477 420.58384203 -136.40853882 391.14044189 C-136.67066729 389.87872193 -136.67066729 389.87872193 -136.93809128 388.59151268 C-137.56971083 383.95812939 -137.55312982 379.40290495 -137.54898071 374.73190308 C-137.55195184 373.68450907 -137.55492296 372.63711507 -137.55798411 371.55798185 C-137.5666551 368.04851381 -137.56817804 364.53907995 -137.56967163 361.02960205 C-137.57430107 358.51283699 -137.5793259 355.99607263 -137.5847168 353.47930908 C-137.59783383 346.63996495 -137.60432196 339.80063205 -137.60872746 332.96127748 C-137.6114949 328.68459608 -137.61573328 324.40791692 -137.62023163 320.13123703 C-137.6324237 308.27401942 -137.64272162 296.41680359 -137.64610672 284.55957985 C-137.64632629 283.80117187 -137.64654585 283.04276388 -137.64677207 282.26137384 C-137.64699035 281.50121321 -137.64720863 280.74105258 -137.64743352 279.95785677 C-137.64787697 278.41764426 -137.64832354 276.87743175 -137.64877319 275.33721924 C-137.64899462 274.5732306 -137.64921605 273.80924197 -137.64944419 273.02210216 C-137.65338608 260.66280021 -137.67082174 248.30355744 -137.69413272 235.94427831 C-137.71791132 223.23362928 -137.7303116 210.52300985 -137.73147464 197.81233823 C-137.732388 190.68461914 -137.73805392 183.55697707 -137.75629425 176.42927933 C-137.7734121 169.71679649 -137.77489946 163.00448395 -137.76615524 156.29197693 C-137.76538819 153.83792606 -137.76968347 151.38386717 -137.77961349 148.92983627 C-137.93786914 107.35710038 -124.10759564 70.64354831 -94.91146851 40.59991455 C-73.44770095 19.25657077 -45.85193895 6.79847595 -16.40853882 1.14044189 C-15.56739218 0.96568958 -14.72624554 0.79093727 -13.8596096 0.61088943 C-9.22622631 -0.02073011 -4.67100187 -0.0041491 0 0 Z M-8.89541626 33.02677917 C-9.64193884 33.10302381 -10.38846141 33.17926845 -11.15760589 33.25782353 C-37.57990941 36.32157553 -63.64343953 52.19954101 -80.34994507 72.64044189 C-90.38738275 85.52403393 -98.43424032 100.23702841 -102.40853882 116.14044189 C-102.65472206 117.07624084 -102.9009053 118.01203979 -103.15454865 118.97619629 C-105.96859033 131.05662288 -105.84630985 142.98373676 -105.82846069 155.33575439 C-105.83581267 157.75382374 -105.84440216 160.17188959 -105.85412598 162.58995056 C-105.87394709 168.44506927 -105.87972885 174.30007104 -105.87793809 180.15522081 C-105.87662284 184.92393739 -105.88047319 189.69262339 -105.88786316 194.46133423 C-105.91073422 209.50939995 -105.91628259 224.55737153 -105.90834886 239.60545123 C-105.90278273 251.41955917 -105.92356887 263.23344964 -105.95670933 275.04750681 C-105.99061516 287.23077501 -106.00559344 299.41393955 -106.0009923 311.59725571 C-105.99876388 318.41603254 -106.00374822 325.2346087 -106.02888489 332.05334473 C-106.05134893 338.47551366 -106.04911229 344.89723448 -106.02895737 351.31940651 C-106.02558134 353.65764536 -106.0304864 355.99591556 -106.04494095 358.33411217 C-106.16822086 379.78008219 -103.35360005 399.93241525 -93.40853882 419.14044189 C-92.96236206 420.03400391 -92.96236206 420.03400391 -92.50717163 420.94561768 C-79.42041372 446.91398972 -55.07452211 466.36950996 -27.60385132 475.45684814 C-17.05604392 478.5842615 -6.77084208 480.44478418 4.23268127 480.40786743 C5.24477317 480.41239854 6.25686506 480.41692966 7.29962641 480.42159808 C10.65989176 480.43416502 14.01999343 480.43262668 17.38027954 480.43096924 C19.80262457 480.43695946 22.2249677 480.44376614 24.64730835 480.45132446 C30.5273473 480.46711792 36.40734846 480.4734309 42.28740429 480.47454922 C47.07482865 480.47550341 51.8622399 480.47963213 56.64966011 480.48595047 C70.26240844 480.50354694 83.87512538 480.51279231 97.48788517 480.51128952 C98.22017316 480.51120961 98.95246116 480.5111297 99.7069397 480.51104736 C100.44013605 480.5109656 101.1733324 480.51088384 101.92874683 480.5107996 C113.79036676 480.50998805 125.65185931 480.52909672 137.51344245 480.5573241 C149.73159035 480.58616728 161.94967638 480.59985801 174.16785914 480.59813654 C181.01172525 480.59747638 187.85545797 480.60280265 194.69929314 480.62449265 C201.1451173 480.64479218 207.59073394 480.64391488 214.03657532 480.62945938 C216.38735938 480.62738527 218.73816152 480.63198753 221.08891487 480.6441803 C238.64802332 480.72927286 256.39728429 479.84484749 272.59146118 472.32794189 C273.36997437 471.98247314 274.14848755 471.63700439 274.95059204 471.28106689 C285.52650617 466.4934627 294.76833543 460.68279133 303.59146118 453.14044189 C304.39067993 452.49848877 305.18989868 451.85653564 306.01333618 451.19512939 C320.46476225 439.09090947 330.47190447 422.24656861 336.90396118 404.70294189 C337.13454224 404.08427246 337.36512329 403.46560303 337.60269165 402.82818604 C342.91188635 387.37846846 343.03006931 371.90548842 342.99551392 355.76812744 C343.0012268 353.3434213 343.00819459 350.91871784 343.01631165 348.49401855 C343.03231051 342.62767228 343.03436421 336.76144932 343.02909874 330.89508589 C343.02503347 326.1196857 343.02652833 321.34431696 343.031847 316.56891823 C343.03259542 315.88550685 343.03334384 315.20209548 343.03411495 314.49797467 C343.03564665 313.1089751 343.037185 311.71997554 343.03872991 310.33097599 C343.05241276 297.34689691 343.04704724 284.36287832 343.0355447 271.37880067 C343.02561847 259.54268368 343.03854993 247.70672316 343.06247889 235.87063029 C343.08695733 223.66927192 343.09645629 211.46798616 343.08982617 199.26660377 C343.08635305 192.4357074 343.0884384 185.60493116 343.10607719 178.77405357 C343.12164471 172.34618413 343.11748257 165.91861132 343.09877205 159.49075317 C343.09511307 157.14599981 343.09811495 154.80122398 343.10865784 152.45649147 C343.23480307 122.05623901 335.99041313 94.45352984 315.59146118 71.14044189 C315.00235962 70.40825439 314.41325806 69.67606689 313.80630493 68.92169189 C309.77037132 64.05457875 305.27531225 60.0593984 300.34146118 56.14044189 C299.73866333 55.65905762 299.13586548 55.17767334 298.51480103 54.68170166 C295.56991547 52.40551119 293.23249893 50.87456983 289.59146118 50.14044189 C289.59146118 49.48044189 289.59146118 48.82044189 289.59146118 48.14044189 C287.94146118 47.81044189 286.29146118 47.48044189 284.59146118 47.14044189 C284.59146118 46.48044189 284.59146118 45.82044189 284.59146118 45.14044189 C283.97400024 44.89809814 283.35653931 44.65575439 282.72036743 44.40606689 C281.87345337 44.07091064 281.02653931 43.73575439 280.15396118 43.39044189 C279.33025024 43.06559814 278.50653931 42.74075439 277.65786743 42.40606689 C275.98867866 41.71712783 274.32417185 41.01323008 272.69364476 40.23720843 C255.52830762 32.14770272 236.80432121 31.40781853 218.15884399 31.54107666 C215.81192262 31.53920677 213.46500215 31.53515766 211.11808777 31.52912903 C204.81861305 31.51925961 198.51959746 31.54014966 192.22018909 31.56760907 C186.26207364 31.58922054 180.30397178 31.58855805 174.34582636 31.5887103 C162.54171959 31.58989113 150.73778469 31.61467359 138.93374634 31.65338135 C127.53170714 31.69074555 116.12979268 31.71198042 104.72769165 31.71490479 C104.02461102 31.7150876 103.32153038 31.71527041 102.59714428 31.71545876 C101.89516543 31.71563773 101.19318659 31.7158167 100.46993566 31.71600109 C99.05588102 31.71636657 97.64182639 31.71673895 96.22777176 31.71711826 C95.18121542 31.71739653 95.18121542 31.71739653 94.11351652 31.71768043 C82.50969922 31.72148318 70.90590465 31.74230338 59.30210781 31.76312137 C55.37792119 31.76931526 51.45373875 31.77297323 47.52954865 31.77615547 C41.3404838 31.78210559 35.15152674 31.79855418 28.96250725 31.82275963 C26.70644656 31.83012692 24.45037237 31.83426679 22.1942997 31.83473969 C11.78916813 31.83903119 1.46301271 31.96511514 -8.89541626 33.02677917 Z " fill="#000000" transform="translate(137.40853881835938,-0.14044189453125)"/>
<path d="M0 0 C19.64069211 16.26494816 32.104013 37.84426975 35.9375 63.1875 C37.05999632 77.17136987 36.40579299 90.8536488 31.9375 104.1875 C31.70675781 104.88391602 31.47601563 105.58033203 31.23828125 106.29785156 C22.88424902 130.59747707 6.23301105 148.92942417 -16.2734375 160.89453125 C-40.93649827 172.9215794 -66.52358704 174.30371859 -92.5390625 166.08984375 C-117.83709906 157.18421035 -136.61487482 137.86069671 -148.16210938 114.16064453 C-159.17946998 90.01685157 -158.48303518 64.06769823 -149.8125 39.4375 C-140.48157051 16.53951352 -122.37740519 -2.69722051 -99.81665039 -12.79370117 C-96.27920156 -14.27869144 -92.69819406 -15.58947088 -89.0625 -16.8125 C-88.39557129 -17.03695801 -87.72864258 -17.26141602 -87.04150391 -17.49267578 C-56.99329599 -27.09601523 -24.49564915 -18.98131466 0 0 Z " fill="#EF4B3A" transform="translate(316.0625,180.8125)"/>
<path d="M0 0 C34.98133784 -0.70050238 67.32465256 12.42256577 92.62036133 36.36035156 C117.72779578 60.83843982 130.47887074 92.93176284 131.12109375 127.8125 C130.75799031 164.12284379 116.49065626 196.1881205 90.88427734 221.66455078 C66.32522685 245.21944165 33.65635757 256.64284243 -0.0703125 256.2734375 C-14.0958313 255.75245049 -26.88751366 254.03843495 -40.06640625 249.125 C-41.08734375 248.75503906 -42.10828125 248.38507813 -43.16015625 248.00390625 C-57.1604498 242.56562018 -69.51725136 234.62169577 -81.06640625 225.125 C-81.76378906 224.56941406 -82.46117187 224.01382813 -83.1796875 223.44140625 C-106.08637778 204.69956875 -119.89856216 174.89556554 -124.06640625 146.125 C-124.19789063 145.23167969 -124.329375 144.33835937 -124.46484375 143.41796875 C-124.78757422 140.64859244 -124.94690079 137.9111844 -125.06640625 135.125 C-125.10427246 134.42375 -125.14213867 133.7225 -125.18115234 133 C-126.1569515 112.97347212 -122.7652395 93.26650971 -114.06640625 75.125 C-113.78458496 74.52461914 -113.50276367 73.92423828 -113.21240234 73.30566406 C-98.51445567 42.38397615 -71.7279764 18.41115912 -39.56640625 6.8125 C-26.636634 2.37123236 -13.63309046 0.55574382 0 0 Z M-26.06640625 36.125 C-26.76282227 36.35574219 -27.45923828 36.58648437 -28.17675781 36.82421875 C-52.68331975 45.24939421 -71.42828537 62.42089433 -83.65234375 85.0625 C-90.02844193 98.35569863 -93.46581692 112.6022487 -93.37890625 127.3125 C-93.3732666 128.31990234 -93.36762695 129.32730469 -93.36181641 130.36523438 C-92.98432989 153.7320237 -83.57883432 175.71792423 -68.06640625 193.125 C-67.05320312 194.26195312 -67.05320312 194.26195312 -66.01953125 195.421875 C-50.26584234 212.09548735 -26.62531771 223.6426132 -3.5859375 224.42578125 C-1.68368939 224.44525256 0.21877919 224.4487392 2.12109375 224.4375 C3.12849609 224.43186035 4.13589844 224.4262207 5.17382812 224.42041016 C27.82384618 224.05450295 50.01525345 215.29779725 66.93359375 200.125 C67.82820312 199.32449219 68.7228125 198.52398437 69.64453125 197.69921875 C87.87424901 180.46524187 98.60252639 156.53694353 99.33129883 131.46118164 C99.47454641 120.12704631 98.35997853 109.92092056 94.93359375 99.125 C94.57136719 97.97902344 94.20914063 96.83304687 93.8359375 95.65234375 C84.94097609 70.35447045 65.60497506 51.57246412 41.91113281 40.02539062 C20.73785363 30.38501363 -3.97034365 28.72041147 -26.06640625 36.125 Z " fill="#F9F8F8" transform="translate(253.06640625,127.875)"/>
<path d="M0 0 C1.36125 0.8353125 1.36125 0.8353125 2.75 1.6875 C9.08354856 8.19698046 12.87610325 15.98326394 13.0625 25.03515625 C12.77377743 32.74946254 11.09567281 38.47635349 7 45 C6.443125 45.9075 5.88625 46.815 5.3125 47.75 C-2.02136896 54.88565628 -10.51568987 57.88241395 -20.5625 58.3125 C-28.69501627 58.0728938 -35.88912592 54.22982384 -42 49 C-49.400521 40.05310148 -51.38748368 31.04128596 -50.89453125 19.5390625 C-49.69464091 11.71860076 -44.62660135 4.88062323 -38.53125 0.0390625 C-26.02910598 -7.87124467 -12.65744281 -7.94659004 0 0 Z " fill="#F9F8F9" transform="translate(419,86)"/>
</svg>
