<?xml version="1.0" encoding="UTF-8"?>
<svg version="1.1" xmlns="http://www.w3.org/2000/svg" width="512" height="512">
<path d="M0 0 C1.27525921 -0.00623996 2.55051842 -0.01247993 3.86442184 -0.01890898 C7.38833782 -0.03555228 10.91181851 -0.02737909 14.4357357 -0.0149641 C18.24222077 -0.00589528 22.04863221 -0.01989239 25.85510254 -0.03088379 C33.30572243 -0.04865411 40.75618097 -0.04483569 48.20680714 -0.03323323 C54.26300694 -0.02419331 60.31916159 -0.02297732 66.37536621 -0.02732849 C67.23788522 -0.02794142 68.10040422 -0.02855436 68.98906016 -0.02918586 C70.74134605 -0.03046479 72.49363193 -0.03176164 74.2459178 -0.03307623 C90.67042528 -0.04447767 107.0948434 -0.03137517 123.51933622 -0.00987476 C137.60701108 0.00799583 151.69455409 0.0048916 165.78222656 -0.0135498 C182.14865413 -0.03496423 198.51500341 -0.04337907 214.88144302 -0.03110075 C216.62722014 -0.02982658 218.37299727 -0.02856909 220.11877441 -0.02732849 C220.97769122 -0.02671139 221.83660802 -0.02609429 222.72155261 -0.02545848 C228.76926222 -0.0220073 234.81692211 -0.02782894 240.86462402 -0.0372467 C248.23652586 -0.04847442 255.60825737 -0.04541045 262.98013973 -0.02412373 C266.74017649 -0.01362363 270.49992944 -0.0094735 274.25996399 -0.02272034 C278.3382691 -0.03687098 282.41585991 -0.01995541 286.49414062 0 C287.6793568 -0.00892289 288.86457298 -0.01784577 290.0857048 -0.02703905 C297.96095646 0.04778842 303.244921 1.19996337 309.45410156 6.33215332 C315.29041131 13.10568069 317.4178341 18.84233832 317.31347656 27.80480957 C317.29909546 29.41114258 317.29909546 29.41114258 317.28442383 31.04992676 C317.27209717 31.86106934 317.25977051 32.67221191 317.24707031 33.50793457 C317.84904739 33.49905212 318.45102448 33.49016968 319.07124329 33.48101807 C325.38244045 33.39196831 331.69345682 33.33196309 338.00512695 33.28820801 C340.3551357 33.26819282 342.70509527 33.24097213 345.05493164 33.20617676 C348.44852898 33.15721333 351.84146328 33.13486398 355.23535156 33.11730957 C356.27226639 33.09666443 357.30918121 33.07601929 358.3775177 33.05474854 C370.512627 33.05108298 379.75919949 37.198629 388.37597656 45.57824707 C395.29887125 52.89637148 399.36221556 60.74620577 399.38129139 70.90448856 C399.38574923 72.00642207 399.39020708 73.10835558 399.39480001 74.24368101 C399.39452346 76.05925848 399.39452346 76.05925848 399.39424133 77.91151428 C399.39791802 79.1975733 399.40159471 80.48363232 399.40538281 81.80866283 C399.41539451 85.38128757 399.41911827 88.95389551 399.42177212 92.52653229 C399.42567768 96.37879469 399.4352559 100.23104381 399.44398499 104.08329773 C399.46374305 113.3883985 399.47381511 122.69350034 399.48271278 131.99861684 C399.48709705 136.3819566 399.49246353 140.76529515 399.49770164 145.14863396 C399.51471382 159.72254593 399.52920736 174.29645716 399.53645039 188.87037754 C399.53836024 192.65198836 399.54028058 196.43359917 399.54223633 200.21520996 C399.54272007 201.15509681 399.54320381 202.09498366 399.54370221 203.06335192 C399.55200015 218.28437387 399.57733312 233.50531716 399.60981701 248.72630478 C399.64290493 264.35794764 399.66090074 279.98955057 399.66409463 295.62122864 C399.6662582 304.39595316 399.67498436 313.17056301 399.7005558 321.94525337 C399.72228654 329.41924916 399.73030159 336.89310243 399.72058902 344.36712623 C399.71605107 348.17815468 399.71790074 351.98888922 399.73735046 355.79987717 C399.75828972 359.93861352 399.74797519 364.07670103 399.7348175 368.21546936 C399.75127137 370.00762425 399.75127137 370.00762425 399.76805764 371.83598429 C399.66845082 384.83910055 395.47368751 393.86339252 386.62597656 403.22277832 C378.90401657 410.50030896 369.15297357 413.63657971 358.72343445 413.62818909 C357.40395309 413.62956375 356.08447174 413.63093842 354.7250061 413.63235474 C353.26971413 413.62881601 351.81442238 413.62518121 350.35913086 413.62145996 C348.8214671 413.62117778 347.28380321 413.62133642 345.74613953 413.62190247 C341.57713526 413.62218925 337.40815979 413.61631167 333.23916221 413.60932851 C328.88029358 413.60307524 324.5214243 413.60248961 320.16255188 413.6013031 C311.91079165 413.59819561 303.65904467 413.58999005 295.40729028 413.57995361 C286.01194983 413.56877442 276.61660874 413.56327747 267.22126329 413.55825818 C247.89652326 413.54780697 228.57180139 413.5294687 209.24707031 413.50793457 C209.24707031 430.00793457 209.24707031 446.50793457 209.24707031 463.50793457 C223.36736332 463.38954773 223.36736332 463.38954773 237.48730469 463.2376709 C239.27180439 463.22890011 241.05631015 463.22125758 242.84082031 463.21496582 C243.74993164 463.19961792 244.65904297 463.18427002 245.59570312 463.16845703 C251.7524079 463.16595566 258.00743998 463.56689629 262.80773926 467.92475891 C268.21464927 474.14199834 267.52797727 480.37288112 267.62207031 488.19543457 C267.65945313 489.35494629 267.69683594 490.51445801 267.73535156 491.70910645 C267.80031473 498.057452 267.45035556 502.62967141 263.81591797 507.9329834 C259.49942052 512.26627394 255.83049516 512.86599689 249.92222595 512.95042419 C248.97626053 512.94748856 248.0302951 512.94455292 247.05566406 512.94152832 C246.07340347 512.94677017 245.09114288 512.95201202 244.07911682 512.95741272 C242.00726261 512.96382343 239.93537196 512.96250826 237.86352539 512.95397949 C234.6918891 512.94545424 231.52204511 512.97426931 228.35058594 513.00598145 C226.33561252 513.00759319 224.32063591 513.00701644 222.30566406 513.00402832 C221.35767441 513.0152623 220.40968475 513.02649628 219.43296814 513.03807068 C212.90425871 512.96882707 212.90425871 512.96882707 209.6184082 510.66442871 C208.24707031 508.50793457 208.24707031 508.50793457 208.24707031 505.50793457 C203.62707031 505.50793457 199.00707031 505.50793457 194.24707031 505.50793457 C193.58707031 507.15793457 192.92707031 508.80793457 192.24707031 510.50793457 C189.47265093 513.28235395 187.83011053 512.76671597 183.94148254 512.78208923 C183.28726072 512.78732591 182.63303891 512.79256259 181.95899218 512.79795796 C179.75653596 512.81301549 177.55431089 512.81366436 175.35180664 512.81433105 C173.77667852 512.82194893 172.20155413 512.83037579 170.62643433 512.83955383 C166.33902229 512.8615482 162.05168161 512.87030485 157.76421952 512.87538028 C155.08566516 512.8790194 152.4071296 512.88525727 149.72858238 512.89238167 C140.38374381 512.91689767 131.03896088 512.92993176 121.6940918 512.93347168 C112.98488887 512.937104 104.27603901 512.96697197 95.56694394 513.00887626 C88.0908353 513.04358607 80.61484355 513.05902027 73.13865489 513.05971771 C68.67315375 513.06051059 64.20801164 513.06925313 59.74259377 513.09771538 C55.53914845 513.12390651 51.33635944 513.12609571 47.13286972 513.11005974 C45.5925764 513.10824579 44.05224529 513.11493126 42.51203346 513.13087845 C29.43475877 513.2579882 29.43475877 513.2579882 24.89506531 510.12696838 C19.25111415 504.54474525 18.84541281 499.75759152 18.78808594 492.0802002 C18.79517578 490.92197754 18.80226562 489.76375488 18.80957031 488.57043457 C18.78958984 487.4160791 18.76960937 486.26172363 18.74902344 485.0723877 C18.75288752 478.33728696 19.1162256 473.92359898 23.24707031 468.50793457 C28.03760123 464.71543093 31.72979138 463.37713779 37.74023438 463.39440918 C38.63307129 463.39453003 39.5259082 463.39465088 40.44580078 463.39477539 C41.37537598 463.39989136 42.30495117 463.40500732 43.26269531 463.41027832 C44.12362793 463.4112854 44.98456055 463.41229248 45.87158203 463.41333008 C49.08009172 463.41855245 52.28858239 463.43251372 55.49707031 463.44543457 C66.26332031 463.47637207 66.26332031 463.47637207 77.24707031 463.50793457 C77.24707031 447.00793457 77.24707031 430.50793457 77.24707031 413.50793457 C67.78792969 413.57754395 67.78792969 413.57754395 58.13769531 413.64855957 C54.14549138 413.66899487 50.15335182 413.6882504 46.16113281 413.70324707 C39.82278064 413.72716962 33.48465933 413.75548656 27.14648438 413.80969238 C22.03716246 413.85311585 16.92808807 413.8770645 11.81859589 413.88744354 C9.86810153 413.89484118 7.91762089 413.9092869 5.96723175 413.9308548 C3.23762104 413.95984229 0.50903644 413.96389253 -2.22070312 413.96203613 C-3.02918701 413.97641724 -3.8376709 413.99079834 -4.6706543 414.00561523 C-8.25670796 413.97918098 -10.34590456 413.80371303 -13.28619385 411.66705322 C-14.75292969 409.50793457 -14.75292969 409.50793457 -14.75292969 406.50793457 C-17.02438315 406.54094116 -19.29533095 406.61033462 -21.56542969 406.69543457 C-22.83 406.73023926 -24.09457031 406.76504395 -25.39746094 406.80090332 C-28.91818774 407.153032 -28.91818774 407.153032 -30.57714844 409.99621582 C-30.96515625 410.82508301 -31.35316406 411.6539502 -31.75292969 412.50793457 C-34.05473102 413.65883523 -35.39117579 413.64620396 -37.95214844 413.66906738 C-39.25490723 413.6834787 -39.25490723 413.6834787 -40.58398438 413.69818115 C-41.52661133 413.70243103 -42.46923828 413.70668091 -43.44042969 413.71105957 C-44.41270508 413.71675964 -45.38498047 413.72245972 -46.38671875 413.72833252 C-48.45132354 413.73779447 -50.51594352 413.74432122 -52.58056641 413.74816895 C-55.71251636 413.75781016 -58.84379192 413.78879529 -61.97558594 413.82043457 C-63.98469664 413.8269712 -65.99381202 413.83221907 -68.00292969 413.83605957 C-68.92936279 413.84840637 -69.8557959 413.86075317 -70.81030273 413.87347412 C-82.96740332 413.8326509 -93.46067471 409.5309006 -102.50292969 401.38293457 C-108.94200905 394.56239316 -112.86962731 385.44299044 -112.88715076 376.11138058 C-112.89160861 375.00944707 -112.89606645 373.90751356 -112.90065938 372.77218813 C-112.90038284 370.95661066 -112.90038284 370.95661066 -112.90010071 369.10435486 C-112.9037774 367.81829584 -112.90745408 366.53223682 -112.91124219 365.20720631 C-112.92125389 361.63458157 -112.92497765 358.06197363 -112.9276315 354.48933685 C-112.93153705 350.63707445 -112.94111527 346.78482533 -112.94984436 342.93257141 C-112.96960242 333.62747064 -112.97967448 324.3223688 -112.98857215 315.0172523 C-112.99295643 310.63391254 -112.9983229 306.25057399 -113.00356102 301.86723518 C-113.0205732 287.29332321 -113.03506674 272.71941198 -113.04230976 258.1454916 C-113.04421962 254.36388078 -113.04613995 250.58226997 -113.0480957 246.80065918 C-113.04857944 245.86077233 -113.04906318 244.92088549 -113.04956158 243.95251722 C-113.05785952 228.73149527 -113.08319249 213.51055198 -113.11567638 198.28956436 C-113.1487643 182.6579215 -113.16676012 167.02631857 -113.169954 151.39464051 C-113.17211757 142.61991598 -113.18084373 133.84530613 -113.20641518 125.07061577 C-113.22814592 117.59661998 -113.23616097 110.12276671 -113.22644839 102.64874291 C-113.22191044 98.83771446 -113.22376011 95.02697992 -113.24320984 91.21599197 C-113.26414909 87.07725562 -113.25383456 82.93916812 -113.24067688 78.80039978 C-113.25164613 77.60562985 -113.26261537 76.41085993 -113.27391702 75.17988485 C-113.17805945 62.66621318 -109.36476018 53.30689234 -100.68261719 44.37902832 C-93.5246091 37.60760255 -85.68758784 33.36921069 -75.70898438 33.39440918 C-74.7082489 33.39448471 -73.70751343 33.39456024 -72.67645264 33.39463806 C-71.0668869 33.40237999 -71.0668869 33.40237999 -69.42480469 33.41027832 C-68.32066223 33.41169327 -67.21651978 33.41310822 -66.07891846 33.41456604 C-62.55356127 33.42016199 -59.02826767 33.43271378 -55.50292969 33.44543457 C-53.1123056 33.45045009 -50.72168053 33.45501291 -48.33105469 33.45910645 C-42.471658 33.4701301 -36.61229839 33.48686424 -30.75292969 33.50793457 C-30.77141968 32.2912207 -30.77141968 32.2912207 -30.7902832 31.04992676 C-30.79987061 29.97903809 -30.80945801 28.90814941 -30.81933594 27.80480957 C-30.83782593 26.2168457 -30.83782593 26.2168457 -30.85668945 24.59680176 C-30.60340376 17.05663559 -27.81123331 11.96246213 -22.95996094 6.33215332 C-15.65223096 0.29195881 -9.16050542 -0.06896476 0 0 Z " fill="#010102" transform="translate(112.7529296875,-0.5079345703125)"/>
<path d="M0 0 C1.23891509 -0.00638882 2.47783017 -0.01277764 3.75428814 -0.01936007 C7.18626014 -0.03197221 10.61683852 -0.02218204 14.04869115 -0.00284529 C17.75222091 0.01258874 21.45566154 -0.00082189 25.15919495 -0.0105896 C32.41127756 -0.0251149 39.66308019 -0.01288381 46.91513629 0.00852364 C55.35924782 0.03253512 63.80329521 0.03081921 72.2474333 0.02821773 C87.31255092 0.02452764 102.37753662 0.045353 117.44261169 0.07946777 C132.06373936 0.11256497 146.68472857 0.12672506 161.30589294 0.1204834 C177.22583778 0.11372072 193.14572462 0.11617567 209.06566089 0.1358428 C209.90733212 0.13688229 210.74900336 0.13792177 211.61617978 0.13899276 C213.30666121 0.14108366 214.99714261 0.14319463 216.687624 0.14532593 C222.57490203 0.15222366 228.46216221 0.15289049 234.34944344 0.15144348 C241.52237437 0.15000439 248.69519236 0.15968341 255.86808581 0.18338984 C259.52844996 0.19525682 263.18865659 0.20237037 266.84903908 0.19655228 C270.81451032 0.19043542 274.77968468 0.20753022 278.74511719 0.22705078 C279.9054176 0.22172286 281.065718 0.21639493 282.26117903 0.21090555 C283.32290294 0.21996219 284.38462685 0.22901883 285.47852421 0.23834991 C286.39381525 0.23992112 287.30910629 0.24149232 288.25213343 0.24311113 C292.30684574 0.84308596 294.95266941 2.7650626 297.80906677 5.62145996 C298.0027609 8.63000821 298.06938171 11.54622517 298.04957581 14.55569458 C298.05213908 15.96095809 298.05213908 15.96095809 298.05475414 17.39461076 C298.05806454 20.55314853 298.0470199 23.71147673 298.03611755 26.86999512 C298.03555377 29.12641902 298.03586935 31.38284328 298.03700256 33.63926697 C298.03757838 39.7815465 298.02578717 45.92374854 298.01185465 52.06601 C297.99938527 58.47888837 297.99817979 64.89176836 297.99580383 71.30465698 C297.99028605 82.07368573 297.9777782 92.84268046 297.95994568 103.61169434 C297.94159504 114.70511738 297.92745747 125.79853265 297.91893005 136.89196777 C297.91839406 137.58243997 297.91785806 138.27291217 297.91730583 138.98430777 C297.9126803 144.99017413 297.90837462 150.99604072 297.90410042 157.00190735 C297.88527218 182.8751184 297.84543392 208.74825386 297.80906677 234.62145996 C237.08906677 234.62145996 176.36906677 234.62145996 113.80906677 234.62145996 C113.80906677 229.34145996 113.80906677 224.06145996 113.80906677 218.62145996 C115.12906677 218.95145996 116.44906677 219.28145996 117.80906677 219.62145996 C126.35099426 220.52138669 132.76406762 218.74714112 139.55906677 213.49645996 C145.28248289 206.18320603 148.2892769 197.12568958 151.45359802 188.48864746 C151.86824814 187.37079865 152.28289825 186.25294983 152.71011353 185.10122681 C154.01924979 181.56824529 155.32052827 178.03243045 156.62156677 174.49645996 C157.51362485 172.0848092 158.40619803 169.67334891 159.29930115 167.26208496 C161.47518119 161.38406482 163.64463612 155.50370501 165.80906677 149.62145996 C167.08613495 149.61781433 168.36320313 149.6141687 169.67897034 149.6104126 C181.71506081 149.57346889 193.75089529 149.51570273 205.78679085 149.43755722 C211.97456548 149.39805085 218.16219712 149.36587769 224.3500824 149.35046387 C230.32192977 149.33531838 236.29338411 149.30090958 242.26505661 149.25315094 C244.54317178 149.23831552 246.82134306 149.23041771 249.09950638 149.22957611 C252.29104245 149.2272113 255.4814881 149.20016926 258.6728363 149.1673584 C259.61439072 149.17238876 260.55594513 149.17741913 261.52603149 149.18260193 C267.09808203 149.09399481 270.49193027 148.48385628 274.80906677 144.62145996 C279.51899981 139.41822457 279.38129237 134.6994076 279.3266449 128.02966309 C279.33365417 126.97528549 279.34066345 125.9209079 279.34788513 124.83457947 C279.36545822 121.35701998 279.35384413 117.88027742 279.34031677 114.40270996 C279.34301187 111.98185063 279.34689443 109.56099235 279.35191345 107.14013672 C279.3578076 102.0695158 279.34924781 96.99917697 279.33055115 91.92858887 C279.30776215 85.43179114 279.3208856 78.9356544 279.344841 72.43888092 C279.35930092 67.44084704 279.35469198 62.44296965 279.34432983 57.44493103 C279.34166311 55.04955466 279.34493036 52.65416405 279.35424805 50.25880432 C279.36441631 46.90990611 279.34890713 43.56207561 279.3266449 40.21325684 C279.33879028 38.73090797 279.33879028 38.73090797 279.35118103 37.21861267 C279.28146251 31.55227071 278.83299835 27.95132716 274.80906677 23.62145996 C268.4934772 18.51494563 262.02844666 19.0542973 254.16624451 19.10388184 C252.78579471 19.09845535 251.40535072 19.09132974 250.0249176 19.0826416 C246.29143167 19.0644692 242.55838987 19.0714498 238.82489657 19.08415794 C234.91059634 19.09431533 230.99633304 19.08488487 227.08203125 19.07861328 C220.51091208 19.07134567 213.93997302 19.08090208 207.36888123 19.09997559 C199.7791624 19.12175182 192.18987329 19.11468417 184.60016483 19.09266996 C178.07425658 19.07450139 171.54847745 19.07196445 165.02255207 19.08242464 C161.12900155 19.08865045 157.23565284 19.08952033 153.3421154 19.07627869 C149.68196044 19.06469909 146.02235816 19.07278359 142.36226273 19.09585571 C140.38347375 19.10364189 138.40463787 19.09180553 136.4258728 19.0793457 C127.84585017 19.07768179 127.84585017 19.07768179 120.80906677 23.62145996 C116.08378467 28.8330321 116.25263799 33.54871032 116.33909607 40.22912598 C116.33690567 41.28510986 116.33471527 42.34109375 116.3324585 43.42907715 C116.33015139 46.91149458 116.35638238 50.3930618 116.38328552 53.87536621 C116.38821043 56.29861686 116.39150865 58.72187131 116.39324951 61.14512634 C116.40088573 66.21996235 116.42143577 71.29451595 116.45237732 76.3692627 C116.49197275 82.8749242 116.50999051 89.38040212 116.5196867 95.88617039 C116.52966051 102.09092719 116.54954397 108.29563925 116.57078552 114.50036621 C116.57418127 115.68489443 116.57757702 116.86942265 116.58107567 118.08984566 C116.59265502 121.44101403 116.61117673 124.79206674 116.63206482 128.14318848 C116.63475372 129.13501633 116.63744263 130.12684418 116.64021301 131.14872742 C116.65094597 132.52174515 116.65094597 132.52174515 116.66189575 133.92250061 C116.66830597 135.10960302 116.66830597 135.10960302 116.6748457 136.32068729 C116.74888933 138.6836334 116.74888933 138.6836334 117.3941927 141.17954922 C118.04057248 144.98408133 116.36829983 148.01145219 114.87156677 151.43395996 C114.43554138 152.4732666 114.43554138 152.4732666 113.9907074 153.53356934 C113.27515029 155.23448377 112.54366798 156.92868327 111.80906677 158.62145996 C106.84129562 156.95244594 102.76404417 154.12301837 98.43406677 151.24645996 C93.30986062 147.86050042 88.17671383 144.60978062 82.80906677 141.62145996 C83.13906677 140.63145996 83.46906677 139.64145996 83.80906677 138.62145996 C84.46906677 138.62145996 85.12906677 138.62145996 85.80906677 138.62145996 C86.03594177 138.10583496 86.26281677 137.59020996 86.49656677 137.05895996 C87.80906677 134.62145996 87.80906677 134.62145996 90.18406677 131.68395996 C96.15435393 123.39287869 98.07202742 112.61989841 96.80906677 102.62145996 C94.50864078 91.46439391 88.95153793 82.0427241 79.43406677 75.62145996 C68.52866022 69.3833879 56.82316445 67.5258248 44.49656677 70.74645996 C33.48032016 74.64091048 24.95203105 82.61411958 19.80906677 93.05895996 C15.61927324 104.23174273 16.40188666 116.9269793 21.16453552 127.76989746 C23.39573109 131.63871639 26.07855285 134.76980191 29.23484802 137.91442871 C30.80906677 139.62145996 30.80906677 139.62145996 30.80906677 141.62145996 C29.2002435 142.67997546 27.54420782 143.66697618 25.87156677 144.62145996 C16.81249071 150.3008038 11.1750994 157.25194896 6.37156677 166.68395996 C6.04132507 167.33227783 5.71108337 167.9805957 5.37083435 168.64855957 C1.20120173 177.34466069 0.50029148 185.89248387 0.39500427 195.43786621 C0.37563812 196.53493393 0.35627197 197.63200165 0.33631897 198.76231384 C0.27695886 202.23611897 0.23031293 205.70995802 0.18406677 209.18395996 C0.14584687 211.55181225 0.10679286 213.91965124 0.06687927 216.28747559 C-0.02870662 222.06536118 -0.1128973 227.84331177 -0.19093323 233.62145996 C-6.13093323 233.62145996 -12.07093323 233.62145996 -18.19093323 233.62145996 C-18.32654731 204.66078148 -18.43397765 175.7001614 -18.4973252 146.73922898 C-18.50482952 143.32082172 -18.51259545 139.9024151 -18.52052307 136.48400879 C-18.52209693 135.80346017 -18.5236708 135.12291156 -18.52529235 134.42174026 C-18.55140659 123.39959084 -18.5987174 112.37762901 -18.65385 101.35559092 C-18.70994182 90.04755011 -18.74283303 78.73960308 -18.7554642 67.43141621 C-18.76329695 61.07901709 -18.78174805 54.72704357 -18.82531357 48.37478065 C-18.86596906 42.39853737 -18.87861627 36.42289592 -18.86957932 30.44652748 C-18.87123309 28.25067883 -18.88320945 26.05481054 -18.90616608 23.85908127 C-18.935942 20.86480801 -18.92887237 17.87281837 -18.91246033 14.87849426 C-18.92993738 14.00592226 -18.94741442 13.13335025 -18.96542108 12.23433667 C-18.90167085 7.94296363 -18.5499459 6.09943706 -15.90777111 2.58173656 C-11.16868747 -0.64735436 -5.51135794 -0.05957357 0 0 Z " fill="#4EAAF6" transform="translate(116.19093322753906,14.3785400390625)"/>
<path d="M0 0 C76.89 0 153.78 0 233 0 C233 27.72 233 55.44 233 84 C156.11 84 79.22 84 0 84 C0 56.28 0 28.56 0 0 Z " fill="#D2DBFA" transform="translate(181,264)"/>
<path d="M0 0 C159.06 0 318.12 0 482 0 C482 16.69811321 482 16.69811321 478 23 C477.61070312 23.63550781 477.22140625 24.27101563 476.8203125 24.92578125 C472.64007986 30.70142812 466.67429451 33.01967125 460 35 C454.79390537 35.67066235 449.65223489 35.6677078 444.41661072 35.61904907 C442.86983438 35.6232198 441.3230627 35.62959199 439.77630335 35.63795507 C435.55621124 35.65453759 431.33671331 35.64034765 427.11665452 35.62089396 C422.55436953 35.60539217 417.99215797 35.61893337 413.42987061 35.62898254 C405.53480535 35.64256691 397.63991389 35.63832818 389.74485588 35.62215042 C378.32682683 35.59904232 366.90897126 35.60640844 355.49093635 35.62168162 C336.95951888 35.64592534 318.4281571 35.65016852 299.89672852 35.63964844 C298.78880216 35.63902461 297.6808758 35.63840079 296.53937591 35.63775806 C294.29684848 35.6364867 292.05432105 35.63521246 289.81179363 35.63393535 C288.69984778 35.63330297 287.58790192 35.63267059 286.44226074 35.63201904 C285.32925503 35.6313809 284.21624931 35.63074275 283.06951615 35.63008527 C270.68965496 35.6232706 258.30979455 35.62128817 245.92993164 35.62109375 C244.82063118 35.62107092 243.71133072 35.62104809 242.5684151 35.62102456 C224.09343752 35.62109372 205.61848112 35.63310189 187.14351374 35.65205324 C175.74793987 35.66303026 164.35247657 35.66216564 152.95690805 35.6461135 C145.15959603 35.63567286 137.36232862 35.63540017 129.56501364 35.64323165 C125.06233824 35.64733148 120.55980449 35.64632897 116.05714607 35.63229942 C111.94019707 35.61952677 107.82348845 35.62033321 103.70653874 35.63217191 C102.21290754 35.63398213 100.71925994 35.63064286 99.22565388 35.62178953 C97.20410021 35.61050856 95.18246375 35.61927913 93.16090298 35.6292057 C92.03546154 35.62839394 90.91002011 35.62758218 89.75047439 35.62674582 C87.01207337 35.78490048 87.01207337 35.78490048 85.17744356 37.27317464 C83.6973549 39.22982017 83.6973549 39.22982017 83 43 C78.05 43 73.1 43 68 43 C67.34 40.69 66.68 38.38 66 36 C64.68394775 35.9906543 63.36789551 35.98130859 62.01196289 35.97167969 C57.0970765 35.93160011 52.18280427 35.86579164 47.26831055 35.79248047 C45.14729747 35.76437474 43.02618168 35.74310884 40.9050293 35.72900391 C37.84370734 35.70743011 34.78360692 35.6607058 31.72265625 35.609375 C30.78478775 35.60814636 29.84691925 35.60691772 28.88063049 35.60565186 C20.11343511 35.41362044 13.0179322 32.65454722 6.50390625 26.71484375 C-0.55643161 18.66422474 0 10.6672444 0 0 Z " fill="#E8EEFE" transform="translate(15,363)"/>
<path d="M0 0 C44.22 0 88.44 0 134 0 C134 33.33 134 66.66 134 101 C103.31 101 72.62 101 41 101 C40.67 97.37 40.34 93.74 40 90 C38.15963127 86.04861323 38.15963127 86.04861323 36.7421875 83.94921875 C34.78460724 78.8079948 38.14817341 71.32348563 39.50390625 66.140625 C40.00252791 64.20066848 40.50055615 62.26055935 40.99804688 60.3203125 C41.77805507 57.28653888 42.56149235 54.2538469 43.35522461 51.22363281 C44.12417338 48.28202634 44.87768711 45.33680203 45.62890625 42.390625 C45.98511803 41.05260834 45.98511803 41.05260834 46.348526 39.68756104 C47.77155721 34.04272199 49.29633475 27.7849507 48 22 C46.24867298 20.12220777 46.24867298 20.12220777 44 19 C40.32706204 19.22037628 38.63033454 19.36966546 36 22 C35.20922133 24.25022632 35.20922133 24.25022632 34.57958984 26.90869141 C34.31947113 27.92959869 34.05935242 28.95050598 33.79135132 30.00234985 C33.51731476 31.10759003 33.2432782 32.2128302 32.9609375 33.3515625 C32.67521881 34.4807309 32.38950012 35.60989929 32.09512329 36.77328491 C31.18185224 40.38890592 30.27833032 44.00688397 29.375 47.625 C28.75845187 50.07307778 28.14127246 52.52099667 27.5234375 54.96875 C26.00828829 60.97734039 24.50114143 66.98789565 23 73 C21.6543396 73.08326538 21.6543396 73.08326538 20.28149414 73.16821289 C19.10707764 73.2480542 17.93266113 73.32789551 16.72265625 73.41015625 C15.55742432 73.4862915 14.39219238 73.56242676 13.19165039 73.64086914 C9.56087113 74.04941165 7.06985487 75.03214431 4 77 C2.02 77.99 2.02 77.99 0 79 C0 52.93 0 26.86 0 0 Z " fill="#E8EEFE" transform="translate(247,48)"/>
<path d="M0 0 C0.33 0 0.66 0 1 0 C1 33.33 1 66.66 1 101 C-54.11 101 -109.22 101 -166 101 C-166 96.38 -166 91.76 -166 87 C-163.0609375 87.12375 -163.0609375 87.12375 -160.0625 87.25 C-152.34790939 87.24160545 -147.3143682 85.5611027 -141.25 80.875 C-135.52658388 73.56174607 -132.51978988 64.50422962 -129.35546875 55.8671875 C-128.94081863 54.74933868 -128.52616852 53.63148987 -128.09895325 52.47976685 C-126.78981698 48.94678533 -125.4885385 45.41097049 -124.1875 41.875 C-123.29544192 39.46334924 -122.40286875 37.05188895 -121.50976562 34.640625 C-119.33388558 28.76260486 -117.16443065 22.88224505 -115 17 C-113.72293182 16.99635437 -112.44586365 16.99270874 -111.13009644 16.98895264 C-99.09400596 16.95200893 -87.05817149 16.89424277 -75.02227592 16.81609726 C-68.83450129 16.77659089 -62.64686965 16.74441773 -56.45898438 16.72900391 C-50.48713701 16.71385842 -44.51568266 16.67944962 -38.54401016 16.63169098 C-36.26589499 16.61685555 -33.98772371 16.60895775 -31.70956039 16.60811615 C-28.51802432 16.60575134 -25.32757867 16.5787093 -22.13623047 16.54589844 C-21.19467606 16.5509288 -20.25312164 16.55595917 -19.28303528 16.56114197 C-13.69644611 16.47230365 -10.40610915 15.77071939 -6 12 C-3.02360134 8.19682394 -1.32370818 4.63297862 0 0 Z " fill="#4EAAF6" transform="translate(397,147)"/>
<path d="M0 0 C9.57 0 19.14 0 29 0 C29 88.11 29 176.22 29 267 C17.45 267 5.9 267 -6 267 C-6.11299814 233.83527604 -6.20252972 200.67062608 -6.25532665 167.5057541 C-6.26158029 163.59164499 -6.26805189 159.67753627 -6.2746582 155.76342773 C-6.27596976 154.98418883 -6.27728131 154.20494993 -6.2786326 153.40209772 C-6.30039786 140.77952226 -6.33982551 128.15706048 -6.38576398 115.53455249 C-6.43249754 102.58572334 -6.46028881 89.6369538 -6.47044247 76.68804377 C-6.47730811 68.69577987 -6.49900355 60.70383728 -6.53958233 52.71167227 C-6.5691004 46.5864918 -6.57228198 40.46155704 -6.56553841 34.33631516 C-6.56691724 31.82119325 -6.57690637 29.3060595 -6.59602737 26.7910099 C-6.62081361 23.36350149 -6.6149565 19.93738077 -6.60127258 16.50984192 C-6.61583679 15.50886862 -6.630401 14.50789532 -6.64540654 13.4765895 C-6.59412979 8.74244367 -6.56641102 6.70813179 -3.52492046 2.90563488 C-2.69169671 2.27677537 -1.85847296 1.64791586 -1 1 C-0.67 0.67 -0.34 0.34 0 0 Z " fill="#99D5F6" transform="translate(54,81)"/>
<path d="M0 0 C28 0 28 0 33 3 C35.09954832 6.14932249 35.24953609 6.85862893 35.24609566 10.44527721 C35.25007775 11.3604166 35.25405985 12.275556 35.25816262 13.21842688 C35.24942409 14.72862535 35.24942409 14.72862535 35.24050903 16.26933289 C35.24221788 17.33770333 35.24392673 18.40607377 35.24568737 19.50681907 C35.24899459 23.10446673 35.2379582 26.70192992 35.22705078 30.29956055 C35.22648693 32.87139888 35.22680271 35.44323754 35.22793579 38.01507568 C35.22898539 43.56117874 35.222701 49.1072348 35.21146011 54.65332603 C35.19521818 62.67207319 35.18999845 70.69079759 35.18748413 78.70955942 C35.18310497 91.71890211 35.16978988 104.72821974 35.15087891 117.73754883 C35.13252582 130.37621943 35.11836652 143.01488322 35.10986328 155.65356445 C35.10907511 156.82179097 35.10907511 156.82179097 35.10827102 158.01361801 C35.10566098 161.92064867 35.10313355 165.82767937 35.10064721 169.7347101 C35.07990783 202.15649239 35.04412655 234.57824107 35 267 C23.45 267 11.9 267 0 267 C0 178.89 0 90.78 0 0 Z " fill="#9AD7F9" transform="translate(429,81)"/>
<path d="M0 0 C4.85705962 2.02981596 8.68615174 5.67831338 12.69140625 9.01171875 C20.24678865 15.12485896 27.42968794 15.88723536 37 15 C41.57677246 13.89989506 44.84661217 11.15139071 48.421875 8.21484375 C49.04070557 7.71057861 49.65953613 7.20631348 50.29711914 6.68676758 C51.54491932 5.65587804 52.77654327 4.60504944 53.98999023 3.53393555 C55.73046875 2.0703125 55.73046875 2.0703125 59 0 C62.89381151 0.60556944 65.68754692 3.106492 68.85913086 5.37817383 C74.65524334 9.47063151 79.2299574 12.27008146 86.58984375 11.5546875 C90.57509997 10.63749725 92.77768416 9.61813162 96 7 C97.38771087 4.6772008 98.15028672 2.59912297 99 0 C105.17515418 1.24087023 111.05835026 2.91794491 117 5 C114.83192455 12.53844133 112.36461644 19.94013319 109.6875 27.3125 C109.13932617 28.89901367 109.13932617 28.89901367 108.58007812 30.51757812 C106.34570458 36.63412747 104.60149202 40.50757178 99 44 C95.25638746 44.70192735 93.2666696 44.09559854 89.6875 42.8125 C85.88086373 38.82881088 86.31901756 35.3514908 86.30078125 29.99609375 C86.25288785 27.02693515 86.25288785 27.02693515 84.6640625 25.125 C82.01886271 23.33669592 80.10235227 23.55680682 77 24 C74.64939169 25.34214504 74.64939169 25.34214504 73 28 C72.37950626 31.33143464 72.39472811 34.63407503 72.390625 38.015625 C72.37499512 38.87655762 72.35936523 39.73749023 72.34326172 40.62451172 C72.29076054 43.83272886 72.27241195 47.04143158 72.25 50.25 C72.1675 57.4275 72.085 64.605 72 72 C44.28 72 16.56 72 -12 72 C-12.103125 64.018125 -12.20625 56.03625 -12.3125 47.8125 C-12.38078003 44.07450073 -12.38078003 44.07450073 -12.45043945 40.26098633 C-12.624198 24.06566786 -11.20145929 12.49269379 0 0 Z " fill="#4BDE87" transform="translate(143,176)"/>
<path d="M0 0 C6.65276397 -0.12427568 13.30484137 -0.21465915 19.95849609 -0.2746582 C22.21838157 -0.29968909 24.47818702 -0.33372438 26.73779297 -0.37719727 C29.99987619 -0.43835233 33.26088245 -0.46632502 36.5234375 -0.48828125 C38.02093033 -0.52699089 38.02093033 -0.52699089 39.54867554 -0.56648254 C47.57209591 -0.56963809 54.17155546 1.45997389 60.1524353 6.99028015 C67.3230123 14.56117033 68.44333679 21.36961115 68.36076355 31.47166443 C68.36332682 32.62104006 68.3658901 33.7704157 68.36853105 34.9546209 C68.37346888 38.80249129 68.35697537 42.64996854 68.34057617 46.49780273 C68.33805863 49.25742338 68.34007297 52.01703637 68.34190369 54.7766571 C68.34347482 60.71613566 68.33408244 66.65551515 68.31719017 72.5949688 C68.29278293 81.18234759 68.28499314 89.76967861 68.2812262 98.35708833 C68.27466442 112.2904135 68.25471068 126.2236859 68.22631836 140.15698242 C68.19877071 153.68985735 68.17754059 167.22271792 68.16479492 180.75561523 C68.16400675 181.59013493 68.16321858 182.42465463 68.16240653 183.2844628 C68.15849134 187.47110822 68.15470024 191.65775374 68.15097082 195.84439933 C68.11988342 230.56297086 68.06683166 265.2814797 68 300 C62.06 300 56.12 300 50 300 C49.99945523 298.65378633 49.99891047 297.30757267 49.99834919 295.92056465 C49.98429733 263.94587505 49.94451127 231.97132772 49.87314438 199.99671621 C49.86437789 196.05900912 49.85582804 192.1213016 49.84741211 188.18359375 C49.84573305 187.39968517 49.84405398 186.61577659 49.84232404 185.8081132 C49.81567274 173.124304 49.8065603 160.44053999 49.80395857 147.75670566 C49.80089637 134.73659139 49.77891881 121.71660753 49.73947543 108.69655216 C49.71574071 100.66597924 49.70666354 92.63566686 49.71648689 84.60506372 C49.72244383 78.44145574 49.70205101 72.27818779 49.67193985 66.11465645 C49.66370546 63.59038038 49.66395785 61.06605993 49.67340279 58.5417881 C49.68503913 55.08968182 49.66588148 51.63903536 49.63923645 48.18704224 C49.64990971 47.19285125 49.66058297 46.19866026 49.67157966 45.17434227 C49.57173908 38.22013065 47.94323699 32.7856666 44 27 C37.75528089 20.97333473 31.52953306 18.80844957 22.8515625 18.5859375 C22.19417084 18.56657135 21.53677917 18.5472052 20.85946655 18.5272522 C18.78143865 18.46797539 16.70335376 18.42128206 14.625 18.375 C13.2070085 18.33677222 11.78903903 18.29771777 10.37109375 18.2578125 C6.91418405 18.16077644 3.45747888 18.08080209 0 18 C0 12.06 0 6.12 0 0 Z " fill="#2A428C" transform="translate(429,48)"/>
<path d="M0 0 C1.58325829 0.00636726 1.58325829 0.00636726 3.19850159 0.01286316 C6.55056896 0.02957826 9.90202235 0.06721787 13.25390625 0.10546875 C15.53449649 0.12052482 17.81509621 0.13421161 20.09570312 0.14648438 C25.66950532 0.17945841 31.24285189 0.23119173 36.81640625 0.29296875 C36.81640625 6.23296875 36.81640625 12.17296875 36.81640625 18.29296875 C33.63371094 18.31423828 33.63371094 18.31423828 30.38671875 18.3359375 C28.29802326 18.36668112 26.2096337 18.40573678 24.12109375 18.44555664 C22.685985 18.46854281 21.2507122 18.48308622 19.81542969 18.48852539 C10.27249345 18.53178138 1.7393196 19.0890792 -5.78442383 25.69946289 C-11.98135382 32.50759694 -12.62462067 39.367777 -12.58232117 48.11924744 C-12.58896799 49.19920268 -12.59561482 50.27915793 -12.60246307 51.39183909 C-12.62109153 55.0047305 -12.61848779 58.61729069 -12.6159668 62.23022461 C-12.62498401 64.82236194 -12.63531113 67.41449499 -12.64685059 70.00662231 C-12.66961524 75.58429011 -12.681518 81.16189554 -12.68597984 86.73960686 C-12.69244666 94.8039582 -12.71539335 102.86819691 -12.74232314 110.93250281 C-12.78557228 124.01724188 -12.81554972 137.1019762 -12.8371582 150.18676758 C-12.85817351 162.89512465 -12.88545342 175.60344288 -12.92114258 188.31176758 C-12.9233414 189.09550835 -12.92554023 189.87924912 -12.92780568 190.68673962 C-12.93887547 194.61865621 -12.95006826 198.55057244 -12.96132219 202.48248851 C-13.05448077 235.08594999 -13.12586952 267.68942507 -13.18359375 300.29296875 C-19.12359375 300.29296875 -25.06359375 300.29296875 -31.18359375 300.29296875 C-31.297707 264.79287745 -31.38616802 229.29282346 -31.4389204 193.79258636 C-31.44517378 189.59951691 -31.4516454 185.40644782 -31.45825195 181.21337891 C-31.45956351 180.37862987 -31.46087506 179.54388084 -31.46222635 178.68383639 C-31.48397078 165.17549514 -31.52338698 151.66726051 -31.56935773 138.15898247 C-31.6161492 124.29368868 -31.64389483 110.42845065 -31.65403622 96.56308115 C-31.66088982 88.0103927 -31.68252005 79.45800563 -31.72317608 70.90540998 C-31.74964771 65.03705365 -31.75758478 59.16885266 -31.75110064 53.30044098 C-31.74790443 49.91668338 -31.75548285 46.53387462 -31.77962112 43.15013885 C-31.80455179 39.47480758 -31.79849692 35.80075859 -31.78486633 32.12539673 C-31.79943054 31.06505962 -31.81399475 30.00472251 -31.82900029 28.91225398 C-31.74820356 20.8347148 -29.77078143 14.17077178 -24.19375497 8.14192355 C-16.70813618 1.0482493 -9.9982476 -0.15270224 0 0 Z " fill="#3B579F" transform="translate(46.18359375,47.70703125)"/>
<path d="M0 0 C22.44 0 44.88 0 68 0 C68 28.05 68 56.1 68 85 C45.56 85 23.12 85 0 85 C0 56.95 0 28.9 0 0 Z " fill="#FB4053" transform="translate(98,263)"/>
<path d="M0 0 C28 0 28 0 33 3 C35.09954832 6.14932249 35.24953609 6.85862893 35.24609566 10.44527721 C35.25007775 11.3604166 35.25405985 12.275556 35.25816262 13.21842688 C35.24942409 14.72862535 35.24942409 14.72862535 35.24050903 16.26933289 C35.24221788 17.33770333 35.24392673 18.40607377 35.24568737 19.50681907 C35.24899459 23.10446673 35.2379582 26.70192992 35.22705078 30.29956055 C35.22648693 32.87139888 35.22680271 35.44323754 35.22793579 38.01507568 C35.22898539 43.56117874 35.222701 49.1072348 35.21146011 54.65332603 C35.19521818 62.67207319 35.18999845 70.69079759 35.18748413 78.70955942 C35.18310497 91.71890211 35.16978988 104.72821974 35.15087891 117.73754883 C35.13252582 130.37621943 35.11836652 143.01488322 35.10986328 155.65356445 C35.10907511 156.82179097 35.10907511 156.82179097 35.10827102 158.01361801 C35.10566098 161.92064867 35.10313355 165.82767937 35.10064721 169.7347101 C35.07990783 202.15649239 35.04412655 234.57824107 35 267 C23.45 267 11.9 267 0 267 C0 178.89 0 90.78 0 0 Z M1 1 C1 88.45 1 175.9 1 266 C6.94 266 12.88 266 19 266 C19.04560292 232.81823464 19.08100784 199.6364783 19.10213066 166.45468877 C19.10463214 162.53929116 19.10722078 158.62389361 19.10986328 154.70849609 C19.11065021 153.53924427 19.11065021 153.53924427 19.11145304 152.3463712 C19.12016103 139.71670438 19.13593317 127.08705573 19.15430559 114.4573997 C19.17299368 101.50291936 19.18411441 88.54844855 19.18817699 75.59395528 C19.19092432 67.59719974 19.1996086 59.60049554 19.21583293 51.6037558 C19.22763202 45.47689652 19.2289141 39.35007657 19.22621536 33.22320747 C19.22676728 30.7060699 19.23076785 28.18893046 19.23841095 25.67180443 C19.24831104 22.24432617 19.24598688 18.81707044 19.24050903 15.3895874 C19.24924756 13.88375819 19.24924756 13.88375819 19.25816262 12.34750819 C19.25418052 11.43037775 19.25019842 10.51324731 19.24609566 9.56832504 C19.24723482 8.38131929 19.24723482 8.38131929 19.24839699 7.17033362 C19.07806967 4.58512463 19.07806967 4.58512463 17 1 C11.72 1 6.44 1 1 1 Z " fill="#73C0F3" transform="translate(429,81)"/>
<path d="M0 0 C71.28 0 142.56 0 216 0 C216 5.94 216 11.88 216 18 C213.29167969 18.06058594 210.58335937 18.12117188 207.79296875 18.18359375 C205.17176543 18.24539098 202.55060497 18.30877544 199.92944336 18.37231445 C198.10689096 18.41564287 196.28429852 18.45731947 194.46166992 18.49731445 C191.84281339 18.55506762 189.22415805 18.61874756 186.60546875 18.68359375 C185.78974899 18.70030624 184.97402924 18.71701874 184.1335907 18.73423767 C180.85820456 18.82013245 178.12743599 18.95752134 175 20 C174.67 21.98 174.34 23.96 174 26 C168.72 26 163.44 26 158 26 C157.67 24.02 157.34 22.04 157 20 C153.53182218 18.94219551 150.32637596 18.86252839 146.71051025 18.84178162 C145.41764603 18.8319928 144.1247818 18.82220398 142.79273987 18.81211853 C141.36215247 18.8062147 139.93156468 18.80040423 138.50097656 18.79467773 C136.99301384 18.7850965 135.4850538 18.77508627 133.97709656 18.76467896 C129.88450584 18.73765043 125.79190362 18.71662975 121.69927311 18.69667697 C117.4217882 18.67480477 113.14433868 18.64742211 108.86688232 18.62062073 C100.76740318 18.57071055 92.66790438 18.5257655 84.56838679 18.48259836 C75.34716439 18.43321169 66.1259775 18.37829886 56.90478945 18.32291877 C37.93655907 18.20912443 18.96829467 18.10247585 0 18 C0 12.06 0 6.12 0 0 Z " fill="#E8EEFE" transform="translate(148,479)"/>
<path d="M0 0 C4.255072 3.0849272 7.71839064 6.16835664 10 11 C10 11.66 10 12.32 10 13 C10.99033375 12.99308655 10.99033375 12.99308655 12.00067425 12.98603344 C28.0668895 12.8756017 44.13297271 12.79286679 60.19947338 12.74093914 C67.9691398 12.71515966 75.73855285 12.68001443 83.50805664 12.62280273 C90.28014158 12.57295943 97.05204303 12.54070711 103.82430631 12.52955753 C107.41012717 12.52304017 110.9954231 12.50772912 114.58107567 12.47134972 C118.58447915 12.43106152 122.58697064 12.43005112 126.59057617 12.43237305 C127.77884506 12.41439667 128.96711395 12.39642029 130.19139099 12.37789917 C139.13951637 12.43420549 139.13951637 12.43420549 142.27558899 15.30891418 C144 18 144 18 144 21.625 C143.01146047 24.96132091 142.69549563 26.000887 140 28 C137.60059834 28.36914349 137.60059834 28.36914349 134.70393372 28.36076355 C133.05698769 28.36694954 133.05698769 28.36694954 131.37677002 28.3732605 C130.17195984 28.36247467 128.96714966 28.35168884 127.72583008 28.34057617 C125.8232267 28.34123329 125.8232267 28.34123329 123.88218689 28.34190369 C120.40300948 28.34276537 116.92414158 28.32511201 113.44503617 28.30418181 C109.80953933 28.28544361 106.1740356 28.28366684 102.53849792 28.28010559 C95.65366527 28.2707767 88.76897531 28.24615158 81.88420552 28.21605712 C74.04633666 28.18253931 66.20846103 28.16603371 58.37053835 28.15097082 C42.246942 28.11960269 26.1234892 28.06682589 10 28 C9.70657715 28.93497314 9.4131543 29.86994629 9.11083984 30.83325195 C7.06489992 36.66575454 3.79601935 39.5447764 -1.625 42.3125 C-8.00733803 45.31732338 -13.42930123 46.59050678 -20.22265625 44.2265625 C-27.2748373 40.93115079 -31.5337678 36.93246439 -35 30 C-35 29.34 -35 28.68 -35 28 C-35.96421875 28.04640625 -36.9284375 28.0928125 -37.921875 28.140625 C-39.18515625 28.17671875 -40.4484375 28.2128125 -41.75 28.25 C-43.62945312 28.31960938 -43.62945312 28.31960938 -45.546875 28.390625 C-49 28 -49 28 -51.41796875 26.203125 C-53.74017125 22.969243 -53.62310216 20.87708008 -53 17 C-50.24102446 14.11840333 -48.66290537 13.07771458 -44.66796875 12.609375 C-42.94513672 12.67898438 -42.94513672 12.67898438 -41.1875 12.75 C-40.02605469 12.78609375 -38.86460937 12.8221875 -37.66796875 12.859375 C-36.78753906 12.90578125 -35.90710938 12.9521875 -35 13 C-34.75765625 12.09765625 -34.5153125 11.1953125 -34.265625 10.265625 C-31.95708532 4.30902262 -26.69783351 0.40756531 -21.125 -2.5 C-13.57832651 -3.70746776 -6.78543439 -3.91467369 0 0 Z " fill="#030303" transform="translate(252,285)"/>
<path d="M0 0 C11.76005866 -0.55607983 11.76005866 -0.55607983 16 3 C18.66074373 5.66074373 18.2401881 7.63315896 18.25816262 11.2518059 C18.25233693 12.13700738 18.24651125 13.02220886 18.24050903 13.93423462 C18.24221788 14.87107696 18.24392673 15.8079193 18.24568737 16.7731508 C18.24899776 19.93168857 18.23795312 23.09001676 18.22705078 26.24853516 C18.226487 28.50495906 18.22680257 30.76138332 18.22793579 33.01780701 C18.2285116 39.16008654 18.2167204 45.30228858 18.20278788 51.44455004 C18.1903185 57.85742841 18.18911302 64.2703084 18.18673706 70.68319702 C18.18121928 81.45222577 18.16871142 92.2212205 18.15087891 102.99023438 C18.13252827 114.08365742 18.1183907 125.17707269 18.10986328 136.27050781 C18.10932729 136.96098001 18.10879129 137.65145221 18.10823905 138.36284781 C18.10361353 144.36871417 18.09930785 150.37458076 18.09503365 156.38044739 C18.07620541 182.25365844 18.03636715 208.12679389 18 234 C-42.72 234 -103.44 234 -166 234 C-166 228.72 -166 223.44 -166 218 C-165.34 218.33 -164.68 218.66 -164 219 C-164.33 223.62 -164.66 228.24 -165 233 C-109.56 233 -54.12 233 3 233 C2.88040657 192.59859579 2.88040657 192.59859579 2.7421875 152.19726562 C2.72219066 146.75236053 2.7022947 141.30745509 2.68261719 135.86254883 C2.68014575 135.1801104 2.67767431 134.49767196 2.67512798 133.79455358 C2.63539935 122.77442608 2.60266128 111.75428832 2.57250018 100.73413096 C2.54139564 89.42604249 2.50264245 78.11799776 2.45720994 66.80995625 C2.43193159 60.45774639 2.4101542 54.10556742 2.39665604 47.75332069 C2.3838479 41.77718158 2.36180683 35.80114838 2.33261681 29.82506752 C2.32353129 27.62926375 2.31784854 25.43344291 2.31578636 23.23762131 C2.31247075 20.24397137 2.29701204 17.25062299 2.2784729 14.2570343 C2.281375 12.9481763 2.281375 12.9481763 2.28433573 11.61287671 C2.24422879 7.29262889 2.0126842 3.93574243 0 0 Z " fill="#1883E4" transform="translate(396,15)"/>
<path d="M0 0 C33 0 66 0 100 0 C100 16.83 100 33.66 100 51 C91.42 51 82.84 51 74 51 C73.6875 40.3125 73.6875 40.3125 73.61206055 36.9699707 C73.41869988 31.82638873 73.21879518 28.23707355 70 24 C70 23.34 70 22.68 70 22 C68.824375 21.5359375 68.824375 21.5359375 67.625 21.0625 C65 20 65 20 63 19 C58.5469585 18.7284229 54.0853799 18.76835547 49.625 18.75 C48.37976563 18.729375 47.13453125 18.70875 45.8515625 18.6875 C44.6553125 18.68234375 43.4590625 18.6771875 42.2265625 18.671875 C41.12908691 18.6625293 40.03161133 18.65318359 38.90087891 18.64355469 C35.66514249 19.0411456 34.43542342 19.92423827 32 22 C31.34 22 30.68 22 30 22 C29.690625 22.78375 29.38125 23.5675 29.0625 24.375 C28 27 28 27 27 29 C26.84777027 30.66565749 26.75082785 32.33656496 26.68359375 34.0078125 C26.64548584 34.8961377 26.60737793 35.78446289 26.56811523 36.69970703 C26.50346069 38.39522705 26.50346069 38.39522705 26.4375 40.125 C26.293125 43.71375 26.14875 47.3025 26 51 C17.42 51 8.84 51 0 51 C0 34.17 0 17.34 0 0 Z " fill="#D1DAF9" transform="translate(206,413)"/>
<path d="M0 0 C5.90829528 4.16700894 10.28031695 9.63210183 12.29296875 16.6171875 C13.39906412 24.67055602 11.9884839 30.95953679 7.29296875 37.6171875 C2.38074769 43.07406905 -3.02199744 47.02574352 -10.4609375 47.96484375 C-17.94229377 48.33747835 -23.57123223 46.97021426 -29.70703125 42.6171875 C-34.67433008 38.10146129 -38.32168369 32.80411593 -39.140625 26.03125 C-39.14964379 17.28302061 -38.94550646 11.24012617 -32.94140625 4.69140625 C-23.52466799 -4.26190986 -11.59753862 -6.52707261 0 0 Z " fill="#FAAB6C" transform="translate(186.70703125,101.3828125)"/>
<path d="M0 0 C44.22 0 88.44 0 134 0 C134 33.33 134 66.66 134 101 C129.05 101 124.1 101 119 101 C119 68 119 35 119 1 C79.73 1 40.46 1 0 1 C0 0.67 0 0.34 0 0 Z " fill="#D2DAF8" transform="translate(247,48)"/>
<path d="M0 0 C5.72901024 -0.17347928 11.45648167 -0.30027012 17.1875 -0.38452148 C19.13536214 -0.41965164 21.08304063 -0.46736833 23.03027344 -0.52807617 C25.83574743 -0.61332934 28.63877639 -0.65276045 31.4453125 -0.68359375 C32.31116974 -0.71972275 33.17702698 -0.75585175 34.06912231 -0.79307556 C37.4740773 -0.79526993 39.97066018 -0.74281004 42.7855835 1.2885437 C49.93685154 9.0355877 51.5922207 17.56598953 51.48101807 27.7881012 C51.48443577 28.94735279 51.48785347 30.10660437 51.49137473 31.3009848 C51.49679844 34.49613999 51.48439712 37.69063628 51.46426249 40.8857137 C51.44691249 44.33957444 51.45283949 47.7934071 51.45587158 51.24729919 C51.4579642 57.22387952 51.44546452 63.20028453 51.42292023 69.17682076 C51.39034679 77.81774999 51.37998776 86.45859487 51.37496826 95.09957885 C51.36622397 109.12055173 51.33963195 123.14143128 51.30175781 137.16235352 C51.26501527 150.77855972 51.2367145 164.39474053 51.21972656 178.01098633 C51.21867567 178.85095457 51.21762477 179.69092281 51.21654204 180.55634464 C51.21132171 184.77041686 51.20626692 188.98448926 51.20129442 193.19856179 C51.15985936 228.13244105 51.08943458 263.0662119 51 298 C50.34 298 49.68 298 49 298 C48.99978263 297.44941315 48.99956526 296.89882631 48.99934131 296.33155501 C48.98581788 263.68059235 48.94629973 231.02977905 48.87314438 198.37889848 C48.8643779 194.45621267 48.85582804 190.53352642 48.84741211 186.61083984 C48.84573305 185.82992188 48.84405398 185.04900391 48.84232404 184.24442177 C48.81567296 171.60911148 48.80656032 158.97384657 48.80395857 146.33851106 C48.80089633 133.3681171 48.77891839 120.39785405 48.73947543 107.4275192 C48.71574107 99.42765546 48.70666337 91.42805324 48.71648689 83.42815916 C48.72244398 77.2880517 48.70205044 71.14828555 48.67193985 65.008255 C48.66370568 62.49365433 48.66395759 59.9790091 48.67340279 57.46441269 C48.68503974 54.02544165 48.6658806 50.58793584 48.63923645 47.14907837 C48.64990971 46.15877833 48.66058297 45.16847829 48.67157966 44.14816916 C48.57152047 37.20466713 46.93494558 31.77710867 43 26 C36.83336238 20.04823682 30.64781415 17.81365878 22.0703125 17.5859375 C20.78125 17.54726562 19.4921875 17.50859375 18.1640625 17.46875 C16.81771293 17.43730242 15.47135868 17.40605489 14.125 17.375 C12.75518486 17.33676959 11.38539245 17.29771499 10.015625 17.2578125 C6.67730166 17.16377522 3.33866975 17.08080857 0 17 C0 11.39 0 5.78 0 0 Z " fill="#3B579F" transform="translate(430,49)"/>
<path d="M0 0 C4.95 0 9.9 0 15 0 C15 27.72 15 55.44 15 84 C-61.89 84 -138.78 84 -218 84 C-218 83.67 -218 83.34 -218 83 C-146.06 83 -74.12 83 0 83 C0 55.61 0 28.22 0 0 Z " fill="#BCC6F2" transform="translate(399,264)"/>
<path d="M0 0 C4.95 0 9.9 0 15 0 C15.61108234 15.73537027 15.61108234 15.73537027 11 23 C10.61070312 23.63550781 10.22140625 24.27101563 9.8203125 24.92578125 C5.64037139 30.70102533 -0.32607527 33.01991823 -7 35 C-12.17937359 35.66459607 -17.31568034 35.65676145 -22.52764893 35.60127258 C-24.06831102 35.60345709 -25.60897127 35.60784257 -27.14962173 35.61421841 C-31.35273559 35.62532705 -35.55520481 35.60549869 -39.75823665 35.58032811 C-44.30203418 35.55863784 -48.84579841 35.56604956 -53.38963318 35.56983948 C-61.25199168 35.57245507 -69.11414193 35.55683228 -76.97644806 35.52865028 C-88.34384015 35.48793113 -99.71113205 35.47498446 -111.07858917 35.46871033 C-129.5236412 35.45778033 -147.96858235 35.42454131 -166.41357422 35.37719727 C-184.32600349 35.33126813 -202.2384026 35.29589264 -220.15087891 35.2746582 C-221.80841292 35.27268778 -221.80841292 35.27268778 -223.49943247 35.27067754 C-229.04327511 35.26415213 -234.58711795 35.25783364 -240.13096094 35.25161803 C-286.08738406 35.19982536 -332.0436863 35.11179539 -378 35 C-378 34.67 -378 34.34 -378 34 C-376.83857619 34.00138269 -376.83857619 34.00138269 -375.65368927 34.00279331 C-329.78424782 34.05638789 -283.91495736 34.06842449 -238.04549878 34.02634037 C-232.54042391 34.02132561 -227.03534879 34.0166588 -221.53027344 34.01220703 C-220.43429168 34.0113149 -219.33830992 34.01042277 -218.20911659 34.0095036 C-200.45280634 33.99588009 -182.69662518 34.01045642 -164.94033204 34.03541696 C-146.72669557 34.0603941 -128.51324943 34.05515339 -110.29962552 34.02174091 C-99.05672436 34.00207212 -87.81434065 34.00609772 -76.571472 34.04023629 C-68.86640703 34.06137672 -61.16172366 34.05321952 -53.45669489 34.02184123 C-49.00812209 34.00459559 -44.56053199 34.0004423 -40.11200905 34.03101921 C-36.04012895 34.05872257 -31.97005369 34.04968722 -27.89827599 34.01125896 C-26.42442777 34.00386416 -24.95043708 34.01002641 -23.47671984 34.03102028 C-15.66555928 34.37301315 -15.66555928 34.37301315 -8.83125329 31.27223206 C-7.26334111 29.23718609 -6.10052496 27.31586675 -5 25 C-4.40574219 23.87464844 -3.81148438 22.74929688 -3.19921875 21.58984375 C-1.74477008 17.23597297 -1.21254674 13.11716055 -0.8125 8.5625 C-0.6897168 7.32209961 -0.6897168 7.32209961 -0.56445312 6.05664062 C-0.36616145 4.03873118 -0.18164598 2.01947588 0 0 Z " fill="#B2B9CE" transform="translate(482,363)"/>
<path d="M0 0 C6.67016348 -0.72501777 11.45370374 1.31433924 17 5 C22.3828916 9.80938726 26.34547267 15.23445267 27.34765625 22.53125 C27.74087128 29.70994495 26.14422155 35.12401437 22 41 C17.70471289 45.77154279 13.13549711 49.10357362 7 51 C3.0625 51.1875 3.0625 51.1875 0 51 C0.38671875 50.52691406 0.7734375 50.05382812 1.171875 49.56640625 C9.16636579 39.41498602 11.26286823 30.79620561 10 18 C8.34980761 10.94496401 4.60458546 5.49480531 0 0 Z " fill="#F89659" transform="translate(172,98)"/>
<path d="M0 0 C1.77111844 0.47811177 3.54188483 0.9575278 5.3125 1.4375 C6.29863281 1.70433594 7.28476563 1.97117188 8.30078125 2.24609375 C10.21517526 2.78079425 12.11433615 3.37144538 14 4 C11.83192455 11.53844133 9.36461644 18.94013319 6.6875 26.3125 C6.32205078 27.37017578 5.95660156 28.42785156 5.58007812 29.51757812 C3.34729194 35.6297821 1.60772893 39.52064195 -4 43 C-7.59942109 43.57590737 -9.18357591 43.57354524 -12.1796875 41.46875 C-12.78039062 40.9840625 -13.38109375 40.499375 -14 40 C-11.57334561 31.28793422 -8.45432842 22.84655403 -5.3125 14.375 C-4.79594774 12.97536233 -4.27966971 11.57562342 -3.76367188 10.17578125 C-2.51226966 6.78268275 -1.25717674 3.39096389 0 0 Z " fill="#2FBF6A" transform="translate(246,177)"/>
<path d="M0 0 C-0.03255208 1.98567708 -0.06510417 3.97135417 -0.09765625 5.95703125 C-0.08263217 8.20305461 -0.08263217 8.20305461 1 11 C3.97 11.495 3.97 11.495 7 12 C4.80962826 18.72045875 2.44234339 25.36724003 0 32 C-6.06732052 30.96232949 -11.4373852 29.66038099 -17 27 C-16.4308633 21.81750813 -15.23365143 17.23467355 -13.3125 12.375 C-13.08111328 11.73304688 -12.84972656 11.09109375 -12.61132812 10.4296875 C-10.20016967 4.28532549 -6.92886841 0 0 0 Z " fill="#F49458" transform="translate(266,135)"/>
<path d="M0 0 C5.94 0 11.88 0 18 0 C18 5.94 18 11.88 18 18 C12.06 18 6.12 18 0 18 C0 12.06 0 6.12 0 0 Z " fill="#D1DAF9" transform="translate(247,446)"/>
<path d="M0 0 C1.11246094 -0.01933594 2.22492188 -0.03867187 3.37109375 -0.05859375 C7.21693878 0.53923039 8.87162902 1.66253931 11.5625 4.4375 C12.18288786 8.29769115 12.30762706 10.39878173 9.99609375 13.62109375 C6.62889558 16.13433155 4.22677038 16.00409869 0.0625 16 C-1.90203125 16.03287109 -1.90203125 16.03287109 -3.90625 16.06640625 C-7.4375 15.4375 -7.4375 15.4375 -9.90625 13.12890625 C-11.4375 10.4375 -11.4375 10.4375 -11.4375 6.8125 C-9.6070523 0.634739 -6.07505111 0.00702318 0 0 Z " fill="#070102" transform="translate(131.4375,297.5625)"/>
<path d="M0 0 C4.95 0 9.9 0 15 0 C15 5.94 15 11.88 15 18 C10.05 18 5.1 18 0 18 C0 12.06 0 6.12 0 0 Z " fill="#D3DCFB" transform="translate(349,479)"/>
<path d="M0 0 C-4.69896243 4.98374803 -8.94629535 9.34921049 -15.8125 10.8125 C-21.56866371 10.47323691 -26.2267298 6.04389409 -30 2 C-30 1.01 -30 0.02 -30 -1 C-19.44177707 -4.18738805 -10.43149815 -3.38973247 0 0 Z " fill="#E1E7F7" transform="translate(189,167)"/>
<path d="M0 0 C2.99028679 1.99352453 4.57809415 3.40255495 5.51171875 6.9375 C5.87594528 11.21109124 5.26563431 12.6825346 2.4375 16.0625 C-1 18 -1 18 -4.625 18.0625 C-8.39206021 16.87657364 -9.90469919 16.35248129 -12 13 C-12.76856455 8.68969982 -12.732948 5.2521195 -10.5 1.4375 C-6.99448385 -0.57817178 -3.88156853 -0.868549 0 0 Z " fill="#E3E9F9" transform="translate(243,297)"/>
<path d="M0 0 C0.33 0 0.66 0 1 0 C1.76646851 7.81797878 -0.96083411 13.87966848 -4 21 C-5.32 21 -6.64 21 -8 21 C-7.34129028 13.26016083 -4.35432759 6.42781692 0 0 Z " fill="#F3A567" transform="translate(257,141)"/>
</svg>
