<?xml version="1.0" encoding="UTF-8"?>
<svg version="1.1" xmlns="http://www.w3.org/2000/svg" width="512" height="512">
<path d="M0 0 C1.53793968 -0.01925285 1.53793968 -0.01925285 3.10694885 -0.03889465 C4.21110641 -0.04628159 5.31526398 -0.05366852 6.45288086 -0.0612793 C8.16984413 -0.07338692 8.16984413 -0.07338692 9.92149353 -0.08573914 C12.34657279 -0.09956903 14.77167142 -0.11029608 17.19677734 -0.11816406 C19.66493472 -0.12966194 22.13306766 -0.15007862 24.60107422 -0.1796875 C28.17684751 -0.22258432 31.75188142 -0.23856658 35.32788086 -0.2487793 C36.4178688 -0.26628738 37.50785675 -0.28379547 38.63087463 -0.30183411 C51.553535 -0.26573746 60.55779298 4.23267185 69.79272461 13.02075195 C75.28513342 18.79725088 79.85522461 26.05526675 79.85522461 34.17700195 C81.73056885 34.14558105 81.73056885 34.14558105 83.64379883 34.11352539 C88.32157756 34.0406403 92.999307 33.99502703 97.67749023 33.95727539 C99.69482896 33.93726979 101.71211051 33.91005635 103.72924805 33.87524414 C106.64378034 33.82623618 109.5575402 33.80392232 112.47241211 33.78637695 C113.36137177 33.76573181 114.25033142 33.74508667 115.16622925 33.72381592 C125.60194357 33.72015036 133.18659445 37.61085648 140.64819336 44.73168945 C144.89487625 49.43686378 147.85522461 53.75733952 147.85522461 60.17700195 C149.80428711 60.51731445 149.80428711 60.51731445 151.79272461 60.86450195 C161.26152018 63.00165957 169.8870218 68.6825673 175.58178711 76.56762695 C181.42451535 85.95053043 183.99843193 94.77112244 184.01635742 105.84375 C184.02132233 106.58773544 184.02628723 107.33172089 184.03140259 108.09825134 C184.04593517 110.5450841 184.05281205 112.99185198 184.05834961 115.4387207 C184.06117699 116.28002848 184.06400436 117.12133625 184.06691742 117.9881382 C184.08187573 122.4422906 184.09112579 126.89641091 184.09545898 131.35058594 C184.10093185 135.9253944 184.12494442 140.49990347 184.15343094 145.07461834 C184.17216157 148.61534959 184.17726848 152.1560103 184.17879486 155.69678688 C184.18179955 157.3819015 184.18975317 159.06701553 184.20298004 160.75208092 C184.22025691 163.12270496 184.21810837 165.49261786 184.21166992 167.86328125 C184.2208847 168.54366455 184.23009949 169.22404785 184.23959351 169.92504883 C184.18888175 175.95997678 182.60531011 181.42972529 180.85522461 187.17700195 C182.01010077 187.17285388 182.01010077 187.17285388 183.18830776 187.16862202 C201.94310913 187.10229888 220.69788701 187.05269059 239.45278072 187.02156544 C248.52259985 187.00611254 257.59234058 186.98505323 266.66210938 186.95068359 C274.56955744 186.92073289 282.47694871 186.90141549 290.38445193 186.89473647 C294.56939608 186.8908338 298.75417778 186.88169502 302.93906975 186.85981178 C306.88298581 186.83935691 310.82667344 186.83318622 314.77063751 186.83767891 C316.2133337 186.83685772 317.65603802 186.83094579 319.09868813 186.81938553 C329.77884515 186.73804513 339.82647693 187.36794637 347.85522461 195.17700195 C352.75235481 201.65999038 354.00328738 206.80111631 353.97547913 214.88981628 C353.97676076 216.24123347 353.97676076 216.24123347 353.97806829 217.61995202 C353.97972066 220.65095153 353.97420565 223.68189618 353.96875 226.71289062 C353.96846805 228.88079324 353.96862601 231.04869595 353.9691925 233.21659851 C353.96948017 239.11293535 353.96358834 245.00925197 353.95661855 250.9055841 C353.95037997 257.06354531 353.94978081 263.22150694 353.94859314 269.37947083 C353.94548132 281.04539503 353.93726993 292.7113099 353.92724365 304.37722999 C353.9160779 317.6563688 353.9105709 330.935507 353.90554821 344.21464956 C353.8950872 371.53543887 353.87749063 398.85621989 353.85522461 426.17700195 C354.96671875 426.32177979 356.07821289 426.46655762 357.22338867 426.61572266 C360.4794232 427.11892401 362.03105437 427.47064814 364.60522461 429.36450195 C365.15694336 429.74993164 365.70866211 430.13536133 366.27709961 430.5324707 C371.05849035 435.51505858 371.31178696 440.84044429 371.28881836 447.3449707 C371.29406021 448.22043045 371.29930206 449.0958902 371.30470276 449.99787903 C371.31110656 451.84606877 371.30980728 453.69429935 371.30126953 455.54248047 C371.29280264 458.33873159 371.32147301 461.13290764 371.35327148 463.92895508 C371.40656226 477.34458814 369.99336986 487.7776599 360.85522461 498.17700195 C360.3537793 498.78286133 359.85233398 499.3887207 359.33569336 500.01293945 C353.86858359 506.10524182 345.93370048 510.62929602 337.85522461 512.17700195 C335.47293515 512.27197625 333.08811807 512.30792701 330.70393848 512.31122303 C329.61712407 512.31475138 329.61712407 512.31475138 328.5083538 512.318351 C326.06763207 512.32503604 323.62696364 512.32458293 321.18623352 512.32417297 C319.42378015 512.3274719 317.66132754 512.33119753 315.89887589 512.33531445 C311.04541408 512.34533917 306.19196464 512.349052 301.33849394 512.35170376 C296.10793572 512.35560537 290.8773873 512.36518375 285.64683533 512.37391663 C273.01060598 512.39368422 260.37437583 512.40374724 247.73813489 512.41264442 C241.78951053 512.41702649 235.84088707 512.42239348 229.89226341 512.42763329 C210.1215766 512.44464522 190.35089034 512.45914013 170.58019733 512.46638203 C165.44897269 512.46829196 160.31774806 512.47021229 155.18652344 512.47216797 C153.91116312 512.47265171 152.63580279 512.47313545 151.32179519 512.47363385 C130.6546168 512.48193692 109.98749624 512.50727869 89.32034311 512.53974865 C68.10870908 512.57280277 46.89710446 512.59082926 25.68544453 512.59402627 C13.77305623 512.5961928 1.86075228 512.60496248 -10.05161095 512.63048744 C-20.19509754 512.65217185 -30.33847929 512.66025594 -40.48198643 512.65052066 C-45.6577672 512.64596955 -50.83333156 512.64790947 -56.00908279 512.6672821 C-60.74845097 512.68486828 -65.48744412 512.68395297 -70.22681604 512.66838481 C-71.94017417 512.66600184 -73.65355796 512.67036793 -75.3668768 512.68221346 C-91.73273736 512.78834351 -91.73273736 512.78834351 -99.14477539 508.17700195 C-99.94270508 507.71938477 -100.74063477 507.26176758 -101.56274414 506.7902832 C-109.76225936 500.76282499 -114.17214027 493.09508858 -116.14477539 483.17700195 C-116.58804072 477.04759542 -116.56594581 470.93354687 -116.54882812 464.79077148 C-116.55453796 462.93686513 -116.56150458 461.0829623 -116.56962585 459.22906494 C-116.58750532 454.21656346 -116.58639861 449.20423755 -116.58068347 444.19171381 C-116.57758384 439.99709636 -116.58369272 435.80251224 -116.58972222 431.60789955 C-116.60374894 421.70691435 -116.60222178 411.80601547 -116.59082031 401.9050293 C-116.57934283 391.71323608 -116.59341286 381.52170612 -116.62021679 371.32994759 C-116.64241604 362.55848697 -116.64900159 353.78710872 -116.64314038 345.01562202 C-116.63977948 339.78612897 -116.64212798 334.55680461 -116.6593914 329.32733536 C-116.67492575 324.40730072 -116.67083331 319.48765424 -116.65208626 314.56763458 C-116.64841819 312.76982825 -116.6514564 310.97199273 -116.66197205 309.17421341 C-116.73789249 295.11297115 -115.70389405 283.74013067 -105.36743164 273.2355957 C-96.67850673 265.18803256 -87.16456238 263.70572735 -75.66821289 263.8840332 C-74.61695221 263.88827805 -73.56569153 263.89252289 -72.48257446 263.89689636 C-69.16136856 263.91354056 -65.84079445 263.95116581 -62.51977539 263.98950195 C-60.25285714 264.00456722 -57.98592927 264.01825238 -55.71899414 264.03051758 C-50.19382189 264.06083125 -44.66999654 264.11958049 -39.14477539 264.17700195 C-39.14477539 255.92700195 -39.14477539 247.67700195 -39.14477539 239.17700195 C-42.06063477 239.2234082 -44.97649414 239.26981445 -47.98071289 239.31762695 C-50.83372257 239.34890432 -53.68671247 239.37314542 -56.53979492 239.39672852 C-58.50863321 239.41672982 -60.47741295 239.44393998 -62.44604492 239.47875977 C-65.29108197 239.52778727 -68.13532754 239.55008577 -70.98071289 239.56762695 C-72.28134171 239.59859467 -72.28134171 239.59859467 -73.60824585 239.63018799 C-83.90639335 239.63389143 -91.56376468 235.70661687 -98.93774414 228.69262695 C-102.80391264 224.28587915 -106.14477539 219.16494025 -106.14477539 213.17700195 C-107.42352539 212.97075195 -108.70227539 212.76450195 -110.01977539 212.55200195 C-121.644664 209.97072748 -130.26756933 202.02066011 -136.53149414 192.28637695 C-140.09546061 185.41732779 -141.59423597 179.0486684 -141.54882812 171.34350586 C-141.55569138 170.5113002 -141.56255463 169.67909454 -141.56962585 168.82167053 C-141.58777264 166.09878981 -141.58407344 163.37649206 -141.57836914 160.65356445 C-141.5829371 158.74221614 -141.5882445 156.83086947 -141.59425354 154.91952515 C-141.60316114 150.92357693 -141.60078877 146.92782882 -141.59082031 142.93188477 C-141.57934005 137.83576548 -141.59953983 132.74034011 -141.62873745 127.6443119 C-141.64717089 123.69951053 -141.64679269 119.75487321 -141.64109993 115.81003952 C-141.64094755 113.93234662 -141.6469219 112.05464201 -141.6593914 110.17699051 C-141.74749717 94.73558077 -139.88201386 83.10108543 -129.14477539 71.17700195 C-123.18900433 65.85335253 -114.43237574 60.17700195 -106.14477539 60.17700195 C-106.10352539 59.37262695 -106.06227539 58.56825195 -106.01977539 57.73950195 C-103.97995464 49.43451747 -98.01072474 43.01513748 -91.14477539 38.17700195 C-84.36578755 34.62454937 -78.33706548 33.61045326 -70.76196289 33.78637695 C-69.82168243 33.79203674 -68.88140198 33.79769653 -67.91262817 33.80352783 C-64.94779693 33.82568545 -61.98423321 33.87584068 -59.01977539 33.92700195 C-56.99375134 33.94709368 -54.9677081 33.96533973 -52.94165039 33.98168945 C-48.00888007 34.02548226 -43.07704162 34.09436313 -38.14477539 34.17700195 C-38.0138147 33.55921875 -37.882854 32.94143555 -37.7479248 32.30493164 C-37.57273315 31.49443359 -37.3975415 30.68393555 -37.21704102 29.84887695 C-36.95872498 28.64376465 -36.95872498 28.64376465 -36.69519043 27.41430664 C-34.47418838 18.38646776 -27.44619305 11.47288 -20.14477539 6.17700195 C-13.60388695 2.54702546 -7.50659924 0.08215484 0 0 Z " fill="#000101" transform="translate(141.144775390625,-0.177001953125)"/>
<path d="M0 0 C1.21355935 -0.00779995 2.42711869 -0.01559991 3.67745256 -0.02363622 C7.0432631 -0.0401345 10.4076794 -0.03419191 13.77340531 -0.01870513 C17.4040344 -0.0073989 21.03454106 -0.02485065 24.66514587 -0.03860474 C31.77630918 -0.06084962 38.88720877 -0.0560305 45.99838245 -0.04154153 C51.77722838 -0.03025416 57.55600034 -0.0287162 63.33485413 -0.03416061 C64.15701535 -0.03492678 64.97917657 -0.03569294 65.82625178 -0.03648233 C67.49640447 -0.03808094 69.16655715 -0.039702 70.8367098 -0.04134528 C86.50144464 -0.05560644 102.16603323 -0.03920434 117.83074409 -0.01234345 C131.27472784 0.00999569 144.71849573 0.00611566 158.16247559 -0.01693726 C173.77076189 -0.04368882 189.37891998 -0.05423311 204.98722601 -0.03887594 C206.65126894 -0.03728317 208.31531189 -0.03571132 209.97935486 -0.03416061 C210.79811711 -0.03338924 211.61687936 -0.03261786 212.46045259 -0.03182311 C218.23303015 -0.02750417 224.00552645 -0.03479682 229.77809143 -0.04655838 C236.81202849 -0.06057481 243.84568653 -0.05680172 250.87959158 -0.03015466 C254.46917429 -0.01700462 258.05829165 -0.01188362 261.64787102 -0.02840042 C265.53691408 -0.04602465 269.42519346 -0.02499601 273.31420898 0 C274.45184582 -0.01115361 275.58948266 -0.02230722 276.76159334 -0.03379881 C281.45840179 0.0250048 284.31517206 0.11249817 288.35970592 2.62213612 C290.79675909 6.70710107 290.84050102 9.796533 290.75837708 14.47434998 C290.76265717 15.36260971 290.76693726 16.25086945 290.77134705 17.16604614 C290.77962369 20.15202986 290.75200904 23.13661148 290.72473145 26.12246704 C290.72319983 28.29574635 290.72386712 30.46902815 290.72655773 32.64230633 C290.72768729 38.46624463 290.69869308 44.28967004 290.66350555 50.11348724 C290.63504624 55.57682424 290.63369084 61.04003604 290.63012695 66.50344849 C290.6038826 82.48483975 290.5340769 98.46613544 290.46960449 114.44741821 C290.36647949 150.14929321 290.26335449 185.85116821 290.15710449 222.63491821 C188.84710449 222.63491821 87.53710449 222.63491821 -16.84289551 222.63491821 C-16.94602051 186.93304321 -17.04914551 151.23116821 -17.15539551 114.44741821 C-17.20091553 103.16401245 -17.24643555 91.88060669 -17.29333496 80.25527954 C-17.31591797 66.50344849 -17.31591797 66.50344849 -17.32011414 60.070755 C-17.32478266 55.56668345 -17.34356018 51.06290494 -17.37077332 46.55891418 C-17.40500052 40.81823027 -17.4153642 35.07797415 -17.40825689 29.33719766 C-17.40974363 27.22758098 -17.41969933 25.11794976 -17.43897116 23.00842059 C-17.46376184 20.16318524 -17.45787807 17.31962194 -17.44416809 14.47434998 C-17.45873141 13.64481654 -17.47329473 12.81528311 -17.48829937 11.9606123 C-17.43781848 8.0755886 -17.07191067 6.01879121 -15.04549694 2.62213612 C-10.15444581 -0.41276678 -5.65088804 -0.05540238 0 0 Z " fill="#00BBD3" transform="translate(187.8428955078125,204.36508178710938)"/>
<path d="M0 0 C1.78343811 -0.01073296 1.78343811 -0.01073296 3.60290527 -0.02168274 C4.91925964 -0.02437164 6.23561401 -0.02706055 7.59185791 -0.02983093 C8.98289155 -0.03609285 10.37392351 -0.0427394 11.76495361 -0.04974365 C15.55435962 -0.06718096 19.34375298 -0.07771322 23.1331892 -0.08594918 C25.49964558 -0.09109446 27.86609799 -0.09717046 30.23255157 -0.10346031 C37.63344175 -0.12252159 45.0343219 -0.13674967 52.43523192 -0.14507228 C60.98394539 -0.15484361 69.53239984 -0.18115627 78.08102202 -0.22157317 C84.68404034 -0.25172191 91.28698438 -0.26654004 97.8900702 -0.26985329 C101.83570214 -0.27220561 105.78105768 -0.28118876 109.72661591 -0.30631447 C113.4399695 -0.32957818 117.15286442 -0.33383559 120.86627197 -0.32355309 C122.87756268 -0.32282082 124.88882999 -0.34192504 126.90002441 -0.36161804 C128.10026245 -0.35467422 129.30050049 -0.34773041 130.53710938 -0.34057617 C131.57835842 -0.34296453 132.61960747 -0.34535288 133.69240952 -0.34781361 C137.25781294 0.27577288 138.93395542 1.66966941 141.52252197 4.14717102 C143.14902009 7.40016726 142.67881955 10.98152321 142.68365479 14.55659485 C142.68861969 15.42667679 142.69358459 16.29675873 142.69869995 17.19320679 C142.71334046 20.08021325 142.72012702 22.96716474 142.72564697 25.85420227 C142.73139725 27.85718793 142.737155 29.86017356 142.74291992 31.86315918 C142.75343555 36.06728879 142.75927441 40.27139924 142.76275635 44.47554016 C142.76823961 49.86264082 142.79226174 55.24948854 142.8207283 60.6365099 C142.8393532 64.77577452 142.84456022 68.91497824 142.84609222 73.05428123 C142.84912005 75.04020761 142.85715295 77.02613289 142.8702774 79.0120182 C142.8873333 81.79139552 142.88545865 84.57015517 142.87896729 87.3495636 C142.88818207 88.1700116 142.89739685 88.99045959 142.90689087 89.83576965 C142.87329706 94.42776453 142.50804014 97.42670852 139.52252197 101.14717102 C136.09292809 103.43356694 134.83953996 103.40324604 130.80453491 103.42132568 C129.61282684 103.43130081 128.42111877 103.44127594 127.19329834 103.45155334 C125.88413452 103.45221802 124.5749707 103.45288269 123.22613525 103.4535675 C121.83480382 103.46118821 120.4434766 103.46961555 119.05215454 103.47879028 C115.27111722 103.50075101 111.49016077 103.50953626 107.70906687 103.51461673 C105.34694743 103.51825843 102.98484923 103.52449751 100.62273788 103.53161812 C92.38245461 103.55611803 84.14223434 103.56916569 75.9019165 103.57270813 C68.22021206 103.57634391 60.53890706 103.60624062 52.85732472 103.64811271 C46.26274689 103.68279968 39.66830153 103.69825629 33.07363307 103.69895416 C29.13468755 103.69974753 25.19614881 103.70851289 21.25729752 103.73695183 C17.55202851 103.76310572 13.84750429 103.76535352 10.14218521 103.74929619 C8.13567689 103.74661376 6.12918325 103.76868359 4.12280273 103.79148865 C-5.68060341 103.71154784 -5.68060341 103.71154784 -8.76217651 100.73471069 C-11.69351329 96.31277662 -11.64359757 92.92811785 -11.67034912 87.73774719 C-11.67852661 86.86766525 -11.6867041 85.99758331 -11.69512939 85.10113525 C-11.7199959 82.21414381 -11.73650219 79.32720156 -11.75091553 76.44013977 C-11.7562392 75.45528406 -11.76156288 74.47042835 -11.76704788 73.45572853 C-11.79378432 68.24342756 -11.81315806 63.03115059 -11.82757568 57.81880188 C-11.84422908 52.43153121 -11.88901134 47.04487163 -11.93994713 41.65783215 C-11.9735808 37.51856777 -11.98514884 33.37944917 -11.99080276 29.24006081 C-11.99752547 27.25410095 -12.01277389 25.26815102 -12.03669357 23.28232384 C-12.06826627 20.50263338 -12.06839393 17.72460068 -12.06097412 14.94477844 C-12.07737946 14.12433044 -12.09378479 13.30388245 -12.11068726 12.45857239 C-12.06331874 8.12369392 -11.87772034 6.63046903 -9.00350952 3.15982056 C-8.16991913 2.49564621 -7.33632874 1.83147186 -6.47747803 1.14717102 C-4.73968645 -0.59062055 -2.3659477 0.00972438 0 0 Z " fill="#A2C200" transform="translate(96.47747802734375,84.85282897949219)"/>
<path d="M0 0 C0.94682648 -0.00029205 1.89365295 -0.00058411 2.86917114 -0.00088501 C5.9912439 0.00050565 9.11307647 0.01605457 12.23510742 0.03173828 C14.40272389 0.03546935 16.57034205 0.03831588 18.73796082 0.04031372 C24.43765943 0.0479428 30.13725579 0.06758515 35.83691406 0.08972168 C41.65517799 0.11019568 47.47345847 0.11931877 53.29174805 0.12939453 C64.70390953 0.15083166 76.11596834 0.18600798 87.52807617 0.22705078 C87.52807617 6.16705078 87.52807617 12.10705078 87.52807617 18.22705078 C84.14537476 18.23321411 84.14537476 18.23321411 80.69433594 18.23950195 C73.21833344 18.25674914 65.74267049 18.30133347 58.26687717 18.35914135 C53.73709641 18.39333814 49.2076503 18.4185099 44.67773438 18.42260742 C40.30076097 18.42690615 35.92454152 18.45549818 31.54780388 18.50048256 C29.88342631 18.51340752 28.21895828 18.51778306 26.55453682 18.51320457 C16.71193046 18.49244788 8.67674226 18.71098093 0.99928284 25.59855652 C-6.21136879 33.31691648 -5.93914449 42.52625504 -5.94067383 52.43798828 C-5.94779047 53.81507673 -5.95549162 55.19216228 -5.96374512 56.56924438 C-5.97713391 59.44549821 -5.97878431 62.3214778 -5.97290039 65.19775391 C-5.96701059 68.85826269 -5.99758964 72.51744223 -6.03801727 76.17769432 C-6.06404449 79.01930657 -6.06675826 81.86060511 -6.06312561 84.7023201 C-6.06561052 86.69960081 -6.09019515 88.69681545 -6.11535645 90.69393921 C-6.05628405 98.53221952 -5.15502744 104.76205144 -0.47192383 111.22705078 C5.70082216 117.05981939 11.46811004 119.51898858 19.98046875 119.54589844 C20.71271667 119.55594406 21.4449646 119.56598969 22.19940186 119.57633972 C24.60712944 119.60710149 27.01474619 119.62418711 29.42260742 119.64111328 C31.09698943 119.65983059 32.77136206 119.67940443 34.44572449 119.69979858 C38.84327663 119.75106639 43.24085933 119.79072069 47.6385498 119.82794189 C52.12979663 119.86801514 56.62091689 119.91909232 61.11206055 119.96923828 C69.91731891 120.06593427 78.72262975 120.14934173 87.52807617 120.22705078 C87.52807617 128.80705078 87.52807617 137.38705078 87.52807617 146.22705078 C83.56807617 147.21705078 83.56807617 147.21705078 79.52807617 148.22705078 C75.76378923 150.36353797 73.17153852 153.21463184 71.52807617 157.22705078 C71.21116166 159.19635763 71.21116166 159.19635763 71.22167969 161.25439453 C71.20569229 162.03621094 71.1897049 162.81802734 71.17323303 163.62353516 C71.16518898 164.88133789 71.16518898 164.88133789 71.15698242 166.16455078 C71.14795395 167.04046875 71.13892548 167.91638672 71.12962341 168.81884766 C71.11512402 170.67477001 71.10623494 172.53074344 71.10253906 174.38671875 C71.09073274 177.18987773 71.04162375 179.9907684 70.9909668 182.79345703 C70.89961287 192.97062458 71.43847766 201.12684473 76.52807617 210.22705078 C77.19893424 211.55828017 77.86626785 212.89129932 78.52807617 214.22705078 C66.93180714 214.3430703 55.33567695 214.43183016 43.73894501 214.48611164 C38.35366771 214.51216852 32.96878847 214.54749552 27.58374023 214.60424805 C22.38361212 214.6587067 17.18386608 214.68850072 11.98347473 214.701437 C10.00277189 214.71065199 8.02208919 214.72864692 6.04154968 214.75570107 C3.25991166 214.79217565 0.479838 214.79698847 -2.30200195 214.79467773 C-3.52120834 214.8216423 -3.52120834 214.8216423 -4.76504517 214.84915161 C-10.60676015 214.79688883 -15.20189122 213.35416502 -19.47192383 209.22705078 C-22.96512566 204.17258462 -24.0568991 200.38411131 -23.9798584 194.21250916 C-23.98921834 193.04607536 -23.98921834 193.04607536 -23.99876738 191.85607725 C-24.01464693 189.26579816 -24.00211344 186.67646672 -23.98950195 184.08618164 C-23.99492528 182.2229813 -24.00204912 180.35978525 -24.01074219 178.49659729 C-24.0289521 173.44707591 -24.02191793 168.39788204 -24.00922585 163.34835505 C-23.99908764 158.06072413 -24.00849367 152.77312094 -24.01477051 147.48548889 C-24.02204387 138.60754367 -24.01246666 129.72973163 -23.9934082 120.85180664 C-23.9716334 110.59007887 -23.97869656 100.32866892 -24.00071383 90.06694883 C-24.01886864 81.25232185 -24.02142593 72.43779052 -24.01095915 63.62315089 C-24.00472555 58.3602808 -24.00388511 53.0975601 -24.0171051 47.83469963 C-24.02866435 42.88762094 -24.02063638 37.94095193 -23.99752808 32.99391747 C-23.99224169 31.17908661 -23.99375356 29.36422124 -24.00257874 27.54940414 C-24.01352067 25.07067448 -23.99978806 22.59325508 -23.9798584 20.11460876 C-23.98878129 19.39758048 -23.99770417 18.68055219 -24.00689745 17.94179577 C-23.92869284 12.92252135 -22.58422923 10.11289063 -19.47192383 6.22705078 C-13.30384291 0.53343763 -8.06007493 -0.06518947 0 0 Z " fill="#7E8D93" transform="translate(66.471923828125,280.77294921875)"/>
<path d="M0 0 C33.66 0 67.32 0 102 0 C102.495 6.93 102.495 6.93 103 14 C106.24501175 22.39885395 110.01735152 27.45415953 118.04165649 31.55410767 C122.47454012 33.41674277 126.61902773 33.4221839 131.37255859 33.38818359 C132.28571335 33.39344055 133.1988681 33.39869751 134.13969421 33.40411377 C137.14278535 33.41726123 140.14534144 33.40859275 143.1484375 33.3984375 C145.24679668 33.40046009 147.34515518 33.40337307 149.44351196 33.40713501 C153.83643298 33.41155156 158.22917066 33.40515007 162.62207031 33.39111328 C168.23623485 33.37404308 173.8499684 33.38385329 179.46411705 33.40183067 C183.79657194 33.41270458 188.12892578 33.40920526 192.46138382 33.4014473 C194.53051429 33.39945416 196.59965411 33.40187322 198.66877365 33.40888596 C201.56897801 33.41655749 204.46849852 33.40481571 207.36865234 33.38818359 C208.21361771 33.39425629 209.05858307 33.40032898 209.92915344 33.40658569 C217.10593749 33.33084746 223.20946501 31.82458057 229.25 27.875 C237.67034785 19.07190906 237.16488941 13.36176943 238 0 C271.99 0 305.98 0 341 0 C341 35.91935484 341 35.91935484 332.125 44.9375 C324.85352991 51.12889817 317.94630528 51.4370467 308.76042175 51.39440918 C307.52826362 51.40050028 306.2961055 51.40659139 305.02660924 51.41286707 C301.61829162 51.426611 298.21045706 51.42695594 294.80214822 51.4214921 C291.12171697 51.41881757 287.44134692 51.43336168 283.76094055 51.44558716 C276.55486003 51.46662595 269.34885998 51.47118289 262.14275237 51.46939927 C256.2839178 51.46809079 250.42510831 51.47190018 244.56627846 51.47932434 C242.87756278 51.48142358 241.18884711 51.48352118 239.50013143 51.48561716 C238.65956082 51.48666069 237.81899022 51.48770422 236.95294777 51.48877937 C221.06061817 51.5076757 205.16833475 51.50663349 189.27599857 51.49981004 C174.74637524 51.4942358 160.2169283 51.51505599 145.68734618 51.54817051 C130.75959728 51.58192775 115.83193283 51.59707326 100.90414506 51.59245348 C92.52686897 51.59021074 84.14975587 51.59542315 75.77251244 51.62034607 C68.6399758 51.64138557 61.50769154 51.6449251 54.37514444 51.62604648 C50.73833438 51.61690456 47.10199451 51.61569735 43.46522141 51.63640213 C39.51676501 51.65863208 35.56900729 51.64185562 31.62052917 51.62145996 C30.47936604 51.63397781 29.33820291 51.64649566 28.16245908 51.65939283 C20.02092601 51.56936338 13.2577713 49.84057279 7.08640832 44.27391195 C-4.37512573 32.34227906 0 15.45073063 0 0 Z " fill="#9D9D9D" transform="translate(154,444)"/>
<path d="M0 0 C0.79870614 -0.00297112 1.59741228 -0.00594224 2.42032164 -0.0090034 C5.10563897 -0.01769823 7.79091176 -0.01919931 10.47624207 -0.02069092 C12.39796036 -0.02531853 14.31967774 -0.03034311 16.24139404 -0.03573608 C21.46872493 -0.04886737 26.69604296 -0.05530643 31.92338777 -0.05974674 C35.18804933 -0.06267622 38.45270738 -0.06678078 41.71736717 -0.07125092 C51.92836072 -0.0849276 62.13934622 -0.09459349 72.35034829 -0.09845281 C84.14376445 -0.1029345 95.93706476 -0.12048686 107.73044568 -0.1494534 C116.84220423 -0.17105781 125.95393016 -0.18115642 135.06571406 -0.18249393 C140.50972391 -0.18354282 145.95362488 -0.18946859 151.3976078 -0.20731354 C156.51854465 -0.22377279 161.63929053 -0.22596013 166.76024437 -0.21717453 C168.63958624 -0.21640301 170.51893829 -0.22076194 172.39825439 -0.23063278 C174.96454289 -0.24332114 177.53015186 -0.23749255 180.09643555 -0.22705078 C180.839538 -0.23510719 181.58264046 -0.24316359 182.34826118 -0.25146413 C187.90605666 -0.19860212 192.02086052 1.05279642 196.10197449 4.89434814 C196.58021667 5.49118408 197.05845886 6.08802002 197.55119324 6.70294189 C198.04232605 7.30235596 198.53345886 7.90177002 199.03947449 8.51934814 C201.25686134 11.51679291 201.3626367 13.44486649 201.35894775 17.12643433 C201.36100975 18.7082122 201.36100975 18.7082122 201.3631134 20.32194519 C201.35951813 21.48359695 201.35592285 22.64524872 201.35221863 23.84210205 C201.35236465 25.06159042 201.35251068 26.2810788 201.35266113 27.53752136 C201.35208279 30.88649371 201.3470587 34.23540482 201.34008718 37.58436632 C201.33384672 41.0824163 201.33324929 44.58046704 201.33206177 48.07852173 C201.3289505 54.70479051 201.32073985 61.33104283 201.31071228 67.95730436 C201.29954481 75.50013119 201.29403909 83.04295879 201.28901684 90.58579183 C201.27855708 106.10401831 201.26076075 121.62222734 201.23869324 137.14044189 C195.29869324 137.14044189 189.35869324 137.14044189 183.23869324 137.14044189 C183.2596405 134.19380615 183.28058777 131.24717041 183.3021698 128.21124268 C183.36858472 118.45241143 183.41268651 108.69356996 183.44594193 98.93457222 C183.46677579 93.02032597 183.49501691 87.10631219 183.54045105 81.19219971 C183.58405823 75.47985437 183.60786192 69.767732 183.61820221 64.055233 C183.62556688 61.8808326 183.63994819 59.70644376 183.66161346 57.53213882 C183.69084478 54.47569085 183.69464097 51.42015271 183.6927948 48.36358643 C183.71436646 47.02893089 183.71436646 47.02893089 183.7363739 45.66731262 C183.68880928 38.34275336 181.89561215 31.63938222 177.41447449 25.73809814 C176.79959167 25.23149658 176.18470886 24.72489502 175.55119324 24.20294189 C174.64820496 23.41596924 174.64820496 23.41596924 173.72697449 22.61309814 C165.55194915 17.77481784 157.35319001 17.7044017 148.04924011 17.73638916 C146.63395654 17.73067696 145.21867758 17.72370942 143.80340576 17.71559143 C139.98314113 17.6977406 136.1631072 17.69881281 132.34281349 17.70453382 C129.14457615 17.7076368 125.94638241 17.70152107 122.7481513 17.69549507 C115.19987665 17.68147857 107.65171524 17.68298767 100.10343933 17.69439697 C92.33425522 17.70588116 84.56541619 17.69179107 76.79627752 17.6650005 C70.1072388 17.64280404 63.41830809 17.63621481 56.72923517 17.64207691 C52.74226769 17.64543758 48.75552147 17.64309072 44.76858521 17.62582588 C41.01895753 17.61029508 37.26983924 17.61437942 33.52023125 17.63313103 C31.50027536 17.63853977 29.48029625 17.6243505 27.46038818 17.60943604 C18.64959289 17.68049172 12.06827514 19.14220566 4.92619324 24.39044189 C-1.4564958 30.92156556 -2.91079297 38.06909746 -2.92243958 46.96710205 C-2.92740448 47.86991913 -2.93236938 48.77273621 -2.93748474 49.70291138 C-2.9521098 52.69511678 -2.95891032 55.68726909 -2.96443176 58.67950439 C-2.97018463 60.76115927 -2.97594235 62.84281414 -2.98170471 64.92446899 C-2.99221685 69.29415127 -2.99805757 73.66381515 -3.00154114 78.0335083 C-3.00701453 83.61860006 -3.03101702 89.20344663 -3.05951309 94.78846169 C-3.07818978 99.09173275 -3.08334784 103.39494547 -3.08487701 107.69825363 C-3.08789466 109.75623281 -3.09589306 111.81421117 -3.10906219 113.87215042 C-3.12622152 116.76075788 -3.12421792 119.64877604 -3.11775208 122.53741455 C-3.12696686 123.37931335 -3.13618164 124.22121216 -3.14567566 125.08862305 C-3.08931855 133.17377862 -1.28584227 140.60299181 4.41523743 146.58363342 C12.637896 153.60387732 21.55350825 153.87991625 31.87150574 153.84747314 C33.35939029 153.86061362 34.84725709 153.87592499 36.33509827 153.89329529 C40.2181605 153.93288465 44.10075335 153.94331867 47.98399353 153.94732666 C51.9596609 153.9567078 55.93505809 153.99415196 59.91056824 154.02911377 C67.68666064 154.09342384 75.46232438 154.12428205 83.23869324 154.14044189 C82.90869324 159.75044189 82.57869324 165.36044189 82.23869324 171.14044189 C70.62505814 171.23088806 59.0116578 171.30424175 47.3977499 171.34769058 C42.00467254 171.3685461 36.61184909 171.39682686 31.21891785 171.44219971 C26.01232477 171.48572962 20.80597559 171.50959432 15.59921455 171.51995087 C13.61491622 171.52732937 11.63063091 171.54173795 9.64643669 171.56336212 C6.86236321 171.59249095 4.0792916 171.59639392 1.29508972 171.59454346 C0.47869019 171.60892456 -0.33770935 171.62330566 -1.17884827 171.63812256 C-6.83977113 171.59753367 -10.08981822 170.36938233 -14.76130676 167.14044189 C-19.20143877 162.34029919 -21.00799093 158.73974828 -21.0287323 152.20176697 C-21.03726227 150.98633209 -21.04579224 149.77089722 -21.05458069 148.51863098 C-21.05388169 147.174713 -21.05295863 145.83079513 -21.05183411 144.48687744 C-21.05781966 143.0690882 -21.06462526 141.65130221 -21.07218933 140.23352051 C-21.08985551 136.38421914 -21.09454501 132.5350067 -21.0958209 128.68566871 C-21.0972429 126.2794736 -21.10151343 123.87330108 -21.10681534 121.46711159 C-21.12531877 113.06890046 -21.1334857 104.67075281 -21.13191223 96.27252197 C-21.13071125 88.45058978 -21.15180409 80.62893372 -21.18339956 72.80707139 C-21.20957571 66.08675392 -21.22027894 59.36652656 -21.21900141 52.64615852 C-21.2184921 48.63457363 -21.2241578 44.62323406 -21.24535751 40.61170006 C-21.26476225 36.83672334 -21.2648495 33.06222533 -21.25032425 29.28723145 C-21.24823768 27.90497448 -21.25292811 26.52268738 -21.26504517 25.14048195 C-21.33517599 16.5834868 -21.11175427 10.88445067 -15.16365051 4.39825439 C-10.02420131 0.42374701 -6.30721159 -0.00728878 0 0 Z " fill="#7E8C92" transform="translate(71.76130676269531,50.85955810546875)"/>
<path d="M0 0 C1.03985046 -0.0010952 1.03985046 -0.0010952 2.10070801 -0.00221252 C4.37939234 0.00125558 6.65600154 0.04007375 8.93432617 0.0793457 C10.51900618 0.08867675 12.10370066 0.09579149 13.68840027 0.1007843 C17.84968218 0.11983159 22.01008485 0.16891156 26.17102051 0.2243042 C31.16857484 0.28456314 36.16642396 0.30742386 41.16423798 0.33657074 C48.74836756 0.38497937 56.33056983 0.48080677 63.91479492 0.56762695 C63.91479492 23.00762695 63.91479492 45.44762695 63.91479492 68.56762695 C46.39615831 68.768171 46.39615831 68.768171 38.9206543 68.81176758 C33.82232604 68.84164166 28.72444735 68.8769571 23.62646484 68.94482422 C19.51562772 68.99920658 15.40527274 69.02906036 11.29410362 69.04201317 C9.72677712 69.05124203 8.15947661 69.06926445 6.59235573 69.09627724 C4.39432684 69.13265354 2.19828214 69.1375692 0 69.13525391 C-1.25020432 69.14635696 -2.50040863 69.15746002 -3.78849792 69.16889954 C-8.06491884 68.38894107 -9.51615591 67.03098159 -12.08520508 63.56762695 C-12.72012329 60.7980957 -12.72012329 60.7980957 -12.73217773 57.75512695 C-12.74793854 56.61043945 -12.76369934 55.46575195 -12.77993774 54.28637695 C-12.76981659 53.05918945 -12.75969543 51.83200195 -12.74926758 50.56762695 C-12.75405121 49.29918945 -12.75883484 48.03075195 -12.76376343 46.72387695 C-12.76716442 44.04331871 -12.76047786 41.36504553 -12.73706055 38.68481445 C-12.7085705 35.25786841 -12.72498209 31.83288014 -12.75492287 28.40600586 C-12.77738552 25.12647702 -12.76163569 21.84718139 -12.74926758 18.56762695 C-12.75938873 17.34043945 -12.76950989 16.11325195 -12.77993774 14.84887695 C-12.76417694 13.70418945 -12.74841614 12.55950195 -12.73217773 11.38012695 C-12.72819977 10.37594727 -12.7242218 9.37176758 -12.72012329 8.3371582 C-11.13179502 1.40882525 -6.50578045 -0.0577778 0 0 Z " fill="#009587" transform="translate(89.085205078125,315.432373046875)"/>
<path d="M0 0 C2.22747326 -0.13563775 4.45734323 -0.23227853 6.6875 -0.3125 C8.54955078 -0.39951172 8.54955078 -0.39951172 10.44921875 -0.48828125 C15.05643463 0.14527429 16.19048677 1.33356558 19 5 C19.70845737 7.95245881 19.65437296 10.81481041 19.60127258 13.83943176 C19.60555267 14.7276915 19.60983276 15.61595123 19.61424255 16.53112793 C19.6225192 19.51711165 19.59490455 22.50169327 19.56762695 25.48754883 C19.56609534 27.66082814 19.56676263 29.83410993 19.56945324 32.00738811 C19.5705828 37.83132641 19.54158859 43.65475183 19.50640106 49.47856903 C19.47794175 54.94190603 19.47658635 60.40511782 19.47302246 65.86853027 C19.44677811 81.84992154 19.3769724 97.83121723 19.3125 113.8125 C19.209375 149.514375 19.10625 185.21625 19 222 C-82.31 222 -183.62 222 -288 222 C-288 221.67 -288 221.34 -288 221 C-192.3 221 -96.6 221 2 221 C1.855625 185.2775 1.71125 149.555 1.5625 112.75 C1.51939697 101.45749023 1.47629395 90.16498047 1.43188477 78.53027344 C1.38864644 68.43533039 1.38864644 68.43533039 1.34410095 58.34039307 C1.32424687 53.83307511 1.3071641 49.32575564 1.29173279 44.81842041 C1.27198099 39.07532539 1.2475559 33.33226838 1.21969402 27.58920717 C1.2102551 25.47757418 1.20248134 23.36593295 1.19653046 21.25428724 C1.18827751 18.40920868 1.17402302 15.56422239 1.15821838 12.71917725 C1.1572412 11.88673115 1.15626402 11.05428505 1.15525723 10.19661331 C1.12970316 6.63048936 0.95948539 3.43193822 0 0 Z " fill="#00818D" transform="translate(459,205)"/>
<path d="M0 0 C25.45158145 -0.07006093 50.90314846 -0.12297391 76.3548069 -0.15543652 C88.17228035 -0.17090966 99.9896939 -0.19200779 111.80712891 -0.22631836 C122.10642295 -0.25620694 132.40567361 -0.27557175 142.70500982 -0.28226548 C148.15913409 -0.28617864 153.61313426 -0.29538453 159.06721878 -0.31719017 C164.20041576 -0.33754669 169.33343748 -0.34383545 174.46667099 -0.33932304 C176.35085248 -0.34014861 178.23503981 -0.34611919 180.1191864 -0.35761642 C182.69219122 -0.37254747 185.26453474 -0.36895143 187.83755493 -0.36076355 C188.95527816 -0.37387134 188.95527816 -0.37387134 190.09558165 -0.38724393 C195.66124044 -0.33938891 199.77625957 0.9067936 203.86328125 4.75390625 C204.34152344 5.35074219 204.81976563 5.94757812 205.3125 6.5625 C205.80363281 7.16191406 206.29476562 7.76132812 206.80078125 8.37890625 C209.0181681 11.37635101 209.12394346 13.30442459 209.12025452 16.98599243 C209.12231651 18.56777031 209.12231651 18.56777031 209.12442017 20.1815033 C209.12082489 21.34315506 209.11722961 22.50480682 209.11352539 23.70166016 C209.11367142 24.92114853 209.11381744 26.1406369 209.1139679 27.39707947 C209.11338955 30.74605181 209.10836546 34.09496293 209.10139394 37.44392443 C209.09515348 40.9419744 209.09455605 44.44002515 209.09336853 47.93807983 C209.09025726 54.56434861 209.08204662 61.19060094 209.07201904 67.81686246 C209.06085157 75.35968929 209.05534585 82.9025169 209.05032361 90.44534993 C209.03986384 105.96357642 209.02206751 121.48178544 209 137 C203.06 137 197.12 137 191 137 C191.00888245 135.43922729 191.01776489 133.87845459 191.0269165 132.27038574 C191.10802692 117.55675777 191.16821786 102.84321208 191.20724869 88.12941742 C191.22784907 80.5650279 191.25592106 73.00080561 191.30175781 65.43652344 C191.34170327 58.84130122 191.36745116 52.24620014 191.37635398 45.65086031 C191.38155579 42.16059651 191.39372838 38.67067918 191.42292023 35.18052673 C191.45529053 31.27848963 191.45595446 27.37678742 191.45410156 23.47460938 C191.47567322 21.7504631 191.47567322 21.7504631 191.49768066 19.9914856 C191.46251506 13.14095528 190.48058303 8.90566684 187 3 C187 2.34 187 1.68 187 1 C125.29 1 63.58 1 0 1 C0 0.67 0 0.34 0 0 Z " fill="#545D61" transform="translate(64,51)"/>
<path d="M0 0 C18.42810592 -0.09343459 36.85615037 -0.16397486 55.28444195 -0.20724869 C63.84099431 -0.2278754 72.39739951 -0.255998 80.95385742 -0.30175781 C88.41153191 -0.34162234 95.86909982 -0.36743202 103.32687789 -0.37635398 C107.27589569 -0.38156942 111.22460858 -0.39382955 115.17352867 -0.42292023 C118.89095149 -0.45008348 122.60794399 -0.45844331 126.32545662 -0.45243073 C128.33915826 -0.45405474 130.35281311 -0.4755728 132.36639404 -0.49768066 C133.56807724 -0.49218201 134.76976044 -0.48668335 136.00785828 -0.48101807 C137.57168007 -0.48654882 137.57168007 -0.48654882 139.16709423 -0.49219131 C142.73605198 0.12788226 144.40994937 1.52010364 147 4 C148.62649812 7.25299624 148.15629757 10.83435219 148.16113281 14.40942383 C148.16609772 15.27950577 148.17106262 16.14958771 148.17617798 17.04603577 C148.19081849 19.93304222 148.19760505 22.81999372 148.203125 25.70703125 C148.20887528 27.71001691 148.21463303 29.71300254 148.22039795 31.71598816 C148.23091358 35.92011777 148.23675244 40.12422822 148.24023438 44.32836914 C148.24571764 49.7154698 148.26973977 55.10231752 148.29820633 60.48933887 C148.31683123 64.6286035 148.32203825 68.76780722 148.32357025 72.90711021 C148.32659808 74.89303659 148.33463097 76.87896187 148.34775543 78.86484718 C148.36481133 81.6442245 148.36293668 84.42298415 148.35644531 87.20239258 C148.3656601 88.02284058 148.37487488 88.84328857 148.3843689 89.68859863 C148.35077508 94.28059351 147.98551817 97.2795375 145 101 C141.55412542 103.29724972 140.3038117 103.24766781 136.24836731 103.24050903 C134.44996651 103.24463303 134.44996651 103.24463303 132.61523438 103.24884033 C131.29821533 103.24164978 129.98119629 103.23445923 128.62426758 103.22705078 C127.22482817 103.2264867 125.82538816 103.22680317 124.4259491 103.22793579 C120.62454339 103.22851042 116.82326349 103.21673837 113.02188706 103.20278788 C109.05005418 103.19029881 105.07821851 103.18911146 101.10636902 103.18673706 C93.58408961 103.18051692 86.06186822 103.16409889 78.53961438 103.14403808 C69.97623343 103.12169568 61.41284973 103.11068983 52.84944689 103.10064721 C35.23293168 103.07973312 17.6164705 103.04454678 0 103 C0 102.67 0 102.34 0 102 C42.57 101.67 85.14 101.34 129 101 C130.05946564 97.82160309 130.12064296 95.58154652 130.11352539 92.2434082 C130.11344986 91.06241043 130.11337433 89.88141266 130.11329651 88.66462708 C130.10813522 87.38955795 130.10297394 86.11448883 130.09765625 84.80078125 C130.0962413 83.49545944 130.09482635 82.19013763 130.09336853 80.84526062 C130.0895538 77.37810344 130.07973244 73.91098826 130.06866455 70.44384766 C130.05842798 66.90462818 130.0538661 63.3654019 130.04882812 59.82617188 C130.03810923 52.88409735 130.02104534 45.94205069 130 39 C128.8553125 39.97259766 128.8553125 39.97259766 127.6875 40.96484375 C125 43 125 43 122 43.5625 C117.87057421 42.78823266 116.5902282 41.27549656 114 38 C113.52111934 35.0702022 113.33910049 32.83895587 113.4375 29.9375 C113.42654297 29.23044922 113.41558594 28.52339844 113.40429688 27.79492188 C113.45256668 24.3677659 113.76012995 22.33172401 115.78515625 19.53125 C118.13712161 17.90519987 119.18314629 17.47997499 122 17.5625 C122.66 17.56378906 123.32 17.56507812 124 17.56640625 C126.55279997 18.11984531 128.0219321 19.33542054 130 21 C130.02697137 18.39576408 130.04682489 15.79180756 130.0625 13.1875 C130.07087891 12.44951172 130.07925781 11.71152344 130.08789062 10.95117188 C130.10259828 7.70077932 130.03531702 5.10595105 129 2 C86.43 1.67 43.86 1.34 0 1 C0 0.67 0 0.34 0 0 Z " fill="#8AA500" transform="translate(91,85)"/>
<path d="M0 0 C2.58139038 1.82621765 2.58139038 1.82621765 5.00146484 4.2409668 C5.91866302 5.14247971 6.83586121 6.04399261 7.78085327 6.9728241 C8.75824262 7.96427137 9.73492063 8.95642033 10.7109375 9.94921875 C11.72892021 10.96569776 12.74786735 11.98121175 13.76773071 12.99580383 C15.89705624 15.12080635 18.01545633 17.25597406 20.12646484 19.39916992 C22.82812709 22.14063735 25.5536506 24.8568206 28.28758812 27.56605816 C30.39357922 29.65784384 32.48723918 31.76163022 34.5773201 33.86930275 C35.57769287 34.87550992 36.58163192 35.87818485 37.58921432 36.87717247 C38.99667231 38.27660963 40.38620337 39.69400642 41.77490234 41.11206055 C42.56875336 41.91290573 43.36260437 42.71375092 44.18051147 43.53886414 C46.327444 46.44291797 46.81002829 48.41575256 47 52 C43.96741923 58.24539672 38.36442117 62.90530563 33.4921875 67.73828125 C32.57035675 68.65965378 31.648526 69.58102631 30.69876099 70.53031921 C28.75684434 72.47067923 26.81163724 74.40765551 24.86376953 76.34204102 C22.36576502 78.82297372 19.87447726 81.31052178 17.38537407 83.80038166 C15.00710121 86.17831782 12.62459822 88.55199045 10.2421875 90.92578125 C8.89844559 92.26785393 8.89844559 92.26785393 7.52755737 93.63703918 C6.69974762 94.45846909 5.87193787 95.27989899 5.01904297 96.1262207 C4.28942352 96.85202835 3.55980408 97.577836 2.80807495 98.32563782 C0.27983484 100.66690671 -0.81190759 100.97870652 -4.3125 101.375 C-8 101 -8 101 -10.9375 98.875 C-13 96 -13 96 -13.75 93.1875 C-11.99698494 85.73718598 -3.85407593 79.71365605 1.46484375 74.4375 C2.14301651 73.76074219 2.82118927 73.08398438 3.51991272 72.38671875 C5.65674305 70.25542325 7.79704823 68.12765782 9.9375 66 C11.39932123 64.54320221 12.86091187 63.08617299 14.32226562 61.62890625 C17.878854 58.08326027 21.43856016 54.54077261 25 51 C20.85341418 46.04555034 16.53081853 41.41832533 11.921875 36.89453125 C10.58320309 35.56849085 9.24466528 34.24231506 7.90625 32.91601562 C5.81894608 30.85361928 3.73005908 28.79287498 1.63867188 26.73461914 C-0.39630969 24.72980128 -2.4250576 22.71883974 -4.453125 20.70703125 C-5.08019348 20.09342239 -5.70726196 19.47981354 -6.35333252 18.84761047 C-6.93443787 18.26988388 -7.51554321 17.69215729 -8.11425781 17.09692383 C-8.62466614 16.59397293 -9.13507446 16.09102203 -9.66094971 15.5728302 C-12.26922425 12.50918652 -13.01001459 10.56081712 -12.9375 6.5 C-12 3 -12 3 -9.875 0.5 C-6.05540898 -1.4928301 -4.15151777 -0.98140955 0 0 Z " fill="#000202" transform="translate(380,274)"/>
<path d="M0 0 C2.875 1.4375 2.875 1.4375 5 4 C5.81072073 7.13626339 5.72881268 9.84997104 5 13 C2.75645531 16.4645172 -0.10040026 19.15111013 -3.09375 21.97265625 C-3.91500366 22.78117538 -4.73625732 23.58969452 -5.58239746 24.42271423 C-8.2011823 26.99126102 -10.84953457 29.52669736 -13.5 32.0625 C-15.28459753 33.80194038 -17.06717516 35.54345567 -18.84765625 37.28710938 C-23.2086497 41.54906231 -27.59432598 45.78427688 -32 50 C-30.62737236 53.08344541 -29.06394769 55.17718901 -26.66772461 57.54345703 C-25.9903978 58.21740509 -25.31307098 58.89135315 -24.61521912 59.58572388 C-23.88497025 60.30251312 -23.15472137 61.01930237 -22.40234375 61.7578125 C-21.65287979 62.50207489 -20.90341583 63.24633728 -20.13124084 64.01315308 C-17.73802366 66.38856426 -15.33822632 68.75718009 -12.9375 71.125 C-10.53408548 73.50082216 -8.13213131 75.87807489 -5.73304749 78.25827026 C-4.2400398 79.73899433 -2.74436764 81.21703744 -1.24583435 82.69216919 C-0.23457237 83.6936348 -0.23457237 83.6936348 0.79711914 84.71533203 C1.39287247 85.30283234 1.98862579 85.89033264 2.60243225 86.49563599 C5.30921618 89.40926099 5.3477832 92.11083992 5.26953125 96.0234375 C5 98 5 98 3.5 100.5 C0.73977728 102.15613363 -1.41154544 102.74418295 -4.63821411 102.66595459 C-10.15837979 101.10942921 -13.94160527 96.03217484 -17.80859375 92.0078125 C-18.82440774 90.97960214 -19.84193834 89.95308513 -20.86109924 88.92819214 C-23.5306374 86.23386145 -26.17486985 83.51595036 -28.81488037 80.79272461 C-30.97811356 78.56935866 -33.15816901 76.36291941 -35.33940029 74.15722847 C-39.84076735 69.60527492 -44.32866792 65.04016137 -48.79077148 60.44970703 C-49.58160629 59.6369632 -50.3724411 58.82421936 -51.1872406 57.98684692 C-53.29797751 55.67340635 -53.91422381 54.45032501 -54.5 51.375 C-53.29968093 43.27284628 -43.45700667 36.31020728 -37.85546875 30.72265625 C-37.00447098 29.87070175 -36.15347321 29.01874725 -35.27668762 28.14097595 C-33.49208294 26.355695 -31.70623176 24.57165928 -29.91918945 22.78881836 C-27.17477838 20.04980339 -24.43579568 17.30544048 -21.69726562 14.56054688 C-19.95865423 12.82259558 -18.21973305 11.08495414 -16.48046875 9.34765625 C-15.65967331 8.52483658 -14.83887787 7.70201691 -13.99320984 6.85426331 C-13.23514542 6.09935104 -12.47708099 5.34443878 -11.69604492 4.56665039 C-11.02876877 3.90016983 -10.36149261 3.23368927 -9.67399597 2.54701233 C-6.5592698 -0.33144131 -4.16402875 -0.40823811 0 0 Z " fill="#000202" transform="translate(276,273)"/>
<path d="M0 0 C3.80470451 0.7133821 5.41196019 1.67868421 8 4.5625 C9.63966561 10.72764633 8.30841197 14.63164708 5.96411133 20.2800293 C5.62930756 21.12318695 5.29450378 21.9663446 4.94955444 22.83505249 C3.84308844 25.6090204 2.71324269 28.37275954 1.58203125 31.13671875 C0.80433744 33.06723485 0.02779878 34.99821667 -0.74763489 36.92964172 C-2.37430948 40.97108958 -4.01211472 45.00778105 -5.65844727 49.04125977 C-7.76716935 54.2090336 -9.85211706 59.38599111 -11.9293623 64.5664854 C-13.52995897 68.55282304 -15.14088384 72.53491971 -16.75518227 76.51572609 C-17.52773668 78.42321132 -18.29758194 80.33179612 -19.06465721 82.24149132 C-20.13868814 84.90963549 -21.22597415 87.57197948 -22.31713867 90.2331543 C-22.63160446 91.02129013 -22.94607025 91.80942596 -23.27006531 92.6214447 C-24.95640871 96.69082143 -26.47018213 99.74058431 -30 102.5625 C-32.76516312 103.34560284 -35.20826255 103.21466817 -38 102.5625 C-40.5 100.5 -40.5 100.5 -42 97.5625 C-42.53223965 91.65393322 -41.13873692 87.40152589 -38.95825195 82.04443359 C-38.63466202 81.22238937 -38.31107208 80.40034515 -37.97767639 79.5533905 C-36.90997752 76.85092161 -35.82484149 74.15587268 -34.73828125 71.4609375 C-33.9872901 69.57747065 -33.23699019 67.69372804 -32.48735046 65.8097229 C-30.9155487 61.86766005 -29.3350066 57.92924662 -27.74829102 53.99316406 C-25.71819013 48.95499387 -23.71072357 43.90816255 -21.70980549 38.85834312 C-20.16545135 34.96837312 -18.60885383 31.08339352 -17.04857445 27.19978714 C-16.30357861 25.3410354 -15.56245047 23.48072852 -14.82531166 21.61884689 C-13.79220972 19.01462091 -12.74270588 16.41760888 -11.6887207 13.82177734 C-11.38877197 13.05593826 -11.08882324 12.29009918 -10.77978516 11.50105286 C-8.58703708 6.17207086 -6.11642898 1.14683043 0 0 Z " fill="#000303" transform="translate(341,272.4375)"/>
<path d="M0 0 C0 37.95 0 75.9 0 115 C-6.76278124 113.30930469 -9.72512339 110.84131587 -13.3125 105 C-16.55847204 99.41113476 -17.15078848 95.01784095 -17.16113281 88.60449219 C-17.16609772 87.86573349 -17.17106262 87.12697479 -17.17617798 86.36582947 C-17.19076049 83.92616842 -17.19759569 81.48657244 -17.203125 79.046875 C-17.20888045 77.34539794 -17.21463814 75.64392089 -17.22039795 73.94244385 C-17.23089736 70.37487487 -17.2367467 66.80732835 -17.24023438 63.23974609 C-17.24571144 58.68252025 -17.26972702 54.12559433 -17.29820633 49.56846237 C-17.31689074 46.05272574 -17.32204143 42.53706045 -17.32357025 39.02127838 C-17.32658512 37.34205743 -17.33457403 35.66283739 -17.34775543 33.98366547 C-17.36493506 31.62657808 -17.3629069 29.27021164 -17.35644531 26.91308594 C-17.3656601 26.22812546 -17.37487488 25.54316498 -17.3843689 24.83744812 C-17.32043463 17.33973939 -14.66186744 10.8273343 -10 5 C-4.2348285 0 -4.2348285 0 0 0 Z " fill="#6F6F6F" transform="translate(34,79)"/>
<path d="M0 0 C5.91293275 1.18258655 8.9933567 3.24019299 12.45703125 8.00390625 C16.06784073 13.65425077 17.15241918 17.93821145 17.17700195 24.64916992 C17.18357315 25.42679688 17.19014435 26.20442383 17.19691467 27.00561523 C17.21663287 29.58056742 17.22830839 32.15546125 17.23828125 34.73046875 C17.24235678 35.61136988 17.2464323 36.492271 17.25063133 37.3998661 C17.27148808 42.06450795 17.2857902 46.72912044 17.29516602 51.39379883 C17.30621569 56.20111537 17.34059994 61.00796717 17.38033772 65.81511974 C17.40654419 69.52043999 17.41486153 73.22565031 17.41844749 76.93105507 C17.42330485 78.70239708 17.43489452 80.47373447 17.45348549 82.24498558 C17.47795818 84.73164514 17.47689726 87.21711312 17.4699707 89.70385742 C17.48278076 90.4277919 17.49559082 91.15172638 17.50878906 91.89759827 C17.44041244 98.67446998 14.69456095 103.45815858 11 109 C7.37 109 3.74 109 0 109 C0 73.03 0 37.06 0 0 Z " fill="#6E6E6E" transform="translate(290,79)"/>
<path d="M0 0 C33.66 0 67.32 0 102 0 C102 3.96 102 7.92 102 12 C96.79651991 17.20348009 94.57446815 17.15428139 87.59057617 17.17700195 C86.28545326 17.18685875 86.28545326 17.18685875 84.95396423 17.19691467 C82.06696492 17.21666819 79.18001766 17.22831463 76.29296875 17.23828125 C75.30811304 17.24235678 74.32325733 17.2464323 73.30855751 17.25063133 C68.09625075 17.2715005 62.88397038 17.28579874 57.67163086 17.29516602 C52.28445476 17.30623423 46.89769128 17.34063656 41.51066113 17.38033772 C37.37139613 17.40646701 33.23223001 17.41485456 29.09288979 17.41844749 C27.1069491 17.42332274 25.12101311 17.4349633 23.13515282 17.45348549 C20.35563722 17.47779921 17.57719651 17.47692619 14.79760742 17.4699707 C13.97715942 17.48278076 13.15671143 17.49559082 12.31140137 17.50878906 C8.34028117 17.47256642 6.44731818 17.28515595 3.01264954 15.09562683 C-1.83097082 10.05231423 0 9.05767615 0 0 Z " fill="#6E6E6E" transform="translate(273,444)"/>
<path d="M0 0 C5.61 0 11.22 0 17 0 C17 8.58 17 17.16 17 26 C14.36 26.66 11.72 27.32 9 28 C5.23571306 30.13648718 2.64346235 32.98758106 1 37 C0.68308549 38.96930685 0.68308549 38.96930685 0.69360352 41.02734375 C0.67761612 41.80916016 0.66162872 42.59097656 0.64515686 43.39648438 C0.63979416 44.23501953 0.63443146 45.07355469 0.62890625 45.9375 C0.61987778 46.81341797 0.6108493 47.68933594 0.60154724 48.59179688 C0.58704785 50.44771923 0.57815877 52.30369266 0.57446289 54.15966797 C0.56265657 56.96282695 0.51354758 59.76371762 0.46289062 62.56640625 C0.3715367 72.74357379 0.91040148 80.89979395 6 90 C6.67038138 91.3314695 7.33842869 92.66413114 8 94 C-4.0276991 95.20110171 -4.0276991 95.20110171 -8.34765625 92.5703125 C-10.31526145 90.4167578 -11.63880451 88.59594113 -13 86 C-13.51759888 85.07973022 -13.51759888 85.07973022 -14.0456543 84.14086914 C-17.87355788 76.28860658 -17.64232584 68.25790959 -17.57641602 59.7121582 C-17.56242911 57.17463931 -17.59685293 54.64073124 -17.63476562 52.10351562 C-17.63571595 50.47916577 -17.63386265 48.85481132 -17.62890625 47.23046875 C-17.64216446 46.47831589 -17.65542267 45.72616302 -17.66908264 44.95121765 C-17.60531302 41.34827252 -17.05516803 39.09294034 -15.21069336 35.9855957 C-12 34 -12 34 0 34 C0 22.78 0 11.56 0 0 Z " fill="#525A5E" transform="translate(137,401)"/>
<path d="M0 0 C4.44337752 0.79346027 5.69715764 2.14038518 8.5 5.625 C9.139375 6.635625 9.77875 7.64625 10.4375 8.6875 C12.95221481 12.26906352 14.48863852 13.79525617 18.5 15.625 C25.08485384 16.37156305 32.06408113 16.86766839 37.5 12.625 C39.65103931 10.06008984 41.57727327 7.36309509 43.5 4.625 C46.03405798 1.35524777 46.79007412 0.72826195 50.9375 0.125 C55.12057913 0.71209883 56.77151928 1.40043187 59.5 4.625 C60.51793185 10.506384 58.72908477 14.82724053 55.5 19.625 C49.64281581 27.1013577 40.96902647 32.91350602 31.5 34.625 C19.85535376 35.68045828 10.52053378 33.06919482 1.5078125 25.55859375 C-3.26123832 20.9658308 -7.93995957 15.38527146 -8.9375 8.6875 C-8.5 5.625 -8.5 5.625 -6.4375 2.75 C-3.5 0.625 -3.5 0.625 0 0 Z " fill="#030400" transform="translate(136.5,136.375)"/>
<path d="M0 0 C0.98315186 -0.00478363 1.96630371 -0.00956726 2.97924805 -0.01449585 C5.04314794 -0.01787506 7.10710282 -0.00881251 9.17089844 0.01220703 C12.30526644 0.03900067 15.43605405 0.01239084 18.5703125 -0.01953125 C20.58854946 -0.0162268 22.60678422 -0.00981984 24.625 0 C26.00981567 -0.01518173 26.00981567 -0.01518173 27.42260742 -0.03067017 C35.32133948 0.10953394 41.73927939 2.63275212 47.78515625 7.76171875 C48.30980469 8.41011719 48.83445312 9.05851562 49.375 9.7265625 C50.19677734 10.70302734 50.19677734 10.70302734 51.03515625 11.69921875 C52.3125 13.6640625 52.3125 13.6640625 53.3125 17.6640625 C26.2525 17.6640625 -0.8075 17.6640625 -28.6875 17.6640625 C-25.43889626 9.54255316 -21.31106074 5.47032642 -13.45263672 1.69854736 C-8.96376149 0.01918249 -4.75005857 -0.05207489 0 0 Z " fill="#6E6E6E" transform="translate(149.6875,16.3359375)"/>
<path d="M0 0 C11.55 0 23.1 0 35 0 C35 8.58 35 17.16 35 26 C23.45 26 11.9 26 0 26 C0 17.42 0 8.84 0 0 Z " fill="#6B6B6B" transform="translate(119,239)"/>
<path d="M0 0 C5.61 0 11.22 0 17 0 C17.1157407 4.23353753 17.21495225 8.46144415 17.2746582 12.6953125 C17.29957855 14.13072448 17.33352875 15.56601257 17.37719727 17.00097656 C17.6736376 27.00322217 17.17927234 35.42040361 10.02270508 43.13012695 C4.89615849 48.0126465 -0.20705043 51.13667083 -7.4375 51.1875 C-9.2009375 51.0946875 -9.2009375 51.0946875 -11 51 C-10.52949219 50.29875 -10.05898438 49.5975 -9.57421875 48.875 C-8.95160156 47.92625 -8.32898438 46.9775 -7.6875 46 C-7.07261719 45.071875 -6.45773437 44.14375 -5.82421875 43.1875 C-0.59665179 34.05325023 -0.46881615 25.74714199 -0.3125 15.5 C-0.27927717 13.99476282 -0.24478303 12.48955313 -0.20898438 10.984375 C-0.12228636 7.32289596 -0.06174845 3.66232168 0 0 Z " fill="#6F6F6F" transform="translate(478,444)"/>
<path d="M0 0 C0.71353638 -0.00336868 1.42707275 -0.00673737 2.16223145 -0.01020813 C3.6650313 -0.00991023 5.16789347 0.00525031 6.67041016 0.03442383 C8.96315979 0.07412196 11.25012325 0.05512275 13.54296875 0.02929688 C15.0078348 0.03685671 16.47268809 0.04781095 17.9375 0.0625 C18.95801453 0.05202385 18.95801453 0.05202385 19.99914551 0.04133606 C23.80146474 0.153419 25.40276171 0.7087536 28.40429688 3.11791992 C30.46875 5.76171875 30.46875 5.76171875 31.03125 8.76171875 C30.34517343 12.42079379 29.04140686 14.11339551 26.46875 16.76171875 C22.08750169 18.95234291 16.21543656 18.03004677 11.34790039 18.05688477 C9.17464761 18.07407324 7.00292654 18.11795682 4.83007812 18.16210938 C3.4427195 18.17223901 2.05534796 18.18075427 0.66796875 18.1875 C-0.59184814 18.20208252 -1.85166504 18.21666504 -3.1496582 18.23168945 C-7.13581577 17.67769672 -8.75104287 16.62579626 -11.53125 13.76171875 C-12.65625 10.38671875 -12.65625 10.38671875 -12.53125 6.76171875 C-9.04725938 1.32487289 -6.53269649 -0.14674295 0 0 Z " fill="#020202" transform="translate(208.53125,460.23828125)"/>
<path d="M0 0 C3.60132437 2.26750053 5.61456691 3.66580855 6.8125 7.8125 C5.54900393 12.76929229 2.5551089 15.42249672 -1 19 C-2.17061394 20.19657445 -3.34118317 21.39319264 -4.51171875 22.58984375 C-6.99476293 25.10945045 -9.48175472 27.62483146 -11.98828125 30.12109375 C-12.78552612 30.91664673 -12.78552612 30.91664673 -13.59887695 31.72827148 C-15.72877881 33.66147566 -16.97604721 33.99739644 -19.875 34.3125 C-23 34 -23 34 -25.3125 32.125 C-27.21386432 29.73068938 -27.92745131 28.3808806 -28.5 25.375 C-27.72629824 20.15251312 -24.64064824 17.6642123 -21 14 C-19.9035393 12.87770824 -18.80719376 11.75530396 -17.7109375 10.6328125 C-6.50521826 -0.75060211 -6.50521826 -0.75060211 0 0 Z " fill="#000202" transform="translate(122,333)"/>
<path d="M0 0 C32.01 0 64.02 0 97 0 C97 5.94 97 11.88 97 18 C73.24 18 49.48 18 25 18 C25 17.67 25 17.34 25 17 C43.15 17 61.3 17 80 17 C80 11.72 80 6.44 80 1 C53.6 1 27.2 1 0 1 C0 0.67 0 0.34 0 0 Z " fill="#495154" transform="translate(57,281)"/>
<path d="M0 0 C1.97265625 0.41796875 1.97265625 0.41796875 4.97265625 2.04296875 C8.16233492 7.4255515 7.99575502 13.32171124 6.97265625 19.41796875 C5.16124345 22.14434875 3.90771087 23.95044144 0.97265625 25.41796875 C-2.94727573 25.94062635 -4.49582567 25.82089374 -7.69140625 23.3984375 C-10.59654696 19.69171115 -10.74309337 16.87426165 -10.58984375 12.35546875 C-10.60080078 11.64841797 -10.61175781 10.94136719 -10.62304688 10.21289062 C-10.57476935 6.78518647 -10.27107221 4.75322842 -8.23828125 1.95703125 C-5.52298005 0.06687459 -3.28808712 -0.22740042 0 0 Z " fill="#030400" transform="translate(215.02734375,102.58203125)"/>
<path d="M0 0 C2.22265625 1.5234375 2.22265625 1.5234375 4 4 C4.42918602 6.81486833 4.60594812 9.13381854 4.5625 11.9375 C4.58634766 12.64068359 4.61019531 13.34386719 4.63476562 14.06835938 C4.6236081 18.03671852 4.13410027 19.83042228 1.65234375 22.96875 C-1 25 -1 25 -4 25.5625 C-7.65907504 24.87642343 -9.35167676 23.57265686 -12 21 C-13.40053506 18.19892988 -13.2075504 15.81108319 -13.25 12.6875 C-13.27578125 11.55699219 -13.3015625 10.42648438 -13.328125 9.26171875 C-12.9685426 5.68729849 -12.14022123 3.85189674 -10 1 C-6.87057535 -0.56471233 -3.38917777 -0.69701958 0 0 Z " fill="#040500" transform="translate(115,103)"/>
<path d="M0 0 C5.61 0 11.22 0 17 0 C16.67 5.61 16.34 11.22 16 17 C10.39 17 4.78 17 -1 17 C-1.020625 14.56625 -1.04125 12.1325 -1.0625 9.625 C-1.071604 8.86010254 -1.08070801 8.09520508 -1.09008789 7.30712891 C-1.11111111 2.22222222 -1.11111111 2.22222222 0 0 Z " fill="#525A5D" transform="translate(138,205)"/>
<path d="M0 0 C4 4.875 4 4.875 4 6 C2.35 6 0.7 6 -1 6 C-0.67 4.02 -0.34 2.04 0 0 Z " fill="#51595D" transform="translate(70,190)"/>
</svg>
