<?xml version="1.0" encoding="UTF-8"?>
<svg version="1.1" xmlns="http://www.w3.org/2000/svg" width="512" height="512">
<path d="M0 0 C20.97476888 -0.53881724 41.94838772 -0.94359212 62.92868805 -1.19167995 C72.67210564 -1.30997239 82.41120914 -1.47100763 92.15185547 -1.73510742 C100.64867126 -1.96537192 109.14236327 -2.11296219 117.64221239 -2.16403538 C122.13920777 -2.19387386 126.62727381 -2.26317612 131.12138367 -2.43179131 C158.31125566 -3.4125964 158.31125566 -3.4125964 166.02315712 2.20033646 C171.09109324 7.49697186 174.45390969 13.44292578 177.54455471 20.04511833 C179.87809693 24.7827345 182.8908678 29.0235365 185.88671875 33.359375 C187.01144268 35.06538452 188.13216965 36.77404179 189.24731445 38.48632812 C203.48066973 60.26807386 217.9666095 81.87263525 232.55325317 103.41888428 C236.01468574 108.53430252 239.44900682 113.66692362 242.8684082 118.81054688 C245.59813089 122.89496987 248.35142624 126.96320011 251.10546875 131.03125 C265.45398822 152.2342532 279.67842073 173.51183672 293.71948242 194.91992188 C294.30565842 195.81277893 294.89183441 196.70563599 295.49577332 197.62554932 C296.58273994 199.2816908 297.6684679 200.93864628 298.75263977 202.59661865 C299.24032333 203.33978333 299.7280069 204.082948 300.23046875 204.84863281 C300.6898584 205.55234009 301.14924805 206.25604736 301.62255859 206.9810791 C302.9800734 208.9707935 304.44151117 210.84137559 305.92578125 212.73730469 C308 216 308 216 308.15136719 218.39990234 C306.37306551 222.41578718 304.02198565 225.96096514 301.578125 229.6015625 C301.01501114 230.45376877 300.45189728 231.30597504 299.87171936 232.18400574 C298.00573239 235.00301384 296.12808086 237.81403746 294.25 240.625 C292.93461859 242.60601784 291.61976655 244.58738726 290.30541992 246.5690918 C280.17002664 261.82959007 269.93440488 277.02320741 259.67089844 292.19775391 C251.73328591 303.93404191 243.84647212 315.70260369 236 327.5 C226.14895876 342.30919748 216.22662369 357.0689878 206.27056885 371.80776978 C197.6666602 384.54549495 189.09544306 397.3037473 180.60205078 410.11547852 C179.20063246 412.2257959 177.76740881 414.31549412 176.29664612 416.37808228 C174.59539941 418.87950272 173.47690378 421.24961565 172.45246887 424.09089661 C170.31424451 429.20942759 167.82415476 433.08401505 163 436 C152.07680293 438.88514434 140.16623839 437.91215793 128.97022462 437.62230301 C124.43159271 437.52180147 119.8927681 437.51284704 115.35319519 437.49389648 C106.7706954 437.44430137 98.1914837 437.31320645 89.61042756 437.15230465 C79.83573423 436.97302789 70.06087789 436.88538778 60.28494799 436.80517769 C40.18813483 436.63824658 20.09427507 436.35710029 0 436 C1.32718742 433.26764057 2.6369926 431.06357702 4.65234375 428.78515625 C5.17586426 428.18815918 5.69938477 427.59116211 6.23876953 426.97607422 C6.79935059 426.34459473 7.35993164 425.71311523 7.9375 425.0625 C9.12173098 423.71279843 10.30531424 422.36252829 11.48828125 421.01171875 C12.37700928 419.99924072 12.37700928 419.99924072 13.28369141 418.96630859 C15.76115983 416.12796853 18.19719293 413.25583223 20.625 410.375 C21.06303955 409.85591064 21.5010791 409.33682129 21.95239258 408.80200195 C22.83965983 407.75009389 23.72662186 406.6979283 24.61328125 405.64550781 C27.11422706 402.6778362 29.61952291 399.71384598 32.125 396.75 C32.5988916 396.18845215 33.0727832 395.6269043 33.56103516 395.04833984 C36.88679751 391.11320249 36.88679751 391.11320249 38 390 C40.8116338 389.91138008 43.59858255 389.88477645 46.41015625 389.90234375 C47.25219101 389.9037587 48.09422577 389.90517365 48.96177673 389.90663147 C51.66205335 389.91224737 54.36224828 389.92480252 57.0625 389.9375 C58.88867068 389.94251295 60.71484266 389.94707621 62.54101562 389.95117188 C67.02737542 389.96222196 71.51367384 389.97949721 76 390 C76.3242395 389.02075562 76.3242395 389.02075562 76.6550293 388.02172852 C78.48959974 383.90002252 80.97171332 380.36462208 83.51953125 376.65234375 C84.08109421 375.82529434 84.64265717 374.99824493 85.22123718 374.14613342 C86.44033828 372.35108626 87.66143117 370.55739057 88.88427734 368.76489258 C92.20093741 363.90160564 95.50113275 359.02718271 98.80078125 354.15234375 C99.48355133 353.14400482 100.16632141 352.13566589 100.86978149 351.09677124 C107.8373228 340.79064421 114.67542005 330.40110215 121.5 320 C134.25484325 300.57297487 147.22132988 281.29434066 160.24214172 262.04490662 C166.64553575 252.57416964 173.03346507 243.09026202 179.29931641 233.52783203 C180.58123869 231.62243104 181.90949964 229.74808662 183.25927734 227.89013672 C184.01289551 226.83197754 184.76651367 225.77381836 185.54296875 224.68359375 C186.24832764 223.7186499 186.95368652 222.75370605 187.68041992 221.75952148 C189.30298012 219.10317505 189.30298012 219.10317505 188.41064453 216.44995117 C186.9689998 213.94616008 185.49942593 211.51521498 183.88671875 209.1171875 C183.23147217 208.1382251 182.57622559 207.1592627 181.90112305 206.15063477 C181.17062744 205.06967529 180.44013184 203.98871582 179.6875 202.875 C178.89650472 201.69679263 178.10591035 200.51831602 177.31567383 199.33959961 C172.9247202 192.79734874 168.50866032 186.27201687 164.0957489 179.74456787 C161.12557515 175.35105691 158.156409 170.95686567 155.1875 166.5625 C154.2647377 165.19723175 154.2647377 165.19723175 153.32333374 163.80438232 C143.34404238 149.03379557 133.49799198 134.17994678 123.71368408 119.27966309 C111.42003863 100.56413967 98.92345398 81.98839245 86.36097717 63.45246887 C85.39331552 62.02399978 84.42723456 60.59445832 83.46292114 59.16372681 C82.41502257 57.61383723 81.3596924 56.06896211 80.29953003 54.5274353 C79.47341721 53.31538925 79.47341721 53.31538925 78.63061523 52.07885742 C78.12707016 51.34559738 77.62352509 50.61233734 77.10472107 49.8568573 C76 48 76 48 76 46 C74.90123535 46.05760498 73.8024707 46.11520996 72.67041016 46.17456055 C68.55261723 46.37524453 64.43524397 46.50048026 60.31396484 46.60424805 C58.53848372 46.659218 56.76349263 46.73403129 54.98974609 46.82983398 C39.4661284 47.6466366 39.4661284 47.6466366 34.69360352 43.68701172 C32.15877816 40.91194179 30.07393776 38.12898333 28 35 C26.57823386 33.23719335 25.14278683 31.48523673 23.6875 29.75 C22.96304687 28.8528125 22.23859375 27.955625 21.4921875 27.03125 C17.46258184 22.13003685 13.28191644 17.36106502 9.11328125 12.578125 C8.60361816 11.99095703 8.09395508 11.40378906 7.56884766 10.79882812 C6.47664784 9.54652058 5.37675645 8.30089709 4.27099609 7.06054688 C3.72137207 6.43728516 3.17174805 5.81402344 2.60546875 5.171875 C2.1055542 4.61081055 1.60563965 4.04974609 1.09057617 3.47167969 C0 2 0 2 0 0 Z " fill="#2A2928" transform="translate(6,38)"/>
<path d="M0 0 C3.49223352 1.16407784 3.83487836 1.8393783 5.7734375 4.8359375 C6.33675781 5.69477539 6.90007812 6.55361328 7.48046875 7.43847656 C8.41826172 8.89205566 8.41826172 8.89205566 9.375 10.375 C10.79774255 12.54543626 12.22222212 14.71466288 13.6484375 16.8828125 C14.04681824 17.49008179 14.44519897 18.09735107 14.85565186 18.72302246 C21.14521287 28.29324863 27.58788562 37.76171263 34 47.25 C36.4797833 50.92145892 38.95888851 54.5933749 41.4375 58.265625 C42.02643036 59.13809875 42.61536072 60.01057251 43.22213745 60.90948486 C46.15521531 65.25706596 49.0802568 69.60955471 51.984375 73.9765625 C58.64880222 83.99799131 65.40862011 93.95591362 72.14404297 103.9296875 C75.83802571 109.40026811 79.52802164 114.87350064 83.21362305 120.34973145 C85.00349837 123.00519017 86.79941261 125.65649518 88.59570312 128.30761719 C89.70465734 129.95231873 90.81339228 131.59716815 91.921875 133.2421875 C92.43735901 133.99960236 92.95284302 134.75701721 93.48394775 135.53738403 C97 140.77264044 97 140.77264044 97 143 C98.09876465 142.94239502 99.1975293 142.88479004 100.32958984 142.82543945 C104.44738277 142.62475547 108.56475603 142.49951974 112.68603516 142.39575195 C114.46151628 142.340782 116.23650737 142.26596871 118.01025391 142.17016602 C133.5338716 141.3533634 133.5338716 141.3533634 138.30639648 145.31298828 C140.84122184 148.08805821 142.92606224 150.87101667 145 154 C146.42176614 155.76280665 147.85721317 157.51476327 149.3125 159.25 C150.39917969 160.59578125 150.39917969 160.59578125 151.5078125 161.96875 C155.53741816 166.86996315 159.71808356 171.63893498 163.88671875 176.421875 C164.39638184 177.00904297 164.90604492 177.59621094 165.43115234 178.20117188 C166.52335216 179.45347942 167.62324355 180.69910291 168.72900391 181.93945312 C169.27862793 182.56271484 169.82825195 183.18597656 170.39453125 183.828125 C170.8944458 184.38918945 171.39436035 184.95025391 171.90942383 185.52832031 C173 187 173 187 173 189 C152.25349956 190.01107146 131.51112272 190.76575004 110.74487019 191.22792339 C101.0977209 191.44840672 91.46613349 191.74898357 81.82885742 192.24389648 C17.80397259 195.46617447 17.80397259 195.46617447 3.81182861 185.02539062 C-6.19964308 175.83801926 -11.84462313 163.64964851 -16.8085022 151.2192688 C-19.59053436 144.31654948 -23.51929983 138.64901749 -27.859375 132.6328125 C-29.05536931 130.83329549 -30.24205899 129.02754894 -31.41796875 127.21484375 C-31.96759277 126.37550293 -32.5172168 125.53616211 -33.08349609 124.67138672 C-33.63344238 123.8310791 -34.18338867 122.99077148 -34.75 122.125 C-36.5251678 119.4155848 -38.30120044 116.70674889 -40.07922363 113.99920654 C-41.19794963 112.29511915 -42.31482574 110.5898154 -43.42956543 108.88311768 C-45.83611055 105.21332786 -48.2705312 101.5836107 -50.85742188 98.03808594 C-51.28887512 97.44204559 -51.72032837 96.84600525 -52.16485596 96.23190308 C-53.29458291 94.68610157 -54.44379113 93.15458783 -55.59472656 91.62451172 C-57.31820276 88.4057193 -56.97686324 87.43679799 -56 84 C-54.96047974 81.9974823 -54.96047974 81.9974823 -53.65283203 80.02807617 C-53.15851181 79.27525864 -52.66419159 78.5224411 -52.15489197 77.74681091 C-51.61135574 76.937043 -51.06781952 76.12727509 -50.5078125 75.29296875 C-49.65317162 73.99970421 -49.65317162 73.99970421 -48.78126526 72.68031311 C-46.90373076 69.84405372 -45.01460803 67.01572697 -43.125 64.1875 C-41.82344535 62.22723933 -40.52242584 60.26662325 -39.22192383 58.30566406 C-26.2632451 38.79330437 -13.15442749 19.38078225 0 0 Z " fill="#2A2928" transform="translate(333,285)"/>
<path d="M0 0 C4.53863191 0.10050154 9.07745652 0.10945597 13.61702943 0.12840652 C22.19952922 0.17800164 30.77874092 0.30909656 39.35979706 0.46999836 C49.13449039 0.64927512 58.90934673 0.73691523 68.68527663 0.81712532 C88.78208978 0.98405643 108.87594954 1.26520272 128.97022462 1.62230301 C127.6430372 4.35466244 126.33323202 6.55872599 124.31788087 8.83714676 C123.79436036 9.43414383 123.27083985 10.0311409 122.73145509 10.64622879 C121.89058351 11.59344803 121.89058351 11.59344803 121.03272462 12.55980301 C119.84849364 13.90950458 118.66491038 15.25977472 117.48194337 16.61058426 C116.88945802 17.28556961 116.29697267 17.96055496 115.68653321 18.65599442 C113.20906479 21.49433448 110.77303168 24.36647078 108.34522462 27.24730301 C107.90718507 27.76639236 107.46914552 28.28548172 107.01783204 28.82030106 C106.13056479 29.87220912 105.24360276 30.92437471 104.35694337 31.9767952 C101.85599756 34.94446681 99.35070171 37.90845703 96.84522462 40.87230301 C96.37133302 41.43385086 95.89744142 41.99539871 95.40918946 42.57396317 C92.08342711 46.50910051 92.08342711 46.50910051 90.97022462 47.62230301 C88.15859082 47.71092293 85.37164206 47.73752656 82.56006837 47.71995926 C81.71803361 47.71854431 80.87599885 47.71712936 80.00844789 47.71567154 C77.30817127 47.71005564 74.60797634 47.69750049 71.90772462 47.68480301 C70.08155394 47.67979005 68.25538196 47.67522679 66.42920899 47.67113113 C61.9428492 47.66008105 57.45655078 47.6428058 52.97022462 47.62230301 C52.73601808 48.30147781 52.50181153 48.98065262 52.26050782 49.68040848 C50.67125024 53.30397591 48.55663009 56.44497836 46.32569337 59.69261551 C45.85295991 60.38913223 45.38022645 61.08564896 44.89316773 61.80327225 C43.8626103 63.32044542 42.82986624 64.83613507 41.79520631 66.35051346 C40.12458181 68.7958143 38.45964798 71.24490166 36.79615235 73.69505692 C34.41614759 77.1999939 32.03415277 80.70356593 29.65088868 84.20628738 C24.19745948 92.22584495 18.77189097 100.26419882 13.3490088 108.30443192 C12.13582934 110.10312396 10.92236795 111.90162588 9.70862794 113.69993973 C3.03562998 123.5875137 -3.6179375 133.48745748 -10.22508788 143.41917801 C-11.0983245 144.73149902 -11.0983245 144.73149902 -11.98920226 146.07033157 C-14.73186448 150.193607 -17.47125449 154.31900105 -20.20531249 158.4479866 C-26.9654349 168.63817446 -33.92647096 178.66839763 -41.02977538 188.62230301 C-44.41492381 187.4939202 -44.74289351 186.97527936 -46.60399413 184.10448074 C-47.09815825 183.35133591 -47.59232238 182.59819107 -48.10146117 181.82222366 C-48.63467986 180.99183578 -49.16789855 180.16144791 -49.71727538 179.30589676 C-50.28425139 178.4382872 -50.85122741 177.57067764 -51.43538451 176.67677689 C-53.3076566 173.80924721 -55.16881947 170.93468701 -57.02977538 168.05980301 C-59.64250827 164.0438683 -62.26093212 160.03167209 -64.88133788 156.02074051 C-65.55033111 154.99555817 -66.21932433 153.97037582 -66.90859008 152.91412735 C-71.5167372 145.87355601 -76.22000057 138.90513894 -80.99071288 131.97386551 C-81.62011779 131.05636017 -82.2495227 130.13885483 -82.89800048 129.1935463 C-86.54417371 123.87981128 -86.54417371 123.87981128 -90.21971679 118.58638382 C-91.90637724 116.17083927 -93.5749667 113.74370235 -95.24071288 111.31370926 C-95.74444427 110.60417099 -96.24817565 109.89463272 -96.76717162 109.16359329 C-97.21525176 108.50358322 -97.6633319 107.84357315 -98.12499022 107.16356277 C-98.519393 106.59678314 -98.91379577 106.03000351 -99.32015014 105.44604874 C-100.33411694 102.84014141 -99.83245824 101.26737226 -99.02977538 98.62230301 C-97.97679687 96.59959793 -97.97679687 96.59959793 -96.65086913 94.60277176 C-96.1501187 93.84031143 -95.64936828 93.0778511 -95.13344359 92.29228592 C-94.58360808 91.47306656 -94.03377257 90.6538472 -93.46727538 89.80980301 C-92.89254485 88.94014908 -92.31781432 88.07049515 -91.72566772 87.17448807 C-89.8349561 84.31841621 -87.93264351 81.47028702 -86.02977538 78.62230301 C-84.71496709 76.64250364 -83.40068192 74.66235677 -82.08690429 72.68187332 C-71.65588107 56.97830315 -61.13669245 41.3328858 -50.55321288 25.73167801 C-50.15516448 25.14457047 -49.75711608 24.55746292 -49.34700561 23.95256424 C-48.47728507 22.6726485 -47.57139785 21.41694659 -46.64087462 20.18053055 C-45.22838369 17.93766858 -44.43076188 16.07071758 -43.52792907 13.60997391 C-35.96144251 -4.09425081 -16.26613926 -0.42111599 0 0 Z " fill="#2A2928" transform="translate(377.02977538108826,36.3776969909668)"/>
</svg>
