<?xml version="1.0" encoding="UTF-8"?>
<svg version="1.1" xmlns="http://www.w3.org/2000/svg" width="512" height="512">
<path d="M0 0 C26.02875 -0.0825 52.0575 -0.165 78.875 -0.25 C87.08487793 -0.28641602 95.29475586 -0.32283203 103.75341797 -0.36035156 C113.80102539 -0.37841797 113.80102539 -0.37841797 118.50906372 -0.3817749 C121.78790172 -0.38549219 125.06647903 -0.40044445 128.34524536 -0.42230225 C132.5357348 -0.44986527 136.72584855 -0.45794149 140.91642022 -0.4522891 C142.44920529 -0.45346996 143.98200433 -0.46132714 145.51471114 -0.47686052 C155.89200665 -0.57709139 164.86920503 0.0221649 172.875 7.25 C177.74477833 12.57919138 181.14659289 19.15765994 181.09765625 26.44921875 C181.09443359 27.29677734 181.09121094 28.14433594 181.08789062 29.01757812 C181.07951172 29.89865234 181.07113281 30.77972656 181.0625 31.6875 C181.05798828 32.58017578 181.05347656 33.47285156 181.04882812 34.39257812 C181.03704983 36.59511987 181.02060164 38.79752599 181 41 C179.97003906 41.15855469 178.94007813 41.31710938 177.87890625 41.48046875 C162.74925863 43.91205131 148.86471116 47.78227408 134.97485352 54.32104492 C127.25558495 57.94233263 127.25558495 57.94233263 124 58 C121.51379664 56.90914502 119.28409452 55.77241371 116.9375 54.4375 C99.08746588 44.94013925 78.91031867 40.79819693 58.8125 40.6875 C57.83176514 40.68186035 56.85103027 40.6762207 55.84057617 40.67041016 C50.48200219 40.72513207 47.30114136 41.23295288 42 43 C42 80.95 42 118.9 42 158 C46.12924849 159.65169939 48.83813468 160.38810622 53.12890625 160.89453125 C54.31911377 161.0426123 55.50932129 161.19069336 56.7355957 161.34326172 C58.62991333 161.57553467 58.62991333 161.57553467 60.5625 161.8125 C81.48156424 164.55398545 102.35826712 168.81496027 120.66796875 179.80078125 C123.22217295 181.11424974 125.12999771 181.80050537 128 182 C130.23503297 181.03098478 130.23503297 181.03098478 132.375 179.4375 C141.80233194 173.43955096 152.15153234 170.05291839 162.875 167.1875 C163.64706787 166.9805249 164.41913574 166.7735498 165.21459961 166.56030273 C170.57166176 165.19648854 175.34874159 164.6279176 181 164 C181 179.84 181 195.68 181 212 C121.27 212 61.54 212 0 212 C0 142.04 0 72.08 0 0 Z " fill="#6255E4" transform="translate(248,85)"/>
<path d="M0 0 C0.97541496 -0.00128403 0.97541496 -0.00128403 1.97053528 -0.00259399 C4.16013819 -0.00425145 6.34966492 0.00127813 8.53926086 0.00672913 C10.13158319 0.00703539 11.72390565 0.00690208 13.31622791 0.00636387 C17.58618362 0.00613781 21.85611138 0.01194 26.12606049 0.0189743 C30.13061615 0.02466288 34.13516496 0.02493708 38.13972473 0.02565002 C49.85664739 0.0309005 61.57356483 0.04486161 73.29048157 0.05775452 C112.55016907 0.08869202 112.55016907 0.08869202 152.60298157 0.12025452 C152.60298157 70.08025452 152.60298157 140.04025452 152.60298157 212.12025452 C147.98298157 212.12025452 143.36298157 212.12025452 138.60298157 212.12025452 C138.93298157 210.47025452 139.26298157 208.82025452 139.60298157 207.12025452 C139.820325 202.71345172 139.83115466 198.30657096 139.84321594 193.89515686 C139.85279569 191.78617447 139.88379339 189.67822213 139.91548157 187.56947327 C140.04975895 170.38814006 137.37721835 152.92090252 124.89595032 140.17494202 C118.10534601 134.09000527 109.92945693 132.83772877 101.23579407 130.95228577 C97.60298157 130.12025452 97.60298157 130.12025452 95.60298157 129.12025452 C94.97016907 126.39759827 94.97016907 126.39759827 94.47798157 123.05775452 C94.31040344 121.95302795 94.14282532 120.84830139 93.97016907 119.71009827 C93.84899719 118.85544983 93.72782532 118.00080139 93.60298157 117.12025452 C91.62298157 116.46025452 89.64298157 115.80025452 87.60298157 115.12025452 C87.16548157 112.62025452 87.16548157 112.62025452 87.60298157 109.12025452 C88.91548157 107.43275452 88.91548157 107.43275452 90.66548157 105.62025452 C94.08107014 102.08145834 96.00519054 98.38076377 97.97798157 93.93275452 C100.04180018 89.37723795 101.81362276 86.36972838 106.41548157 84.05775452 C107.16442688 83.77802795 107.91337219 83.49830139 108.68501282 83.21009827 C110.77930571 82.23406958 110.77930571 82.23406958 111.84516907 79.96791077 C112.78339117 76.4423236 112.90453811 73.26807242 112.91548157 69.62025452 C112.94061829 67.68666077 112.94061829 67.68666077 112.96626282 65.71400452 C112.88401087 62.16814265 112.88401087 62.16814265 111.10346985 59.80506897 C109.26054678 56.50753805 109.23428436 54.33018055 109.23188782 50.56947327 C109.21448547 49.31328186 109.19708313 48.05709045 109.17915344 46.76283264 C109.1700794 44.13784316 109.16483637 41.51283748 109.16352844 38.88783264 C109.03714374 30.36776031 108.54430208 24.29341741 102.47798157 17.87025452 C94.42958662 12.97123151 87.20116523 11.51550851 77.85688782 11.58900452 C76.76512741 11.58517761 75.673367 11.58135071 74.54852295 11.57740784 C72.25343395 11.57470155 69.95831342 11.58197212 67.6632843 11.59877014 C64.17828072 11.6201759 60.69534337 11.59893361 57.21040344 11.57337952 C54.96756041 11.57602342 52.72471865 11.58114969 50.48188782 11.58900452 C49.45446976 11.58090759 48.4270517 11.57281067 47.36849976 11.56446838 C39.54497317 11.66431553 31.44966443 12.76996929 25.35836792 18.07521057 C20.19728787 23.52632169 18.38209293 28.85867576 18.29438782 36.36634827 C18.2692511 37.53359436 18.24411438 38.70084045 18.21821594 39.90345764 C18.18311682 42.33569681 18.1518542 44.76799443 18.12446594 47.20033264 C17.9779962 53.67715329 17.53840124 58.34957385 14.60298157 64.12025452 C13.56440553 70.20916107 14.66526162 76.69091284 17.60298157 82.12025452 C20.60527602 84.62216656 22.91920975 85.89233058 26.60298157 87.12025452 C27.48970032 89.01869202 27.48970032 89.01869202 28.29048157 91.49525452 C30.90209113 98.54761654 35.28739552 104.80466847 40.60298157 110.12025452 C40.54048157 112.55775452 40.54048157 112.55775452 39.60298157 115.12025452 C38.79860657 115.49150452 37.99423157 115.86275452 37.16548157 116.24525452 C33.91115829 118.62646667 33.97586954 119.91892278 33.29048157 123.80775452 C33.04052816 125.57577356 32.80479588 127.34609583 32.60298157 129.12025452 C31.1701886 129.48377014 31.1701886 129.48377014 29.70845032 129.85462952 C10.09253563 134.57586643 10.09253563 134.57586643 -3.94779968 148.35072327 C-13.63329828 166.86020711 -14.34810885 189.79052056 -11.39701843 210.12025452 C-10.90201843 211.11025452 -10.90201843 211.11025452 -10.39701843 212.12025452 C-16.33701843 212.12025452 -22.27701843 212.12025452 -28.39701843 212.12025452 C-28.489682 187.6504544 -28.56103158 163.18069666 -28.60426712 138.7107563 C-28.62487725 127.34849696 -28.65296833 115.98634876 -28.69877625 104.62416077 C-28.73869132 94.71889574 -28.7644625 84.81371121 -28.77337241 74.90836799 C-28.77857922 69.66533876 -28.79078501 64.42253981 -28.81993866 59.1795845 C-28.84718147 54.240039 -28.85544551 49.30081765 -28.84944916 44.36120415 C-28.85054543 42.5528722 -28.85844631 40.74452889 -28.87384033 38.93626213 C-28.97465921 26.47757992 -28.2222195 16.29315221 -19.33451843 6.81166077 C-13.68142053 1.87659748 -7.39295702 -0.00582581 0 0 Z " fill="#AB39F0" transform="translate(88.39701843261719,84.87974548339844)"/>
<path d="M0 0 C121.77 0 243.54 0 369 0 C369 22.79310345 369 22.79310345 363.1875 31.8125 C354.92378981 40.07621019 345.97530613 42.32071028 334.43275738 42.40123022 C333.23138543 42.39453805 332.03001348 42.38784589 330.79223633 42.38095093 C328.84214897 42.38797089 328.84214897 42.38797089 326.8526659 42.39513266 C323.26878478 42.40758614 319.68514519 42.40149831 316.10126352 42.39217401 C312.2266217 42.3853605 308.35202018 42.3958761 304.47738647 42.40411377 C296.89671731 42.41742883 289.31613743 42.41458332 281.73546481 42.40587585 C275.57254732 42.39909093 269.40965478 42.39818607 263.24673462 42.4014473 C262.36841187 42.401907 261.49008913 42.40236669 260.58515054 42.40284032 C258.80065719 42.40379953 257.01616384 42.40477217 255.2316705 42.4057581 C238.5123892 42.41430547 221.79315732 42.40448811 205.07388413 42.388357 C190.73901 42.37495441 176.40420876 42.37728269 162.06933594 42.39111328 C145.4084322 42.40718063 128.74757174 42.41348156 112.08666134 42.40427649 C110.30886269 42.40332088 108.53106404 42.40237777 106.75326538 42.4014473 C105.87863531 42.40098447 105.00400525 42.40052164 104.10287124 42.40004479 C97.94988737 42.39745837 91.79693102 42.40181839 85.64395142 42.40888596 C78.14189539 42.41731399 70.63993349 42.41499345 63.13788819 42.39904372 C59.31282387 42.39117852 55.48791628 42.38803938 51.66285324 42.39799118 C47.51102123 42.4086295 43.35958238 42.39589672 39.20776367 42.38095093 C37.40570575 42.39098918 37.40570575 42.39098918 35.56724262 42.40123022 C25.08779999 42.32812643 16.01638459 40.70519228 8.1875 33.28125 C-1.60507068 22.99905078 0 15.09629093 0 0 Z " fill="#3367DC" transform="translate(60,304)"/>
<path d="M0 0 C26.00140476 0 49.26349358 2.42752786 71.85205078 15.6862793 C74.86211315 17.36683622 76.51016541 18.09083026 79.94921875 17.453125 C80.95597656 16.97359375 81.96273437 16.4940625 83 16 C83.59514404 15.72019287 84.19028809 15.44038574 84.8034668 15.15209961 C86.12661559 14.5230999 87.44449736 13.88292959 88.75756836 13.2331543 C110.97959304 2.25922005 130.68188343 0 156 0 C156 35.31 156 70.62 156 107 C147.09 108.32 138.18 109.64 129 111 C104.62521948 116.00201511 104.62521948 116.00201511 82.296875 126.80078125 C80 128 80 128 77.640625 127.9140625 C74.89573568 126.9639085 72.36595644 125.75803162 69.78881836 124.42285156 C48.27237868 113.36446824 23.79712131 109.64412459 0 107 C0 71.69 0 36.38 0 0 Z M13.96484375 27.96875 C13.64644531 28.6390625 13.32804687 29.309375 13 30 C14.68575818 33.24694376 14.68575818 33.24694376 17.79052734 33.73608398 C19.54550537 33.98853882 19.54550537 33.98853882 21.3359375 34.24609375 C23.27533203 34.54290039 23.27533203 34.54290039 25.25390625 34.84570312 C26.62741623 35.04427305 28.00111631 35.24153243 29.375 35.4375 C38.9331381 36.81172879 47.9088221 38.65189146 57 42 C58.99813589 42.67223314 60.99768054 43.34033249 63 44 C63.99 43.01 64.98 42.02 66 41 C64.56384064 37.31593903 63.06696843 36.12935595 59.5 34.5 C48.4471057 29.82266843 36.4065897 27.9839173 24.5625 26.5 C23.75167969 26.3863208 22.94085938 26.2726416 22.10546875 26.15551758 C17.58424681 25.56099184 17.58424681 25.56099184 13.96484375 27.96875 Z M91 38 C90.67 38.99 90.34 39.98 90 41 C90.99 41.99 91.98 42.98 93 44 C95.90301169 43.04386411 98.79411232 42.0759945 101.66162109 41.01757812 C110.48842267 37.83646498 119.44258165 36.47949785 128.69091797 35.21826172 C130.68416203 34.94217208 132.67421177 34.64331875 134.6640625 34.34375 C135.83404785 34.18068359 137.0040332 34.01761719 138.20947266 33.84960938 C141.12936067 33.28215286 141.12936067 33.28215286 142.39599609 30.91601562 C142.59531738 30.28373047 142.79463867 29.65144531 143 29 C141.7511573 27.4166747 141.7511573 27.4166747 140 26 C125.02216356 26 102.94742345 28.32683228 91 38 Z M14 56 C14.32041397 58.60280568 14.32041397 58.60280568 15 61 C16.07858276 61.17523193 16.07858276 61.17523193 17.17895508 61.35400391 C24.70302579 62.59032223 32.20177189 63.92466886 39.6875 65.375 C40.75033203 65.5709375 41.81316406 65.766875 42.90820312 65.96875 C48.74420393 67.10642813 53.80506767 68.52323686 59.07348633 71.31494141 C61.48619326 72.17288788 62.66784719 72.02653651 65 71 C65.495 69.515 65.495 69.515 66 68 C59.98763519 60.34789934 48.55058023 59.01383472 39.5625 57.3125 C37.97985352 56.99442383 37.97985352 56.99442383 36.36523438 56.66992188 C24.52187828 53.4110117 24.52187828 53.4110117 14 56 Z M106.625 59.4375 C105.86002197 59.63045654 105.09504395 59.82341309 104.30688477 60.0222168 C99.35898181 61.36586851 95.27114286 63.13601661 91 66 C90.67 66.99 90.34 67.98 90 69 C90.99 70.485 90.99 70.485 92 72 C95.39544025 71.40818911 98.32733189 70.51473283 101.5 69.1875 C113.27334386 64.79446125 126.48050025 63.11095848 138.91796875 61.6875 C141.19096915 61.18166551 141.19096915 61.18166551 142.30078125 58.9375 C142.53152344 58.298125 142.76226562 57.65875 143 57 C141.62514468 55.45833358 141.62514468 55.45833358 140 54 C128.93938551 54 117.28194525 56.68056919 106.625 59.4375 Z M15 83 C14.32041397 85.39719432 14.32041397 85.39719432 14 88 C16.40607972 90.40607972 17.28362366 90.34661323 20.59375 90.67578125 C21.53379883 90.77898682 22.47384766 90.88219238 23.44238281 90.98852539 C24.95590332 91.14889282 24.95590332 91.14889282 26.5 91.3125 C34.25442547 92.22188705 41.73312956 93.4305816 49.25 95.5625 C49.99314453 95.77237549 50.73628906 95.98225098 51.50195312 96.19848633 C54.72384224 97.15739994 57.18216045 98.1214403 60 100 C62.64632287 99.6878236 62.64632287 99.6878236 65 99 C65.33 98.01 65.66 97.02 66 96 C58.77313769 87.85899998 46.49262678 86.50592244 36.25 84.6875 C35.29246826 84.51605469 34.33493652 84.34460938 33.34838867 84.16796875 C27.18147895 83.14750278 21.24640532 82.79320484 15 83 Z M120.1875 84.75 C119.2291626 84.92974365 118.2708252 85.1094873 117.28344727 85.29467773 C103.45532281 87.83676733 103.45532281 87.83676733 91 94 C90.67 94.99 90.34 95.98 90 97 C90.99 98.485 90.99 98.485 92 100 C95.52756557 99.39527447 98.82637496 98.4305207 102.21459961 97.28613281 C112.3386172 93.89350323 122.77038723 91.6547974 133.43017578 90.80664062 C134.62682861 90.70899414 134.62682861 90.70899414 135.84765625 90.609375 C136.57090088 90.56264648 137.29414551 90.51591797 138.03930664 90.46777344 C140.4588455 89.8905307 141.41359601 88.86959006 143 87 C142.34 85.68 141.68 84.36 141 83 C133.84924286 82.75658641 127.20617792 83.40418104 120.1875 84.75 Z " fill="#4E5CE1" transform="translate(296,132)"/>
<path d="M0 0 C1.73828125 1.46875 1.73828125 1.46875 3.3125 3.5 C3.90417969 4.22058594 4.49585938 4.94117188 5.10546875 5.68359375 C5.73066406 6.44800781 6.35585937 7.21242187 7 8 C8.34883083 9.54409016 9.72353437 11.06601975 11.125 12.5625 C11.74632812 13.24441406 12.36765625 13.92632812 13.0078125 14.62890625 C14.94075899 16.24164265 14.94075899 16.24164265 17.50390625 15.96875 C20.52146377 14.79761656 21.7865769 13.44011089 23.8125 10.9375 C24.71935547 9.83728516 24.71935547 9.83728516 25.64453125 8.71484375 C26.09183594 8.14894531 26.53914063 7.58304688 27 7 C31.0612016 8.75067115 33.27390207 11.34031817 36.12109375 14.63671875 C37.92568687 16.19513765 37.92568687 16.19513765 40.30078125 16.18359375 C45.21095286 14.03050837 48.20306348 9.32791986 51.4765625 5.1953125 C55.7984844 0.16267455 55.7984844 0.16267455 59.19091797 -0.29663086 C61.54677062 -0.05933444 63.7112214 0.39869369 66 1 C67.29164063 1.25136719 68.58328125 1.50273437 69.9140625 1.76171875 C78.93957438 4.01334645 84.81972706 5.85544084 89.859375 14.0078125 C97.36683885 27.87490481 98.44036369 41.25625648 98.125 56.6875 C98.08979328 58.98775288 98.05910287 61.28795162 98.03366089 63.58833313 C98.00919062 65.64584367 97.97201515 67.70319168 97.93408203 69.76049805 C97.83995013 73.01462094 97.83995013 73.01462094 99 76 C90.42 76 81.84 76 73 76 C73 64.78 73 53.56 73 42 C71.68 42 70.36 42 69 42 C67.5791063 44.8417874 67.87020745 47.25983745 67.8671875 50.43359375 C67.86589844 51.72201172 67.86460937 53.01042969 67.86328125 54.33789062 C67.86537598 55.01053955 67.8674707 55.68318848 67.86962891 56.3762207 C67.87497009 58.42601965 67.86968454 60.47559859 67.86328125 62.52539062 C67.86457031 63.81509766 67.86585938 65.10480469 67.8671875 66.43359375 C67.86887939 68.21334595 67.86887939 68.21334595 67.87060547 70.02905273 C67.86620175 73.05635379 67.86620175 73.05635379 69 76 C42.27 76 15.54 76 -12 76 C-12 64.78 -12 53.56 -12 42 C-13.65 41.67 -15.3 41.34 -17 41 C-17 52.55 -17 64.1 -17 76 C-25.25 76 -33.5 76 -42 76 C-42.0464189 71.68046376 -42.08608486 67.36182519 -42.10986328 63.04223633 C-42.11979663 61.57899003 -42.13334793 60.11576289 -42.15087891 58.65258789 C-42.37212222 39.68422703 -40.41690609 22.01950703 -27.5625 7.1875 C-22.53227933 3.29009042 -15.09485975 2.40333114 -9 1 C-8.29101562 0.79890625 -7.58203125 0.5978125 -6.8515625 0.390625 C-4.43458088 -0.11928673 -2.46337576 -0.28197624 0 0 Z " fill="#6D51E6" transform="translate(124,221)"/>
<path d="M0 0 C1.08696671 -0.00671722 2.17393341 -0.01343445 3.2938385 -0.02035522 C6.88181144 -0.03932892 10.46959722 -0.0432593 14.05761719 -0.04541016 C16.55857418 -0.05183906 19.05953042 -0.05856749 21.56048584 -0.06558228 C26.80254322 -0.07755386 32.04455333 -0.08134908 37.28662109 -0.08007812 C42.658161 -0.07901079 48.02941297 -0.09307561 53.40087891 -0.12109375 C59.89823888 -0.15449744 66.39534049 -0.16818725 72.89278412 -0.16685867 C75.36301892 -0.16921237 77.83325662 -0.17802273 80.30344391 -0.19352341 C83.76639638 -0.2132172 87.2284377 -0.20733089 90.69140625 -0.1953125 C91.70266068 -0.20655151 92.7139151 -0.21779053 93.7558136 -0.22937012 C102.79413553 -0.15004775 110.84265329 2.26357064 117.56933594 8.51318359 C123.45706153 15.32976157 125.10449219 21.42425608 125.10449219 30.29052734 C72.63449219 30.29052734 20.16449219 30.29052734 -33.89550781 30.29052734 C-32.94066844 20.74213364 -31.54222522 14.12187579 -24.89550781 7.29052734 C-16.86444199 1.36201523 -9.83531969 -0.00874523 0 0 Z " fill="#0E75D6" transform="translate(198.8955078125,396.70947265625)"/>
<path d="M0 0 C27.39 0 54.78 0 83 0 C90 30 90 30 91 37 C58.66 37 26.32 37 -7 37 C-5.75101802 24.51018016 -2.72293575 12.25321086 0 0 Z " fill="#1C70D8" transform="translate(203,353)"/>
<path d="M0 0 C3.56110203 -0.14244408 6.42180007 -0.2063884 9.80151367 1 C13.40732782 2.12735018 16.27959562 2.19731516 20.05078125 2.125 C20.7090239 2.11742676 21.36726654 2.10985352 22.04545593 2.10205078 C24.83263052 2.06971013 27.61919243 2.01358317 30.40600586 1.95898438 C50.18416629 1.60551225 50.18416629 1.60551225 54.77026367 5.50537109 C55.75216953 6.5386322 56.71221369 7.59314198 57.6484375 8.66796875 C59.55922426 10.55114299 61.37556616 10.84562154 64 11 C64.28875 10.360625 64.5775 9.72125 64.875 9.0625 C66 7 66 7 68 6 C68.10841951 7.91541138 68.18578079 9.83259773 68.25 11.75 C68.29640625 12.81734375 68.3428125 13.8846875 68.390625 14.984375 C68 18 68 18 66.359375 20.265625 C64 22 64 22 60.90234375 22.87109375 C57.76386274 23.72665261 57.76386274 23.72665261 56.56640625 26.72265625 C56.23511719 27.82480469 55.90382813 28.92695313 55.5625 30.0625 C52.48206532 38.98786202 48.24646469 45.20255522 40 50 C35.74738725 50.75055383 31.53901724 50.74329305 27.22436523 50.74121094 C25.20016081 50.74994537 23.18476629 50.82256631 21.16210938 50.8984375 C14.4601643 50.93838948 9.92055651 50.72374823 4.7265625 46.23046875 C0.30351093 41.68375161 -2.73523797 36.52772189 -4.87109375 30.5703125 C-6.53223646 25.85311296 -6.53223646 25.85311296 -10.21484375 22.6875 C-12.64882813 21.66275493 -12.64882813 21.66275493 -15.07421875 20.94921875 C-17 20 -17 20 -17.765625 18.22265625 C-18.03038383 15.71185998 -18.0957216 13.27484191 -18.0625 10.75 C-18.05347656 9.85796875 -18.04445313 8.9659375 -18.03515625 8.046875 C-18.02355469 7.37140625 -18.01195313 6.6959375 -18 6 C-17.34 6 -16.68 6 -16 6 C-14.375 8 -14.375 8 -13 10 C-8.07710011 9.56562648 -5.51249175 7.356381 -2 4 C-0.62745412 1.85019503 -0.62745412 1.85019503 0 0 Z M4 9 C3.34 10.32 2.68 11.64 2 13 C3.05872144 14.62774808 3.05872144 14.62774808 5 16 C8.36014194 16.43988875 8.36014194 16.43988875 12.0625 16.3125 C13.31160156 16.30863281 14.56070313 16.30476563 15.84765625 16.30078125 C19.09607867 16.32841879 19.09607867 16.32841879 21 14 C20.59471099 11.21762345 20.59471099 11.21762345 19 9 C16.46950598 8.92686433 13.96695163 8.90752473 11.4375 8.9375 C10.37112305 8.94426758 10.37112305 8.94426758 9.28320312 8.95117188 C7.52209987 8.96299136 5.76103964 8.98092737 4 9 Z M30 10 C30.37904208 13.29075996 30.37904208 13.29075996 32 16 C34.30993382 16.12557162 36.62418536 16.17575729 38.9375 16.1875 C40.83822266 16.20876953 40.83822266 16.20876953 42.77734375 16.23046875 C46.08943999 16.34713697 46.08943999 16.34713697 48 14 C47.59471099 11.21762345 47.59471099 11.21762345 46 9 C43.68925832 8.90067608 41.37537058 8.87030382 39.0625 8.875 C37.79535156 8.87242187 36.52820313 8.86984375 35.22265625 8.8671875 C32.10845111 8.77493931 32.10845111 8.77493931 30 10 Z " fill="#A83AF0" transform="translate(127,143)"/>
<path d="M0 0 C1.10453522 -0.0066568 2.20907043 -0.0133136 3.34707642 -0.02017212 C5.67863302 -0.03027631 8.0102184 -0.03498983 10.34179688 -0.03466797 C13.89501938 -0.03903907 17.44699717 -0.07537862 21 -0.11328125 C23.27082911 -0.11915037 25.54166409 -0.12311913 27.8125 -0.125 C29.3956752 -0.14655655 29.3956752 -0.14655655 31.01083374 -0.16854858 C39.09448249 -0.11886185 44.15091496 1.73376914 50.51953125 6.625 C54.41177238 11.80704537 53.04128671 19.53809926 52.8515625 25.7109375 C52.82645637 27.12886708 52.80364725 28.54683929 52.78320312 29.96484375 C52.72837074 33.42276738 52.64222861 36.87907938 52.5390625 40.3359375 C50.5590625 41.3259375 50.5590625 41.3259375 48.5390625 42.3359375 C47.9409375 41.7171875 47.3428125 41.0984375 46.7265625 40.4609375 C37.81874153 34.52239018 25.50910572 36.16809996 15.28027344 36.37695312 C13.31979938 36.41334688 11.35910646 36.43726745 9.3984375 36.4609375 C8.24827148 36.48414063 7.09810547 36.50734375 5.91308594 36.53125 C2.20924931 36.31684556 -0.9299056 35.44161416 -4.4609375 34.3359375 C-8.31638588 33.94842225 -12.95374572 33.58234161 -16.4609375 35.3359375 C-17.15752113 36.99032363 -17.82190633 38.65848068 -18.4609375 40.3359375 C-20.5859375 42.1484375 -20.5859375 42.1484375 -22.4609375 43.3359375 C-25.50029224 39.99878435 -25.84529797 37.70973788 -25.859375 33.25 C-25.86324219 32.07179687 -25.86710937 30.89359375 -25.87109375 29.6796875 C-25.85949219 28.4525 -25.84789063 27.2253125 -25.8359375 25.9609375 C-25.84753906 24.74148437 -25.85914062 23.52203125 -25.87109375 22.265625 C-25.86722656 21.08484375 -25.86335938 19.9040625 -25.859375 18.6875 C-25.85599121 17.61322754 -25.85260742 16.53895508 -25.84912109 15.43212891 C-25.25480764 10.69182499 -23.55834905 7.40368928 -20.1484375 4.0859375 C-13.71409416 -0.10386747 -7.43682287 0.01562224 0 0 Z " fill="#C72EF5" transform="translate(138.4609375,102.6640625)"/>
<path d="M0 0 C10.89 0 21.78 0 33 0 C33 8 33 8 31.70239258 9.84204102 C31.10579834 10.22545654 30.5092041 10.60887207 29.89453125 11.00390625 C29.24033203 11.43380859 28.58613281 11.86371094 27.91210938 12.30664062 C27.21923828 12.72107422 26.52636719 13.13550781 25.8125 13.5625 C25.13896484 14.01173828 24.46542969 14.46097656 23.77148438 14.92382812 C20.92055129 16.72895551 18.87814882 17.97831731 15.46875 18.0625 C11.95072056 16.54841138 8.85983227 14.57090162 5.6875 12.4375 C5.04232422 12.01275391 4.39714844 11.58800781 3.73242188 11.15039062 C2.15026046 10.10733607 0.57447499 9.05462128 -1 8 C-0.67 5.36 -0.34 2.72 0 0 Z " fill="#9044EC" transform="translate(136,200)"/>
<path d="M0 0 C0.47855444 3.02777715 0.60488658 5.14937825 -1.21875 7.71386719 C-2.91975017 9.50993527 -4.67857412 11.2012573 -6.5 12.875 C-7.12003906 13.46796875 -7.74007812 14.0609375 -8.37890625 14.671875 C-9.90606773 16.12855211 -11.45133343 17.56620705 -13 19 C-14.98 17.35 -16.96 15.7 -19 14 C-17.6645533 10.88009164 -16.4229644 9.28240736 -13.59375 7.421875 C-12.93246094 6.98359375 -12.27117187 6.5453125 -11.58984375 6.09375 C-10.90019531 5.6503125 -10.21054688 5.206875 -9.5 4.75 C-8.81035156 4.29109375 -8.12070313 3.8321875 -7.41015625 3.359375 C-2.28111049 0 -2.28111049 0 0 0 Z " fill="#8249E9" transform="translate(177,211)"/>
<path d="M0 0 C6.70629026 3.51513281 12.87088942 7.55991363 19 12 C17.02 14.31 15.04 16.62 13 19 C7.51340132 15.00974641 1.44973367 9.4976893 -1 3 C-0.67 2.01 -0.34 1.02 0 0 Z " fill="#8E44EC" transform="translate(128,211)"/>
</svg>
